<?xml version="1.0" encoding="UTF-8"?>
<svg id="Layer_1" data-name="Layer 1" xmlns="http://www.w3.org/2000/svg" viewBox="0 0 3226.1 1353.87">
  <defs>
    <style>
      .cls-1 {
        stroke: #9f1c20;
      }

      .cls-1, .cls-2, .cls-3, .cls-4 {
        fill: none;
        stroke-miterlimit: 10;
      }

      .cls-2 {
        stroke: #efd68d;
      }

      .cls-3, .cls-4 {
        stroke: #fff;
      }

      .cls-4 {
        stroke-width: 13.17px;
      }

      .cls-5 {
        fill: #718e82;
      }

      .cls-5, .cls-6 {
        stroke-width: 0px;
      }

      .cls-6 {
        fill: #efd68d;
      }
    </style>
  </defs>
  <path class="cls-4" d="m1788.52,685.19c8.4-4.68,16.8-9.32,25.16-14"/>
  <path class="cls-4" d="m1907.36,687.25c-2.98-.85-5.97-1.69-8.95-2.54"/>
  <path class="cls-4" d="m1823.85,675.36c4.97-2.54,9.95-5.12,14.92-7.66"/>
  <path class="cls-4" d="m1851.11,660.36c5.97-3.02,11.9-6,17.87-9.02"/>
  <path class="cls-4" d="m1804.29,696.72c16.72-6.67,33.19-13.96,49.4-21.81"/>
  <path class="cls-4" d="m1835.71,697.31c13.08-4.05,26.19-8.07,39.27-12.12"/>
  <path class="cls-4" d="m1860.91,700c7.85-.66,15.54-2.8,22.62-6.26"/>
  <path class="cls-4" d="m1831.55,709.06c-6.11,2.14-12.19,4.31-18.31,6.45"/>
  <path class="cls-4" d="m1806.79,731.57c11.35-1.33,22.73-2.62,34.07-3.94"/>
  <path class="cls-4" d="m1840.5,717.2c13.78-1.99,27.55-3.98,41.33-5.97"/>
  <path class="cls-4" d="m1862.64,725.56c8.8,0,17.61-.04,26.41-.04"/>
  <path class="cls-4" d="m1870.7,737.53c5.53-.15,11.09-.29,16.61-.44"/>
  <path class="cls-4" d="m1849.85,744.9c-11.6.15-23.17.29-34.77.41-2.39.04-5.23-.15-6.56-2.17"/>
  <path class="cls-4" d="m1851.14,750.46c10.57.04,21.11.07,31.68.15"/>
  <path class="cls-4" d="m1833.87,752.53c-5.41-.11-10.83-.18-16.24-.29"/>
  <path class="cls-4" d="m1820.5,764.46c20.59.26,41.22.48,61.81.74"/>
  <path class="cls-4" d="m1842.08,774.07c13.41,2.84,27.18,4.05,40.89,3.61"/>
  <path class="cls-4" d="m1828.86,783.95c8.88,2.03,17.83,3.79,26.82,5.34"/>
  <path class="cls-4" d="m1874.09,790.98c4.46.77,8.95,1.55,13.41,2.36"/>
  <path class="cls-4" d="m1826.83,795c18.71,4.79,37.54,9.06,56.47,12.86"/>
  <path class="cls-4" d="m1825.99,801.92c16.8,5.82,33.34,12.3,49.58,19.45"/>
  <path class="cls-4" d="m1823.63,809.69c15.58,6.04,30.79,13.08,45.49,21.07"/>
  <path class="cls-4" d="m1800.72,817.1c7.4,3.98,14.96,7.74,22.62,11.23"/>
  <path class="cls-4" d="m1818.54,817.14c16.5,7.55,32.71,15.73,48.59,24.5"/>
  <path class="cls-4" d="m1845.43,839.09c6.08,3.17,12.16,6.37,18.27,9.54"/>
  <path class="cls-4" d="m1809,834.01c13.74,9.02,27.88,17.42,42.4,25.12"/>
  <path class="cls-4" d="m1788.49,829.33c2.91,1.66,5.82,3.35,8.69,5.01"/>
  <path class="cls-4" d="m1803.55,809.22c2.84,1.18,5.71,2.36,8.55,3.54"/>
  <path class="cls-4" d="m1807.24,789.14c3.39,1.62,6.81,3.24,10.2,4.86"/>
  <path class="cls-4" d="m1808.93,775.73c2.84.18,5.71.33,8.55.52"/>
  <path class="cls-4" d="m1799.39,705.86c2.69-.44,5.38-.88,8.03-1.33"/>
  <path class="cls-4" d="m1796.7,848.26c4.24,3.35,8.47,6.7,12.75,10.06"/>
  <path class="cls-4" d="m1830.55,857.32c6.63,5.19,13.3,10.39,19.93,15.58"/>
  <path class="cls-4" d="m1818.66,865.17c6.56,5.97,13.08,11.93,19.63,17.9"/>
  <path class="cls-4" d="m1790.95,854.63c12.49,11.27,24.46,23.17,35.8,35.58"/>
  <path class="cls-4" d="m1769.41,851.1c2.25,2.36,4.46,4.68,6.7,7.04"/>
  <path class="cls-4" d="m1790.66,873.05c3.17,2.95,6.37,5.93,9.54,8.88"/>
  <path class="cls-4" d="m1813.46,896.18c4.09,4.2,8.47,8.1,13.08,11.71"/>
  <path class="cls-4" d="m1783.96,875.41c3.68,3.57,7.37,7.15,11.05,10.72"/>
  <path class="cls-4" d="m1800.57,900.68c3.02,3.13,6.04,6.26,9.06,9.36"/>
  <path class="cls-4" d="m1789.33,904.55c4.16,4.13,8.14,8.44,11.9,12.89"/>
  <path class="cls-4" d="m1775.59,884.1c2.06,3.32,4.13,6.59,6.19,9.91l-22.1-34.51"/>
  <path class="cls-4" d="m1761.74,884.07c2.39,3.02,4.83,6,7.22,9.02"/>
  <path class="cls-4" d="m1779.09,910.96c1.66,5.05,4.71,9.61,8.77,13.04"/>
  <path class="cls-4" d="m1756.33,902.7c8.91,10.31,16.76,21.55,23.35,33.45"/>
  <path class="cls-4" d="m1757.62,929.89c1.69,4.71,3.39,9.43,5.08,14.14"/>
  <path class="cls-4" d="m1743.58,905.32c2.91,4.24,5.38,8.8,7.26,13.59"/>
  <path class="cls-4" d="m1736.4,914.79c4.53,11.97,9.8,23.69,15.77,34.99"/>
  <path class="cls-4" d="m1746.42,870.22c2.03,3.35,3.79,6.85,5.27,10.46"/>
  <path class="cls-4" d="m1738.72,876.85c3.32,4.46,5.89,9.47,7.55,14.77"/>
  <path class="cls-4" d="m1720.75,882.45c.92,6.26,1.4,12.6,1.47,18.93"/>
  <path class="cls-4" d="m1728.63,880.86c.44,4.38.88,8.73,1.36,13.11"/>
  <path class="cls-4" d="m1702.51,919.65c-.04,5.12-.07,10.2-.15,15.32"/>
  <path class="cls-4" d="m1719.09,941.16c.11,6.93.22,13.81.33,20.74"/>
  <path class="cls-4" d="m1735,940.42c-.37,3.24-.77,6.48-1.14,9.72"/>
  <path class="cls-4" d="m1710.43,951c-.52,2.06-1.03,4.09-1.58,6.15"/>
  <path class="cls-4" d="m1690.73,927.16c.04,10.42.99,20.85,2.87,31.09"/>
  <path class="cls-4" d="m1681,943.92c-.37,4.68-.74,9.32-1.07,14"/>
  <path class="cls-4" d="m1667.15,947.57c-.07,4.42-.15,8.84-.26,13.26"/>
  <path class="cls-4" d="m1680.96,925.03c-.04-6.26.29-12.49.96-18.71"/>
  <path class="cls-4" d="m1668.37,887.05c-.44,5.64-.88,11.23-1.33,16.87"/>
  <path class="cls-4" d="m1652.45,885.54c-.74,3.39-1.51,6.78-2.25,10.17"/>
  <path class="cls-4" d="m1641.88,883.18c-2.1,8.29-4.24,16.61-6.34,24.9"/>
  <path class="cls-4" d="m1644.87,912.5c-2.58,7.85-4.46,15.99-5.53,24.2"/>
  <path class="cls-4" d="m1656.69,921.16c-1.84,14.44-3.65,28.92-5.49,43.36"/>
  <path class="cls-4" d="m1688.18,888.01c-.11,1.92-.22,3.79-.37,5.71"/>
  <path class="cls-4" d="m1640.22,948.49c-1.29,3.35-2.54,6.7-3.83,10.02"/>
  <path class="cls-4" d="m1610.68,946.76c-.48,1.33-.99,2.62-1.47,3.94"/>
  <path class="cls-4" d="m1632.86,922.74c-4.46,11.46-8.73,22.95-12.86,34.51"/>
  <path class="cls-4" d="m1619.78,915.56c-1.84,5.75-3.65,11.53-5.49,17.28"/>
  <path class="cls-4" d="m1605.6,918.91c-3.98,7.99-7.48,16.28-10.39,24.72"/>
  <path class="cls-4" d="m1611.6,890.07c-2.47,4.2-4.94,8.4-7.37,12.6"/>
  <path class="cls-4" d="m1596.21,915.01c-3.39,5.3-6.48,10.87-9.21,16.54"/>
  <path class="cls-4" d="m1602.17,862.66c-1.44,2.25-2.91,4.49-4.35,6.74"/>
  <path class="cls-4" d="m1609.72,867.08c-1.44,2.25-2.91,4.49-4.35,6.74"/>
  <path class="cls-4" d="m1611.79,979.18c9.17,4.24,18.68,7.74,28.4,10.39"/>
  <path class="cls-4" d="m1747.34,981.72c7.18-2.69,14.37-5.34,21.55-8.03"/>
  <path class="cls-4" d="m1797.77,959.43c14.92-4.9,28.55-13.67,39.19-25.23"/>
  <path class="cls-4" d="m1869.97,898.65c10.02-12.49,18.9-25.82,26.6-39.89"/>
  <path class="cls-4" d="m1909.79,829.77c.81-9.87,1.62-19.74,2.43-29.62.33-3.94.85-8.29,3.9-10.83"/>
  <path class="cls-4" d="m1917.93,767.52c-1.69-9.58-2.76-19.3-3.2-29.03"/>
  <path class="cls-4" d="m1908.13,714.84c-1.18-6.3-2.95-12.49-5.34-18.42"/>
  <path class="cls-4" d="m1935.98,697.68c.63,6.74,1.29,13.48,1.92,20.22"/>
  <path class="cls-4" d="m1934.5,747.81c2.06,9.76,1.69,20-1.07,29.58"/>
  <path class="cls-4" d="m1927.8,824.28c-8.84,23.17-18.68,46.04-31.64,67.19-8.91,14.55-19.3,28.18-30.91,40.7"/>
  <path class="cls-4" d="m1953.69,736.28c-1.84,48.37-13.63,96.29-34.48,139.98"/>
  <path class="cls-4" d="m1970.86,712.19c1.58,15.18,1.44,30.54-.48,45.64"/>
  <path class="cls-4" d="m1969.28,810.87c-3.68,11.68-7.37,23.35-11.05,35.07"/>
  <path class="cls-4" d="m1992.78,747.7c5.56,27.77.15,56.43-5.27,84.24"/>
  <path class="cls-4" d="m2016.43,751.94c1.44,11.31,1.07,22.87-1.07,34.07"/>
  <path class="cls-4" d="m1948.35,704.93c.44,4.68.44,9.39-.07,14.07"/>
  <g>
    <path class="cls-3" d="m101.9,765.82c68.07,3.76,758.44,15.18,826.52,18.93,100.75,5.56,205.36,10.53,298.85-27.48,138.65-56.43,240.61-202.56,390.01-211.69,49.76-3.02,99.12,10.24,145.94,27.33,51.42,18.79,101.11,42.4,148.19,70.36,81.59,48.48,157.77,111.13,250.11,133.01,50.06,11.86,102.14,10.94,153.6,9.95,108.41-2.1,779.55,20.33,887.96,18.23"/>
    <path class="cls-3" d="m2151.94,791.31c-48.84,11.97-89.62,45.12-125.46,80.41-35.84,35.29-69.03,74.04-110.91,101.89-41.03,27.3-88.66,42.95-136.29,55.62-38.94,10.39-78.83,19.04-119.13,18.12-70.21-1.58-136.4-31.97-197.7-66.23-95.44-53.34-184.99-117.62-263.48-193.68"/>
    <path class="cls-3" d="m1338.39,865.68c-30.61-16.28-65.05-38.01-68.11-72.57,36.8,6.52,61.26,40.19,87.04,67.26,56.98,59.78,134.41,95.04,210.59,126.97,40.26,16.87,82.25,33.52,125.87,31.97,32.86-1.18,64.35-12.6,95.22-23.91,50.61-18.57,102.11-37.57,144.76-70.54,45.38-35.1,77.94-83.8,109.7-131.58"/>
    <path class="cls-5" d="m1542.17,815.55c.11-5.56.33-11.46,3.28-16.17,1.25-1.99,2.91-3.65,4.71-5.16,7.66-6.3,18.38-9.14,27.81-6.15,9.43,2.98,16.87,12.3,16.43,22.21-.33,7.74-5.34,14.88-12.08,18.75-6.74,3.87-14.92,4.68-22.54,3.24-4.6-.88-9.17-2.62-12.67-5.75-3.54-3.09-5.01-7.66-4.94-10.98Z"/>
    <path class="cls-6" d="m1511.74,722.47c-1.07-7.85-2.14-15.73-3.17-23.57-.26-1.88-.52-3.76-.11-5.64.41-1.88,1.44-3.57,2.43-5.19,2.25-3.65,4.53-7.33,7.55-10.35,4.09-4.13,9.28-6.89,14.4-9.58,14.18-7.48,30.32-15.03,45.68-10.42,8.4,2.5,15.51,8.55,20.19,15.99,4.68,7.44,7.04,16.13,7.77,24.9.44,5.19.29,10.46-.99,15.51-2.14,8.32-7.33,15.62-13.44,21.66-10.83,10.65-25.71,18.16-40.85,16.69-10.61-1.03-20.66-6.52-27.66-14.55-7-8.03-10.98-18.64-11.79-15.43Z"/>
    <path class="cls-3" d="m1577.57,916.44c-2.84,4.2-5.67,8.36-8.47,12.56"/>
    <path class="cls-3" d="m1570.38,909.45c-3.2,4.27-6.37,8.55-9.58,12.82"/>
    <path class="cls-3" d="m1569.32,890.81c-4.49,9.65-12.86,16.94-18.49,25.97"/>
    <path class="cls-3" d="m1547.1,896.7c-2.5,2.58-5.01,5.16-7.48,7.74"/>
    <path class="cls-3" d="m1539.33,885.24c-3.61,3.65-7.4,7.04-11.42,10.24"/>
    <path class="cls-3" d="m1537.67,868.34c-5.34,6.23-10.9,12.27-16.72,18.05"/>
    <path class="cls-3" d="m1529.28,861.85c-5.05,3.79-9.87,7.88-14.4,12.27"/>
    <path class="cls-3" d="m1572.96,854.63c-1.62,2.03-3.24,4.02-4.86,6.04"/>
    <path class="cls-3" d="m1533.07,841.41c-7.37,8.51-16.35,15.62-26.34,20.81"/>
    <path class="cls-3" d="m1524.89,831.8c-7.55,6.34-15.69,11.97-24.24,16.87"/>
    <path class="cls-3" d="m1520.8,821.52c-4.16,2.54-8.77,4.31-13.56,5.19"/>
    <path class="cls-3" d="m1520.91,808.3c-11.46,5.01-23.02,9.72-34.74,14.11"/>
    <path class="cls-3" d="m1527.14,798.2c-2.14.41-4.31.81-6.45,1.18"/>
    <path class="cls-3" d="m1500.14,802.22c-5.64,1.58-11.27,3.17-16.87,4.75"/>
    <path class="cls-3" d="m1526.99,785.13c-14.7,3.9-29.36,7.96-43.98,12.19"/>
    <path class="cls-3" d="m1524.34,773.52c-6.96.96-14-.59-21-.74-8.21-.18-16.47,1.62-23.87,5.19"/>
    <path class="cls-3" d="m1497.82,763.5c-6.48.18-13-.41-19.34-1.77"/>
    <path class="cls-3" d="m1509.42,750.32c-9.95.37-20.08.74-29.58,3.79"/>
    <path class="cls-3" d="m1488.68,735.95c-4.31.7-8.69,1.11-13.08,1.14"/>
    <path class="cls-3" d="m1491.15,721.69c-3.28-.07-6.56-.41-9.76-.96"/>
    <path class="cls-3" d="m1492.11,709.61c-2.95.11-5.89.18-8.8.29"/>
    <path class="cls-3" d="m1494.24,694.66c-2.98.22-5.93.44-8.91.66"/>
    <path class="cls-3" d="m1495.94,684.01c-2.25-.92-4.6-1.66-6.96-2.21"/>
    <path class="cls-3" d="m1501.39,670.01c-2.65-.41-5.16-1.62-7.11-3.46"/>
    <path class="cls-3" d="m1509.83,658.19c-2.84-.81-5.53-2.14-7.92-3.87"/>
    <path class="cls-3" d="m1520.36,651.49c-2.47-2.25-5.34-4.02-8.44-5.23"/>
    <path class="cls-3" d="m1469.27,656.72c-2.69,4.35-5.41,8.73-8.1,13.08"/>
    <path class="cls-3" d="m1455.27,689.65c-1.92,12.23-2.95,24.61-3.02,36.98"/>
    <path class="cls-3" d="m1448.38,746.93c0,11.57,0,23.17.04,34.74"/>
    <path class="cls-3" d="m1450.26,796.99c1.62,7.51,3.24,15.07,4.86,22.58"/>
    <path class="cls-3" d="m1462.68,837.54c2.5,11.2,7.88,21.77,15.51,30.32"/>
    <path class="cls-3" d="m1487.72,884.07c9.72,15.95,19.71,32.23,34.18,44.09,6.93,5.67,14.7,10.2,22.4,14.7"/>
    <path class="cls-3" d="m1561.43,948.38c6.19,7.74,13.89,14.29,22.51,19.19"/>
    <path class="cls-3" d="m1445.58,660.84c-1.58,7.07-3.2,14.18-4.79,21.25"/>
    <path class="cls-3" d="m1429.05,729.84c-.7,26.56,1.47,53.19,6.37,79.27.74,3.98,1.62,8.1,4.13,11.31"/>
    <path class="cls-3" d="m1426.5,846.31c2.98,12.63,7.62,24.9,13.74,36.36"/>
    <path class="cls-3" d="m1481.79,935.3c-8.36-9.25-15.8-19.34-22.1-30.06"/>
    <path class="cls-3" d="m1432.91,907.82c-5.75-13.56-17.28-25.16-18.12-39.86"/>
    <path class="cls-3" d="m1390.96,793.89c-2.65-31.13-2.17-62.47,1.47-93.49"/>
    <path class="cls-3" d="m1410.15,777.39c-1.66-32.16.88-64.5,7.55-95.99"/>
    <path class="cls-3" d="m1393.2,873.42c-3.79-9.43-6.04-19.45-6.7-29.62"/>
    <path class="cls-3" d="m1371.47,791.2c-.99-12.16-1.47-24.35-1.44-36.58"/>
    <path class="cls-3" d="m1371.55,729.47c2.1-8.03,3.2-16.32,3.28-24.64"/>
    <path class="cls-3" d="m1364.03,844.06c-1.8-5.93-3.09-12.05-3.79-18.2"/>
    <path class="cls-3" d="m1352.58,775.92c-.92-8.91-1.14-17.94-.66-26.89"/>
    <path class="cls-3" d="m1353.57,727.15c.11-3.65.22-7.29.33-10.94"/>
    <path class="cls-3" d="m1335.12,737.87c-.15,7.18-.33,14.37-.48,21.55"/>
    <path class="cls-3" d="m1330.11,782.99c.11,7.66.52,15.32,1.25,22.95"/>
    <path class="cls-3" d="m1315.74,753.12c-.18,8.07-.41,16.13-.59,24.24"/>
    <path class="cls-2" d="m124.88,710.09c109.62,27.37,443.61,30.5,681.6,24.16,237.99-6.34,379.96,3.65,473.89-59.16,43.5-29.06,180.49-125.13,228.45-146.09,87.04-38.05,188.56-30.43,278.51.26,89.92,30.65,170.81,82.55,251.22,133.16,42.8,26.93,86.45,53.96,135.08,67.74,53.52,15.18,110.14,13.52,165.72,11.75,106.38-3.39,776.42,17.79,882.8,14.4"/>
    <path class="cls-2" d="m124.88,662.61c126.2-14.44,867.15,23.72,989.88-8.88,41.11-10.9,79.64-29.69,117.54-48.95,131.65-66.97,268.05-143.77,415.65-137.58,72.42,3.06,142.41,26.23,210.11,52.01,49.73,18.93,99.2,39.56,143.88,68.44,28.33,18.27,54.96,39.97,86.45,51.97,26.23,9.98,54.52,12.75,82.47,15.14,161.19,13.74,893.41,47.52,1055.12,41.99"/>
    <path class="cls-3" d="m124.88,568.16c141.78,18.9,895.07,57.57,1026.86,1.95,34.99-14.77,67.7-34.4,101.63-51.5,222.45-112.13,499.71-107.89,718.59,11.01,30.79,16.72,60.56,35.58,93.08,48.59,53.19,21.25,111.32,25.9,168.41,30.32,142.11,11.01,850.31,43.39,992.53,34"/>
    <path class="cls-3" d="m124.88,503.3c100.3-4.13,825.37,51.61,923.95,32.53,54.41-10.53,104.69-35.58,155.63-57.43,127.71-54.74,264.63-90.5,403.53-93.93,138.91-3.43,279.95,26.45,400.37,95.77,23.98,13.81,47.19,29.14,72.6,40.08,49.8,21.4,105.24,24.72,159.39,27.3,153.24,7.26,828.39,20.48,981.78,20.63"/>
    <path class="cls-2" d="m3226.03,881.34c-148.63-16.39-866.37-57.94-1015.7-50.76-37.09,1.77-75.44,4.68-108.11,22.32-40,21.66-65.6,62.14-98.35,93.71-45.82,44.17-105.72,70.76-166.17,90.65-58.53,19.27-119.9,33.23-181.42,29.32-96.91-6.11-185.06-55.44-269.42-103.54-46.56-26.56-93.12-53.12-139.68-79.68-27.59-15.73-55.55-31.64-86.23-39.86-30.43-8.14-62.29-8.44-93.78-8.66-113.53-.81-828.8,5.67-942.33,4.9"/>
    <path class="cls-3" d="m3226.03,942.12c-129.22-5.67-807.25-55.33-936.47-61.04-27.33-1.22-55.07-2.36-81.81,3.57-37.68,8.4-70.72,30.35-103.14,51.31-112.02,72.42-233.02,139.57-365.85,152.06-139.75,13.15-279.4-36.39-398.86-110.1-40.15-24.75-79.34-52.67-124.54-66.16-32.53-9.72-641.45-3.54-675.38-5.27-130.47-6.63-260.91-13.3-391.38-19.93"/>
    <path class="cls-3" d="m124.88,980.65c205.62-2.47,1017.47-25.38,1210.45,45.75,50.91,18.75,99.93,42.4,151.36,59.67,228.53,76.77,485.2,19.45,695.09-99.2,28.25-15.99,56.36-33.19,87.67-41.59,34.22-9.17,70.28-7.26,105.64-5.3,100.19,5.56,746.84,62.18,847.03,67.78"/>
    <path class="cls-3" d="m3226.03,1067.29c-125.28-17.05-835.69-85.53-956.73-48.99-31.09,9.36-61,22.14-91.5,33.23-96.66,35.21-198.47,53.85-300.25,68.96-114.37,16.98-231.4,29.65-345.11,8.73-24.5-4.49-247.79-50.32-405.34-61.92-178.98-13.22-382.61-37.65-382.61-37.65,0,0-386.85-12.08-603.29,17.05"/>
    <path class="cls-3" d="m3222.16,1120.99c-255.42-36.61-870.76-43.98-1015.74-25.42-64.68,8.29-127.12,28.47-189.56,47.22-94.19,28.25-190.51,53.56-288.83,54.81-133.42,1.73-262.86-40.74-393.66-67.11-202.52-40.81-1006.13-26.78-1209.46,9.61"/>
    <path class="cls-3" d="m124.88,1238.72c110.51-7.4,822.87-55.33,933.38-62.73,56.51-3.79,113.27-7.59,169.7-3.17,135.33,10.61,263.23,67.74,398.01,83.84,147.53,17.61,297.34-14.99,436.06-68.18,31.46-12.05,62.77-25.23,95.81-31.97,38.49-7.81,78.16-6.63,117.43-5.38,146.35,4.6,800.51,27.66,946.86,32.27"/>
    <path class="cls-3" d="m3226.03,1274.38c-95.44-7.81-777.86-37.68-873.26-45.49-49.62-4.05-99.38-8.1-149.07-5.3-51.16,2.91-101.59,13.04-152.02,22.17-82.03,14.88-164.51,27.26-247.28,37.02-92.42,10.94-186.83,18.57-278-.07-44.31-9.06-87.15-24.2-131.25-34.37-95.99-22.1-195.67-20.08-294.13-17.5-125.35,3.28-250.74,7.22-376.02,11.82-1.88.07-600.75,34.51-600.09,36.25"/>
    <path class="cls-1" d="m3222.16,1341.49c-164.84,12.63-889.87-75.03-1052.47-45.12-50.43,9.28-98.94,26.85-148.96,38.09-87.12,19.6-177.33,19.74-266.62,18.45-65.64-.96-131.5-2.65-196.26-13.41-52.38-8.69-103.66-23.21-156.07-31.72-82.84-13.41-167.31-11.57-251.18-9.69-143.25,3.2-882.43,39.56-1025.69,42.8"/>
  </g>
</svg>