<svg xmlns="http://www.w3.org/2000/svg" width="621" height="569" viewBox="0 0 621 569" fill="none"><path d="M159.03 333.871C135.06 286.422 86.2772 217.752 102.252 160.093C112.635 122.616 150.834 89.1515 180.919 67.5376C245.39 21.2181 331.803 16.2109 404.252 46.7598C488.078 82.1064 519.321 173.401 509.474 258.982C499.113 349.033 427.723 428.626 338.307 445.926C259.757 461.125 170.382 417.479 117.307 361.149C86.9959 328.978 65.3735 288.94 56.0852 245.649C47.8024 207.044 57.018 176.25 77.5852 143.315C128.078 62.4604 219.091 11.7047 315.141 24.482C361.18 30.6065 414.13 45.7033 445.03 82.9265C471.935 115.337 486.28 149.467 497.474 190.26C511.169 240.165 521.697 308.978 488.474 355.204C441.135 421.072 323.56 417.091 257.474 394.093C182.678 368.064 106.093 298.473 118.474 212.093C131.131 123.792 220.557 56.7029 308.03 61.982C402.525 67.685 512.006 143.546 521.363 243.426C526.03 293.245 513.459 348.574 481.474 387.871C445.123 432.533 383.117 465.958 327.03 476.426C233.09 493.96 165.92 430.463 138.307 345.426C105.858 245.496 171.174 130.806 268.696 96.7598C358.276 65.4867 490.377 76.2115 559.363 148.76C594.42 185.627 601.366 240.378 589.807 288.426C573.896 354.567 516.041 405.066 459.752 437.982C361.498 495.438 232.52 517.783 145.919 427.315C59.719 337.268 81.2763 199.836 149.141 105.76C181.429 61.0009 227.745 25.4416 280.863 9.48204C341.071 -8.60778 399.213 3.85181 454.419 31.5931C509.716 59.3805 549.355 99.3878 578.474 153.704C613.52 219.076 635.711 297.805 607.585 370.204C567.145 474.3 431.021 515.637 329.474 506.093C215.747 495.404 92.3039 394.577 75.363 278.204C59.863 171.729 150.585 70.8101 250.363 47.5376C306.381 34.4719 366.469 39.0198 418.141 64.982C482.371 97.2547 544.5 154.48 561.696 226.538C592.946 357.479 486.9 474.887 381.141 534.038C324.651 565.632 269.873 578.665 207.641 555.482C154.044 535.516 128.556 499.913 111.196 447.038C74.1835 334.303 92.1033 185.188 198.141 113.482C247.771 79.9201 313.234 70.6639 371.585 79.7043C448.938 91.6885 511.195 147.182 548.03 214.538C573.095 260.371 575.271 308.551 554.252 356.315C531.608 407.772 490.223 457.023 441.363 485.426C310.791 561.331 128.476 508.567 42.3075 389.926C7.74562 342.34 -6.10376 281.113 4.47412 223.26C14.7561 167.025 51.0323 118.38 95.5852 83.982C147.314 44.0435 212.249 19.8656 278.141 28.3154C357.688 38.5162 438.633 93.287 478.252 163.093C514.564 227.073 514.714 306.728 492.141 375.315C470.392 441.399 419.051 496.457 360.696 532.649C303.334 568.225 234.282 585.52 174.919 543.649C122.94 506.986 91.1272 442.715 83.6964 380.871C75.6211 313.664 82.7119 238.315 124.474 182.538C160.967 133.798 219.786 94.5609 281.363 89.0931C349.067 83.0813 420.325 109.542 471.696 152.982C529.226 201.631 550.093 271.64 526.641 343.315C483.282 475.828 327.746 559.866 198.585 493.149C143.43 464.659 117.923 415.66 101.196 357.871C81.3107 289.168 79.1903 223.529 116.474 160.26C148.332 106.198 201.999 57.1695 265.919 46.8709C336.722 35.4632 404.838 80.5525 429.863 146.871C452.187 206.033 451.59 260.91 435.919 322.093C422.057 376.211 401.756 422.485 349.752 448.593C312.305 467.393 277.421 458.372 241.696 443.926C201.603 427.714 172.642 399.81 163.252 356.649C150.347 297.329 168.563 239.314 209.141 195.315C223.741 179.485 271.812 138.942 291.585 127.426C316.965 112.646 336.743 108.531 365.696 114.204C388.824 118.736 442.907 141.102 461.807 153.093C488.92 170.294 509.349 191.307 520.363 221.871C540.249 277.056 526.197 341.912 487.141 384.76C446.1 429.785 384.221 463.871 321.919 450.426C267.061 438.589 214.934 401.173 195.03 347.649C173.917 290.876 172.24 213.553 197.141 157.426C206 137.459 220.317 125.663 240.252 117.426C278.242 101.729 329.439 92.3039 369.419 105.649C424.761 124.122 470.93 188.53 475.419 245.815C478.094 279.958 468.888 306.784 455.141 337.482C443.397 363.706 429.874 389.253 405.585 406.204C366.222 433.676 308.096 417.888 279.141 382.704C260.372 359.898 253.046 334.828 247.252 306.371C238.994 265.815 238.841 224.717 263.585 189.315C291.836 148.896 343.141 117.289 393.696 128.426C440.773 138.797 481.826 175.504 484.696 225.538C488.052 284.045 457.725 349.187 413.03 386.426C364.186 427.122 301.878 413.944 263.696 366.149C227.447 320.773 226.847 265.265 238.419 210.926C247.554 168.027 261.313 138.752 308.919 136.204C370.372 132.916 422.678 168.057 441.585 227.649C459.489 284.077 442.518 362.408 383.974 389.038C344.384 407.046 291.385 385.048 274.196 345.76C263.649 321.652 264.615 297.452 267.641 271.926C270.578 247.152 275.091 223.278 291.141 203.204C315.222 173.085 368.027 164.958 401.085 183.815C452.606 213.204 444.984 288.093 415.919 330.093C391.541 365.32 344.535 393.983 300.696 378.204C258.555 363.037 242.536 314.958 242.696 274.315C242.846 236.574 253.741 184.805 292.807 167.982C330.732 151.65 370.382 170.28 391.03 203.538C415.419 242.822 431.241 301.972 399.696 341.982C375.489 372.685 329.508 394.66 292.696 373.093C260.484 354.222 234.973 312.779 239.807 274.76C245.596 229.24 292.056 191.253 338.085 205.704C374.69 217.197 387.469 256.316 377.863 290.76C369.559 320.534 339.761 365.407 304.474 366.482C270.216 367.526 256.046 320.567 259.641 293.871C263.167 267.688 286.139 226.672 314.141 219.649C340.658 212.998 369.971 241.21 373.196 265.982C376.239 289.349 357.959 329.081 332.196 333.593C300.04 339.226 280.771 294.155 279.474 269.315C278.35 247.794 298.022 214.251 321.919 235.982C337.411 250.07 335.28 276.588 329.141 294.315C326.547 301.806 311.736 327.181 301.919 309.982C294.251 296.549 305.277 273.408 313.585 262.982C331.185 240.896 326.224 284.85 323.974 291.538C321.639 298.479 311.173 316.161 310.474 308.871C309.643 300.207 315.71 290.232 320.53 283.538C326.114 275.782 317.041 284.269 314.196 285.704C311.436 287.097 306.283 289.657 302.807 289.871C297.71 290.185 301.917 284.673 302.03 282.871" stroke="#708E82" stroke-linecap="round"></path></svg>