<svg xmlns="http://www.w3.org/2000/svg" width="968" height="1155" viewBox="0 0 968 1155" fill="none"><path d="M428.59 853.316C359.846 755.947 168.943 552.593 306.927 434.389C347.244 399.852 401.575 396.458 451.526 408.476C510.858 422.752 586.389 465.143 612.745 523.091C687.382 687.198 372.226 844.677 304.933 657.972C271.047 563.955 318.961 359.121 444.545 349.341C530.189 342.672 661.486 433.579 644.656 527.078C620.758 659.848 465.203 831.446 320.889 742.023C154.629 639.001 174.812 430.246 327.537 322.432C466.767 224.143 735.411 315.863 794.906 474.92C864.055 659.787 576.808 909.216 403.326 867.269C200.76 818.289 105.055 488.179 187.925 316.784C293.676 98.0633 642.694 198.703 763.659 345.022C831.136 426.643 836.763 520.238 790.252 613.787C730.26 734.45 596.454 782.648 470.141 801.49C375.002 815.682 256.097 809.439 183.936 736.375C85.4024 636.609 139.91 445.324 179.947 333.063C222.785 212.947 320.054 111.029 451.858 94.8623C609.273 75.5544 723.314 211.449 792.579 334.391C856.538 447.917 900.859 610.04 806.54 722.09C718.552 826.619 541.325 832.847 417.952 819.762C294.426 806.661 225.536 756.338 199.891 631.394C171.4 492.578 228.367 321.973 349.476 243.364C445.087 181.304 554.73 146.749 653.299 218.447C780.324 310.844 853.332 498.455 831.471 653.653C782.735 999.644 324.548 1099.3 117.454 826.739C-125.315 507.231 227.412 1.51055 609.753 111.473C993.784 221.922 962.523 790.939 634.019 947.001C488.043 1016.35 296.277 995.689 160.002 913.447C-48.2189 787.787 -24.7254 534.716 75.9023 344.026C151.425 200.91 294.581 51.2803 471.803 69.2815C674.749 89.8957 806.559 283.201 867.371 459.305C910.976 585.582 931.658 763.648 836.789 873.913C727.06 1001.45 498.83 1014.59 349.143 971.918C-64.3586 854.036 50.1477 337.679 414.628 240.706C563.565 201.08 743.744 240.125 836.789 369.939C963.119 546.19 903.273 822.114 768.313 975.904C659.988 1099.34 463.526 1198.91 299.614 1133.04C67.1476 1039.64 -26.5259 777.761 24.3787 545.682C62.7816 370.6 200.759 178.696 381.72 130.742C614.52 69.0502 792.278 264.614 875.016 455.319C943.376 612.883 972.272 777.013 859.393 922.417C720.474 1101.37 441.394 1130.07 257.066 1006.14C73.1314 882.47 62.6983 680.512 88.8663 479.571C120.802 234.336 258.364 -6.45719 541.941 1.17684C881.428 10.316 1148.22 569.411 812.191 771.59C666.199 859.429 421.169 835.374 279.67 750.328C221.061 715.102 171.527 658.731 171.969 587.209C172.342 526.796 209.608 504.837 237.121 458.641" stroke="#F5D68D" stroke-linecap="round"></path></svg>