<svg xmlns="http://www.w3.org/2000/svg" viewBox="0 0 973.3505 790.3481"><defs><style>.cls-1{fill:#fff;}.cls-2{fill:none;}.cls-2,.cls-3{stroke:#fff;stroke-miterlimit:10;}.cls-3{fill:#c33;}</style></defs><g id="Layer_2" data-name="Layer 2"><g id="Layer_1-2" data-name="Layer 1"><path class="cls-1" d="M0,475.394a370.7932,370.7932,0,0,0,44.3945-69.2812c6.0921-12.3179,11.4957-24.97,17.7028-37.2433a398.8177,398.8177,0,0,1,20.5244-35.7642c1.8832-2.8759,3.6758-5.8131,5.6336-8.6389l5.925-8.4427,2.9627-4.2215,3.1145-4.11,6.234-8.2174c2.0831-2.7352,4.3173-5.3512,6.47-8.0319l3.2575-3.9981c1.0854-1.3332,2.16-2.6755,3.3048-3.9583l6.7655-7.7852,3.39-3.8861,3.4946-3.7922a776.8113,776.8113,0,0,1,59.0049-57.61c10.3258-9.0789,20.7485-18.0493,31.3583-26.7937,5.2743-4.4094,10.6118-8.7412,15.9475-13.0752,5.3405-4.3046,10.5851-8.8288,16.6106-12.2809a37.2419,37.2419,0,0,1,9.6171-3.9161,40.433,40.433,0,0,1,10.3323-1.0188c6.9339.1611,13.7166,1.4464,20.525,2.2883q20.4327,2.678,40.985,4.2978,20.5454,1.5868,41.1543,2.1133l5.15.1094,2.5753.0477a14.9565,14.9565,0,0,1,2.6472.215,4.8436,4.8436,0,0,1,2.5249,1.2169,4.7713,4.7713,0,0,1,1.2281,2.5206c.3009,1.755.4881,3.4205.7095,5.1442a60.05,60.05,0,0,1,.511,10.3638,26.7331,26.7331,0,0,1-2.3718,10.1491,19.25,19.25,0,0,1-6.7075,7.9955,15.5731,15.5731,0,0,1-10.1584,2.3091c-7.0171-.7173-13.2463-4.2225-20.0375-4.6008-6.7941-.4352-13.5108,1.3443-20.2222,2.7577a73.5975,73.5975,0,0,1-10.2484,1.5786,29.6029,29.6029,0,0,1-10.3748-.9929l-.8808-.2608.73-.5539a6.3976,6.3976,0,0,1,5.75-.9833l-.3327.845a1.05,1.05,0,0,0-.2861-.0791.2369.2369,0,0,0-.1581.0816,3.0634,3.0634,0,0,0-.4426.7406,3.9134,3.9134,0,0,1-.6291.9682,1.8485,1.8485,0,0,1-1.19.5742l.2917-.7544a8.5178,8.5178,0,0,0,4.7641,2.3778,25.782,25.782,0,0,0,5.5787.2806l11.3755-.4729,22.7594-.9465a52.8561,52.8561,0,0,1,11.43.57,16.2838,16.2838,0,0,1,14.46,15.7114,30.951,30.951,0,0,1-1.13,11.3794,31.8364,31.8364,0,0,1-5.1436,10.205,24.6089,24.6089,0,0,1-8.7761,7.2839,20.8885,20.8885,0,0,1-11.2352,1.7528c-3.809-.4078-7.4867-1.3882-11.2146-2.0753a280.2465,280.2465,0,0,0-45.2008-5.0569l.0026-.1a280.5075,280.5075,0,0,1,45.2744,4.76c3.7389.6677,7.4346,1.6117,11.1852,2.0022a20.3892,20.3892,0,0,0,10.9694-1.7444,24.0815,24.0815,0,0,0,8.5585-7.1559,31.2716,31.2716,0,0,0,5.0155-10.0356,30.346,30.346,0,0,0,1.0709-11.153,15.6258,15.6258,0,0,0-13.966-15.0817,52.1742,52.1742,0,0,0-11.2731-.52l-22.7514,1.0233-11.38.5115a26.5846,26.5846,0,0,1-5.772-.2759,9.4,9.4,0,0,1-5.2535-2.6243l-.61-.65.9021-.1042a.9337.9337,0,0,0,.6085-.3028,3.11,3.11,0,0,0,.4717-.7509,3.5778,3.5778,0,0,1,.6277-.9951,1.1517,1.1517,0,0,1,.7513-.33,1.7826,1.7826,0,0,1,.7023.1635l-.3327.8449a5.4842,5.4842,0,0,0-4.9076.8551l-.15-.8144a28.6634,28.6634,0,0,0,10.0483.922,72.664,72.664,0,0,0,10.1047-1.5939c6.6835-1.3987,13.48-3.2091,20.4964-2.7594,7.0618.4276,13.3307,3.9553,20.0581,4.6221a14.6052,14.6052,0,0,0,9.5519-2.15,18.3122,18.3122,0,0,0,6.3737-7.5988,25.796,25.796,0,0,0,2.2931-9.7984,59.1751,59.1751,0,0,0-.4962-10.2032c-.2136-1.6842-.4141-3.4362-.6922-5.0678a3.8723,3.8723,0,0,0-.9719-2.0546,3.9463,3.9463,0,0,0-2.06-.9733,14.12,14.12,0,0,0-2.4833-.2l-2.5784-.05-5.1563-.1144q-20.6245-.511-41.1993-2.1544-20.5663-1.6229-41.0257-4.3409c-6.8216-.8517-13.6021-2.138-20.4322-2.3008a39.7378,39.7378,0,0,0-10.13.9855,36.4519,36.4519,0,0,0-9.4193,3.8226c-5.9345,3.3862-11.1721,7.8835-16.5223,12.1857-5.34,4.3248-10.6816,8.6475-15.96,13.0474-10.6176,8.7256-21.0467,17.6762-31.3791,26.735a776.2178,776.2178,0,0,0-59.04,57.4822l-3.4969,3.7839-3.3923,3.8776-6.77,7.7683c-1.1457,1.28-2.221,2.62-3.3072,3.95l-3.26,3.99c-2.1533,2.6755-4.3912,5.2845-6.477,8.0131l-6.2431,8.1974-3.1194,4.1-2.9674,4.2115L88.61,324.7076c-1.9612,2.8194-3.7572,5.75-5.644,8.62a398.395,398.395,0,0,0-20.572,35.6916c-6.2245,12.25-11.6522,24.8925-17.7713,37.2069A370.9689,370.9689,0,0,1,.0776,475.457Z"></path><path class="cls-1" d="M373.3705,251.1025l3.3489-.9478.12-.0341-.0244.1239-2.4046,12.1975-1.2023,6.0988c-.2044,1.0133-.38,2.04-.6811,3.0547a7.1528,7.1528,0,0,1-1.4882,2.8267,7.0145,7.0145,0,0,1-2.6835,1.7507,21.1173,21.1173,0,0,1-3.0271.8656l-6.07,1.3575c-4.0562.8716-8.1442,1.6415-12.2786,2.1368a66.1968,66.1968,0,0,1-24.8429-1.4793,64.7219,64.7219,0,0,1-22.42-10.6631l.0575-.0819a72.5783,72.5783,0,0,0,22.6007,9.7928,70.3772,70.3772,0,0,0,24.5127,1.611c4.1034-.4323,8.1776-1.1577,12.2331-1.9774l6.0772-1.2849c1.989-.4327,4.08-.9225,5.451-2.3865,1.36-1.4743,1.6855-3.6116,2.1252-5.612l1.2969-6.0793,2.5939-12.1586.0958.09-3.3632.8957Z"></path><path class="cls-1" d="M360.9826,282.2919c-.2213,3.0992.0269,6.2088-.0637,9.3206a24.7778,24.7778,0,0,1-.5153,4.6391,12.4388,12.4388,0,0,1-.68,2.2358l-.4146,1.0949c-.147.3608-.3608.6913-.538,1.0384a19.0374,19.0374,0,0,1-6.317,6.7727,34.5355,34.5355,0,0,1-8.4289,3.9755c-5.9235,1.9691-12.1318,2.8026-18.2744,3.6821-6.1543.871-12.287,1.8874-18.4125,2.94-24.49,4.2926-48.7351,9.9084-72.739,16.3737-6.0057,1.6008-11.99,3.28-17.97,4.9766l-8.9565,2.5885a79.3226,79.3226,0,0,0-8.79,2.9952,29.5629,29.5629,0,0,0-7.869,4.76,39.093,39.093,0,0,0-6.1276,6.9056c-1.8065,2.5125-3.4576,5.1463-5.15,7.7543l-5.0467,7.8405c-13.4284,20.9153-26.5065,42.1-37.6471,64.3182a335.1586,335.1586,0,0,0-14.9067,34.12,350.6913,350.6913,0,0,0-10.9155,35.5976c-6.1653,24.0725-10.6383,48.5575-16.6143,72.72-3.0526,12.0619-6.4346,24.0594-10.6538,35.777-2.0548,5.8772-4.4,11.65-6.8744,17.3623q-3.7737,8.5444-8.2613,16.7483c-.7391,1.37-1.5536,2.6984-2.3266,4.05-.7786,1.3482-1.5564,2.6969-2.4106,4l-2.5015,3.9441-2.6539,3.8435L57.592,666.584l-1.4111,1.8608c-.9458,1.2366-1.87,2.49-2.8336,3.7123-2.0086,2.3793-3.9324,4.83-6.0549,7.1118A82.3587,82.3587,0,0,1,33.331,691.6346a48.5138,48.5138,0,0,1-16.942,7.6l-.0217-.0977a48.3264,48.3264,0,0,0,16.8057-7.7307,82.0012,82.0012,0,0,0,13.7825-12.4442c2.0961-2.2881,4.0076-4.7375,5.9961-7.1188.9546-1.2227,1.87-2.4768,2.8062-3.7135l1.3972-1.861,1.3189-1.9176L61.1,660.5083l2.474-3.9427c.8449-1.3019,1.6136-2.65,2.3831-3.9975.7639-1.35,1.569-2.6776,2.299-4.0467q4.43-8.1885,8.1536-16.7327c2.439-5.7067,4.7493-11.4724,6.77-17.3434,4.1509-11.7043,7.4674-23.69,10.4561-35.7436,5.97-24.1213,10.4466-48.6088,16.626-72.7259a351.6662,351.6662,0,0,1,11.0355-35.6632,336.003,336.003,0,0,1,15.0307-34.1675c11.207-22.2382,24.3413-43.4167,37.8153-64.3109l5.0636-7.8319c1.6963-2.6033,3.3544-5.2372,5.1829-7.77a39.6846,39.6846,0,0,1,6.2373-6.9976,30.1523,30.1523,0,0,1,8.0308-4.8391,79.8417,79.8417,0,0,1,8.8587-3l8.9659-2.5718c5.9854-1.6852,11.9759-3.3531,17.9877-4.9425,24.032-6.4038,48.3041-11.9574,72.8169-16.1862,6.131-1.0366,12.269-2.037,18.4282-2.8917,6.15-.8635,12.34-1.6786,18.2472-3.6246a34.3394,34.3394,0,0,0,8.394-3.931,18.8738,18.8738,0,0,0,6.2824-6.6981c.1765-.3436.39-.67.5362-1.0278l.4137-1.0844a12.3081,12.3081,0,0,0,.68-2.2157,24.6452,24.6452,0,0,0,.5247-4.6134c.0989-3.1021-.1413-6.2153.0889-9.3242Z"></path><path class="cls-2" d="M347.8509,161.2277c.3255.2963-.56.5845-.6483.1532s.3536-.7683.7366-.9853q16.5725-9.3918,33.1647-18.7489c4.516-2.5468,10.225-5.0857,14.5748-2.2645,4.32,2.8021,4.3452,9.27,2.3225,14.006s-5.538,8.8064-6.9444,13.76"></path><path class="cls-1" d="M390.3632,228.02l11.3458,8.0133c3.7776,2.6768,7.5137,5.4145,11.4493,7.8122a50.5742,50.5742,0,0,0,12.4969,5.6193,32.0772,32.0772,0,0,0,13.6172.8276l.0206.0979a27.4366,27.4366,0,0,1-13.8944.0411,43.3843,43.3843,0,0,1-12.6635-5.9071c-3.9224-2.5079-7.6034-5.3309-11.32-8.0868l-11.11-8.3365Z"></path><path class="cls-1" d="M411.058,170.9269a267.5075,267.5075,0,0,0,43.4963,1.285c14.5092-.6431,28.9647-2.1275,43.39-3.7905,14.427-1.6637,28.8366-3.5109,43.3-4.9017a398.6554,398.6554,0,0,1,43.5294-2.1226l.2765.0037,0,.2771a203.0976,203.0976,0,0,1-11.1169,65.96,71.6007,71.6007,0,0,1-3.059,7.8471,24.0611,24.0611,0,0,1-4.8158,6.961,30.5248,30.5248,0,0,1-6.8316,4.9885c-2.4559,1.3828-5.0127,2.5436-7.5457,3.7207a77.0475,77.0475,0,0,0-7.4288,3.7844,27.4223,27.4223,0,0,0-6.316,5.2848,23.58,23.58,0,0,0-2.4513,3.303,17.0581,17.0581,0,0,0-1.6632,3.7269,11.3339,11.3339,0,0,0,.33,7.9085l.2418.5766-.6193.017-25.016.6849-12.508.3424-6.2541.1713c-2.0858.0394-4.1594.1625-6.2849.0984a13.8411,13.8411,0,0,1-6.2634-1.4373,8.3512,8.3512,0,0,1-2.5226-2.1269,13.72,13.72,0,0,1-1.6578-2.7818,57.3177,57.3177,0,0,0-2.5821-5.6322,10.4671,10.4671,0,0,0-4.3771-3.9406,20.55,20.55,0,0,0-5.8447-1.6794c-2.036-.3232-4.11-.505-6.19-.75a37.3133,37.3133,0,0,1-6.227-1.15,17.7316,17.7316,0,0,1-5.73-2.8445,23.6958,23.6958,0,0,1-7.4638-10.1808,37.5641,37.5641,0,0,1-2.5947-12.3463c-.4542-8.4053.7791-16.7366-.1276-24.99a68.0911,68.0911,0,0,0-2.3267-12.1962,41.568,41.568,0,0,0-2.14-5.81,23.9317,23.9317,0,0,0-3.179-5.2532,12.8989,12.8989,0,0,0-4.6767-3.8048,18.259,18.259,0,0,0-5.9409-1.4036c-4.0965-.39-8.3921-.0852-12.4587-1.5183l.1745-.61a12.0847,12.0847,0,0,1,3.7221,1.6351,22.5862,22.5862,0,0,1,3.2041,2.4311,33.5738,33.5738,0,0,1,5.2892,6.0072,24.8885,24.8885,0,0,1,1.9885,3.4932,17.7885,17.7885,0,0,1,1.19,3.8482,19.9963,19.9963,0,0,1-.1285,7.9966,19.7711,19.7711,0,0,1-3.2434,7.2993,18.9662,18.9662,0,0,1-2.694,2.9723,20.0814,20.0814,0,0,1-3.2708,2.314,19.7868,19.7868,0,0,1-15.4848,1.6905l-.4177-.1334.4356-.0423,8.1572-.7939.01.1-8.1489.8737.0179-.1757a19.5287,19.5287,0,0,0,15.2648-1.811A19.7449,19.7449,0,0,0,410.6618,212a18.5724,18.5724,0,0,0,2.6068-2.9333,19.6924,19.6924,0,0,0,3.2-14.9559,17.279,17.279,0,0,0-1.1718-3.726,24.3481,24.3481,0,0,0-1.9582-3.3991,33.0029,33.0029,0,0,0-5.2247-5.8751,21.9989,21.9989,0,0,0-3.1333-2.3541,11.4957,11.4957,0,0,0-3.5285-1.5365l.1746-.61c3.8889,1.3569,8.1327,1.0533,12.3041,1.4207a18.944,18.944,0,0,1,6.1813,1.4359,13.6387,13.6387,0,0,1,4.9616,3.9865,24.7028,24.7028,0,0,1,3.3084,5.4016,42.3771,42.3771,0,0,1,2.21,5.9086,68.94,68.94,0,0,1,2.4181,12.3388c.9525,8.3831-.2312,16.7623.2457,25.0241a36.5573,36.5573,0,0,0,2.5209,12.0268,22.71,22.71,0,0,0,7.1356,9.7589,16.7241,16.7241,0,0,0,5.4143,2.6877,36.3686,36.3686,0,0,0,6.0633,1.1178c2.0612.2437,4.1456.4258,6.23.7565a21.5,21.5,0,0,1,6.1286,1.7709,11.4717,11.4717,0,0,1,4.784,4.3143,56.9868,56.9868,0,0,1,2.633,5.729,8.9608,8.9608,0,0,0,3.7615,4.4615,12.9908,12.9908,0,0,0,5.82,1.3257c2.0449.0683,4.141-.0478,6.2245-.0822l6.2544-.155,12.5089-.31,25.0178-.62-.3773.5936a12.1789,12.1789,0,0,1-.3438-8.4881,17.8835,17.8835,0,0,1,1.755-3.9067,24.3922,24.3922,0,0,1,2.5474-3.4154,28.2507,28.2507,0,0,1,6.5088-5.4231,77.7011,77.7011,0,0,1,7.5154-3.8111c2.5382-1.1729,5.0809-2.3219,7.5017-3.6788a29.7864,29.7864,0,0,0,6.6811-4.8535,23.3272,23.3272,0,0,0,4.6879-6.7516,70.9779,70.9779,0,0,0,3.0439-7.7653,202.471,202.471,0,0,0,11.217-65.7316l.276.2805a401.51,401.51,0,0,0-43.4779,2.0206c-14.4578,1.35-28.8708,3.1572-43.3052,4.7815-14.4326,1.6234-28.9,3.069-43.419,3.6725a267.6715,267.6715,0,0,1-43.5176-1.4058Z"></path><path class="cls-1" d="M565.629,222.4325a32.0417,32.0417,0,0,0,4.174-3.5883l.4522-.462-.2961.5748a40.3166,40.3166,0,0,1-6.1787,9.033,34.4842,34.4842,0,0,1-8.6884,6.6883c-6.4329,3.5787-13.5207,5.6145-20.3632,8.0627-1.7207.5965-3.422,1.2386-5.1225,1.8812l-5.07,2.0384a51.2584,51.2584,0,0,1-10.6163,2.95,53,53,0,0,1-21.83-.8682l.0217-.0976a59.4973,59.4973,0,0,0,21.64.0131,58.6674,58.6674,0,0,0,10.4169-2.938l5.1077-1.972c1.7212-.6185,3.4422-1.236,5.1769-1.8058,6.9032-2.3479,13.9734-4.2992,20.3707-7.748a34.6764,34.6764,0,0,0,8.6789-6.4684,40.0283,40.0283,0,0,0,6.282-8.8565l.1561.1127a32.1785,32.1785,0,0,1-4.2545,3.5322Z"></path><path class="cls-1" d="M304.3723,226.6034a294.2953,294.2953,0,0,0-41.7554,4.7928c-3.4442.6454-6.8758,1.359-10.2953,2.1188a48.1441,48.1441,0,0,0-9.9489,3.1392,34.0289,34.0289,0,0,0-8.469,6l-7.6736,7.1918q-7.6865,7.1906-15.51,14.2344-7.8549,7.0077-15.8421,13.8649-8.0471,6.7867-16.2208,13.4184l-8.2058,6.59-8.3208,6.4442-.0622-.0783L178.25,290.87q8.054-6.766,15.977-13.6836,7.9828-6.8469,15.8344-13.8448,7.8825-6.9624,15.6251-14.0823l7.7316-7.1433a34.701,34.701,0,0,1,8.68-6.0507,48.7282,48.7282,0,0,1,10.0992-3.1116c3.4334-.7371,6.875-1.4272,10.33-2.0493a294.6,294.6,0,0,1,41.8418-4.401Z"></path><path class="cls-1" d="M299.0523,267.5439a115.7694,115.7694,0,0,0-40.6164,7.9128A182.6327,182.6327,0,0,0,221.68,294.7045c-5.7649,3.849-11.3694,7.9351-16.8668,12.16-5.5162,4.2015-10.9275,8.5429-16.3,12.934L172.321,332.8951l-8.1419,6.4971q-4.1208,3.1868-8.2907,6.307l-.0611-.0792q4.06-3.26,8.0665-6.5833l8.0211-6.6364,15.9656-13.376c5.3795-4.3925,10.8017-8.7384,16.3331-12.9473,5.5491-4.1848,11.2072-8.2317,17.0253-12.04a183.2831,183.2831,0,0,1,37.0231-19.0492,116.0666,116.0666,0,0,1,40.7907-7.5439Z"></path><path class="cls-1" d="M270.8664,647.9443a13.8525,13.8525,0,0,1,6.1019.4847,29.5907,29.5907,0,0,1,5.6529,2.4294c3.6237,1.9009,7.1241,4.1486,11.0953,5.2111a13.3835,13.3835,0,0,0,6.0578.1031,17.6466,17.6466,0,0,0,5.492-2.6411c1.699-1.1415,3.3212-2.4021,4.9687-3.6223l4.93-3.6814c6.5714-4.9108,13.1793-9.7736,19.6054-14.8747,6.4622-5.0533,12.9805-10.0358,19.2981-15.2706q38.2842-30.9324,73.9768-64.8959A1219.0951,1219.0951,0,0,0,559.13,404.6138c4.8843-6.5889,9.8413-13.1244,14.6658-19.7566l14.2745-20.0415c4.6953-6.7245,9.3662-13.4907,14.5533-19.8777a106.0856,106.0856,0,0,1,17.4136-17.4487c6.5449-5.0549,13.9362-8.8306,21.3789-12.2746q11.2011-5.1247,22.4611-10.087c15.0356-6.5679,30.348-12.6746,46.2569-16.8926,3.9706-1.0569,7.99-1.9744,12.0037-2.8079a71.2443,71.2443,0,0,0,11.7692-3.2548c3.7711-1.5025,7.3191-3.5915,11.1318-5.2129a52.3153,52.3153,0,0,1,36.4439-1.6376,24.7812,24.7812,0,0,1,10.598,6.48,13.5334,13.5334,0,0,1,3.0769,5.5131,12.6645,12.6645,0,0,1,.2535,6.3152,15.999,15.999,0,0,1-2.454,5.798,24.2664,24.2664,0,0,1-4.0784,4.743,31.7972,31.7972,0,0,1-4.9742,3.7531,34.2761,34.2761,0,0,1-5.5485,2.8208c-7.7408,2.9785-15.8665,4.478-23.9094,6.0559-8.04,1.57-16.1394,3.0454-23.7882,5.92a50.4793,50.4793,0,0,0-5.588,2.4615,39.03,39.03,0,0,0-5.2055,3.163,33.4419,33.4419,0,0,0-8.4188,8.7019l-.1179-.49c4.7386,2.71,9.4773,5.418,14.4178,7.7063a79.3916,79.3916,0,0,0,7.56,3.0557c2.5771.8689,5.1964,1.6116,7.843,2.2462,10.6156,2.5033,21.5571,3.2,32.4371,3.9686a143.9884,143.9884,0,0,0,16.3407.4407,52.1491,52.1491,0,0,0,15.98-3.0183c5.1208-1.8629,10.0414-4.29,15.2629-5.9448a29.209,29.209,0,0,1,8.05-1.4961,16.4444,16.4444,0,0,1,7.9484,1.753l-.0455.0891a16.3167,16.3167,0,0,0-7.8992-1.6914,29.0378,29.0378,0,0,0-7.9931,1.5375c-5.1907,1.68-10.09,4.1342-15.22,6.0374a52.5062,52.5062,0,0,1-16.0641,3.1376,138.8651,138.8651,0,0,1-16.3932-.36c-10.8824-.7348-21.85-1.3961-32.5393-3.8805-2.6652-.63-5.3056-1.37-7.9062-2.2377a80.0253,80.0253,0,0,1-7.63-3.0561c-4.9808-2.2883-9.7446-4.9919-14.4918-7.6867l-.3216-.1825.2037-.3073a34.1586,34.1586,0,0,1,8.57-8.9145,39.7848,39.7848,0,0,1,5.2894-3.237,51.2273,51.2273,0,0,1,5.6587-2.5141c7.7322-2.9328,15.8642-4.4356,23.8994-6.0321,8.0282-1.5983,16.1327-3.1305,23.7249-6.0812a33.35,33.35,0,0,0,5.3961-2.7649,30.8507,30.8507,0,0,0,4.821-3.66,23.3054,23.3054,0,0,0,3.9073-4.57,15.0134,15.0134,0,0,0,2.2965-5.4615,11.6748,11.6748,0,0,0-.2294-5.8432,12.5376,12.5376,0,0,0-2.86-5.13,23.8268,23.8268,0,0,0-10.1738-6.2119,51.3559,51.3559,0,0,0-35.7575,1.5811c-3.742,1.5846-7.2981,3.6753-11.1571,5.2118a72.0831,72.0831,0,0,1-11.9245,3.2907c-4.0191.831-8.0024,1.737-11.9612,2.7868-15.8415,4.185-31.1184,10.26-46.1422,16.8073q-11.2639,4.9324-22.4525,10.06c-7.4286,3.4293-14.76,7.17-21.2318,12.1606a105.2956,105.2956,0,0,0-17.291,17.3c-5.1657,6.3515-9.8375,13.0954-14.5417,19.815L574.4,385.2964c-4.8361,6.63-9.8047,13.1631-14.7,19.7493A1217.1328,1217.1328,0,0,1,428.35,551.5078q-35.7271,33.8751-74.1115,64.7859c-6.328,5.2249-12.8565,10.1973-19.3287,15.24-6.436,5.0909-13.0537,9.943-19.6346,14.8432l-4.9371,3.6732c-1.6505,1.218-3.2719,2.4737-4.9808,3.6178a17.8031,17.8031,0,0,1-5.5467,2.6537,13.5276,13.5276,0,0,1-6.1294-.1139c-4.0017-1.0789-7.5019-3.3388-11.117-5.2421a29.4788,29.4788,0,0,0-5.6275-2.4306,13.75,13.75,0,0,0-6.0535-.4924Z"></path><path class="cls-1" d="M125.2672,771.7288a233.7113,233.7113,0,0,1,68.1686,1.2922c11.2567,1.876,22.3147,4.7174,33.4071,7.33q16.626,3.9912,33.5749,6.3823a341.3744,341.3744,0,0,0,68.2058,2.5806c5.6811-.39,11.3776-.7521,16.9982-1.6281a48.9008,48.9008,0,0,0,16.161-5.0691,25.9527,25.9527,0,0,0,6.71-5.1218,25.3145,25.3145,0,0,0,4.6354-7.04,20.2807,20.2807,0,0,0,1.8073-8.1944,15.8935,15.8935,0,0,0-2.0895-8.0508l-.0875-.15.11-.1322c18.078-21.6976,38.4911-41.2437,58.2-61.3859,9.8618-10.07,19.6014-20.2695,28.758-30.9792,4.56-5.3679,9.0431-10.8053,13.2423-16.4578l3.1559-4.2342,3.084-4.2929,6.1087-8.628c8.09-11.5395,15.93-23.261,23.1216-35.3755,3.5909-6.0592,6.9954-12.2261,10.2714-18.4625q4.8822-9.3717,9.5051-18.88c6.1948-12.661,12.21-25.4209,18.7621-37.92a304.1578,304.1578,0,0,1,21.8627-36.2376,117.4377,117.4377,0,0,1,13.7623-16.121,67.458,67.458,0,0,1,17.2994-12.2476,64.9577,64.9577,0,0,1,20.4486-5.5754,179.411,179.411,0,0,1,21.167-.9554q42.3138-.08,84.5659,2.7959c14.0733.9493,28.126,2.1917,42.157,3.6363,3.4988.3651,7,.6541,10.4994.6806a42.3885,42.3885,0,0,0,10.3712-1.0446,20.9528,20.9528,0,0,0,9.1559-4.5647c2.6411-2.2369,4.2641-5.3784,5.917-8.4812a41.4035,41.4035,0,0,1,2.7368-4.5886,16.61,16.61,0,0,1,3.775-3.8673c2.9046-2.1294,6.1849-3.5132,8.6-6.0132l.911-.92c.29-.3191.552-.6641.83-.9945a23.1459,23.1459,0,0,0,1.5182-2.101,27.063,27.063,0,0,0,2.304-4.6559,38.25,38.25,0,0,0,2.296-10.1722c.7424-6.9788-.2562-13.9955-.9033-21.0128-.6683-6.9978-1.0524-14.2114.713-21.1533l.4185.4343a27.27,27.27,0,0,0-16.8913,12.07,26.0587,26.0587,0,0,0-3.7211,9.905c-.54,3.5221-.4646,7.15-1.138,10.733a16.6,16.6,0,0,1-1.7677,5.1595c-.2153.4021-.4015.8217-.6412,1.2089l-.7762,1.1274a17.6242,17.6242,0,0,1-1.716,2.1226,40.2319,40.2319,0,0,1-8.5417,6.6535c-3.047,1.9181-6.16,3.722-8.9989,5.8967a24.2381,24.2381,0,0,0-7.0243,7.9258l-.083.16-.1769-.0322a143.6416,143.6416,0,0,1-19.33-5.2473c-6.3368-2.0876-12.6239-4.3407-19.1005-5.9146a52.5752,52.5752,0,0,0-19.7953-1.4283,46.7539,46.7539,0,0,0-18.5361,7.0346l-.0536-.0843a46.9049,46.9049,0,0,1,18.5617-7.15,52.8266,52.8266,0,0,1,19.8939,1.3326c6.5067,1.5463,12.8143,3.7713,19.1563,5.8245a147.25,147.25,0,0,0,19.2908,5.1543l-.26.1279a24.732,24.732,0,0,1,7.143-8.1106c2.87-2.2095,5.9925-4.0282,9.0232-5.9476a39.7145,39.7145,0,0,0,8.4115-6.5807,17.0861,17.0861,0,0,0,1.6648-2.07l.7512-1.0957c.2317-.3762.41-.7838.6175-1.1738a16,16,0,0,0,1.7-5.0032c.652-3.5009.5691-7.1232,1.1071-10.7163a26.7,26.7,0,0,1,3.7864-10.1593,27.9477,27.9477,0,0,1,17.2945-12.4149l.5594-.1248-.1408.5593c-1.7131,6.8051-1.3259,13.9263-.64,20.9051.6606,6.9878,1.6915,14.0636.9573,21.1646a39.0657,39.0657,0,0,1-2.3213,10.3965,27.9069,27.9069,0,0,1-2.3662,4.81,24.0372,24.0372,0,0,1-1.57,2.1855c-.2878.3447-.56.7034-.8612,1.0363l-.9463.9615c-2.5343,2.6217-5.9136,4.0629-8.6714,6.11-2.82,2.0135-4.606,5.0674-6.23,8.17-1.6322,3.08-3.3147,6.38-6.1,8.7572a21.9191,21.9191,0,0,1-9.5562,4.8054,42.6209,42.6209,0,0,1-10.6124,1.0889c-3.5516-.0295-7.0853-.3247-10.5961-.6936-14.0183-1.4534-28.0586-2.7049-42.12-3.6634q-42.1793-2.9427-84.498-2.8543a178.6276,178.6276,0,0,0-21.0629.9338,64.0841,64.0841,0,0,0-20.1813,5.4825,66.5977,66.5977,0,0,0-17.0829,12.08A116.5979,116.5979,0,0,0,569.62,481.5643a303.3775,303.3775,0,0,0-21.8264,36.1216c-6.5484,12.4754-12.5791,25.2207-18.7891,37.882q-4.6446,9.5028-9.5349,18.8888c-3.2873,6.2418-6.7059,12.4187-10.31,18.4852-7.2181,12.1291-15.08,23.8567-23.1885,35.3953l-6.1214,8.6263-3.09,4.2919-3.168,4.2411c-4.2155,5.6615-8.7133,11.1042-13.286,16.4758-9.1828,10.7169-18.9422,20.9149-28.8188,30.9784-19.74,20.128-40.1609,39.6452-58.2393,61.2905l.0226-.2817a16.38,16.38,0,0,1,2.1454,8.3022,20.7536,20.7536,0,0,1-1.8586,8.38,25.7763,25.7763,0,0,1-4.7314,7.1641,26.404,26.404,0,0,1-6.8282,5.1987,49.3221,49.3221,0,0,1-16.31,5.0947c-5.6511.872-11.35,1.2253-17.0385,1.6079a341.7286,341.7286,0,0,1-68.2712-2.6807q-16.9373-2.4117-33.5907-6.4352c-11.0921-2.6289-22.14-5.4845-33.3832-7.3746a233.56,233.56,0,0,0-68.123-1.3883Z"></path><path class="cls-1" d="M897.0608,346.3983a35.426,35.426,0,0,1,20.6752-14.3055c2.0812-.5352,4.2327-.7166,6.2345-1.3944a8.1946,8.1946,0,0,0,2.7381-1.4894,9.724,9.724,0,0,0,1.9457-2.452,25.88,25.88,0,0,1,3.6508-5.2969,23.7288,23.7288,0,0,1,5.0167-4.0534,41.6741,41.6741,0,0,1,11.9649-4.6735c4.1554-.9683,8.4533-1.8085,12.7935-1.3A14.6658,14.6658,0,0,1,968.23,313.55a12.0657,12.0657,0,0,1,4.2539,4.9383,8.3983,8.3983,0,0,1,.3734,6.5063,10.1078,10.1078,0,0,1-4.3436,4.879,36.9838,36.9838,0,0,1-5.8476,2.7687c-1.977.7989-3.9362,1.63-5.8449,2.5547a32.2351,32.2351,0,0,0-10.2255,7.2871c-2.798,3.13-4.92,6.9369-8.07,9.9806a47.4617,47.4617,0,0,1-10.5321,7.4672c-3.7433,2.0986-7.6081,3.9213-11.2567,6.0942a60.204,60.204,0,0,0-10.1442,7.6646,119.94,119.94,0,0,1-9.7949,8.3058,31.7311,31.7311,0,0,1-5.5742,3.24,22.9409,22.9409,0,0,1-6.22,1.6688l-.0545-.2722a8.4751,8.4751,0,0,0,5.0643-3.9157l.0874.0486a8.6628,8.6628,0,0,1-5.0751,4.1348l-.0544-.2721a22.5825,22.5825,0,0,0,6.0682-1.8037,32.03,32.03,0,0,0,5.4389-3.27,119.531,119.531,0,0,0,9.6316-8.3974,61.0356,61.0356,0,0,1,10.1653-7.8966c3.666-2.2528,7.5116-4.1438,11.2334-6.2016a46.5,46.5,0,0,0,10.319-7.3015c3.0348-2.9117,5.128-6.6957,8.0542-9.9167a33.1389,33.1389,0,0,1,10.5619-7.4263c1.9433-.9246,3.9261-1.7482,5.9157-2.5357a35.7781,35.7781,0,0,0,5.74-2.668,9.351,9.351,0,0,0,4.0622-4.4832,7.67,7.67,0,0,0-.3233-5.9475,11.38,11.38,0,0,0-3.9809-4.6709A14.0274,14.0274,0,0,0,962,312.0641c-4.19-.5191-8.45.2757-12.5821,1.2169a41.314,41.314,0,0,0-11.8421,4.5421,23.2647,23.2647,0,0,0-4.9493,3.9367,25.4794,25.4794,0,0,0-3.638,5.2,10.0846,10.0846,0,0,1-2.0419,2.5281,8.54,8.54,0,0,1-2.8665,1.5347c-2.0636.6791-4.2147.8406-6.2752,1.3558a35.23,35.23,0,0,0-20.6611,14.0764Z"></path><path class="cls-1" d="M806.6646,441.3362l18.1928-8.138,9.0964-4.0688c3.0028-1.3981,6.1726-2.5447,8.7948-4.5476,2.6449-1.9966,4.2644-4.9911,5.6937-7.9535l4.26-9.0039a180.8331,180.8331,0,0,0,7.5432-18.4039,98.3572,98.3572,0,0,0,4.4506-19.3283,151.1759,151.1759,0,0,0,1.13-19.8363c0-6.6328-.3034-13.2655-.6107-19.9l-.9269-19.9083.553.47a31.0462,31.0462,0,0,0-19.2131,10.58,38.08,38.08,0,0,0-6.0192,9.4355,32.3,32.3,0,0,0-2.6138,10.8722,28.6583,28.6583,0,0,0,.1878,5.6062l.5115,2.765c.2121.9145.4865,1.82.7515,2.7313a31.8974,31.8974,0,0,1,1.2864,5.6006,12.73,12.73,0,0,1-.6819,5.7317,40.2607,40.2607,0,0,1-2.3865,5.21l-2.6234,5.0585L828.7836,384.42l-.0893-.0452,5.0262-10.2285,2.5184-5.1116a39.8427,39.8427,0,0,0,2.298-5.1672,12.1409,12.1409,0,0,0,.5919-5.4922,31.3416,31.3416,0,0,0-1.3272-5.4741c-.2755-.9087-.5634-1.82-.7914-2.7526l-.5579-2.8317a29.42,29.42,0,0,1-.26-5.7544,33.1682,33.1682,0,0,1,2.5568-11.1965,36.6522,36.6522,0,0,1,6.13-9.7279,32.0377,32.0377,0,0,1,19.846-10.9042l.5309-.07.0223.54.8223,19.913c.2691,6.638.5256,13.2852.498,19.94a151.8975,151.8975,0,0,1-1.2308,19.924,98.9968,98.9968,0,0,1-4.571,19.426,179.57,179.57,0,0,1-7.6576,18.421l-4.3212,8.9837c-1.4522,2.96-3.1208,6.0138-5.8538,8.0512-2.703,2.0331-5.8852,3.153-8.8926,4.5323L824.95,433.406l-18.2444,8.0216Z"></path><path class="cls-1" d="M853.8062,423.0437c5.6322-2.1554,11.3322-4.3466,16.2974-7.8A37.7287,37.7287,0,0,0,881.73,401.653a80.9344,80.9344,0,0,0,6.2945-16.915c1.55-5.8333,2.8813-11.7351,4.1566-17.6385a300.3216,300.3216,0,0,0,5.5753-35.7781,211.935,211.935,0,0,0,.282-36.1448l.485.4223a27.7716,27.7716,0,0,0-17.3833,7.461,28.4209,28.4209,0,0,0-9.0564,16.7578l-.1857-.0388.8974-2.837.0958.0287-.8108,2.863-.1858-.0389a26.4137,26.4137,0,0,1,2.86-9.3687,30.052,30.052,0,0,1,5.9586-7.825,28.5455,28.5455,0,0,1,17.7645-7.9289l.4414-.0248.0437.4472a173.4406,173.4406,0,0,1,.7051,18.166c-.06,6.0607-.375,12.12-.9918,18.147a307.6756,307.6756,0,0,1-5.8448,35.8324c-1.3159,5.9073-2.684,11.7987-4.2774,17.643a80.2506,80.2506,0,0,1-6.4624,16.9638,38.0625,38.0625,0,0,1-11.8432,13.6068c-5.03,3.4337-10.7567,5.5758-16.4071,7.6837Z"></path><path class="cls-1" d="M727.0366,397.51l29.326-14.8072a80.0925,80.0925,0,0,1,7.4768-3.5088,17.89,17.89,0,0,1,8.2674-1.2774,24.65,24.65,0,0,1,7.8424,2.7832c1.2239.6176,2.4379,1.2366,3.6862,1.7747.3093.1422.6228.2724.9383.3988a1.47,1.47,0,0,0,.9157.1636,1.9535,1.9535,0,0,0,.8914-.3512.6508.6508,0,0,0,.2695-.349c.0279-.1333-.0936-.25-.2371-.323l.0392-.0921a.46.46,0,0,1,.3415.4311.7946.7946,0,0,1-.2925.4785,2.1814,2.1814,0,0,1-.9624.4791,1.807,1.807,0,0,1-1.0869-.0908c-.33-.1-.66-.2047-.9842-.3211-1.2991-.4665-2.5591-1.0243-3.814-1.5671a25.0645,25.0645,0,0,0-7.6531-2.42,18.3537,18.3537,0,0,0-7.8223,1.213,79.449,79.449,0,0,0-7.463,3.2967L727.0808,397.6Z"></path><path class="cls-1" d="M735.7643,364.39l.9818-2.6035.1879.0669a61.3953,61.3953,0,0,1-9.3236,18.7624,51.45,51.45,0,0,1-6.9643,7.9165,47.2267,47.2267,0,0,1-8.4772,6.2327l-.0555-.0831a87.2554,87.2554,0,0,0,7.8672-6.8495,81.6851,81.6851,0,0,0,6.9522-7.7252,62.8608,62.8608,0,0,0,9.8109-18.3139l.1878.0669-1.0742,2.5667Z"></path><path class="cls-1" d="M637.6291,371.8882c-.3609.1275-.3506.61-.1684.9075a.8284.8284,0,0,0,.9032.42,6.1992,6.1992,0,0,0,1.955-1.1l.963-.64,1.0141-.5551a21.8044,21.8044,0,0,1,2.09-.9882,36.8747,36.8747,0,0,1,8.955-2.2054c6.0947-.8149,12.2879-.7863,18.1944-2.2737a47.2482,47.2482,0,0,0,16.3314-7.784A48.8746,48.8746,0,0,0,700.33,344.4531l.0866.05a42.4073,42.4073,0,0,1-11.9532,13.9691,43.8429,43.8429,0,0,1-16.7416,7.7591c-6.0583,1.4156-12.2559,1.278-18.3184,1.9917a36.4979,36.4979,0,0,0-8.9062,1.9881,21.5536,21.5536,0,0,0-2.0859.9314l-1.0149.5269-.9661.6125a6.2547,6.2547,0,0,1-2.0479,1.0827.9708.9708,0,0,1-1.0309-.5085,1.0328,1.0328,0,0,1-.1241-.5893.5585.5585,0,0,1,.3684-.4729Z"></path><path class="cls-1" d="M532.76,463.3132a341.6788,341.6788,0,0,0,29.53-34.914q6.8-9.1959,12.961-18.84c4.1061-6.4127,8.068-12.9981,13.14-18.7843,4.9929-5.7931,11.4082-10.6374,18.8763-12.846a26.4757,26.4757,0,0,1,5.7178-1.0487,23.4661,23.4661,0,0,1,5.82.2456,32.5519,32.5519,0,0,1,10.7909,4.1381c3.3269,1.9387,6.4544,4.1234,9.6458,6.2121l9.541,6.3227,9.54,6.3244,9.493,6.3964-.0546.0837-9.6871-6.0981-9.64-6.17-9.6392-6.1718c-3.2239-2.039-6.394-4.1778-9.6922-6.03a31.5712,31.5712,0,0,0-10.46-4.0261,22.4671,22.4671,0,0,0-5.5832-.2373,25.4867,25.4867,0,0,0-5.5164,1.01,35.07,35.07,0,0,0-10.1355,4.8638,44.3261,44.3261,0,0,0-4.4345,3.5147c-1.3918,1.2809-2.717,2.6356-3.9825,4.0466-5.0465,5.6794-9.04,12.21-13.1928,18.6064q-6.2472,9.6023-13.106,18.7858a342.0075,342.0075,0,0,1-29.86,34.6856Z"></path><path class="cls-3" d="M865.8869,325.4114c-1.2221,3.558-.2013,7.4373.06,11.19s-.7208,8.2075-4.1672,9.716c-5.9841-7.746-3.4965-18.8187-.732-28.2084,1.9245-.7215,3.158,2.0713,3.2475,4.1247a71.0211,71.0211,0,0,1-1.8623,19.5162"></path><path class="cls-3" d="M899.3038,302.8512a83.8546,83.8546,0,0,1-1.74,29.1023,17.6757,17.6757,0,0,1-9.8531-18.1123,20.5218,20.5218,0,0,1,5.7251-11.0941,6.2635,6.2635,0,0,1,2.2087-1.63c2.2422-.8386,4.7907.8518,5.7573,3.0418"></path><path class="cls-3" d="M826.256,388.088,824.7879,392.5c-7.2164-7.4325-6.2419-21.1313,1.954-27.4674a57.4065,57.4065,0,0,1,2.7767,25.5275,3.5834,3.5834,0,0,1-1.0909,2.5879c-.7788.5691-2.2319.0537-2.0768-.8984"></path><path class="cls-3" d="M364.589,152.9374l-.7906,2.7809a15.9883,15.9883,0,0,0,24.24-15.5546l-23.2715,15.7777c-1.5736,1.0669-4.0975,1.9507-5.0325.2953.8624-1.5244,3.7589-.6707,3.6565,1.0778"></path><path class="cls-1" d="M305.81,658.9755l-5.3259,16.6627-2.6867,8.3233c-.891,2.7769-1.8159,5.54-2.5645,8.3407a40.1676,40.1676,0,0,0,5.1457,33.1684l-.0806.0591a35.4153,35.4153,0,0,1-7.1147-15.95,34.7733,34.7733,0,0,1-.4032-8.8321,43.2157,43.2157,0,0,1,1.6818-8.6582c.8061-2.82,1.7811-5.5735,2.7187-8.3324l2.829-8.2761,5.7055-16.5367Z"></path><path class="cls-2" d="M713.1445,327.7712c-8.1671-3.0731-12.429-13.76-8.618-21.61"></path><path class="cls-2" d="M754.3657,311.3055a18.0384,18.0384,0,0,1-3.3383-22.3293"></path><path class="cls-1" d="M695.9851,306.1952a16.6122,16.6122,0,0,0-.8421,7.8579,20.31,20.31,0,0,0,7.7365,13.3723,16.3038,16.3038,0,0,0,7.1172,3.1268l-.258.7677a4.7735,4.7735,0,0,1-1.5944-1.345,6.0282,6.0282,0,0,1-.9043-1.8359,12.7107,12.7107,0,0,1-.4833-3.92,38.1594,38.1594,0,0,1,1.0729-7.6424c.5948-2.4894,1.2606-4.9506,1.9709-7.3936.6872-2.4482,1.4442-4.8757,1.8891-7.376l.0994.01a50.8573,50.8573,0,0,1-1.3249,7.5364c-.56,2.4844-1.1834,4.9475-1.6705,7.4314a46.9862,46.9862,0,0,0-1.0388,7.4549,12.0821,12.0821,0,0,0,.3575,3.6344,4.2359,4.2359,0,0,0,1.9986,2.716l2.3085,1.2513-2.5665-.4835a17.122,17.122,0,0,1-7.3766-3.4091,20.4984,20.4984,0,0,1-7.6363-13.8619,16.8165,16.8165,0,0,1,1.0517-7.9281Z"></path><path class="cls-1" d="M737.8535,288.76a29.662,29.662,0,0,0,6.67,21.3166l-.4928-.09,3.4225-2.0525-.1425.6385a9.5046,9.5046,0,0,1-.6679-1.284,5.6713,5.6713,0,0,1-.3248-1.4069l-.0591-.7181c-.0014-.2377.034-.4711.05-.7071a7.0448,7.0448,0,0,1,.227-1.3844,19.8379,19.8379,0,0,1,2.1383-5.0058c.8921-1.558,1.8312-3.07,2.7913-4.5618a36.5992,36.5992,0,0,0,2.5829-4.6338l.0945.0326a25.3688,25.3688,0,0,1-2.1226,4.9214c-.82,1.585-1.73,3.1117-2.5229,4.6844a23.9622,23.9622,0,0,0-1.9605,4.8055,5.8619,5.8619,0,0,0,.5053,4.7508l.27.4075-.4128.2313-3.4817,1.9505-.2913.1632-.2019-.2535a29.621,29.621,0,0,1-6.171-21.8145Z"></path><path class="cls-1" d="M300.0619,174.3265a92.0676,92.0676,0,0,0-17.8242.1382c-2.9545.32-5.8754.8439-8.7984,1.3413-2.9312.4732-5.83,1.1118-8.7653,1.6977l-.0289-.0957a53.6779,53.6779,0,0,1,8.6047-2.5838,63.8252,63.8252,0,0,1,8.9163-1.1564,84.4494,84.4494,0,0,1,17.9071.5594Z"></path><path class="cls-1" d="M491.7036,137.89a7.8442,7.8442,0,0,0,4.0253-4.4632,12.0732,12.0732,0,0,0,.5963-6.0764,14.5769,14.5769,0,0,0-2.2857-5.6836,32.0071,32.0071,0,0,0-3.8944-4.8028c-1.4273-1.4974-2.9338-2.9218-4.3786-4.4149-1.459-1.4791-2.8427-3.03-4.1988-4.6039A91.8445,91.8445,0,0,1,468.1452,86.91a71.0307,71.0307,0,0,1-4.3543-11.6927,40.444,40.444,0,0,1-1.4432-12.4108,43.9415,43.9415,0,0,1,2.4993-12.2523,72.8176,72.8176,0,0,1,5.2034-11.361q1.5144-2.7316,3.1735-5.3747a38.2007,38.2007,0,0,1,3.6744-5.1025,23.7168,23.7168,0,0,1,4.6978-4.2464,11.8585,11.8585,0,0,1,6.0444-2.1444,9.0688,9.0688,0,0,1,6.0182,2.2679c1.6432,1.3984,2.893,3.0844,4.3525,4.4807a9.6182,9.6182,0,0,0,5.14,2.7646,11.0434,11.0434,0,0,0,5.8746-.68,14.4884,14.4884,0,0,0,8.3326-8.3045,18.9162,18.9162,0,0,0-.1869-12.0342A33.0867,33.0867,0,0,0,511.1775.0643L511.2541,0a33.3626,33.3626,0,0,1,6.35,10.6764,19.4112,19.4112,0,0,1,.358,12.39,15.21,15.21,0,0,1-8.6384,8.8561,11.903,11.903,0,0,1-6.32.8142,10.5944,10.5944,0,0,1-5.6846-2.9409c-1.5324-1.4752-2.7787-3.1489-4.3048-4.441a8.0592,8.0592,0,0,0-5.3495-2.0344,10.8863,10.8863,0,0,0-5.5187,1.9759,22.7493,22.7493,0,0,0-4.5012,4.07,37.2189,37.2189,0,0,0-3.6223,4.953q-1.664,2.6168-3.1911,5.3111a71.99,71.99,0,0,0-5.23,11.1891,43.18,43.18,0,0,0-2.53,12.0236,39.76,39.76,0,0,0,1.3479,12.21A70.4427,70.4427,0,0,0,468.6673,86.67a92.724,92.724,0,0,0,13.206,20.9178c1.3376,1.5776,2.7032,3.1338,4.1447,4.6186,1.4265,1.4984,2.9231,2.9364,4.345,4.4521a32.27,32.27,0,0,1,3.8877,4.8754,14.7994,14.7994,0,0,1,2.2723,5.788,12.2462,12.2462,0,0,1-.6544,6.16,7.9689,7.9689,0,0,1-4.1247,4.5Z"></path><path class="cls-1" d="M521.3625,138.9956a26.6407,26.6407,0,0,0-1.1039-8.3043,64.9464,64.9464,0,0,0-2.9236-7.8905c-1.1047-2.5833-2.2608-5.1508-3.2567-7.79a51.4982,51.4982,0,0,1-2.345-8.132,38.1274,38.1274,0,0,1,.2332-16.8581,28.7541,28.7541,0,0,1,8.7164-14.4058,25.446,25.446,0,0,1,3.4595-2.5305,24.9,24.9,0,0,1,3.875-1.8462c2.6786-.99,5.4409-1.5951,8.0391-2.55a13.4537,13.4537,0,0,0,6.63-4.5045,13.0845,13.0845,0,0,0,2.2919-7.66,29.54,29.54,0,0,0-1.1055-8.2011c-.6825-2.696-1.7323-5.3167-2.4979-8.04a35.9833,35.9833,0,0,1-1.5966-8.33,17.42,17.42,0,0,1,.297-4.2406,14.4088,14.4088,0,0,1,1.4574-3.9719l.0881.0474a14.2161,14.2161,0,0,0-1.272,3.9738,17.06,17.06,0,0,0-.1156,4.1628,35.6729,35.6729,0,0,0,1.8079,8.1532c.8469,2.6654,1.91,5.2741,2.6644,8.02a30.4476,30.4476,0,0,1,1.2727,8.4442,14.0768,14.0768,0,0,1-2.49,8.2311,14.44,14.44,0,0,1-7.0954,4.8468c-2.6962.9532-5.4584,1.5247-8.0687,2.4593a24.0145,24.0145,0,0,0-3.75,1.7349A24.6273,24.6273,0,0,0,521.206,76.22a28.0344,28.0344,0,0,0-8.6108,13.9655,37.5554,37.5554,0,0,0-.3709,16.5986,51.0525,51.0525,0,0,0,2.2292,8.0879c.9585,2.6353,2.0823,5.2128,3.158,7.8129a65.1716,65.1716,0,0,1,2.84,7.9535A26.79,26.79,0,0,1,521.4624,139Z"></path><path class="cls-3" d="M967.4792,331.73c-3.3826.8088-5.754,3.6412-8.4547,5.7792s-6.6289,3.6051-9.7013,1.521c2.5274-8.926,12.318-12.5338,20.9871-15.05,1.624,1.2257.1957,3.6781-1.3117,4.8036a59.691,59.691,0,0,1-15.8454,8.4494"></path></g></g></svg>