<svg xmlns="http://www.w3.org/2000/svg" id="Layer_1" data-name="Layer 1" viewBox="0 0 474.73 396.45"><defs><style>.cls-1,.cls-2{stroke:#f5d68d;}.cls-1,.cls-2,.cls-3,.cls-4{stroke-miterlimit:10;}.cls-2,.cls-3{fill:none;}.cls-3,.cls-4{stroke:#708e82;}</style></defs><path class="cls-1" d="M167.7,275.67a1.46,1.46,0,0,0-1.18,1l-.32-.31c1.52-.72,3-1.48,4.49-2.25a34.84,34.84,0,0,0,4.2-2.59c1.31-1,2.45-2.09,3.65-3.11a30.57,30.57,0,0,0,3.35-3.57l.18.08a9.27,9.27,0,0,1-2.13,4.81,12.55,12.55,0,0,1-4.13,3.24,38,38,0,0,1-4.65,2.2c-1.57.64-3.19,1.15-4.79,1.66l-.53.17.21-.48a1.76,1.76,0,0,1,1.63-1.06Z" transform="translate(0.03 0.01)"></path><path class="cls-1" d="M194.9,295.4a5.85,5.85,0,0,1-5.15-.89,9.5,9.5,0,0,1-3.31-4.18,37.5,37.5,0,0,1-1.71-5.05c-.5-1.7-1-3.4-1.42-5.12a50.76,50.76,0,0,1-1.72-10.53A28.56,28.56,0,0,1,183.13,259c2.44-6.81,7.2-12.54,12.75-17a66.83,66.83,0,0,1,18.69-10.36,89.61,89.61,0,0,1,20.81-4.87,31.62,31.62,0,0,0,5-1,21.29,21.29,0,0,0,4.57-2.11c2.94-1.75,5.64-4,8.66-6a26.26,26.26,0,0,1,4.87-2.55A16.3,16.3,0,0,1,264,214a17.32,17.32,0,0,1,10.47,3.14,16.16,16.16,0,0,1,6.16,8.87,16.44,16.44,0,0,1-.58,10.59l-.19-.07c2.2-6.69-.42-14.58-6.17-18.24a16.33,16.33,0,0,0-9.61-2.57,17.86,17.86,0,0,0-9.31,3.59c-2.87,1.92-5.57,4.26-8.7,6.16a22.56,22.56,0,0,1-5.06,2.28,32.69,32.69,0,0,1-5.38,1,88.31,88.31,0,0,0-20.51,4.41,65.24,65.24,0,0,0-18.42,9.87c-5.48,4.3-10.17,9.81-12.62,16.35a27.71,27.71,0,0,0-1.68,10.24,49.52,49.52,0,0,0,1.5,10.41c.4,1.72.86,3.42,1.32,5.13a39.79,39.79,0,0,0,1.59,5,9.25,9.25,0,0,0,3.11,4.09,5.61,5.61,0,0,0,4.92,1Z" transform="translate(0.03 0.01)"></path><path class="cls-1" d="M229.78,258.54a20.22,20.22,0,0,1-14.56-1.23l-.43-.21.25-.44.74-1.31h0l.15-.26h.33a57.2,57.2,0,0,0,6-.08,18.89,18.89,0,0,1,6.26.63,5.43,5.43,0,0,1,2.84,2,26.47,26.47,0,0,1,1.61,2.71,29.49,29.49,0,0,0,3,5.08,20,20,0,0,0,9.37,6.47,20.27,20.27,0,0,0,11.67.45l.07.19a17.63,17.63,0,0,1-12.25,1,18.7,18.7,0,0,1-10.45-7,32.81,32.81,0,0,1-2.94-5.52,24.55,24.55,0,0,0-1.35-2.53,4,4,0,0,0-2-1.49,17.91,17.91,0,0,0-5.77-.77q-3.07.08-6.14-.15l.48-.24h0l-.81,1.27-.18-.65a19.71,19.71,0,0,0,14.08,1.86Z" transform="translate(0.03 0.01)"></path><path class="cls-1" d="M197.91,276.17a7,7,0,0,0,3.93,1c1.38,0,2.77-.14,4.21-.25a8.88,8.88,0,0,1,4.56.56,5.45,5.45,0,0,1,1.93,1.5,3.33,3.33,0,0,1,.78,2.26l-.19.06a6.06,6.06,0,0,0-3.25-2,19.84,19.84,0,0,0-3.82-.82,38.91,38.91,0,0,1-4.32-.36,7.26,7.26,0,0,1-4-1.87Z" transform="translate(0.03 0.01)"></path><path class="cls-1" d="M199,286.73a12.27,12.27,0,0,0,4.73-1.62c1.48-.82,2.88-1.78,4.38-2.61a11.78,11.78,0,0,1,4.89-1.61,11,11,0,0,1,5,1.2c.79.33,1.55.68,2.34.94l1.2.35.6.18.62.11,1.24.22c.41,0,.83.06,1.25.09a17.38,17.38,0,0,0,2.5,0,34,34,0,0,0,9.71-2.45c3.15-1.21,6.2-2.67,9.31-4.07,1.55-.7,3.12-1.39,4.71-2a18.31,18.31,0,0,1,2.49-.86,6.16,6.16,0,0,1,2.8-.11c1.92.42,3.29,1.67,4.66,2.53a11.55,11.55,0,0,0,4.46,1.7,19.67,19.67,0,0,0,9.64-1.12c3.13-1.1,6.12-2.67,9.24-4.1a72.59,72.59,0,0,1,9.72-3.49,131,131,0,0,1,20.25-3.45c6.77-.68,13.51-1.28,20.14-2.55a61.08,61.08,0,0,0,19-6.65l.11.17c-1.45.88-2.86,1.87-4.38,2.64a49,49,0,0,1-4.65,2.16l-2.4.93-2.45.77c-1.63.55-3.3.93-5,1.35-6.67,1.59-13.48,2.29-20.2,3.18-3.37.39-6.73.82-10.06,1.35-1.67.23-3.32.57-5,.86s-3.28.72-4.91,1.1a68.92,68.92,0,0,0-9.5,3.21c-3.08,1.33-6.15,2.89-9.46,4a21.18,21.18,0,0,1-10.41,1,13,13,0,0,1-5-2c-1.45-1-2.72-2.09-4.18-2.41a8.23,8.23,0,0,0-4.58.84c-1.58.61-3.13,1.25-4.69,1.92-3.11,1.34-6.21,2.77-9.42,4a34.43,34.43,0,0,1-10,2.32,18.66,18.66,0,0,1-2.59,0,9.38,9.38,0,0,1-1.29-.12l-1.28-.24-.64-.12-.62-.2-1.24-.39c-.82-.29-1.59-.66-2.36-1a10.71,10.71,0,0,0-4.76-1.25,11.1,11.1,0,0,0-4.72,1.47c-1.49.79-2.92,1.72-4.42,2.53A12.29,12.29,0,0,1,198.9,287Z" transform="translate(0.03 0.01)"></path><path class="cls-1" d="M257.71,279.94a.91.91,0,0,1-.71-.38,1.51,1.51,0,0,1-.08-1.57,1,1,0,0,1,.75-.5h.2l.06.21c.75,2.48,1.37,5,2.09,7.45a27.27,27.27,0,0,0,2.92,6.93,15.1,15.1,0,0,0,2.31,2.79,20.11,20.11,0,0,0,2.78,2.27A10.83,10.83,0,0,0,275,299l.06.19a7.38,7.38,0,0,1-4,.75,10.4,10.4,0,0,1-4-1.18,13.13,13.13,0,0,1-5.62-5.87,30.59,30.59,0,0,1-2.54-7.5c-.57-2.54-.91-5.1-1.45-7.61l.26.18c-.34,0-.6.38-.62.81a.81.81,0,0,0,.63.94Z" transform="translate(0.03 0.01)"></path><path class="cls-1" d="M267.47,242a74.76,74.76,0,0,1,10.26.2,76.29,76.29,0,0,1,10.17,1.71,50.65,50.65,0,0,1,9.84,3.17,39.4,39.4,0,0,1,8.78,5.45l-.1.17c-3.2-1.27-6.3-2.59-9.45-3.78s-6.24-2.51-9.48-3.47a76,76,0,0,0-9.88-2.26,73.17,73.17,0,0,0-10.13-1Z" transform="translate(0.03 0.01)"></path><path class="cls-1" d="M291.29,259.8a31.21,31.21,0,0,0,10-3.8,71,71,0,0,1,9.78-4.82,23.28,23.28,0,0,1,5.4-1.19c1.83-.19,3.65-.23,5.44-.35a20,20,0,0,0,5.16-.86,32,32,0,0,0,4.85-2.11c1.59-.83,3.17-1.72,4.82-2.53a20.72,20.72,0,0,1,5.34-1.89,10.2,10.2,0,0,1,1.46-.17H345a13.67,13.67,0,0,1,2.84.6c1.8.56,3.47,1.29,5.13,1.9a23.82,23.82,0,0,0,2.47.82c.8.21,1.68.34,2.56.48,1.76.27,3.53.42,5.31.52a47.92,47.92,0,0,0,5.36,0c.91,0,1.76-.16,2.74-.15a3.81,3.81,0,0,1,1.41.28,1.44,1.44,0,0,1,.9,1.12h-.2a1.16,1.16,0,0,0-.85-.78,3.35,3.35,0,0,0-1.26-.09c-.83.09-1.75.34-2.65.48a47.75,47.75,0,0,1-5.47.52,44,44,0,0,1-5.51-.16,23.72,23.72,0,0,1-2.79-.4,25.41,25.41,0,0,1-2.71-.78c-1.74-.61-3.4-1.3-5.06-1.79a13.8,13.8,0,0,0-2.45-.56h-1.2a8.54,8.54,0,0,0-1.23.12c-3.32.51-6.49,2.35-9.77,3.9a33.66,33.66,0,0,1-5.14,2.07A21,21,0,0,1,322,251c-1.82.07-3.62.06-5.4.19a21.86,21.86,0,0,0-5.19,1,72,72,0,0,0-9.82,4.4A31.29,31.29,0,0,1,291.29,260Z" transform="translate(0.03 0.01)"></path><path class="cls-1" d="M249.17,219a7.57,7.57,0,0,0-3.51-1.18c-1.24-.18-2.54-.23-3.89-.55a8.52,8.52,0,0,1-2-.71,4,4,0,0,1-2.13-4,2.41,2.41,0,0,1,1.18-1.9l.15.13a3.45,3.45,0,0,0,.81,3,7.1,7.1,0,0,0,1.05,1,5.56,5.56,0,0,0,1.47.86c1.11.45,2.38.71,3.64,1.1a7.52,7.52,0,0,1,3.42,2Z" transform="translate(0.03 0.01)"></path><path class="cls-1" d="M308.77,186.54a15.58,15.58,0,0,1-5.32,6.84,14.51,14.51,0,0,1-3.94,2.1,9.24,9.24,0,0,1-4.6.47,6.44,6.44,0,0,1-4.13-2.57,8.92,8.92,0,0,1-1.57-4.45,17.65,17.65,0,0,1,0-2.3,5.69,5.69,0,0,1,.71-2.35,5.42,5.42,0,0,1,3.59-2.77l.08.19a6,6,0,0,0-2.38,3.15,4.88,4.88,0,0,0-.23,1.82,19.17,19.17,0,0,0,.25,2,10.74,10.74,0,0,0,1.22,3.6,5.3,5.3,0,0,0,1.14,1.27,4.88,4.88,0,0,0,1.65.77,7.77,7.77,0,0,0,3.89-.15,13.5,13.5,0,0,0,3.76-1.62,15.49,15.49,0,0,0,5.7-6.1Z" transform="translate(0.03 0.01)"></path><path class="cls-1" d="M299.29,212l1.55-.36h0a80.9,80.9,0,0,0,19-1.89c6.22-1.33,12.5-2.79,18.1-5.64a27.29,27.29,0,0,0,4-2.45,21.34,21.34,0,0,0,3.43-3.08,22.33,22.33,0,0,0,1.46-1.76,12.6,12.6,0,0,0,1.23-1.93,21.43,21.43,0,0,0,1.89-4.17,32.67,32.67,0,0,0,1.65-9.14,56.67,56.67,0,0,0-.37-9.48l-.08-.75.53.48c.59.54,1.17,1.09,1.75,1.64l-.14.12-2-1.36.45-.27c1.55,6.21,2.09,13,.09,19.36a21.12,21.12,0,0,1-5.08,8.55,23.71,23.71,0,0,1-3.82,3.18,29.74,29.74,0,0,1-4.29,2.43c-5.94,2.8-12.32,4-18.61,5.21a80.67,80.67,0,0,1-19.19,1.16h0l-1.56.3Z" transform="translate(0.03 0.01)"></path><path class="cls-1" d="M296.42,197.29a65.78,65.78,0,0,1,1.26,8.6c.05.72.1,1.44.13,2.17a10.87,10.87,0,0,1-.06,2.28,4.1,4.1,0,0,1-1.15,2.24,11.79,11.79,0,0,1-1.81,1.42c-2.38,1.61-4.66,3.36-7.17,4.77-1.25.71-2.5,1.41-3.79,2l-1,.48-.49.23a3.52,3.52,0,0,1-.62.22,2.64,2.64,0,0,1-1.25,0,1.06,1.06,0,0,1-.59-.35.69.69,0,0,1-.11-.66h.2c0,.35.29.4.58.39a2.43,2.43,0,0,0,.87-.26,2.71,2.71,0,0,0,.35-.24l.42-.34.85-.67c1.13-.89,2.3-1.73,3.48-2.55,2.35-1.66,4.91-3,7.38-4.43,1.26-.72,2.3-1.37,2.55-2.58a9.61,9.61,0,0,0,.19-2v-2.12a76.46,76.46,0,0,0-.46-8.56Z" transform="translate(0.03 0.01)"></path><path class="cls-1" d="M280.21,205.54c.78,1.49,1.54,3,2.26,4.45l.16.33-.29.31c-.66.72-1.34,1.42-2,2.11s-1.39,1.39-2.11,2a12.1,12.1,0,0,1-2.45,1.62,11,11,0,0,1-2.83,1l-.11-.17a16.94,16.94,0,0,1,2-2.23,16,16,0,0,1,2.18-1.85c.81-.5,1.6-1,2.36-1.62s1.52-1.15,2.27-1.76l-.13.64c-.51-1.62-1-3.24-1.43-4.85Z" transform="translate(0.03 0.01)"></path><path class="cls-1" d="M185,304.26a1.14,1.14,0,0,1-1.59-.16h0l-.58-.75.93.39a32.16,32.16,0,0,0,6.73,2,24.7,24.7,0,0,1,3.42.59,23.37,23.37,0,0,1,3.44,1.11v.2a9.15,9.15,0,0,1-3.7.58,10.14,10.14,0,0,1-3.6-.81,27.64,27.64,0,0,1-6.55-3.26l.35-.37a.78.78,0,0,0,1,.31Z" transform="translate(0.03 0.01)"></path><path class="cls-1" d="M217,304.89a27.38,27.38,0,0,0,3.46.76,25.26,25.26,0,0,0,3.47.3c1.16,0,2.3-.21,3.44-.13a21.47,21.47,0,0,1,3.57.42v.2a7.84,7.84,0,0,1-3.5,1.38,11,11,0,0,1-3.7-.27,20.05,20.05,0,0,1-6.86-2.48Z" transform="translate(0.03 0.01)"></path><path class="cls-1" d="M244.22,287.37a39.06,39.06,0,0,0-10.83,16.42c-.55,1.55-.93,3.15-1.41,4.78a14.68,14.68,0,0,1-2.23,4.69,19.39,19.39,0,0,1-8.37,6,50.63,50.63,0,0,1-9.8,2.83,28.76,28.76,0,0,1-5.16.43,22.21,22.21,0,0,1-5.19-.7,16.22,16.22,0,0,1-8.72-5.62,10.89,10.89,0,0,1-2.13-4.78,7.68,7.68,0,0,1,0-2.62,1.58,1.58,0,0,1,.72-1.23.59.59,0,0,1,.45,0,.7.7,0,0,1,.31.28.59.59,0,0,1,.08.39.34.34,0,0,1-.31.3v-.2c.13,0,.09-.19,0-.33s-.19-.14-.32-.06a1.2,1.2,0,0,0-.33.94,7,7,0,0,0,.28,2.36,10,10,0,0,0,2.32,4.09,15.73,15.73,0,0,0,8.14,4.57,20.31,20.31,0,0,0,4.72.56,29.94,29.94,0,0,0,4.82-.31,49.36,49.36,0,0,0,9.51-2.36,18,18,0,0,0,7.93-5.26c2-2.45,2.49-5.86,3.73-9a39.62,39.62,0,0,1,11.64-16.23Z" transform="translate(0.03 0.01)"></path><path class="cls-1" d="M228.49,308.17c1.9-.38,3.8-.7,5.7-1l5.71-1a43.52,43.52,0,0,0,5.4-1.24,6.29,6.29,0,0,0,4.19-2.94h.2a4,4,0,0,1-1.07,2.95,7.27,7.27,0,0,1-2.62,1.83,16.08,16.08,0,0,1-5.91,1l-5.77.35c-1.93.08-3.85.19-5.79.25Z" transform="translate(0.03 0.01)"></path><path class="cls-2" d="M244.82,296.07" transform="translate(0.03 0.01)"></path><path class="cls-1" d="M245.29,294.36a3.41,3.41,0,0,0,.18,2.27,13.47,13.47,0,0,0,1.11,2.09c.83,1.37,1.66,2.73,2.56,4a24.62,24.62,0,0,0,6.46,6.84,17.93,17.93,0,0,0,8.81,2.8,55.49,55.49,0,0,0,9.47-.32,37.08,37.08,0,0,0,9.2-1.83,15.6,15.6,0,0,0,4-2.15,19.16,19.16,0,0,0,3.27-3.22c4-4.94,8.09-9.9,12.27-14.73l1.28,1.44a11.45,11.45,0,0,1-6.23,1.6,21.52,21.52,0,0,1-6.11-1c-2-.57-3.83-1.22-5.74-1.7a20.37,20.37,0,0,0-2.9-.57,1.6,1.6,0,0,0-1.24.22c-.26.2-.17.92.25.89v.2a.61.61,0,0,1-.7-.47.9.9,0,0,1,.12-.88,2,2,0,0,1,1.57-.52,21.44,21.44,0,0,1,3,.27c2,.32,4,.85,5.89,1.25a24.19,24.19,0,0,0,5.75.63,9.67,9.67,0,0,0,5.19-1.55l5.53-3.79L304,291.41c-4,5-8.16,9.83-12.4,14.67a21,21,0,0,1-3.66,3.38,17.37,17.37,0,0,1-4.47,2.25,38.31,38.31,0,0,1-9.61,1.69,56,56,0,0,1-9.69.09,22.52,22.52,0,0,1-4.8-1,16.76,16.76,0,0,1-4.38-2.23A25.52,25.52,0,0,1,248.6,303c-.86-1.36-1.66-2.75-2.44-4.15a13.3,13.3,0,0,1-1.06-2.18,3.68,3.68,0,0,1-.11-2.43Z" transform="translate(0.03 0.01)"></path><path class="cls-3" d="M302,291.75" transform="translate(0.03 0.01)"></path><path class="cls-4" d="M302,290a86,86,0,0,0,21.23-4.29,91,91,0,0,0,19.55-9.17,99.84,99.84,0,0,0,16.84-13.4,106,106,0,0,0,13.87-16.53l.78-1.15-.17,1.34c-.15,1.16-.3,2.31-.47,3.47h-.2v-3.5l.61.19a73.56,73.56,0,0,1-13,17.64,85.79,85.79,0,0,1-17.5,13.29,91.78,91.78,0,0,1-20.06,8.76A86,86,0,0,1,302,290.21Z" transform="translate(0.03 0.01)"></path><path class="cls-1" d="M359.29,214.11a30.75,30.75,0,0,1-.35,8.24,34.55,34.55,0,0,1-2.49,7.94A25.57,25.57,0,0,1,352,237.4a20.52,20.52,0,0,1-6.73,4.94l-.11-.16a74.64,74.64,0,0,0,5.31-6.07,51.57,51.57,0,0,0,4.5-6.57,34.11,34.11,0,0,0,4.06-15.46Z" transform="translate(0.03 0.01)"></path><path class="cls-1" d="M192.29,316.14a41.29,41.29,0,0,1-10.47-4.6,63.18,63.18,0,0,1-9.17-7c-2.87-2.56-5.56-5.29-8.19-8.08s-5.26-5.61-7.67-8.6a27.89,27.89,0,0,1-3.08-5,19.51,19.51,0,0,1-1.71-5.63,35.38,35.38,0,0,1,.58-11.61,85.48,85.48,0,0,1,7.29-21.9,86.59,86.59,0,0,1,12.8-19.23,83,83,0,0,1,8.31-8.15,35.27,35.27,0,0,1,4.8-3.44,25,25,0,0,1,5.48-2.35c3.74-1.12,7.54-1.68,10.77-3.37a14.68,14.68,0,0,0,2.27-1.47,19.92,19.92,0,0,1,2.39-1.8,10.46,10.46,0,0,1,6-1l11.47.69c3.82.27,7.64.5,11.46.81v.2c-3.83,0-7.66-.06-11.48-.09l-11.47-.21a9.75,9.75,0,0,0-5.15,1,19.86,19.86,0,0,0-2.19,1.68,15.79,15.79,0,0,1-2.5,1.71c-3.56,2-7.46,2.59-11,3.76a22.76,22.76,0,0,0-5,2.2,34.44,34.44,0,0,0-4.5,3.27,84.85,84.85,0,0,0-28.41,48,34.29,34.29,0,0,0-.71,11.2,21.57,21.57,0,0,0,4.45,10.15c2.25,3,4.91,5.81,7.46,8.65s5.21,5.59,8,8.18a62.54,62.54,0,0,0,9,7A41.16,41.16,0,0,0,192.47,316Z" transform="translate(0.03 0.01)"></path><path class="cls-1" d="M221.38,206.24c6.88-5.41,11.21-13.18,17.16-19.57a44.22,44.22,0,0,1,4.83-4.45,48.92,48.92,0,0,1,5.45-3.66,93.62,93.62,0,0,1,11.82-5.67c8.06-3.27,16.39-6.15,25.08-7.47s17.41-1.41,25.85-3.12a49.35,49.35,0,0,0,6.21-1.64c1-.31,2-.74,3-1.12a17.93,17.93,0,0,0,2.83-1.44,30,30,0,0,0,5.19-3.63,28,28,0,0,0,4.32-4.58,19.44,19.44,0,0,0,4.17-11.39c.15-4.12-1.61-8.05-3.85-11.67s-4.85-7.24-6.57-11.41a61.91,61.91,0,0,1-3.24-12.78,105.39,105.39,0,0,0-7.42-24.75l.18-.09a92.92,92.92,0,0,1,5.17,12A105.1,105.1,0,0,1,325,102.4c.94,4.24,1.76,8.5,3.47,12.38s4.33,7.3,6.68,11a32.65,32.65,0,0,1,3,6,18.5,18.5,0,0,1-.16,13.46,23.88,23.88,0,0,1-3.36,5.89,29.24,29.24,0,0,1-4.68,4.82,32.49,32.49,0,0,1-5.54,3.75c-1,.56-2,1-3,1.47a22.24,22.24,0,0,1-3.14,1.14,52.37,52.37,0,0,1-6.42,1.6c-8.66,1.65-17.42,1.61-26,2.84A109.4,109.4,0,0,0,261,173.89a91,91,0,0,0-11.8,5.4,46.19,46.19,0,0,0-5.42,3.53,41.09,41.09,0,0,0-4.82,4.31c-3,3.12-5.61,6.6-8.35,10a55.15,55.15,0,0,1-9.12,9.33Z" transform="translate(0.03 0.01)"></path><path class="cls-1" d="M319.9,134.13c1.55,1.29,3,2.66,4.46,4.09a15.88,15.88,0,0,0,4.78,3.37,10.42,10.42,0,0,0,5.63.58,22.67,22.67,0,0,0,5.58-1.71c.89-.39,1.8-.86,2.82-1.23a6.82,6.82,0,0,1,3.43-.44,8.21,8.21,0,0,1,3.13,1.37c.88.61,1.64,1.22,2.45,1.85a35.68,35.68,0,0,1,4.5,4.19,16.36,16.36,0,0,1,3.19,5.27l-.18.09c-2.31-3.32-5.47-5.65-8.72-7.95l-2.42-1.72a6.53,6.53,0,0,0-2.32-1.14,5.09,5.09,0,0,0-2.51.18c-.89.26-1.8.67-2.78,1a24.36,24.36,0,0,1-6,1.52,11.56,11.56,0,0,1-6.19-.95,16.91,16.91,0,0,1-4.8-3.86,58.9,58.9,0,0,0-4.16-4.35Z" transform="translate(0.03 0.01)"></path><path class="cls-1" d="M151.08,144.89a22.17,22.17,0,0,0-1.43,9.47,37.26,37.26,0,0,0,2,9.4c1,3,2.21,6.08,3.4,9.08a37.73,37.73,0,0,0,4.44,8.43c1.84,2.54,4.38,4.47,6.78,6.79a23.23,23.23,0,0,1,3.25,3.88c.91,1.41,1.69,2.86,2.49,4.25a28.62,28.62,0,0,0,2.52,4c.94,1.26,2,2.45,3.06,3.73a21,21,0,0,1,2.78,4.15A7.65,7.65,0,0,1,181,213h-.2a7.56,7.56,0,0,0-1.28-4.45,19.84,19.84,0,0,0-3-3.65c-1.13-1.14-2.29-2.29-3.39-3.55a31.48,31.48,0,0,1-2.88-4.1,36.54,36.54,0,0,0-5.41-7.75c-2.17-2.28-4.78-4.43-6.67-7.25a39.8,39.8,0,0,1-4.34-8.89c-1.11-3.07-2.21-6.12-3.14-9.26a38.28,38.28,0,0,1-1.66-9.67,22.48,22.48,0,0,1,1.85-9.57Z" transform="translate(0.03 0.01)"></path><path class="cls-1" d="M195,124.74a1,1,0,0,0-.61.83,2.3,2.3,0,0,0,.21,1.1,6.42,6.42,0,0,0,1.32,1.9l1.6,1.81c.49.64.94,1.31,1.41,2a36.46,36.46,0,0,1,4,8.78c1.93,6.15,2.82,12.52,4.59,18.58a41.21,41.21,0,0,0,3.5,8.67,33.26,33.26,0,0,0,2.52,3.9c.9,1.27,1.88,2.5,2.89,3.71,4.07,4.86,8.24,9.73,12.08,14.85l-.15.13c-1.18-1.08-2.31-2.22-3.46-3.32l-3.38-3.4c-2.24-2.28-4.45-4.56-6.61-7-1.06-1.22-2.09-2.47-3.06-3.79a33.89,33.89,0,0,1-2.58-4.19,43.56,43.56,0,0,1-3.3-9.18c-1.61-6.26-2.3-12.62-4-18.72a35.57,35.57,0,0,0-3.55-8.75c-.43-.66-.85-1.33-1.3-2l-1.5-1.84a6.8,6.8,0,0,1-1.31-2.07,2.63,2.63,0,0,1-.18-1.24,1.21,1.21,0,0,1,.78-1Z" transform="translate(0.03 0.01)"></path><path class="cls-1" d="M262.08,134.76a19.86,19.86,0,0,0,2.24,8.32,46.19,46.19,0,0,0,4.6,7.35,66.38,66.38,0,0,1,5.11,7.23,20.73,20.73,0,0,1,2.8,8.5h-.19a54.25,54.25,0,0,0-4.31-7.51c-1.61-2.37-3.12-4.88-4.72-7.36a48.45,48.45,0,0,1-4.19-7.85,20.35,20.35,0,0,1-1.52-8.72Z" transform="translate(0.03 0.01)"></path><path class="cls-1" d="M270.29,118.13a22,22,0,0,0,13.11,1.59,27.54,27.54,0,0,0,4.28-1.23,8.35,8.35,0,0,1,4.74-.45,8.11,8.11,0,0,1,4.05,2.61,12.88,12.88,0,0,1,2.38,4.1c.55,1.46.93,3,1.32,4.4a29.18,29.18,0,0,0,1.4,4.17,31.09,31.09,0,0,0,2.05,3.87c.76,1.26,1.61,2.48,2.46,3.7l2.57,3.71a41.36,41.36,0,0,1,4.43,8,23.83,23.83,0,0,1,1.25,4.46,15.35,15.35,0,0,1,0,4.59h-.2a17.54,17.54,0,0,0-.74-4.38,22.5,22.5,0,0,0-1.63-4.09,53.56,53.56,0,0,0-4.79-7.47L304.33,142c-.86-1.25-1.69-2.54-2.46-3.88a31.06,31.06,0,0,1-2-4.2,31.46,31.46,0,0,1-1.3-4.45c-.68-2.93-1.29-5.86-3.14-8a6.84,6.84,0,0,0-3.35-2.34,7.26,7.26,0,0,0-4.15.29,28.24,28.24,0,0,1-4.45,1.06,21.93,21.93,0,0,1-4.58.18,22.38,22.38,0,0,1-8.74-2.38Z" transform="translate(0.03 0.01)"></path><path class="cls-1" d="M293.1,117.66A45.37,45.37,0,0,0,298.29,99a43.83,43.83,0,0,0-.5-9.71c-.26-1.6-.61-3.18-1-4.76s-.86-3.16-1.2-4.79a19.08,19.08,0,0,1-.43-5,10.5,10.5,0,0,1,1.51-4.9,11.91,11.91,0,0,1,3.57-3.67,20.47,20.47,0,0,1,4.55-2.24,48.32,48.32,0,0,1,9.73-2c3.27-.42,6.56-.7,9.85-.82a50.64,50.64,0,0,1,10,.33,23.65,23.65,0,0,1,9.41,3.82,30.3,30.3,0,0,1,7.19,7.1A50.16,50.16,0,0,1,356,81c.68,1.52,1.28,3.07,1.85,4.63a44.32,44.32,0,0,1,1.47,4.8,11.1,11.1,0,0,1,.09,5.25A7.19,7.19,0,0,1,356.2,100c-3.05,1.89-6.66,2-9.9,1.6s-6.49-1.07-9.71-.49v-.17c3.22-.91,6.62-.39,9.84-.23a19.54,19.54,0,0,0,4.77-.17,10.48,10.48,0,0,0,4.27-1.68,6,6,0,0,0,2.42-3.51,9.52,9.52,0,0,0-.23-4.47,44.89,44.89,0,0,0-1.54-4.54c-.6-1.5-1.23-3-1.93-4.44a48.32,48.32,0,0,0-4.86-8.27,28.73,28.73,0,0,0-6.65-6.69,21.8,21.8,0,0,0-8.58-3.68,50.72,50.72,0,0,0-9.62-.5c-3.25.07-6.5.29-9.73.66a46.41,46.41,0,0,0-9.49,1.83c-3,1-5.92,2.61-7.56,5.26a9.57,9.57,0,0,0-1.42,4.37,17.54,17.54,0,0,0,.34,4.74c.29,1.59.7,3.16,1.09,4.76s.72,3.22,1,4.86a44,44,0,0,1,.3,9.87,45.94,45.94,0,0,1-5.67,18.7Z" transform="translate(0.03 0.01)"></path><path class="cls-1" d="M356.51,100.89a17.17,17.17,0,0,0,4.92,9.47c.51.5,1.06.93,1.65,1.47a3.76,3.76,0,0,1,1,4.84,14,14,0,0,1-3,3.63,23.62,23.62,0,0,1-12.05,6l-.07-.19a80,80,0,0,0,7.39-4.68c1.15-.85,2.32-1.69,3.43-2.59a12.06,12.06,0,0,0,2.91-2.88,2.69,2.69,0,0,0,.41-1.63,2.89,2.89,0,0,0-.86-1.54c-.47-.49-1-1-1.56-1.59a15.31,15.31,0,0,1-1.41-1.8,17.23,17.23,0,0,1-2.88-8.44Z" transform="translate(0.03 0.01)"></path><path class="cls-1" d="M365.08,116.89a1.6,1.6,0,0,0-.79,1.24,2.79,2.79,0,0,0,.24,1.51,3.67,3.67,0,0,0,2.43,1.79c1,.31,2.1.44,3.16.71a22.79,22.79,0,0,1,3.13,1,20.73,20.73,0,0,1,10.13,8.22c2.35,3.85,3,8.46,2.83,12.85a45,45,0,0,1-.77,6.55c-.22,1.07-.4,2.16-.66,3.23l-.83,3.19a59.67,59.67,0,0,1-12.48,23.06c-6,6.49-13.49,11.69-21.93,14l-.07-.19A55.39,55.39,0,0,0,370,178.89a66.11,66.11,0,0,0,12.45-22.21l.88-3.09c.28-1,.47-2.09.71-3.13a45.22,45.22,0,0,0,.9-6.34,21.72,21.72,0,0,0-2.41-12.23,20,20,0,0,0-9.5-8.18,21,21,0,0,0-3-1.07c-1-.3-2.11-.46-3.16-.81a4,4,0,0,1-2.58-2,3.08,3.08,0,0,1-.22-1.67,1.85,1.85,0,0,1,.94-1.37Z" transform="translate(0.03 0.01)"></path><path class="cls-1" d="M380.14,161.83c1.79.75,3.56,1.55,5.34,2.33l2.65,1.21a20.49,20.49,0,0,1,2.67,1.39,9.15,9.15,0,0,1,2.36,2.2,7.81,7.81,0,0,1,1.28,2.92,13.65,13.65,0,0,1-.16,6h-.2c-.63-1.91-1-3.8-1.57-5.49a8.94,8.94,0,0,0-2.65-4.36,51.28,51.28,0,0,0-4.84-3l-5-3Z" transform="translate(0.03 0.01)"></path><path class="cls-1" d="M292.41,74.48a4.28,4.28,0,0,1,.24-2.45l.12.28a25.07,25.07,0,0,1-7.69-4,57.41,57.41,0,0,0-7.1-4.65,15.65,15.65,0,0,0-3.81-1.32c-1.29-.26-2.67-.36-4.11-.54a16.33,16.33,0,0,1-4.37-1,9.4,9.4,0,0,1-1-.51l-.9-.6c-.26-.18-.49-.25-.61-.18s0-.06,0,0a.27.27,0,0,0,.07.14.69.69,0,0,0,.13.11h0V59.7h.2a.37.37,0,0,1,0,.21.27.27,0,0,1-.22.15A.57.57,0,0,1,263,60a.77.77,0,0,1-.28-.26.49.49,0,0,1,0-.52.9.9,0,0,1,.72-.36,2.18,2.18,0,0,1,.67.1c.41.14.7.27,1,.37a7,7,0,0,0,1,.25,24.48,24.48,0,0,0,4.1.34,18.79,18.79,0,0,1,4.42.5,15.72,15.72,0,0,1,4.16,1.81,61.08,61.08,0,0,1,6.95,5.24A26.22,26.22,0,0,0,292.88,72l.23.08-.1.2a4,4,0,0,0-.42,2.25Z" transform="translate(0.03 0.01)"></path><path class="cls-1" d="M275.16,58.78a15.62,15.62,0,0,0-.93-3.15,15.92,15.92,0,0,0-1.49-2.83c-.58-.89-1.39-1.58-1.95-2.46A32.13,32.13,0,0,1,269,47.52l.12-.16A6.22,6.22,0,0,1,272.26,49a8.48,8.48,0,0,1,1.85,3,13.82,13.82,0,0,1,1,3.32,13.42,13.42,0,0,1,.17,3.41Z" transform="translate(0.03 0.01)"></path><path class="cls-1" d="M293.38,70.63l.53,3.09.36,2.13-.83-2A36.34,36.34,0,0,1,291.25,66c-.46-2.7-.77-5.36-1.1-8.08a16.79,16.79,0,0,1,0-4.25,23.75,23.75,0,0,1,1-4A61.27,61.27,0,0,1,293.87,42h.19a62.46,62.46,0,0,1-1.1,8.06l-.8,3.88a17.49,17.49,0,0,0-.3,3.82c.1,2.66.26,5.37.52,8a41.31,41.31,0,0,0,1.5,7.86l-.47.11-.25-3.12Z" transform="translate(0.03 0.01)"></path><path class="cls-1" d="M276.1,32.54c7.56,2.68,15.43,4.9,23.47,4.86a35.7,35.7,0,0,0,11.76-2,27.14,27.14,0,0,0,10.09-6.16,23.32,23.32,0,0,0,2-2.21,16,16,0,0,0,1.64-2.44,8.4,8.4,0,0,0,1-5.53,11.79,11.79,0,0,0-2.48-5.17,22,22,0,0,0-4.28-4,36.17,36.17,0,0,0-10.55-5.38,52.85,52.85,0,0,0-11.68-2.35c-8-.75-16-.11-24,.29S257,2.89,249,3.31c-4,.23-8,.46-12,.94-2,.2-4,.52-5.94.79a55.65,55.65,0,0,0-5.86,1.15,72.84,72.84,0,0,0-11.37,3.49,59.91,59.91,0,0,0-10.47,5.47l.22-1.41,4.69,6.2c.79,1,1.56,2,2.36,3.14a7.21,7.21,0,0,1,1,2,4.76,4.76,0,0,1,.11,2.34,10.43,10.43,0,0,1-1.84,3.77,17.94,17.94,0,0,0-1,1.61c-.3.54-.7,1.06-1,1.63a37,37,0,0,0-3,7,38.85,38.85,0,0,0-1.58,7.46,40.49,40.49,0,0,0,1.45,15.21,39.26,39.26,0,0,0,3,7.11l-.17.1a39.51,39.51,0,0,1-3.36-7,42.48,42.48,0,0,1-1.82-7.62,40.5,40.5,0,0,1-.21-7.86,40.9,40.9,0,0,1,1.35-7.77,36.75,36.75,0,0,1,2.94-7.35,19.72,19.72,0,0,1,1-1.72c.34-.57.69-1.14,1-1.67a9,9,0,0,0,1.5-3.15,3.73,3.73,0,0,0-.89-3c-.73-1-1.58-2-2.36-3L202,15.06l-.65-.82.87-.59a63.11,63.11,0,0,1,22.48-9.39,136.1,136.1,0,0,1,24.15-2.68C256.9,1.28,265,1.31,273,1s16.13-.9,24.23-.1a55.22,55.22,0,0,1,11.93,2.52A37.39,37.39,0,0,1,320,9.11a23.28,23.28,0,0,1,4.43,4.27A12.63,12.63,0,0,1,327,19a9.3,9.3,0,0,1-1.21,6.1A16.46,16.46,0,0,1,324,27.67a21.9,21.9,0,0,1-2,2.27,27.81,27.81,0,0,1-10.44,6.2,36,36,0,0,1-12,1.87c-8.14-.07-16-2.4-23.54-5.17Z" transform="translate(0.03 0.01)"></path><path class="cls-1" d="M209.51,28.54a.79.79,0,0,1-.27-.56,1.12,1.12,0,0,1,.17-.59,2.91,2.91,0,0,1,.81-.83,4.64,4.64,0,0,1,1-.49l1-.41c1.35-.55,2.7-1.08,4.07-1.6a87.41,87.41,0,0,1,8.36-2.68A33.38,33.38,0,0,1,233.41,20a21.35,21.35,0,0,1,8.7,1.75v.19a61.57,61.57,0,0,0-8.59,0,81.71,81.71,0,0,0-8.54,1,86.5,86.5,0,0,0-8.4,2.07l-4.17,1.23a15.7,15.7,0,0,0-2,.68,2.26,2.26,0,0,0-.77.64.64.64,0,0,0,0,.84Z" transform="translate(0.03 0.01)"></path><path class="cls-1" d="M201.41,64.31a99.24,99.24,0,0,0-8.32,5.46A48.15,48.15,0,0,0,189.32,73a29.33,29.33,0,0,0-3.21,3.74,20.16,20.16,0,0,0-2.31,4.32,19.37,19.37,0,0,0-1.14,4.75,55.26,55.26,0,0,0,.08,9.88,43.57,43.57,0,0,1-.19,10.08,19.62,19.62,0,0,1-1.52,4.9,44.26,44.26,0,0,1-2.48,4.4,43.69,43.69,0,0,0-2.41,4.27,11.91,11.91,0,0,0-1.24,4.52c-.2,3.12,1.38,6.07,2.87,9a29.39,29.39,0,0,1,2,4.69,13.34,13.34,0,0,1,.6,5.25c-.13,1.73-.45,3.36-.54,4.94a10.42,10.42,0,0,0,.67,4.49,18.17,18.17,0,0,0,5.86,7.25c2.49,2,5.39,3.69,8.12,5.69a22.42,22.42,0,0,1,7,7.59,25.37,25.37,0,0,1,2.35,9.95c.21,3.36.22,6.65.57,10a90.68,90.68,0,0,0,1.47,9.83h-.19a76.12,76.12,0,0,1-2.18-9.77c-.52-3.31-.69-6.67-1.06-9.93a25.33,25.33,0,0,0-2.48-9.27,20.69,20.69,0,0,0-6.61-6.78c-2.65-1.91-5.56-3.55-8.25-5.69a20,20,0,0,1-6.41-8.17,12.31,12.31,0,0,1-.7-5.31c.13-1.75.49-3.38.63-5,.41-3.14-.82-6.11-2.29-9.08a42.46,42.46,0,0,1-2-4.59,12.42,12.42,0,0,1-.82-5.19,13.51,13.51,0,0,1,1.44-5,46.52,46.52,0,0,1,2.55-4.37,46,46,0,0,0,2.48-4.24,17.93,17.93,0,0,0,1.49-4.58,43,43,0,0,0,.32-9.82,55.67,55.67,0,0,1,.12-10,20.22,20.22,0,0,1,1.28-4.9,21,21,0,0,1,2.47-4.41A29.23,29.23,0,0,1,189,72.67a43.71,43.71,0,0,1,3.88-3.18,93.82,93.82,0,0,1,8.46-5.32Z" transform="translate(0.03 0.01)"></path><path class="cls-1" d="M241.71,182.76a81.39,81.39,0,0,0-.08-10,77.43,77.43,0,0,0-7.81-28.51,73.47,73.47,0,0,0-11-16.2,41.35,41.35,0,0,0-7.63-6,51.24,51.24,0,0,0-8.52-5l-.79-.32.8-.17c.66-.14,1.33-.26,2-.38l0,.19c-.64.23-1.27.47-1.91.68v-.51c3.32.81,6.25,2.6,9.17,4.15a36.17,36.17,0,0,1,8.27,5.94,47,47,0,0,1,6.2,8,78.91,78.91,0,0,1,8.4,18.29,84.17,84.17,0,0,1,2.35,9.77,86,86,0,0,1,1,10,83.4,83.4,0,0,1-.31,10Z" transform="translate(0.03 0.01)"></path><path class="cls-1" d="M219.08,124.38a55.71,55.71,0,0,1,7.32-13.2,110.87,110.87,0,0,1,9.89-11.43,21.44,21.44,0,0,1,6.19-4.8,9.7,9.7,0,0,1,4.07-.87,13.29,13.29,0,0,1,4,.8c2.46.94,4.64,2.07,6.92,3.17s4.49,2.27,6.69,3.51l-.08.18c-2.42-.73-4.8-1.53-7.16-2.4-1.19-.42-2.36-.87-3.53-1.31s-2.32-.91-3.47-1.25a9.16,9.16,0,0,0-6.64,0,19,19,0,0,0-5.84,4.12,108.88,108.88,0,0,0-10.25,10.9,55.93,55.93,0,0,0-7.9,12.67Z" transform="translate(0.03 0.01)"></path><path class="cls-1" d="M252.29,98.07a31.91,31.91,0,0,0,3-7.85,30.07,30.07,0,0,0,.84-8.24v-.62l.67-.19c2.26-.64,4.49-1.37,6.8-1.79a57,57,0,0,1,7-1l-.23.25c.12-.34.25-.69.39-1h.2v1.26l-.23.1a56.69,56.69,0,0,1-6.68,2.31c-2.25.66-4.57,1-6.88,1.48l.64-.81a32.06,32.06,0,0,1-1.53,8.52,30.13,30.13,0,0,1-3.79,7.67Z" transform="translate(0.03 0.01)"></path><path class="cls-1" d="M255.18,84.22l-.9,1-.08.09-.12-.07a27.77,27.77,0,0,1-6.52-6c-1.88-2.3-3.56-4.72-5.41-6.94A37.43,37.43,0,0,0,236,66.47a18.43,18.43,0,0,0-3.59-2.1c-.33-.14-.66-.27-1-.38a8.94,8.94,0,0,0-1-.32,2.71,2.71,0,0,0-2-.11l-.13-.15a1.71,1.71,0,0,1,1.08-.55,5.75,5.75,0,0,1,1.17-.07,7.4,7.4,0,0,1,1.15.07,9,9,0,0,1,1.14.19,13.87,13.87,0,0,1,4.28,1.78,23,23,0,0,1,6.37,6.45c1.74,2.43,3.26,4.94,5,7.31A28.15,28.15,0,0,0,254.25,85h-.2l1-.9Z" transform="translate(0.03 0.01)"></path><path class="cls-1" d="M239.55,69l-.16-14.2a23.19,23.19,0,0,1,1-7.17A17.15,17.15,0,0,1,257.63,36,23.9,23.9,0,0,1,271,41.36l-.44.52q-.78-.95-1.53-1.92l.14-.14c.64.51,1.26,1,1.88,1.58l2.4,2.06-2.81-1.57A29.86,29.86,0,0,0,257.54,38a22.05,22.05,0,0,0-3.35.16,17.14,17.14,0,0,0-3.24.76,14.78,14.78,0,0,0-5.66,3.49,16,16,0,0,0-3.7,5.63,22.56,22.56,0,0,0-1.22,6.86l-.6,14.17Z" transform="translate(0.03 0.01)"></path><path class="cls-1" d="M239.83,43.22a45.68,45.68,0,0,0-4-3.87,20,20,0,0,0-2.2-1.68,12,12,0,0,1-2.18-1.78l-.72-.73.53-.56a2.28,2.28,0,0,1,3.21-.17h0l-.08.18a2,2,0,0,0-1.71,1.09l-.19-1.28a7.73,7.73,0,0,1,2.31,1.74c.65.72,1.32,1.42,1.94,2.15A27.63,27.63,0,0,1,240,43.08Z" transform="translate(0.03 0.01)"></path><path class="cls-1" d="M248.74,38.38A34.66,34.66,0,0,1,256,30.62a38.2,38.2,0,0,1,9.28-5.32,31.23,31.23,0,0,1,10.47-2.47,25.3,25.3,0,0,1,10.58,1.71l-.05.19a55.27,55.27,0,0,0-10.37.08,48.59,48.59,0,0,0-10.06,2,37.18,37.18,0,0,0-9.24,4.62,34.06,34.06,0,0,0-7.65,7.07Z" transform="translate(0.03 0.01)"></path><path class="cls-1" d="M268.88,24.41a28.63,28.63,0,0,0,7.86-7.3l.4,1c-1.51-.16-3-.3-4.54-.41s-3-.15-4.54-.2-3-.2-4.53-.35-3-.34-4.54-.58l.32-.66a1.19,1.19,0,0,0,1.1.63l0,.19a1.59,1.59,0,0,1-1.8-.33l-.52-.52.84-.14a37.62,37.62,0,0,1,4.61-.43,32.24,32.24,0,0,1,4.61.14c1.53.17,3,.41,4.57.64s3,.48,4.54.77l1.08.2-.69.8a26.68,26.68,0,0,1-8.75,6.7Z" transform="translate(0.03 0.01)"></path><path class="cls-1" d="M274.78,17.42a35.09,35.09,0,0,1,7.88-4.48,37.67,37.67,0,0,1,8.85-2.29,28.4,28.4,0,0,1,9.2,0A23,23,0,0,1,309.24,14l-.08.18a72,72,0,0,0-8.74-1.53,53.32,53.32,0,0,0-8.75-.4A35.8,35.8,0,0,0,283,13.89a34.09,34.09,0,0,0-8.1,3.7Z" transform="translate(0.03 0.01)"></path><path class="cls-1" d="M287.89,11.2a3.11,3.11,0,0,1-1-1.07q-.34-.59-.75-1.14a8,8,0,0,0-1.87-1.72c-.72-.46-1.54-.61-2.25-1S280.54,5.55,279.6,5V4.89a4.12,4.12,0,0,1,3.07-.47,5.61,5.61,0,0,1,2.61,1.66A7.75,7.75,0,0,1,287,8.54a9.47,9.47,0,0,0,1,2.55Z" transform="translate(0.03 0.01)"></path><path class="cls-1" d="M326.72,24.89a2,2,0,0,0-1.87-.29,1.72,1.72,0,0,0-1.21,1.24l-.13-.42a11.24,11.24,0,0,0,4.29,1.65c1.54.29,3.13.42,4.77.6a11,11,0,0,1,4.86,1.56,6.17,6.17,0,0,1,3.05,4.12l-.18.08a9,9,0,0,0-3.71-2.57c-1.39-.53-2.84-.94-4.35-1.36s-3.16-.67-4.76-1.15A11.18,11.18,0,0,1,323,26l-.21-.19.08-.22a2.4,2.4,0,0,1,1.85-1.52,2.24,2.24,0,0,1,2.14.64Z" transform="translate(0.03 0.01)"></path><path class="cls-1" d="M320.29,5.48a18.85,18.85,0,0,0,2,.79c.69.22,1.37.41,2.06.56a11,11,0,0,1,2.06.35,7.1,7.1,0,0,1,2,1.14v.2a3.85,3.85,0,0,1-2.38.62,5.31,5.31,0,0,1-2.21-.8,13,13,0,0,1-2-1.18,11.77,11.77,0,0,1-1.71-1.52Z" transform="translate(0.03 0.01)"></path><path class="cls-1" d="M322.83,16a17.45,17.45,0,0,1,11-8.14,17.69,17.69,0,0,1,13.68,2.57c2,1.34,3.58,3.15,5.36,4.29a7.3,7.3,0,0,0,2.79,1.16c1,.2,2.18.29,3.42.57a6.3,6.3,0,0,1,3.43,2,7.62,7.62,0,0,1,1.68,3.43,15.68,15.68,0,0,1-.58,7.07l-.29-.26h0a.28.28,0,0,0,0-.18c0-.14-.13-.26-.25-.21l-.1-.17a.36.36,0,0,1,.4,0,.68.68,0,0,1,.26.27.59.59,0,0,1,.08.39.48.48,0,0,1-.33.38l-.3.07v-.36a18.63,18.63,0,0,0-.44-6.61,6.42,6.42,0,0,0-1.54-2.58,4.69,4.69,0,0,0-2.53-1.26c-1-.23-2.16-.25-3.38-.51a8.67,8.67,0,0,1-3.48-1.58c-2-1.49-3.4-3.33-5.17-4.59A16.39,16.39,0,0,0,334,8.89a16.85,16.85,0,0,0-11,7.28Z" transform="translate(0.03 0.01)"></path><path class="cls-1" d="M363.58,20.59a28.84,28.84,0,0,1-2.74,3,31,31,0,0,1-3.18,2.53,13.75,13.75,0,0,1-3.54,2,9.91,9.91,0,0,1-4.11.54l-.06-.19a23.84,23.84,0,0,1,3.36-2.18c1.11-.65,2.37-1,3.53-1.58a29,29,0,0,0,3.38-1.94,36.2,36.2,0,0,0,3.21-2.31Z" transform="translate(0.03 0.01)"></path><path class="cls-1" d="M358.22,18.54a6,6,0,0,0,3,.4c1-.08,2.09-.27,3.18-.3a7.84,7.84,0,0,1,3.2.66,11.29,11.29,0,0,1,2.69,1.85c1.59,1.47,2.91,3.16,4.35,4.67A15.52,15.52,0,0,0,377,27.89a8.72,8.72,0,0,0,2.65,1.3l.88.27-.61.68a7.27,7.27,0,0,1-3.16,2,19.81,19.81,0,0,1-3.5.74c-2.3.32-4.53.59-6.31,1.75s-3.36,2.92-5.49,4.24-4.62,1.67-6.51,2.58c-3.89,1.81-6.79,5.46-8.57,9.52s-2.64,8.67-3.57,13.19h-.2c.21-4.61.59-9.3,2.21-13.8a21.45,21.45,0,0,1,3.5-6.31,15.63,15.63,0,0,1,5.77-4.48c2.3-1,4.62-1.24,6.42-2.29s3.48-2.75,5.61-4A10.94,10.94,0,0,1,369.56,32c1.18-.24,2.35-.35,3.49-.47,2.25-.24,4.53-.61,6-2.14l.27,1a11.88,11.88,0,0,1-5.34-3.9c-1.42-1.61-2.65-3.33-4.13-4.8a11.44,11.44,0,0,0-2.46-1.8,7.09,7.09,0,0,0-3-.73c-1,0-2.09.12-3.16.17a6.25,6.25,0,0,1-3.16-.54Z" transform="translate(0.03 0.01)"></path><path class="cls-1" d="M371,36.06a2.92,2.92,0,0,1-3,.24l.26-.29c2.23,3,4.5,6,6.69,9.05a8.51,8.51,0,0,1,1.27,2.71,6.46,6.46,0,0,1,0,3.09,23.37,23.37,0,0,1-2.38,5.3c-.92,1.67-1.92,3.28-3,4.85s-2.34,3-3.42,4.43a10,10,0,0,0-2.16,4.62,5.15,5.15,0,0,0,1.64,4.73l-.1.17a4.38,4.38,0,0,1-2.14-2,6.54,6.54,0,0,1-.75-2.94,10.19,10.19,0,0,1,1.91-5.68c1.08-1.65,2.27-3,3.38-4.51s2.2-3,3.18-4.52a21.07,21.07,0,0,0,2.48-4.78,5.13,5.13,0,0,0,.15-2.46,7.78,7.78,0,0,0-1-2.4l-6.08-9.41-.48-.75.75.46a2.61,2.61,0,0,0,2.72,0Z" transform="translate(0.03 0.01)"></path><path class="cls-1" d="M376.47,28.7c-.44,0-.44.56-.28,1a2,2,0,0,0,.79,1c.71.57,1.45,1.1,2.21,1.61,1.51,1,3.08,2,4.55,3.11a14.85,14.85,0,0,1,3.81,4.09,15.37,15.37,0,0,1,1.92,5.29,36.82,36.82,0,0,1-.18,11.09c-.46,3.65-1,7.27-1.62,10.89a164.24,164.24,0,0,0-2.24,21.68,66.12,66.12,0,0,0,.59,10.8,47.76,47.76,0,0,0,2.73,10.52l-.18.09a37.31,37.31,0,0,1-2.35-5,45.34,45.34,0,0,1-1.57-5.34,52.06,52.06,0,0,1-1.22-11.06c-.1-7.45,1.33-14.75,2.67-21.94.67-3.6,1.35-7.19,1.91-10.8A36.05,36.05,0,0,0,388.49,45a13.33,13.33,0,0,0-5.12-9.07c-1.39-1.16-2.92-2.17-4.4-3.25-.74-.54-1.47-1.1-2.17-1.7a2.42,2.42,0,0,1-.84-1.15,1.55,1.55,0,0,1-.07-.74.59.59,0,0,1,.58-.49Z" transform="translate(0.03 0.01)"></path><path class="cls-1" d="M383.86,34.36A43.92,43.92,0,0,1,406.74,51.2a41.21,41.21,0,0,1,3.63,6.27,40.26,40.26,0,0,1,2.5,6.81,43.2,43.2,0,0,1,1.28,7.15,49,49,0,0,1,.08,7.27,44.86,44.86,0,0,1-3.41,14.1,40.1,40.1,0,0,1-3.42,6.44c-1.3,2.07-2.84,3.92-4,5.94a11,11,0,0,0-1.73,6.47,24.71,24.71,0,0,0,1.72,6.76,132,132,0,0,0,5.9,13.06,113.47,113.47,0,0,1,5.78,13.3,37,37,0,0,1,2,14.53,31,31,0,0,1-1.48,7.26,38.58,38.58,0,0,1-2.93,6.76,53.78,53.78,0,0,1-3.93,6.18c-1.41,2-2.93,3.87-4.49,5.72-3.15,3.68-6.47,7.15-9.72,10.68s-6.51,7-9.81,10.54l-9.87,10.45-5,5.21-2.49,2.61a4.68,4.68,0,0,1-1.42,1.2.92.92,0,0,1-.52,0,.61.61,0,0,1-.42-.36.84.84,0,0,1-.06-.52.41.41,0,0,1,.43-.34v.2c-.23,0-.25.34-.13.55a.39.39,0,0,0,.25.2.73.73,0,0,0,.36,0,4.6,4.6,0,0,0,1.22-1.19l2.36-2.72,4.72-5.44,9.52-10.74c3.16-3.61,6.38-7.17,9.57-10.76s6.44-7.12,9.46-10.8c1.53-1.83,3-3.69,4.37-5.62a52.44,52.44,0,0,0,3.76-6,33.77,33.77,0,0,0,4.27-13.21,34.87,34.87,0,0,0-1.8-13.82,109.88,109.88,0,0,0-5.52-13.16A136.18,136.18,0,0,1,402,118.89a25.65,25.65,0,0,1-1.73-7.17,11,11,0,0,1,.43-3.79,15.27,15.27,0,0,1,1.59-3.4c1.26-2.13,2.83-4,4.1-6a39.89,39.89,0,0,0,3.38-6.23,44.11,44.11,0,0,0,3.47-13.73,46.88,46.88,0,0,0,0-7.11,42.61,42.61,0,0,0-1.16-7,41.26,41.26,0,0,0-5.79-12.93,43.47,43.47,0,0,0-22.44-17Z" transform="translate(0.03 0.01)"></path><path class="cls-1" d="M367.64,203.54h0l-.06-.08c0-.07-.16-.09-.15-.07a.62.62,0,0,0,0,.38,12.27,12.27,0,0,0,.71,1.28c.51.88,1,1.75,1.58,2.61a19.31,19.31,0,0,1,1.64,2.54,10.08,10.08,0,0,1,.88,3.05l-.17.11a7.64,7.64,0,0,1-2.43-2.13,11.12,11.12,0,0,1-1.34-2.83c-.4-1-.76-1.94-1.07-2.94l-.22-.75a4.75,4.75,0,0,1-.19-.83.77.77,0,0,1,.55-.91.54.54,0,0,1,.47.33.45.45,0,0,1,0,.28.24.24,0,0,1-.27.18Z" transform="translate(0.03 0.01)"></path><path class="cls-1" d="M388.29,202.26l.36,9.57.13,4.78v2.33a1.37,1.37,0,0,0,.28.72,2.45,2.45,0,0,0,.71.57,9.81,9.81,0,0,0,4.16,1.21,14.17,14.17,0,0,0,4.35-.41,13,13,0,0,0,7.44-4.9l.18.09a10.67,10.67,0,0,1-7.06,6.73,11.53,11.53,0,0,1-5.12.45,11.81,11.81,0,0,1-4.82-1.83,4.42,4.42,0,0,1-1.07-1,2.91,2.91,0,0,1-.49-1.51V216.6l.17-4.78.44-9.56Z" transform="translate(0.03 0.01)"></path><path class="cls-1" d="M412.54,162.13a13.36,13.36,0,0,1,4.09,0,15.93,15.93,0,0,1,4,1.15,9.88,9.88,0,0,1,3.58,2.25,7.51,7.51,0,0,1,2,3.75l-.17.11c-1.17-.83-2.14-1.63-3.15-2.37s-1.88-1.64-3-2.31a16,16,0,0,0-7.35-2.31Z" transform="translate(0.03 0.01)"></path><path class="cls-1" d="M412.55,89a11.12,11.12,0,0,0,3.61-1.1,11.45,11.45,0,0,0,3-2.11,27.34,27.34,0,0,0,2.2-2.82c.74-.94,1.39-1.94,2.17-3.08h.2a6.35,6.35,0,0,1-.67,4.1,8.62,8.62,0,0,1-2.88,3,12.51,12.51,0,0,1-3.66,1.81,10.61,10.61,0,0,1-4,.37Z" transform="translate(0.03 0.01)"></path><path class="cls-1" d="M412.1,79.62a22.66,22.66,0,0,1-5.49-4.89,23.79,23.79,0,0,1-3.69-6.48,27.06,27.06,0,0,1-1.09-3.63c-.27-1.25-.36-2.39-.68-3.34a7.84,7.84,0,0,0-1.77-2.67,12.22,12.22,0,0,1-2.25-3l.16-.07c1,.76,2,1.32,3,2a7.44,7.44,0,0,1,2.7,3,12.19,12.19,0,0,1,.78,3.77,19,19,0,0,0,.65,3.43,22.64,22.64,0,0,0,3,6.39,23.61,23.61,0,0,0,4.8,5.32Z" transform="translate(0.03 0.01)"></path><path class="cls-1" d="M405.62,71.46a18.89,18.89,0,0,0-3.9-.38,18.17,18.17,0,0,0-3.82.35c-1.26.24-2.41.76-3.64,1s-2.45.6-3.86.8l-.1-.17a8.11,8.11,0,0,1,3.32-2.53,11.2,11.2,0,0,1,4.09-.72,20.08,20.08,0,0,1,4.1.24,17.48,17.48,0,0,1,3.87,1.18Z" transform="translate(0.03 0.01)"></path><path class="cls-1" d="M416.14,60.47c0-.28-.33-.3-.57-.21s-.45.29-.45.46a1.74,1.74,0,0,0,.86,1.17,12.17,12.17,0,0,1,2.77,3,8.48,8.48,0,0,1,1.6,3.81,6.42,6.42,0,0,1-.81,4h-.2c-.36-1.34-.6-2.5-.95-3.63a27,27,0,0,0-1-3.4,11.08,11.08,0,0,0-2.07-3,4.58,4.58,0,0,1-.62-.89,1.64,1.64,0,0,1-.15-1.21,1.15,1.15,0,0,1,1-.71,1,1,0,0,1,.58.1.55.55,0,0,1,.28.53Z" transform="translate(0.03 0.01)"></path><path class="cls-1" d="M420.21,63l-1-1.48-.36-.53.54.34a63.87,63.87,0,0,1,15,12.91,23.42,23.42,0,0,1,2.83,4.2,14.41,14.41,0,0,1,1.5,4.92,26.84,26.84,0,0,1,0,5.07l-.43,4.94c-.58,6.57-1.07,13.15-1.89,19.7-.42,3.27-.83,6.54-1.33,9.81s-1,6.53-1.62,9.78h-.2c.07-3.31.25-6.61.45-9.9s.46-6.58.73-9.87c.56-6.57,1.44-13.11,2.24-19.66.35-3.28,1-6.55.72-9.71a16.22,16.22,0,0,0-3.81-8.6A63.82,63.82,0,0,0,419.29,61.6l.19-.19,1,1.52Z" transform="translate(0.03 0.01)"></path><path class="cls-1" d="M433.53,118.71a3,3,0,0,0-2-.89,8.11,8.11,0,0,0-2.25.17l-4.63.9a33.39,33.39,0,0,1-4.66.81,18.82,18.82,0,0,1-4.8-.28v-.2a18.76,18.76,0,0,1,4.56-1.5,31,31,0,0,1,4.71-.41l4.74-.31a8.85,8.85,0,0,1,2.46.22,3.23,3.23,0,0,1,2,1.38Z" transform="translate(0.03 0.01)"></path><path class="cls-1" d="M442.46,89.11l-1.6-1.17.19-.14a132.87,132.87,0,0,0,16.14,30.74q2.49,3.55,5.22,6.94c1.81,2.26,3.66,4.52,5.36,6.91a40,40,0,0,1,4.41,7.67,24.33,24.33,0,0,1,2,8.73,15.88,15.88,0,0,1-2.22,8.8,14.17,14.17,0,0,1-7.07,5.86,11,11,0,0,1-4.72.6,9,9,0,0,1-2.4-.54,5.64,5.64,0,0,1-2.16-1.51,8.1,8.1,0,0,1-1.74-4.59,30.72,30.72,0,0,1,0-4.5A50.59,50.59,0,0,0,444,120.66l.16-.13A47.45,47.45,0,0,1,455.91,153a29.59,29.59,0,0,0,.06,4.21,6.13,6.13,0,0,0,1.26,3.44,3.92,3.92,0,0,0,1.38,1,7.25,7.25,0,0,0,1.84.43,9,9,0,0,0,3.86-.45,12.42,12.42,0,0,0,6.2-5,14.19,14.19,0,0,0,2.12-7.82,22.6,22.6,0,0,0-1.7-8.2,38.59,38.59,0,0,0-4.13-7.47c-1.63-2.37-3.43-4.64-5.21-6.94s-3.5-4.66-5.14-7.08a133,133,0,0,1-15.58-31.21l-.13-.39.32.25L442.63,89Z" transform="translate(0.03 0.01)"></path><path class="cls-1" d="M454,155.37l-1-1.66.47.07a27.08,27.08,0,0,1-5.71,5.45,11.16,11.16,0,0,1-3.49,1.93,10.25,10.25,0,0,1-4,.56l-.06-.19a37.25,37.25,0,0,1,6.61-3.79,29.58,29.58,0,0,0,6.18-4.35l.33-.29.14.36.68,1.82Z" transform="translate(0.03 0.01)"></path><path class="cls-1" d="M458.81,159a13.35,13.35,0,0,0,.13,5,16,16,0,0,1-.26,5.3,11.72,11.72,0,0,1-2.09,5,9.63,9.63,0,0,1-4.28,3.2l-.12-.16a43.11,43.11,0,0,0,2.79-4.16l1.19-2.08a12.72,12.72,0,0,0,1-2.19,14.38,14.38,0,0,0,.8-4.82c0-1.67-.07-3.52.68-5.13Z" transform="translate(0.03 0.01)"></path><path class="cls-1" d="M473.74,158.54a9.84,9.84,0,0,0-2.45,1.22,11.32,11.32,0,0,0-2,1.85,15,15,0,0,0-2.63,4.76c-1.23,3.46-1.2,7.19-1.1,10.87s.29,7.48-.57,11.22a27.25,27.25,0,0,1-8.51,14.6,25,25,0,0,1-4.77,3.26c-.44.21-.87.43-1.31.63l-1.36.53c-.94.32-1.65.59-1.86,1a4.74,4.74,0,0,0-.37,2.17,8.67,8.67,0,0,1-.76,3,9.81,9.81,0,0,1-4.14,4.43,9.28,9.28,0,0,1-2.89,1,7.72,7.72,0,0,1-1.52.1l-1.4-.08a5.16,5.16,0,0,0-2.43.27,3.26,3.26,0,0,0-1.47,1.85,11.82,11.82,0,0,1-.65,1.28,2.71,2.71,0,0,1-1.12,1.08,2.68,2.68,0,0,1-1.5.26,1.2,1.2,0,0,1-1.07-1h.2a.88.88,0,0,0,.92.63,2.2,2.2,0,0,0,1.17-.35c.71-.42.89-1.31,1.2-2.19a6.7,6.7,0,0,1,.6-1.37,3.42,3.42,0,0,1,1.17-1.16,6.23,6.23,0,0,1,3-.65,13.49,13.49,0,0,0,2.62-.2,7.42,7.42,0,0,0,2.3-.93,8,8,0,0,0,3.19-3.7,6.73,6.73,0,0,0,.55-2.34,8.88,8.88,0,0,1,.09-1.46,4.06,4.06,0,0,1,.6-1.76,3.42,3.42,0,0,1,1.51-1.2c.52-.23,1-.35,1.4-.5l1.24-.46c.41-.17.8-.37,1.21-.55a22.65,22.65,0,0,0,4.46-2.91,25.16,25.16,0,0,0,8.4-13.53c.91-3.51.82-7.22.83-10.92s.14-7.55,1.54-11.09a15.39,15.39,0,0,1,2.9-4.82,12,12,0,0,1,2.14-1.83,10.55,10.55,0,0,1,2.56-1.16Z" transform="translate(0.03 0.01)"></path><path class="cls-1" d="M432.6,216.77a25.71,25.71,0,0,0-2.62-12,4.23,4.23,0,0,0-.72-1.14,1.37,1.37,0,0,0-.89-.43,11.06,11.06,0,0,0-1.41,0h-7.7l-.08-1c.67.12,1.34.27,2,.45v.2c-.68.16-1.35.27-2,.37l-.08-1a20.19,20.19,0,0,1,6.35-1.11,12.55,12.55,0,0,1,1.62.07,9.92,9.92,0,0,1,1.72.26,3.18,3.18,0,0,1,1.76,1.15,6.34,6.34,0,0,1,.83,1.59,24,24,0,0,1,1.44,12.61Z" transform="translate(0.03 0.01)"></path><path class="cls-1" d="M446.29,208.36l-1.39-1.54-.07-.08v-.11a12.46,12.46,0,0,0-.33-8,38.26,38.26,0,0,0-3.59-7.36c-.34-.61-.69-1.07-1-1.14a3.71,3.71,0,0,0-1.52.1c-1.35.23-2.71.43-4.06.62l-4,.69-1,.15a10.49,10.49,0,0,1-1.11.13,1.4,1.4,0,0,1-1.23-.55,1,1,0,0,1-.14-.66.61.61,0,0,1,.4-.51l.09.18c-.21.18-.07.51.1.65a.74.74,0,0,0,.68,0c.54-.19,1.26-.51,1.91-.73a40,40,0,0,1,4-1.2,29.29,29.29,0,0,1,4.17-.71,4.49,4.49,0,0,1,2.59.23,4.1,4.1,0,0,1,1.65,2,40.44,40.44,0,0,1,3.17,7.85,12.78,12.78,0,0,1-.37,8.41v-.19l1.25,1.66Z" transform="translate(0.03 0.01)"></path><path class="cls-1" d="M437.62,188.34a.36.36,0,0,1-.39.25.71.71,0,0,1-.37-.22,1.5,1.5,0,0,1-.37-.69,3.22,3.22,0,0,1,0-.76,4.06,4.06,0,0,1,.09-.7,21.54,21.54,0,0,1,.65-2.75c.56-1.79,1.24-3.51,1.68-5.24a17,17,0,0,0,.39-5.08,7.88,7.88,0,0,0-.48-2.4,7.65,7.65,0,0,0-.53-1.21,2.61,2.61,0,0,1-.37-1.49h.2a2.93,2.93,0,0,0,.88.94,5.9,5.9,0,0,1,1,1.06,6.68,6.68,0,0,1,1.24,2.83,10.72,10.72,0,0,1-.85,5.83c-.68,1.79-1.55,3.43-2.27,5.1a19.13,19.13,0,0,0-1,2.54c-.06.22-.13.43-.18.66a3.14,3.14,0,0,0-.12.61,1.07,1.07,0,0,0,.19.55c.13.16.24.27.34.09Z" transform="translate(0.03 0.01)"></path><path class="cls-4" d="M372,251.07a107.32,107.32,0,0,1,32.43-19.64,98.41,98.41,0,0,1,18.36-5.16,15.3,15.3,0,0,1,4.87,0,10.75,10.75,0,0,1,4.48,2,15.63,15.63,0,0,1,5.29,8.07,34.63,34.63,0,0,1,1.1,9.56c0,3.18,0,6.35-.11,9.53a99.4,99.4,0,0,1-1.93,19,75,75,0,0,1-17.65,33.64,98.56,98.56,0,0,1-30.64,22.72,131.22,131.22,0,0,1-17.84,7.1,100,100,0,0,1-18.71,4.27,61.6,61.6,0,0,1-19.2-1.1c-3.14-.64-6.23-1.42-9.3-2.28S317,337,314,335.89a28.68,28.68,0,0,1-8.5-4.63,31.93,31.93,0,0,1-6.17-7.39l-10.2-16,.17-.11,10.81,15.65a31.13,31.13,0,0,0,6.15,7,27.59,27.59,0,0,0,8.24,4.21c3,1,6,1.79,9.08,2.62s6.12,1.54,9.21,2.12a59.81,59.81,0,0,0,18.64.8,99,99,0,0,0,18.31-4.29,131.9,131.9,0,0,0,17.57-6.82,97.11,97.11,0,0,0,30.31-22,73.51,73.51,0,0,0,17.57-32.85,99.43,99.43,0,0,0,2-18.76c.1-3.16.15-6.34.18-9.49a33.37,33.37,0,0,0-1-9.28,14.69,14.69,0,0,0-4.87-7.63,9.64,9.64,0,0,0-4.1-1.9,14.49,14.49,0,0,0-4.6-.08A97.66,97.66,0,0,0,404.53,232,106.76,106.76,0,0,0,372,251.23Z" transform="translate(0.03 0.01)"></path><path class="cls-4" d="M289.86,311.16a43.36,43.36,0,0,1,20.24-4.68,54.43,54.43,0,0,1,10.4,1.33,51.85,51.85,0,0,0,10.23,1.41,31.41,31.41,0,0,0,10.07-1.76,89.9,89.9,0,0,0,9.57-4c6.28-2.91,12.43-6.2,17.21-11.14,2.42-2.43,4.62-5.09,6.83-7.78s4.46-5.37,6.77-8,4.7-5.17,7.14-7.67,5-4.92,7.53-7.29a210.14,210.14,0,0,1,33.44-25l.11.17a289.56,289.56,0,0,0-32.16,26.41c-2.53,2.36-5,4.81-7.41,7.28s-4.83,5-7.15,7.54-4.62,5.16-6.87,7.81-4.54,5.32-7.08,7.77a43.85,43.85,0,0,1-8.41,6.44,91.63,91.63,0,0,1-9.38,4.75,87.37,87.37,0,0,1-9.76,3.89,32.44,32.44,0,0,1-10.43,1.67,53.55,53.55,0,0,1-10.38-1.63,53,53,0,0,0-10.25-1.52A43,43,0,0,0,290,311.38Z" transform="translate(0.03 0.01)"></path><path class="cls-4" d="M354.91,301.54l-1.84,1.58-.72.61.51-.8q6.34-9.94,13.27-19.52t14.52-18.63c5-6.06,10.17-12,15.74-17.63a110.66,110.66,0,0,1,8.71-8.06,34.44,34.44,0,0,1,5-3.28,20.6,20.6,0,0,1,5.64-1.94v.19a27.71,27.71,0,0,0-9.82,6.07c-2.86,2.61-5.5,5.51-8.17,8.38-5.33,5.75-10.73,11.43-15.91,17.32A406.66,406.66,0,0,0,353,303.07l-.21-.18,1.89-1.52Z" transform="translate(0.03 0.01)"></path><path class="cls-4" d="M328.34,309.08a17.19,17.19,0,0,1,3.76-5.33c1.53-1.56,3.18-3,4.77-4.43l9.7-8.63c3.26-2.86,6.33-5.89,9.82-8.53a36.16,36.16,0,0,1,11.52-6.22l.08.18a74,74,0,0,0-10.35,7.6c-1.63,1.39-3.29,2.76-5,4.13l-5.07,4-10.09,8.17c-1.69,1.36-3.41,2.67-5,4.1a17.14,17.14,0,0,0-4,5Z" transform="translate(0.03 0.01)"></path><path class="cls-4" d="M367.16,276.15a60.27,60.27,0,0,1,3.89-8.82c1.53-2.83,3.18-5.58,4.77-8.35s3-5.61,4.52-8.36a91,91,0,0,0,4.08-8.58h.2a27,27,0,0,1-2.48,9.41,57.51,57.51,0,0,1-5,8.32c-1.78,2.67-3.59,5.3-5.27,8a60.8,60.8,0,0,0-4.57,8.39Z" transform="translate(0.03 0.01)"></path><path class="cls-4" d="M363.71,263.38c-3,4.2-6.12,8.31-9.42,12.29s-6.79,7.8-10.4,11.51c-1.8,1.86-3.64,3.68-5.49,5.49l-2.79,2.65c-.93.87-1.84,1.75-2.7,2.66a40,40,0,0,0-8.15,12.71l-.19-.06a29.21,29.21,0,0,1,6.87-14c.88-1,1.81-1.92,2.75-2.82s1.93-1.74,2.88-2.6c1.94-1.68,3.84-3.41,5.71-5.17q5.58-5.31,10.77-11c3.48-3.78,6.82-7.71,10-11.75Z" transform="translate(0.03 0.01)"></path><path class="cls-4" d="M337.21,283.1a5.72,5.72,0,0,1-1.45,4c-.88,1.14-1.81,2.21-2.77,3.27-1.94,2.09-4,4.06-6,6s-3.86,4.09-5.78,6.08a71.63,71.63,0,0,0-5.41,6.39l-.18-.09a21.33,21.33,0,0,1,4.09-7.62,45.23,45.23,0,0,1,6.2-5.94c2.15-1.85,4.32-3.66,6.38-5.57,1-1,2-1.93,3-3A5.52,5.52,0,0,0,337,283Z" transform="translate(0.03 0.01)"></path><path class="cls-4" d="M324.36,288.29a36.79,36.79,0,0,0-3.07,3.53,34.33,34.33,0,0,0-2.61,3.82c-.79,1.32-1.33,2.77-2.13,4.06a44.61,44.61,0,0,1-2.58,3.95l-.19-.06a12.62,12.62,0,0,1,1-4.77,17.44,17.44,0,0,1,2.6-4.08,34.06,34.06,0,0,1,3.19-3.6,29.48,29.48,0,0,1,3.69-3Z" transform="translate(0.03 0.01)"></path><path class="cls-4" d="M314.29,291.08a34.91,34.91,0,0,0-2.45,3.34,28.1,28.1,0,0,0-2,3.55c-.6,1.22-.95,2.54-1.58,3.72a29,29,0,0,1-2.11,3.62H306a10.2,10.2,0,0,1,.45-4.32,14.28,14.28,0,0,1,2.05-3.78,30.89,30.89,0,0,1,2.6-3.32,26.38,26.38,0,0,1,3.11-2.87Z" transform="translate(0.03 0.01)"></path><path class="cls-4" d="M308.38,291.69a36.32,36.32,0,0,0-2.09,3.5,30.27,30.27,0,0,0-1.68,3.66c-.49,1.25-.73,2.57-1.26,3.78a25.44,25.44,0,0,1-1.83,3.7h-.2a9.92,9.92,0,0,1,.12-4.27,14.38,14.38,0,0,1,1.72-3.86,32.56,32.56,0,0,1,2.28-3.52,25.44,25.44,0,0,1,2.78-3.09Z" transform="translate(0.03 0.01)"></path><path class="cls-4" d="M301.18,310.54c-.16,1.5-.28,3-.29,4.48a38.74,38.74,0,0,0,.14,4.44c.12,1.48.49,2.91.54,4.37a31.13,31.13,0,0,1,0,4.53h-.19a12,12,0,0,1-1.76-4.31,17.36,17.36,0,0,1-.16-4.61,38.64,38.64,0,0,1,.52-4.55,33.69,33.69,0,0,1,1.09-4.43Z" transform="translate(0.03 0.01)"></path><path class="cls-4" d="M307.43,306.35a4.55,4.55,0,0,0-1.33,3.29c-.06,1.22.06,2.5.1,3.76l.29,7.59a22.14,22.14,0,0,0,.48,3.63A25.12,25.12,0,0,0,308,328c.84,2.26,2.09,4.45,3.09,6.84L311,335a21.72,21.72,0,0,1-4.75-6.15A12.38,12.38,0,0,1,305,325a26,26,0,0,1-.13-3.94l.31-7.61c.08-1.26.09-2.53.29-3.83a4.79,4.79,0,0,1,1.82-3.38Z" transform="translate(0.03 0.01)"></path><path class="cls-4" d="M314.39,308.06a2.72,2.72,0,0,0-2.32,1.18v-.14a51.67,51.67,0,0,0,1.38,8,46.94,46.94,0,0,0,2.61,7.65c1.09,2.46,2.43,4.78,3.65,7.17s2.65,4.68,4,7.08l-.15.13a27.42,27.42,0,0,1-5.58-6.24,31,31,0,0,1-3.59-7.53,52.73,52.73,0,0,1-2.14-8,44.67,44.67,0,0,1-.71-8.24V309a3,3,0,0,1,2.71-1.11Z" transform="translate(0.03 0.01)"></path><path class="cls-4" d="M320.16,312.23A36,36,0,0,0,322,320.8a37.49,37.49,0,0,0,3.71,7.87,58.1,58.1,0,0,0,5.29,6.82,82.05,82.05,0,0,0,6.1,6.27l-.15.13a23.85,23.85,0,0,1-7.45-5.07,29.44,29.44,0,0,1-5.22-7.39,38.38,38.38,0,0,1-3.28-8.38,36.68,36.68,0,0,1-1.11-8.85Z" transform="translate(0.03 0.01)"></path><path class="cls-4" d="M328.29,312.13a2.87,2.87,0,0,0,.25,2.72,6,6,0,0,0,2,2,28.24,28.24,0,0,1,2.51,1.69,12.57,12.57,0,0,1,2.06,2.31,30,30,0,0,0,3.7,4.56,28.81,28.81,0,0,0,4.54,3.63,30.19,30.19,0,0,0,5.19,2.57,46.13,46.13,0,0,0,5.53,1.63,37.09,37.09,0,0,0,5.75.75c1,0,2,.06,2.93,0h.74a3.82,3.82,0,0,0,.68-.06.47.47,0,0,0,.33-.21c.06,0,0-.05-.1-.05h-.11l-.13.15a.21.21,0,0,1,0-.31h0a.45.45,0,0,1,.24-.14.44.44,0,0,1,.54.2.76.76,0,0,1-.49.88,4.36,4.36,0,0,1-.77.26l-.7.18a23.55,23.55,0,0,1-3,.53,26.46,26.46,0,0,1-6.16-.19,26,26,0,0,1-5.92-1.76,35.25,35.25,0,0,1-5.33-3.07,31.09,31.09,0,0,1-4.59-4.06,33.07,33.07,0,0,1-3.58-4.9,11,11,0,0,0-1.76-2.27c-.69-.65-1.53-1.19-2.33-1.81a6.44,6.44,0,0,1-2.05-2.29,3.16,3.16,0,0,1-.07-3Z" transform="translate(0.03 0.01)"></path><path class="cls-4" d="M333.87,308.72c-.46.31-.38,1-.2,1.5a13.42,13.42,0,0,0,.77,1.57,17.76,17.76,0,0,0,2,2.87,31.43,31.43,0,0,0,5.23,4.68,90.23,90.23,0,0,0,12,7.5A47,47,0,0,0,367,330.89c2.29.43,4.62.69,7,.93,1.17.1,2.35.21,3.53.28a3.11,3.11,0,0,0,1.57-.1c.38-.15.62-.87.2-1.16l.08-.18a.89.89,0,0,1,.53.86,1.26,1.26,0,0,1-.48,1,3.57,3.57,0,0,1-1.88.54c-1.19.11-2.39.18-3.59.21a48.37,48.37,0,0,1-7.22-.35c-1.2-.16-2.39-.38-3.58-.64s-2.35-.63-3.51-1a43.32,43.32,0,0,1-6.62-3,90.19,90.19,0,0,1-11.83-8.13,31.89,31.89,0,0,1-5.09-5.1,19.34,19.34,0,0,1-1.91-3.06,12.82,12.82,0,0,1-.7-1.67,2.66,2.66,0,0,1-.1-.93,1.08,1.08,0,0,1,.48-.83Z" transform="translate(0.03 0.01)"></path><path class="cls-4" d="M345.55,309.34A20.8,20.8,0,0,0,356.39,319a45.86,45.86,0,0,0,14.4,3.09,66.33,66.33,0,0,0,14.7-.61,42.5,42.5,0,0,0,14-4.53l.11.16a29.85,29.85,0,0,1-13.74,6.34,48.44,48.44,0,0,1-15.2.23A47.24,47.24,0,0,1,356,319.89c-4.56-2.19-8.62-5.77-10.61-10.44Z" transform="translate(0.03 0.01)"></path><path class="cls-4" d="M349.69,310.89a41.84,41.84,0,0,0,16.52,1,46.65,46.65,0,0,0,8.08-1.87,25.24,25.24,0,0,1,4.2-.94,28.07,28.07,0,0,1,4.3-.09,77.84,77.84,0,0,0,16.49-1c2.72-.42,5.42-1,8.1-1.69,1.34-.34,2.67-.74,4-1.16.67-.2,1.33-.42,2-.64s1.32-.47,2-.68l.09.18c-1.21.73-2.46,1.36-3.73,2a39.37,39.37,0,0,1-3.91,1.64,51.45,51.45,0,0,1-8.17,2.33,57.23,57.23,0,0,1-16.93.63,27.63,27.63,0,0,0-4.07-.06,22.74,22.74,0,0,0-4,.75,48,48,0,0,1-8.31,1.61,42.32,42.32,0,0,1-16.69-1.83Z" transform="translate(0.03 0.01)"></path><path class="cls-4" d="M380.42,311.13a3.36,3.36,0,0,1,2.17-2.17c1-.42,2-.66,2.9-1a24.87,24.87,0,0,0,5.35-2.76,24.38,24.38,0,0,0,4.52-3.9,21.46,21.46,0,0,1,2.17-2.3,4.89,4.89,0,0,1,1.55-.89,4.76,4.76,0,0,1,1.8-.21,90.64,90.64,0,0,0,12.11.21q3-.09,6-.38c1-.1,2-.19,3-.32l.74-.08a1.63,1.63,0,0,0,.6-.23c.35-.22.8-.62.42-.92l.1-.17a.64.64,0,0,1,.34.33.85.85,0,0,1,0,.5,2,2,0,0,1-.5.72,2.19,2.19,0,0,1-.75.48l-.76.25q-1.5.46-3,.81a45.41,45.41,0,0,1-6.14,1,40.37,40.37,0,0,1-6.22.08c-2-.14-4.18-.42-6.13-.69a3,3,0,0,0-2.34.65,19.73,19.73,0,0,0-2.13,2.06,25,25,0,0,1-10.55,6.34c-1,.31-2,.48-2.94.82a3.12,3.12,0,0,0-2.13,1.85Z" transform="translate(0.03 0.01)"></path><path class="cls-4" d="M401.1,296.54a19.4,19.4,0,0,1,5.92-4.89,15.82,15.82,0,0,1,7.62-1.83c2.63,0,5.12.31,7.4.13a14.34,14.34,0,0,0,6.71-2.45l.14.14a9.79,9.79,0,0,1-6.58,4.3c-2.78.52-5.33-.33-7.74-.52a14.49,14.49,0,0,0-7.12,1.13,20,20,0,0,0-6.19,4.12Z" transform="translate(0.03 0.01)"></path><path class="cls-4" d="M379.29,310.19a33.58,33.58,0,0,1,4.85-6.91,37.24,37.24,0,0,1,6.43-5.59,27.72,27.72,0,0,1,7.65-3.88,23.4,23.4,0,0,1,4.22-.86c.72-.1,1.38-.11,2-.25a2.57,2.57,0,0,0,1.65-.9l.18.08a2.73,2.73,0,0,1-1.52,1.67,16.17,16.17,0,0,1-2,.77c-.65.23-1.31.4-1.95.66s-1.29.44-1.91.71a56.35,56.35,0,0,0-7.44,3.34,37.65,37.65,0,0,0-12,11.26Z" transform="translate(0.03 0.01)"></path><path class="cls-4" d="M355.09,303.54l3.3.14,1.65.07c.55,0,1.1,0,1.65-.05a36.67,36.67,0,0,0,6.51-.89,48.29,48.29,0,0,0,12.21-4.75,77.34,77.34,0,0,0,11-7.24c3.47-2.69,6.78-5.59,10-8.59A218.7,218.7,0,0,0,419.29,263a256.11,256.11,0,0,0,15.78-21.17l.17.1a137.6,137.6,0,0,1-14.4,22.33,152.64,152.64,0,0,1-18.4,19.22c-3.31,3-6.71,5.8-10.29,8.45A78.09,78.09,0,0,1,380.86,299a49.28,49.28,0,0,1-12.57,4.45,35.94,35.94,0,0,1-6.62.7H360l-1.66-.12-3.31-.24Z" transform="translate(0.03 0.01)"></path><path class="cls-4" d="M368,300.72a186.2,186.2,0,0,1,11.22-17,77.1,77.1,0,0,1,6.8-7.65,74.89,74.89,0,0,1,7.89-6.55c5.53-4,11.11-7.81,16.92-11.33,2.91-1.74,5.83-3.46,8.82-5.08l4.48-2.41c1.52-.76,3-1.55,4.56-2.27l.1.17c-1.38,1-2.8,1.91-4.2,2.88l-4.23,2.84-8.53,5.57c-5.64,3.72-11.48,7.19-17.06,10.94a70.55,70.55,0,0,0-7.92,6.19,72.53,72.53,0,0,0-6.91,7.33,185.68,185.68,0,0,0-11.83,16.46Z" transform="translate(0.03 0.01)"></path><path class="cls-4" d="M381.29,286.89a23.6,23.6,0,0,0,8.65-3.5,39.65,39.65,0,0,0,7-6.19c2.19-2.28,4.31-4.68,6.62-6.79a49.77,49.77,0,0,0,6.37-6.85l.18.09a21.85,21.85,0,0,1-5.13,8.17c-2.16,2.37-4.61,4.36-6.93,6.53a41.1,41.1,0,0,1-7.6,5.91,24.5,24.5,0,0,1-9.13,2.84Z" transform="translate(0.03 0.01)"></path><path class="cls-4" d="M401.77,292.22l7.23-7.57,7.3-7.5c1.22-1.25,2.4-2.52,3.69-3.77a24.57,24.57,0,0,1,2.08-1.74,26,26,0,0,1,2.3-1.44c3.14-1.7,6.33-2.83,9-5.08l.15.13a13.74,13.74,0,0,1-3.75,3.81c-1.44,1.06-3,1.93-4.4,2.86a37,37,0,0,0-4.08,2.94c-1.32,1.07-2.6,2.26-3.89,3.43l-7.72,7.07-7.79,7Z" transform="translate(0.03 0.01)"></path><path class="cls-4" d="M414.2,283c1.49.17,3,.32,4.45.39s3,.15,4.43.13,2.94-.24,4.4-.13A23.24,23.24,0,0,1,432,284v.2a13.22,13.22,0,0,1-4.45,1.18,19.2,19.2,0,0,1-4.54-.28c-1.5-.19-3-.43-4.47-.74a38.88,38.88,0,0,1-4.35-1.19Z" transform="translate(0.03 0.01)"></path><path class="cls-4" d="M421.19,277.75a4.11,4.11,0,0,1,3.23-1.32,41.39,41.39,0,0,1,6.73,1.08,10,10,0,0,1,3,1.74l0,.19a10.11,10.11,0,0,1-3.47,0,16.27,16.27,0,0,1-3.18-1.06,21.13,21.13,0,0,0-3.1-1,3.7,3.7,0,0,0-3,.47Z" transform="translate(0.03 0.01)"></path><path class="cls-4" d="M428.72,270.76h1.59a13.65,13.65,0,0,1,1.56.12,3.37,3.37,0,0,1,1.54.21,3,3,0,0,1,1.25,1.27v.19a2.9,2.9,0,0,1-1.72.46,3.36,3.36,0,0,1-1.43-.6c-.43-.22-.94-.45-1.4-.69s-.93-.5-1.38-.79Z" transform="translate(0.03 0.01)"></path><path class="cls-1" d="M223,317.05c4.7,1.76,9.85,1.46,14.72.59s9.71-2.26,14.7-3a5.35,5.35,0,0,1,3.83.65,14.16,14.16,0,0,1,2.56,2.85,35.43,35.43,0,0,0,5.17,5.29,37.5,37.5,0,0,0,13,6.95,36.44,36.44,0,0,0,7.23,1.43c2.44.25,4.93.08,7.48.29a15,15,0,0,1,3.81.74,9.48,9.48,0,0,1,3.41,2,20,20,0,0,1,4.11,6.49,21.31,21.31,0,0,0,3.73,6.2,35.61,35.61,0,0,0,5.74,4.56,26.09,26.09,0,0,1,5.78,5.06,27.81,27.81,0,0,1,3.54,6.82c3.53,9.26,10.22,16.84,16.67,24.35a19.6,19.6,0,0,0,5.43,4.54,10.19,10.19,0,0,0,3.23,1,13.73,13.73,0,0,0,3.45-.07,37.8,37.8,0,0,0,7-2c2.35-.84,4.68-1.67,6.92-2.67a34.36,34.36,0,0,0,6.36-3.53,20.54,20.54,0,0,0,5-5.1,14.39,14.39,0,0,0,2.47-6.56,17.91,17.91,0,0,0-.9-7.08c-1.51-4.64-4.05-9-6.22-13.51l-6.64-13.45.18-.09L372,352.89l3.57,6.59a52.9,52.9,0,0,1,3.16,6.89,18.51,18.51,0,0,1,1.16,7.66,15.84,15.84,0,0,1-2.61,7.37,22.21,22.21,0,0,1-5.34,5.64,35.44,35.44,0,0,1-6.64,3.85c-2.32,1-4.69,1.91-7,2.76a38.76,38.76,0,0,1-7.39,2.12,14.88,14.88,0,0,1-4,.06A11.86,11.86,0,0,1,343,394.6a21.55,21.55,0,0,1-6-5c-3.26-3.85-6.44-7.68-9.4-11.79a57.34,57.34,0,0,1-7.32-13.31A26.27,26.27,0,0,0,317,358a24.79,24.79,0,0,0-5.41-4.81,36.87,36.87,0,0,1-5.91-4.81,23.08,23.08,0,0,1-3.91-6.6c-1-2.26-2-4.53-3.76-6.14a10.27,10.27,0,0,0-6.49-2.52c-2.43-.24-4.95-.09-7.48-.37a37.74,37.74,0,0,1-7.43-1.54,38.45,38.45,0,0,1-13.18-7.3,37.16,37.16,0,0,1-5.21-5.43,13.55,13.55,0,0,0-2.38-2.74,4.79,4.79,0,0,0-3.39-.59c-4.92.66-9.76,2-14.7,2.8a40,40,0,0,1-7.49.59,22.1,22.1,0,0,1-7.37-1.4Z" transform="translate(0.03 0.01)"></path><path class="cls-1" d="M155.84,289a1.82,1.82,0,0,1,2.5.62h0c0,.08.09.17.12.25v.06l-.06.07a25.11,25.11,0,0,1-10.22,6.75,44.15,44.15,0,0,1-12.06,2.61,47.42,47.42,0,0,1-12.36-.68,59.44,59.44,0,0,1-11.78-3.7c-7.59-3.14-14.89-6.85-22.78-8.23a50.91,50.91,0,0,0-23.87,1.42l-.07-.19a43.85,43.85,0,0,1,24.33-3.18,48.27,48.27,0,0,1,11.94,3.54c3.8,1.61,7.45,3.46,11.16,5.11a57.86,57.86,0,0,0,11.44,3.91,46.5,46.5,0,0,0,12,1,44.27,44.27,0,0,0,11.9-2.21,24.78,24.78,0,0,0,10.24-6.31V290a1.6,1.6,0,0,0-2.09-.87h0l-.15.07Z" transform="translate(0.03 0.01)"></path><path class="cls-1" d="M75.86,286.54H76a.71.71,0,0,0,0-.29,1,1,0,0,0-.32-.54L74.41,285l-2.57-1.55-5.1-3.17c-1.7-1.07-3.45-2-5-3.08a36,36,0,0,0-5.12-2.83v-.2a11,11,0,0,1,6.07,1.29,29.34,29.34,0,0,1,5,3.5l4.76,3.67,2.35,1.87c.4.32.76.59,1.2,1a1.36,1.36,0,0,1,.33.79.87.87,0,0,1-.06.45.35.35,0,0,1-.23.18.5.5,0,0,1-.24-.06Z" transform="translate(0.03 0.01)"></path><path class="cls-1" d="M153.45,289.73h0a.19.19,0,0,0,.15,0,.21.21,0,0,0-.17-.21,4.26,4.26,0,0,0-1-.16l-2.15-.21a28.86,28.86,0,0,0-4.26-.08c-2.8.14-5.5,1.09-8.37,1.74A38.06,38.06,0,0,1,129,292a35.84,35.84,0,0,1-4.39-.3c-.73-.1-1.45-.23-2.16-.38-.37-.09-.68-.14-1.1-.27a.68.68,0,0,1-.52-.61.32.32,0,0,1,.34-.3h0a.52.52,0,0,1,.21.07.19.19,0,0,1,0,.27h0l-.17-.11h0a.49.49,0,0,0,.24,0l1-.06,2.15-.12c1.43-.09,2.84-.17,4.26-.29,2.82-.25,5.66-.31,8.47-.75s5.66-1.21,8.65-1.16a29.06,29.06,0,0,1,4.36.47l2.13.4a3.84,3.84,0,0,1,1.1.31c.16.11.42.36.18.67a.39.39,0,0,1-.36.06.42.42,0,0,1-.18-.11.2.2,0,0,1,0-.25Z" transform="translate(0.03 0.01)"></path><path class="cls-1" d="M100.12,288.63v.07h0a.51.51,0,0,0,.21-.1c.13-.13.17-.21,0-.28a1.22,1.22,0,0,0-.94.23,11.59,11.59,0,0,1-2,1.33,14.69,14.69,0,0,1-4.58,1.37c-1.58.24-3.17.32-4.74.41s-3.16.14-4.74.18a172.2,172.2,0,0,1-19-.69c-1.58-.13-3.15-.3-4.73-.48a27,27,0,0,1-4.81-.88,16.73,16.73,0,0,1-4.47-2.24,35.74,35.74,0,0,1-3.73-3.11c-2.28-2.19-4.63-4.62-5.86-7.75A10.88,10.88,0,0,1,40,271.8a7.57,7.57,0,0,1,1.87-4.45l.16.12a7.53,7.53,0,0,0-1.11,4.36A9.86,9.86,0,0,0,42,276.12,24.44,24.44,0,0,0,48,283a36.58,36.58,0,0,0,3.54,2.92,15.67,15.67,0,0,0,3.9,2.06,25,25,0,0,0,4.44,1c1.55.24,3.1.47,4.66.66a168.43,168.43,0,0,0,18.78,1.28H88a45.86,45.86,0,0,0,4.69-.2,14.55,14.55,0,0,0,4.59-1.11,10.49,10.49,0,0,0,2-1.22,1.13,1.13,0,0,1,1.24-.19.35.35,0,0,1,.18.36.51.51,0,0,1-.22.3.61.61,0,0,1-.32.13.22.22,0,0,1-.23-.12.28.28,0,0,1,0-.22Z" transform="translate(0.03 0.01)"></path><path class="cls-1" d="M37.12,279.27l1.26-1v.19a21.15,21.15,0,0,0-4.56-4.5A16.51,16.51,0,0,1,29.33,269,14.69,14.69,0,0,1,28,262.46a31.32,31.32,0,0,1,.61-6.62,67.86,67.86,0,0,1,4.27-12.38,43.79,43.79,0,0,0,2.06-6c.14-.51.21-1,.33-1.54a13.79,13.79,0,0,0,.22-1.57c.06-.52.1-1,.11-1.56a.54.54,0,0,0-.2-.46c-.1-.06-.39.15-.27.24l-.12.16a.36.36,0,0,1-.08-.5h0a.58.58,0,0,1,.48-.28.9.9,0,0,1,.73.75c.13.6.15,1.11.23,1.68a11.64,11.64,0,0,1,0,1.67,7.2,7.2,0,0,1-.13,1.67,31.24,31.24,0,0,1-1.57,6.46c-1.41,4.17-3.49,8-4.52,12.05a28.8,28.8,0,0,0-.87,6.27,13.52,13.52,0,0,0,1,6.09c1.73,3.8,6.13,5.85,8.36,9.7l.07.12-.1.08-1.32,1Z" transform="translate(0.03 0.01)"></path><path class="cls-1" d="M33.2,234.38A9.17,9.17,0,0,1,37.49,232a21.24,21.24,0,0,1,4.89-.65,41,41,0,0,1,9.82.79,41.9,41.9,0,0,1,9.38,3.14,97.66,97.66,0,0,1,8.61,4.78c5.58,3.37,11.22,6.53,17.44,7.81a38.23,38.23,0,0,0,9.48.86,41.07,41.07,0,0,0,9.54-1.5l.07.19a31.74,31.74,0,0,1-4.62,1.74,36.71,36.71,0,0,1-4.88,1,32.61,32.61,0,0,1-19.43-3.62,94.07,94.07,0,0,1-8.44-5.11,96.28,96.28,0,0,0-8.34-5,41.42,41.42,0,0,0-18.62-4.49,21,21,0,0,0-4.81.44,9,9,0,0,0-4.29,2.16Z" transform="translate(0.03 0.01)"></path><path class="cls-1" d="M154.83,270a228,228,0,0,1-26.9,1.23,232.71,232.71,0,0,1-26.89-2A188,188,0,0,1,74.56,264a166.12,166.12,0,0,1-25.27-9.42l.07-.19c8.53,2.8,17.06,5.48,25.74,7.62s17.36,4.21,26.19,5.62A231.88,231.88,0,0,0,128,270.22a225,225,0,0,0,26.86-.43Z" transform="translate(0.03 0.01)"></path><path class="cls-1" d="M65.75,259.89c-1.24.54-2.5,1-3.74,1.53l-3.72,1.43c-1.26.46-2.39,1.09-3.5,1.53a8.13,8.13,0,0,0-3.07,2l-.19-.06a3.45,3.45,0,0,1,.66-2.15,5.84,5.84,0,0,1,1.64-1.57,11.15,11.15,0,0,1,4-1.31l3.94-.86c1.32-.25,2.64-.53,4-.76Z" transform="translate(0.03 0.01)"></path><path class="cls-1" d="M27.29,265.47a38.61,38.61,0,0,1-7.5-5.65A17,17,0,0,1,15,251.53a14.51,14.51,0,0,1,1.36-9.64,30.06,30.06,0,0,1,5.77-7.54l.52.35c-.28.37-.57.73-.87,1.09l-.17-.1c.16-.44.33-.87.5-1.3l.52.35c-1.53,2.74-3.21,5.32-4.41,8a14.7,14.7,0,0,0-1.64,8.46,15.81,15.81,0,0,0,4,7.91,38,38,0,0,0,6.89,6.14Z" transform="translate(0.03 0.01)"></path><path class="cls-1" d="M20.65,242.7a10.56,10.56,0,0,0,3.64,8.84l-.51.48L20,247.29l-1.87-2.4a30,30,0,0,1-1.87-2.49,4.75,4.75,0,0,1-.61-1.62c-.1-.56-.11-1.08-.17-1.54a2.23,2.23,0,0,0-.35-1.09,1.78,1.78,0,0,0-.92-.57,13.22,13.22,0,0,1-1.48-.56,7.05,7.05,0,0,1-1.42-.92,9.29,9.29,0,0,1-2.11-2.56,14.71,14.71,0,0,1-1.65-6.19c-.13-2.09-.1-4.09-.08-6.11q.06-6.06.44-12.12v-.5l.42-.05a3.46,3.46,0,0,0,1.62-.5c.36-.25.54-.93.2-1.23h.28a1.07,1.07,0,0,0-.59,1.22l-.19.07a1.38,1.38,0,0,1,.54-1.77l.12-.07.16.1a1.27,1.27,0,0,1,.54,1.12,1.82,1.82,0,0,1-.45,1.16,3.89,3.89,0,0,1-2,1l.46-.56q.39,6.06.46,12.12v6a12.69,12.69,0,0,0,1.16,5.49,7.33,7.33,0,0,0,1.67,2.2,4.84,4.84,0,0,0,1.09.76,12.9,12.9,0,0,0,1.33.56,3.22,3.22,0,0,1,1.53,1.12,3.68,3.68,0,0,1,.55,1.77,6.66,6.66,0,0,0,.1,1.48,3.05,3.05,0,0,0,.41,1.21c.44.79,1.11,1.6,1.69,2.42l1.79,2.45,3.55,4.91-.51.48a11,11,0,0,1-3.34-9.4Z" transform="translate(0.03 0.01)"></path><path class="cls-1" d="M35,236.72a9.2,9.2,0,0,0-1.5-4,21.6,21.6,0,0,0-2.76-3.28c-2-2.05-4.28-4-5.88-6.51a13.38,13.38,0,0,0-2.33-3.44,17.27,17.27,0,0,0-1.7-1.25c-.6-.44-1.2-.9-1.75-1.39a42.75,42.75,0,0,1-5.81-6.65,64.71,64.71,0,0,1-5-7.28,22,22,0,0,1-1.76-4.19,16.46,16.46,0,0,1-.6-4.58,12.33,12.33,0,0,1,1-4.56,8.91,8.91,0,0,1,3-3.66,6.37,6.37,0,0,1,4.51-1.19,4.82,4.82,0,0,1,3.67,2.5l-.17.1a4.49,4.49,0,0,0-3.58-1.69A5.24,5.24,0,0,0,10.75,187a9.31,9.31,0,0,0-2.83,7.15A17.73,17.73,0,0,0,10,202a63.26,63.26,0,0,0,4.52,7.26,41,41,0,0,0,5.42,6.62,15.34,15.34,0,0,0,1.6,1.37,21.34,21.34,0,0,1,1.75,1.39,13.56,13.56,0,0,1,2.41,3.79c1.37,2.45,3.51,4.45,5.45,6.61a22,22,0,0,1,2.66,3.49,9.35,9.35,0,0,1,1.36,4.16Z" transform="translate(0.03 0.01)"></path><path class="cls-1" d="M22.59,199.62l-1.42-.34.29-.16c-.24,1.62-.46,3.25-.73,4.86L20,208.83c-.25,1.64-.43,3.19-.65,4.67a7.42,7.42,0,0,0,.57,4.43l-.14.14a4.08,4.08,0,0,1-1.78-2,7,7,0,0,1-.58-2.64,9.41,9.41,0,0,1,.24-2.59c.19-.84.47-1.61.69-2.4l1.34-4.72c.44-1.58.93-3.14,1.39-4.71l.07-.25.21.09,1.34.57Z" transform="translate(0.03 0.01)"></path><path class="cls-1" d="M6,199.6c-.68-6-4.86-10.91-5.42-17.17a38.53,38.53,0,0,1,.44-9.1,89.63,89.63,0,0,1,1.68-8.91,76.37,76.37,0,0,1,6.07-17.1,59.73,59.73,0,0,1,4.69-7.84,7.29,7.29,0,0,1,1.79-1.67,17.91,17.91,0,0,1,2.07-1,3,3,0,0,0,1.52-1.28,1.59,1.59,0,0,0-.1-1.88l.13-.16a1.64,1.64,0,0,1,.64,1,2.57,2.57,0,0,1-.13,1.23,3.06,3.06,0,0,1-.65,1.08,5.36,5.36,0,0,1-.94.77c-.66.43-1.34.75-1.86,1.17a6.27,6.27,0,0,0-1.32,1.54c-.72,1.2-1.42,2.58-2.08,3.89s-1.33,2.66-1.94,4a111.15,111.15,0,0,0-6.32,16.65c-.79,2.87-1.44,5.78-1.94,8.71a37.29,37.29,0,0,0-.72,8.82c.21,5.91,4.18,11.13,4.62,17.24Z" transform="translate(0.03 0.01)"></path><path class="cls-1" d="M10.85,185.13A76.15,76.15,0,0,1,6.2,168l-.73-4.37a25.29,25.29,0,0,1-.4-4.51c0-3.14,1.31-6,2.51-8.71a26.93,26.93,0,0,1,4.65-7.84,11.24,11.24,0,0,1,4-2.7,15.28,15.28,0,0,1,4.64-.85c3.08,0,6,.22,8.92.42l4.42.36a15.43,15.43,0,0,0,2.15.15,1.56,1.56,0,0,0,1.63-.92h.2a1.38,1.38,0,0,1-.63,1,3,3,0,0,1-1.11.44,15.54,15.54,0,0,1-2.26.19l-4.43.12c-1.48,0-3,0-4.43.07s-2.93,0-4.34.11a10.72,10.72,0,0,0-7.34,2.94A25.59,25.59,0,0,0,9,151.07c-1.29,2.63-2.54,5.26-2.66,8.07a23.76,23.76,0,0,0,.24,4.3l.58,4.38A75.42,75.42,0,0,0,11.05,185Z" transform="translate(0.03 0.01)"></path><path class="cls-1" d="M22.37,138.89A29.38,29.38,0,0,1,26.79,135,33.29,33.29,0,0,1,32,132a20.1,20.1,0,0,1,5.69-1.91,15,15,0,0,1,6,.27v.2c-1.93.57-3.78,1-5.61,1.49s-3.69.81-5.49,1.44a34.33,34.33,0,0,0-10,5.56Z" transform="translate(0.03 0.01)"></path><path class="cls-1" d="M31.09,131a51.24,51.24,0,0,1,1.2-10.47c.76-3.45,1.76-6.84,2.84-10.2l.8-2.51c.27-.83.51-1.67.86-2.56a6.16,6.16,0,0,1,4.33-4,19.27,19.27,0,0,0,4.76-1.68,12.8,12.8,0,0,0,3.82-3.32l.18.1a10,10,0,0,1-3.2,4.39,11,11,0,0,1-2.41,1.46c-.87.38-1.72.63-2.48.94A5,5,0,0,0,38.61,106c-.35.72-.67,1.55-1,2.36l-1,2.44c-1.26,3.27-2.44,6.55-3.38,9.91a50.69,50.69,0,0,0-2,10.27Z" transform="translate(0.03 0.01)"></path><path class="cls-1" d="M18.2,131.76l11.08-23A209.6,209.6,0,0,1,41.64,86.41,91.51,91.51,0,0,1,58.29,67c6.56-5.57,14-9.86,21.4-14l22.18-12.64c3.71-2.07,7.37-4.23,11.22-6.16a55.91,55.91,0,0,1,12.2-4.58A24,24,0,0,0,131.17,28c1.68-.84,2.9-2.52,4.4-4.13a21.83,21.83,0,0,1,11.5-6.1,56.33,56.33,0,0,1,12.83-1c4.26.13,8.5.28,12.76.46v.2l-12.75.25a55.42,55.42,0,0,0-12.51,1.41,25.75,25.75,0,0,0-5.76,2.2A18.39,18.39,0,0,0,136.85,25c-1.36,1.49-2.64,3.44-4.79,4.6a25.36,25.36,0,0,1-6.31,1.95A52.78,52.78,0,0,0,114.1,36c-3.76,1.88-7.45,4-11.18,6L80.55,54.3C73.12,58.4,65.7,62.56,59.21,68A90.8,90.8,0,0,0,42.52,87,209.46,209.46,0,0,0,29.87,109L18.39,131.89Z" transform="translate(0.03 0.01)"></path><path class="cls-1" d="M161.71,15.54a50.12,50.12,0,0,1,10.14-6.08,52.56,52.56,0,0,1,11.37-3.52,42.68,42.68,0,0,1,11.93-.81,34.9,34.9,0,0,1,11.53,3l-.06.19A88.23,88.23,0,0,0,195,7.12a70.62,70.62,0,0,0-11.54.39,52.21,52.21,0,0,0-11.2,2.87,49.11,49.11,0,0,0-10.41,5.31Z" transform="translate(0.03 0.01)"></path><path class="cls-1" d="M199.67,15.66l.52-1.9.11.18a48.1,48.1,0,0,0-17.4,1.14,138.32,138.32,0,0,0-16.75,5.25c-2.74,1-5.5,2-7.51,3.8a8.47,8.47,0,0,0-1.29,1.45,7.83,7.83,0,0,0-.84,1.72,15.37,15.37,0,0,1-1.72,4.34,16.16,16.16,0,0,1-3.5,3.1c-1.19.87-2.37,1.75-3.57,2.59-2.39,1.71-4.8,3.41-7.28,5l-.12-.16c2.13-2,4.34-4,6.56-5.93,1.1-1,2.23-1.93,3.34-2.88a15.94,15.94,0,0,0,3-2.86,16.27,16.27,0,0,0,1.39-3.87,8.39,8.39,0,0,1,1.11-2.22,9.83,9.83,0,0,1,1.67-1.8c2.52-2,5.5-2.93,8.28-3.84A142.44,142.44,0,0,1,182.74,14a48.55,48.55,0,0,1,17.66-.4h.16l-.05.15-.61,1.87Z" transform="translate(0.03 0.01)"></path><path class="cls-1" d="M137.34,25.77a2.43,2.43,0,0,1,1.37-1,6,6,0,0,1,1.68-.23c1.13,0,2.18.13,3.27.19l6.48.53a58.31,58.31,0,0,1,6.47.63A34.27,34.27,0,0,1,163,27.61v.2a35.07,35.07,0,0,1-6.56.07,58.58,58.58,0,0,1-6.44-1l-6.4-1.12c-1.06-.19-2.15-.44-3.18-.57a3.21,3.21,0,0,0-2.86.72Z" transform="translate(0.03 0.01)"></path><path class="cls-1" d="M110.09,36.08c1.28.06,2.55.17,3.82.25l3.81.35a20.22,20.22,0,0,1,3.79.45,12.45,12.45,0,0,1,3.6,1.53v.23a12.83,12.83,0,0,1-3.91.24,20.64,20.64,0,0,1-3.72-.84l-3.71-.94c-1.23-.35-2.46-.67-3.69-1Z" transform="translate(0.03 0.01)"></path><path class="cls-1" d="M73.68,56.54c2-.76,3.94-1.47,5.91-2.2s3.94-1.44,6-2.05a14.55,14.55,0,0,1,6.54-.79,8,8,0,0,1,5.63,3.39l-.14.14a12.82,12.82,0,0,0-5.71-1.54,25.59,25.59,0,0,0-5.93.4c-2,.39-4,1-6.09,1.45s-4.09,1-6.14,1.43Z" transform="translate(0.03 0.01)"></path><path class="cls-1" d="M46.08,84.42a.24.24,0,0,1,.07.16.26.26,0,0,1-.09.16.44.44,0,0,1-.25.08.37.37,0,0,1-.28-.1.39.39,0,0,1-.08-.31c.09-.39.42-.52.64-.65l1.4-.68,2.8-1.35,5.63-2.63a53.43,53.43,0,0,1,5.67-2.56,11.18,11.18,0,0,1,3.24-.65A4.14,4.14,0,0,1,68,77l-.11.17c-2-.53-3.72.42-5.54,1.24a58,58,0,0,1-5.81,2.17l-5.86,2.08-2.94,1-1.47.5c-.23.07-.45.18-.5.31s0,0,.06.1a.13.13,0,0,0,.12,0h0Z" transform="translate(0.03 0.01)"></path><path class="cls-1" d="M52.78,107.22A90.79,90.79,0,0,1,77.41,72.08c.66-.61,1.37-1.19,2.07-1.76s1.39-1.15,2.11-1.71c1.46-1.07,2.88-2.2,4.4-3.18a91.11,91.11,0,0,1,9.32-5.54,125.89,125.89,0,0,1,20.16-8c3.45-1.09,6.92-2.08,10.39-3s7.14-1.89,11-1.45a14,14,0,0,1,5.46,1.88,15.52,15.52,0,0,1,4.29,3.82,23.31,23.31,0,0,1,4.27,10.34,26.81,26.81,0,0,1,.27,5.59c-.11,1.85-.37,3.61-.38,5.33a10.19,10.19,0,0,0,1,4.86,41.33,41.33,0,0,0,2.85,4.44l6.14,8.88c2,3,4.06,6,6.05,9l-.16.12c-2.24-2.82-4.42-5.69-6.63-8.53l-6.53-8.6A36.2,36.2,0,0,1,150.35,80,11.93,11.93,0,0,1,149,74.43c0-1.88.19-3.69.24-5.44a24.92,24.92,0,0,0-.38-5.17A21,21,0,0,0,145,54.43a12.81,12.81,0,0,0-8.36-5c-3.35-.45-6.84.33-10.29,1.22s-7,1.82-10.38,2.84a125.63,125.63,0,0,0-20,7.64,90,90,0,0,0-9.27,5.37c-1.52,1-2.93,2-4.39,3.08-.71.54-1.4,1.11-2.11,1.66S78.77,72.35,78.11,73A90.18,90.18,0,0,0,53,107.41Z" transform="translate(0.03 0.01)"></path><path class="cls-1" d="M154.71,88.4a2.78,2.78,0,0,1,1.93-1.21h.21v.23a25.89,25.89,0,0,1,.51,6.57,28.52,28.52,0,0,1-1.12,6.55c-.61,2.2-1.62,4.14-1.9,5.93a7,7,0,0,0,1.77,5.48l-.11.16a6.12,6.12,0,0,1-3.58-5.77,8.94,8.94,0,0,1,.85-3.45c.47-1,1-1.93,1.35-2.91a25.7,25.7,0,0,0,1.67-6.09,28,28,0,0,0,.16-6.4l.25.2a2.48,2.48,0,0,0-1.81.86Z" transform="translate(0.03 0.01)"></path><path class="cls-1" d="M149.84,58.72a32,32,0,0,1,9.71-11.54,38,38,0,0,1,13.86-6.29A42,42,0,0,1,188.69,40c1.27.18,2.53.4,3.78.68a27.13,27.13,0,0,1,3.75,1.06A5.61,5.61,0,0,1,198,42.89c.49.45.92.93,1.35,1.38.82.9,1.73,1.79,3,1.71v.2a2.77,2.77,0,0,1-2-.18,8.51,8.51,0,0,1-1.67-1.11,8.65,8.65,0,0,0-3-1.86,33.59,33.59,0,0,0-3.58-.65c-1.22-.18-2.45-.33-3.68-.43a65,65,0,0,0-7.38-.29,41.14,41.14,0,0,0-7.35.72A36.5,36.5,0,0,0,160.05,48,31.47,31.47,0,0,0,150,58.8Z" transform="translate(0.03 0.01)"></path><path class="cls-1" d="M123.29,59.79a63.62,63.62,0,0,1,9,8.9,48.13,48.13,0,0,1,3.77,5.2,11.69,11.69,0,0,1,1.33,3,6.27,6.27,0,0,1,0,3.54,5.48,5.48,0,0,1-2.22,2.88,8.78,8.78,0,0,1-3.27,1.27,19,19,0,0,1-6.59-.16,35.7,35.7,0,0,1-12-4.32l-.13-.07v-.1c0-.4-.08-.8-.12-1.21h.2c.14.38.29.76.41,1.14l-.14-.17a67.33,67.33,0,0,0,12.14,2.76,24.12,24.12,0,0,0,6,.27c1.91-.21,3.69-1.08,4.31-2.76s0-3.69-1-5.46a49.66,49.66,0,0,0-3.43-5.2A62.5,62.5,0,0,0,123.17,60Z" transform="translate(0.03 0.01)"></path><path class="cls-1" d="M134.29,83a22.17,22.17,0,0,0,2.31,7.13,32.67,32.67,0,0,0,2,3.23,6.83,6.83,0,0,1,.84,1.94,4.15,4.15,0,0,1-.11,2.29,6,6,0,0,1-3,3.27,8.51,8.51,0,0,1-4.13.77,35.45,35.45,0,0,1-3.85-.45,32.56,32.56,0,0,1-3.78-.8v-.2a56.92,56.92,0,0,1,7.61-.55,11,11,0,0,0,3.32-.57,4,4,0,0,0,2.28-2,3.46,3.46,0,0,0-.37-3,36.78,36.78,0,0,1-1.74-3.43,21.49,21.49,0,0,1-1.61-7.54Z" transform="translate(0.03 0.01)"></path><path class="cls-1" d="M136.92,98.63a4.85,4.85,0,0,0,1.6,2.71,14.76,14.76,0,0,0,2.7,1.8,27.3,27.3,0,0,1,2.94,1.65,24.17,24.17,0,0,1,2.74,2.09,22.65,22.65,0,0,1,4.39,5.36,15.87,15.87,0,0,1,1.82,6.67l.1,2-1.13-1.52c-.58-.78-1.14-1.56-1.65-2.41l.14-.14c.83.53,1.61,1.11,2.37,1.7l-1,.52c-.33-1-.7-2-1.1-3s-.89-1.92-1.36-2.87a27.08,27.08,0,0,0-1.58-2.77,20.87,20.87,0,0,0-2-2.5,21.38,21.38,0,0,0-2.4-2.16c-.85-.65-1.8-1.22-2.73-1.86a14.45,14.45,0,0,1-2.63-2.18,5,5,0,0,1-1.39-3.1Z" transform="translate(0.03 0.01)"></path><path class="cls-1" d="M172,122.68a75.22,75.22,0,0,0-8.36-2.92,24.23,24.23,0,0,0-8.64-.87,16.69,16.69,0,0,0-8.06,3,30.08,30.08,0,0,0-6.34,6,42.53,42.53,0,0,0-7.72,15.59,72.36,72.36,0,0,0-2.3,17.39c-.07,2.94,0,5.88.05,8.83s.17,5.92.38,8.82a31,31,0,0,0,1.63,8.42,44.42,44.42,0,0,0,3.69,7.83,185.24,185.24,0,0,0,20.58,28.71l-.15.14a138.8,138.8,0,0,1-22.16-27.84,47.37,47.37,0,0,1-4-8.15,32.48,32.48,0,0,1-1.64-9c-.15-3-.16-6-.19-8.92s0-5.94.14-8.92a74.57,74.57,0,0,1,2.65-17.69,43.62,43.62,0,0,1,8.2-15.87,31.23,31.23,0,0,1,6.67-6,17.48,17.48,0,0,1,8.45-3,25,25,0,0,1,8.85,1.11,72.38,72.38,0,0,1,8.4,3.23Z" transform="translate(0.03 0.01)"></path><path class="cls-1" d="M138,200.4a1,1,0,0,1-.63,1,3,3,0,0,1-1.1.31c-.75,0-1.45.07-2.17.1l-4.32.19-8.63.29c-2.86.06-5.76.43-8.74-.06a15.94,15.94,0,0,1-4.33-1.31,8.89,8.89,0,0,1-3.44-2.88l.14-.14a13.56,13.56,0,0,0,3.8,1.71,23.19,23.19,0,0,0,4.06.64c2.75.17,5.62.33,8.5.44l8.63.31,4.31.2,2.14.09a2.63,2.63,0,0,0,1-.17.79.79,0,0,0,.57-.68Z" transform="translate(0.03 0.01)"></path><path class="cls-1" d="M116,201.79a79.75,79.75,0,0,0-7.14,8.84,37.41,37.41,0,0,0-2.69,4.73,7.2,7.2,0,0,0-.78,5.08l-.17.1a4.45,4.45,0,0,1-1.31-2.8,7.51,7.51,0,0,1,.4-3.12,14.87,14.87,0,0,1,3.28-5c1.25-1.47,2.57-2.88,3.93-4.23a47.18,47.18,0,0,1,4.34-3.78Z" transform="translate(0.03 0.01)"></path><path class="cls-1" d="M157.29,244.63c-12.71.09-25.52.15-38.15-2.09a82.66,82.66,0,0,1-18.39-5.49,36.49,36.49,0,0,1-8.33-5,20.19,20.19,0,0,1-6-7.78,36.8,36.8,0,0,1-2.2-9.49L83,205.31l-.61-4.74-.3-2.37c-.11-.79-.19-1.61-.33-2.25a2.53,2.53,0,0,0-2.46-2.12,13.73,13.73,0,0,0-4.37.5c-.76.17-1.53.37-2.37.51-.41.07-.82.16-1.23.22l-1.24.11a23.89,23.89,0,0,1-5-.16,33.75,33.75,0,0,1-9.32-2.84,69.06,69.06,0,0,1-8.4-4.7c-1.34-.87-2.65-1.78-4-2.69a5.78,5.78,0,0,1-1.79-1.69,2.79,2.79,0,0,1-.45-1.18,1.27,1.27,0,0,1,.53-1.15l.12.16a1,1,0,0,0-.34,1,2.34,2.34,0,0,0,.49,1,5.44,5.44,0,0,0,1.76,1.44c1.36.82,2.73,1.63,4.12,2.4a66.7,66.7,0,0,0,8.47,4.2,36,36,0,0,0,9,2.41,21.91,21.91,0,0,0,4.58,0l1.13-.13c.37-.06.74-.16,1.11-.23.73-.14,1.5-.36,2.29-.56a15.25,15.25,0,0,1,5.07-.58A5,5,0,0,1,82.18,193a4.7,4.7,0,0,1,1.51,2.58A22.94,22.94,0,0,1,84,198l.28,2.37.55,4.74L86,214.61a35.46,35.46,0,0,0,1.9,9.1A18.73,18.73,0,0,0,93.32,231a35.52,35.52,0,0,0,7.94,4.91,81.92,81.92,0,0,0,18.08,5.64c12.45,2.49,25.25,2.7,38,2.87Z" transform="translate(0.03 0.01)"></path><path class="cls-1" d="M62.47,195.77c-2.53,2.41-5.11,4.76-7.71,7.08-1.32,1.15-2.52,2.4-3.76,3.52a29.42,29.42,0,0,0-3.54,3.52l-2,2.39,1.26-2.66c.16-.33.34-.66.53-1l.19,0v1.12l-.73-.26a10.69,10.69,0,0,1,2.81-4.64,37.62,37.62,0,0,1,4.22-3.22c2.82-2,5.66-4.08,8.55-6Z" transform="translate(0.03 0.01)"></path><path class="cls-1" d="M56.52,220.63l-1-1-1-1.07,1.23.83a26.43,26.43,0,0,0,7.6,3.52,36.67,36.67,0,0,0,8.25,1.37c2.79.18,5.59,0,8.4.08a12.66,12.66,0,0,0,3.93-.26,3.06,3.06,0,0,0,1.47-1,2.24,2.24,0,0,0,.54-1.79l.19-.07a2.58,2.58,0,0,1,0,2.3,3.84,3.84,0,0,1-1.66,1.79,10.66,10.66,0,0,1-4.44,1,45.87,45.87,0,0,1-17-2.39,25.92,25.92,0,0,1-7.47-4.27l.23-.24.88,1.13Z" transform="translate(0.03 0.01)"></path><path class="cls-1" d="M81.44,194A30.72,30.72,0,0,0,91.6,181.67c1.15-2.37,1.72-5.18,3.73-7.43a5.08,5.08,0,0,1,1.9-1.33,4.85,4.85,0,0,1,2.36-.26,9.69,9.69,0,0,1,2.12.6l1.9.71a49.73,49.73,0,0,0,15.59,3,28.63,28.63,0,0,0,7.82-.88c.65-.14,1.26-.39,1.9-.58s1.22-.51,1.85-.75a4.5,4.5,0,0,0,1.56-1.06,1.62,1.62,0,0,0,.48-1.67l.17-.13a1.58,1.58,0,0,1,.22,1.08,2.48,2.48,0,0,1-.43,1,5.26,5.26,0,0,1-1.58,1.5c-.6.34-1.2.7-1.83,1a19.24,19.24,0,0,1-1.92.84,25,25,0,0,1-8.24,1.55c-5.64.14-11.09-1.44-16.17-3.5A22.7,22.7,0,0,0,99.37,174a3.4,3.4,0,0,0-3.1,1.06,11.21,11.21,0,0,0-2.07,3.23c-.56,1.2-1,2.49-1.69,3.73a31.36,31.36,0,0,1-11,12Z" transform="translate(0.03 0.01)"></path><path class="cls-1" d="M114.15,166.67a.36.36,0,0,1-.28.44.3.3,0,0,1-.21,0,1.56,1.56,0,0,1-.57-.3,1.49,1.49,0,0,1-.41-.49,2.08,2.08,0,0,1-.18-.6l-.54-2.3-1.07-4.59-2.14-9.18a46.18,46.18,0,0,1-1.46-9.42,23.67,23.67,0,0,1,1.91-9.46A35.44,35.44,0,0,1,121.29,116a61.92,61.92,0,0,1,8.17-4.89,38.24,38.24,0,0,0,4-2.37,19.2,19.2,0,0,0,3.55-3l.16.12a17.44,17.44,0,0,1-3.15,3.6,39.65,39.65,0,0,1-3.84,2.84c-2.66,1.74-5.28,3.35-7.68,5.28-4.81,3.8-9.27,8.25-11.82,13.83a22.49,22.49,0,0,0-2.08,8.83,44,44,0,0,0,1.13,9.21l1.75,9.26.88,4.63.44,2.32a2.5,2.5,0,0,0,.13.54,1.46,1.46,0,0,0,.32.42c.24.23.75.46.69.07Z" transform="translate(0.03 0.01)"></path><path class="cls-1" d="M126.2,116.89c1.41,0,2.82,0,4.22.07l4.21.17a16.36,16.36,0,0,1,4.3.37,6,6,0,0,1,2.1,1.12,2.82,2.82,0,0,1,1.06,2.14l-.19.07a5.22,5.22,0,0,0-3.42-1.38c-.63-.09-1.27-.17-2-.31l-2.07-.42-4.15-.76c-1.38-.29-2.76-.55-4.13-.86Z" transform="translate(0.03 0.01)"></path><path class="cls-1" d="M107.22,133.54a36.61,36.61,0,0,1-11-4.85,29.94,29.94,0,0,1-8.53-8.62,24.42,24.42,0,0,1-3.93-11.62,19.53,19.53,0,0,1,3-11.79l.84-1.24-.26,1.41a2.06,2.06,0,0,1-1.07,1.46l-.11-.16a1.86,1.86,0,0,0,.58-1.35l.57.17a25.17,25.17,0,0,0-1.54,11.37,26.23,26.23,0,0,0,3.22,11A29.15,29.15,0,0,0,96.75,128a35.76,35.76,0,0,0,10.49,5.35Z" transform="translate(0.03 0.01)"></path><path class="cls-1" d="M90.53,122.62a15,15,0,0,1-6.84-3.08,23.15,23.15,0,0,1-5.07-5.65,32.06,32.06,0,0,1-3.48-6.7l-.6-1.77a9.21,9.21,0,0,1-.46-2,4.75,4.75,0,0,1,.23-2.08,2.1,2.1,0,0,1,.64-.91,1.44,1.44,0,0,1,1-.29v.2a1.25,1.25,0,0,0-.8,1.22,4.59,4.59,0,0,0,.26,1.6,10,10,0,0,0,.71,1.56l.81,1.66c1.07,2.21,1.84,4.52,3,6.64a22.27,22.27,0,0,0,4.35,5.72,14.78,14.78,0,0,0,6.24,3.62Z" transform="translate(0.03 0.01)"></path><path class="cls-1" d="M84.1,120.54a25.11,25.11,0,0,1-6-.24,26.16,26.16,0,0,1-5.81-1.76,26.2,26.2,0,0,0-5.23-1.91,4.89,4.89,0,0,0-2.43.17,3.28,3.28,0,0,0-1,.62,2.62,2.62,0,0,0-.22.25h0v-.2c.08,0,.27.1.25.24a.54.54,0,0,1-.08.28.43.43,0,0,1-.26.2.52.52,0,0,1-.43-.11.75.75,0,0,1-.24-.61,1.52,1.52,0,0,1,.12-.52,3.52,3.52,0,0,1,1.12-1.36,5.21,5.21,0,0,1,3.31-.94,7.45,7.45,0,0,1,3.15.95c.92.5,1.75,1.05,2.59,1.51a26,26,0,0,0,5.36,2.17,27.65,27.65,0,0,0,5.78,1Z" transform="translate(0.03 0.01)"></path><path class="cls-1" d="M55,119.38c3.08,5.61,5.66,11.67,6.3,18.2a22.79,22.79,0,0,1-6.18,18.15c-4.44,4.89-9.93,8.51-15.49,11.74a20.88,20.88,0,0,1-4.6,2,8.49,8.49,0,0,1-9.33-2.93,7.89,7.89,0,0,1-1.7-4.65h.2a8.15,8.15,0,0,0,6,6.23,7.69,7.69,0,0,0,4.3-.34,20.1,20.1,0,0,0,4.09-2.06c5.37-3.41,11-6.59,15.34-11.11a21.53,21.53,0,0,0,6.36-17c-.35-6.33-2.64-12.46-5.48-18.17Z" transform="translate(0.03 0.01)"></path><path class="cls-1" d="M36.09,166.16a2.82,2.82,0,0,0-2.15,1,8.8,8.8,0,0,0-1.43,2q-1.23,2.21-2.24,4.52a25.89,25.89,0,0,0-2.46,9.54,13.74,13.74,0,0,0,.68,4.72,17.22,17.22,0,0,0,2.1,4.23,46.1,46.1,0,0,0,3,4,8.92,8.92,0,0,0,1.59,1.77,1.17,1.17,0,0,0,.94.21.92.92,0,0,0,.75-.67h.2a1.23,1.23,0,0,1-.78,1.14,1.9,1.9,0,0,1-1.53.08,7.59,7.59,0,0,1-2.22-1.59,26.67,26.67,0,0,1-3.56-3.8A15.91,15.91,0,0,1,27.54,191a14.54,14.54,0,0,1-.94-2.56,16.32,16.32,0,0,1-.37-5.35,27.13,27.13,0,0,1,3.16-9.88,49.71,49.71,0,0,1,2.59-4.4,9.44,9.44,0,0,1,1.68-2,3.11,3.11,0,0,1,2.44-.86Z" transform="translate(0.03 0.01)"></path><path class="cls-1" d="M56.66,152.83a28.81,28.81,0,0,0,6.42,6,30.64,30.64,0,0,0,7.76,3.93,38.58,38.58,0,0,0,8.45,1.61,43.81,43.81,0,0,0,8.72-.06l.06.19a19.14,19.14,0,0,1-8.9,1.87,24.47,24.47,0,0,1-8.9-2.11,31.52,31.52,0,0,1-7.8-4.63,29.19,29.19,0,0,1-6-6.69Z" transform="translate(0.03 0.01)"></path><path class="cls-1" d="M59.29,134.43a29.06,29.06,0,0,0,12.54-2.75,52.77,52.77,0,0,0,5.44-3.29c1.79-1.14,3.49-2.41,5.31-3.73l.15.13A15.7,15.7,0,0,1,78.44,130a20.39,20.39,0,0,1-6,3.15,28.82,28.82,0,0,1-6.53,1.58,25.89,25.89,0,0,1-6.64-.11Z" transform="translate(0.03 0.01)"></path><path class="cls-1" d="M90.29,66.77a2,2,0,0,0-1.6-2.33h0a2.44,2.44,0,0,0-.54,0l.14-.28a29.07,29.07,0,0,0,3.07,4,37,37,0,0,1,3,4.14,36.39,36.39,0,0,1,4.14,9.35,37.07,37.07,0,0,1,1.07,5A10.51,10.51,0,0,1,99.09,92a7.9,7.9,0,0,1-3.89,3.88,23.2,23.2,0,0,1-5,1.69L84.7,99l4.77-3.13c2-1.3,3.94-2.63,6-3.87a3.92,3.92,0,0,1,.53-.29,1.68,1.68,0,0,1,1.06-.11,1.84,1.84,0,0,1,.87.49,3.26,3.26,0,0,1,.43.55l.83,1.61c.53,1,1.14,2,1.75,3a23.48,23.48,0,0,1,3,6.63,8.81,8.81,0,0,1-1,7.11l-.17-.1a9,9,0,0,0,0-6.68,26.11,26.11,0,0,0-3.39-6c-.66-1-1.34-2-2-3q-.24-.39-.45-.81c-.14-.27-.29-.58-.38-.72s-.21-.18,0-.1a.61.61,0,0,0,.19,0l-.24.15c-2,1.31-4,2.52-6,3.77l-.73-1.76a21.38,21.38,0,0,0,4.65-1.35,6.24,6.24,0,0,0,3.24-3,9.09,9.09,0,0,0,.52-4.59,36.38,36.38,0,0,0-.87-4.86,37.89,37.89,0,0,0-3.69-9.24,37.18,37.18,0,0,0-2.75-4.18A28,28,0,0,1,88,64.29L87.85,64h.27a2.32,2.32,0,0,1,2.42,2.21,2.09,2.09,0,0,1,0,.56Z" transform="translate(0.03 0.01)"></path></svg>