<?xml version="1.0" encoding="utf-8"?>
<!-- Generator: Adobe Adobe Illustrator 24.2.0, SVG Export Plug-In . SVG Version: 6.00 Build 0)  -->
<svg version="1.1" id="Layer_1" xmlns="http://www.w3.org/2000/svg" xmlns:xlink="http://www.w3.org/1999/xlink" x="0px" y="0px"
	 width="113px" height="129px" viewBox="0 0 113 129" style="enable-background:new 0 0 113 129;" xml:space="preserve">
<style type="text/css">
	.st0{fill:none;stroke:#FFFFFF;stroke-width:2;stroke-miterlimit:10;}
</style>
<g id="Layer_2_1_">
	<g>
		<path class="st0" d="M50.2,54.8c-0.2-2.7-0.5-5.4-0.3-8.1s0.8-5.4,2.3-7.7c2.4-3.8,6.7-6,11-7.2c4.3-1.2,9.2-1.5,13.1,0.7
			c0,3.6-0.5,9.9-0.6,11.7c0,0.3,0,0.5,0,0.5s-0.2-0.1-0.5-0.2c-0.9-0.3-3-1-4.4-1.1c-1.8-0.2-3.5,0-5.3,0.5
			C65,44,64.4,44.2,64,44.6c-0.3,0.3-0.5,0.7-0.7,1.2c-0.9,2.3-1,5-0.2,7.4c0,0.1,0.1,0.3,0.2,0.4c0.1,0.1,0.3,0.1,0.4,0.1
			c3.4,0,6.9,0.1,10.3,0.1c0.3,0,0.6,0,0.9,0.2c0.5,0.3,0.6,0.9,0.6,1.5c0.1,3.8,0,7.7-0.2,11.5c0,0.1,0,0.3-0.1,0.4
			c-0.1,0.2-0.4,0.2-0.6,0.2c-3.8,0.1-7.7,0.1-11.6,0.2c-0.2,0.9-0.2,1.9-0.2,2.9c0.3,8.8,0.3,17.6,0,26.4c0,0.1,0,0.2-0.1,0.3
			c-0.1,0.2-0.3,0.2-0.5,0.2c-4.5,0.6-9.1,0.8-13.7,0.5c-0.1-0.8-0.2-1.6-0.2-2.4c-0.3-7.5-0.2-15.1,0.3-22.6
			c0.1-1.3,0.2-2.6-0.2-3.9c-3.7,0.2-7.5,0.2-11.2,0.1c-1.4-4,0.2-8.5-0.4-12.7c0-0.3-0.1-0.8,0.2-1c0.1-0.1,0.3-0.1,0.4-0.1
			C41.5,55.2,45.6,55,50.2,54.8z"/>
		<path class="st0" d="M58,37.3c-1.4,0.6-2.4,1.9-3.1,3.3c-0.7,1.4-1,2.9-1.2,4.4c-0.5,2.9-0.7,5.8-0.8,8.7"/>
		<path class="st0" d="M51.4,75.7c-0.2,1.6-0.1,3.3,0.3,4.9"/>
		<path class="st0" d="M51.9,83.4c-0.3,1.6-0.1,3.2,0.1,4.8c0.1,1.1,0.2,2.1,0.3,3.2"/>
		<path class="st0" d="M40,59.8c-0.6,0.8-0.4,2-0.3,3c0.2,1.2,0.3,2.4,0.5,3.7"/>
		<path class="st0" d="M43.4,66.2c1.7-0.1,3.4,0,5.1,0.2"/>
		<path class="st0" d="M73.2,56.9c-1,0-2,0.1-3,0.1"/>
		<path class="st0" d="M73.2,58.7c-1,0.1-2.1,0.1-3.1,0.1"/>
		<path class="st0" d="M73.5,61.1c-1.1,0.2-2.3,0.2-3.5,0.2"/>
		<path class="st0" d="M73.5,63.5c-0.7,0-1.4,0-2.1,0"/>
		<path class="st0" d="M61.6,69.5c-0.8-0.1-1.7-0.1-2.5-0.2"/>
		<path class="st0" d="M61.3,73.4c-0.9,0.2-1.8,0.3-2.7,0.3"/>
		<path class="st0" d="M61.3,75.9c-0.6,0-1.3,0-1.9,0"/>
		<path class="st0" d="M61.1,79.8c-0.9,0.1-1.9,0.2-2.8,0.1"/>
		<path class="st0" d="M61.2,82.1c-0.8,0-1.7,0-2.5,0"/>
		<path class="st0" d="M61.3,84.2c-1,0-2,0-3.1-0.1"/>
		<path class="st0" d="M61.2,87.7c-1,0.3-2,0.3-3,0.2"/>
		<path class="st0" d="M60.9,90.7c-1,0.1-1.9,0.2-2.9,0.1"/>
		<path class="st0" d="M61.3,93.5c-0.8,0.1-1.6,0.1-2.4,0"/>
		<path class="st0" d="M74.2,40.9c-1,0-1.9,0-2.9,0"/>
		<path class="st0" d="M74.3,39c-1.3,0-2.6-0.1-3.8-0.4"/>
		<path class="st0" d="M74.2,37c-0.8-0.1-1.7-0.2-2.5-0.3"/>
		<path class="st0" d="M74.7,33.5c-0.8-0.1-1.6-0.2-2.5-0.3"/>
		<path class="st0" d="M75.2,34.9c-1.1-0.1-2.2-0.1-3.4-0.2"/>
	</g>
</g>
</svg>
