<svg xmlns="http://www.w3.org/2000/svg" xmlns:xlink="http://www.w3.org/1999/xlink" id="Layer_1" x="0px" y="0px" viewBox="0 0 699.8 503.4" style="enable-background:new 0 0 699.8 503.4;" xml:space="preserve"><style type="text/css">	.st0{fill:#FFFFFF;}	.st1{fill:#CC3533;}</style><g id="Layer_2_00000173881317280580368130000009690973809909245075_">	<g>		<path class="st0" d="M349.9,139.8c3.9,6.2,7.2,12.8,9.7,19.7c1.2,3.5,2,7.1,2.4,10.7c0.4,3.7,0,7.4-1.1,11   c-0.6,1.8-1.3,3.5-2.2,5.1c-0.9,1.6-2,3.1-3.2,4.5c-2.4,2.8-5.2,5.2-8.3,7.3c-6.1,4.2-12.8,7.4-19.8,9.6   c-14.1,4.4-29.2,5.1-43.8,3.3s-28.9-6.2-42.6-11.6c-27.4-10.7-53.2-25.6-81.4-34.1c-3.5-1.1-7.1-1.9-10.6-2.8s-7.2-1.8-10.7-2.8   c-7.1-1.8-14.4-3.4-21.7-2.9c-1.8,0.1-3.6,0.4-5.4,0.9c-1.7,0.4-3.5,1-5.3,1.5c-3.5,0.9-7,2.1-10.3,3.5c-3.4,1.2-6.6,3.1-9.4,5.4   c-1.3,1.2-2.4,2.6-3.2,4.1c-0.7,1.6-1,3.3-0.7,5l-1.1-0.1c1.8-3.6,4.1-7,6.6-10.1c1.3-1.6,2.6-3,4.1-4.4c1.5-1.4,3.2-2.6,5-3.5   c1.9-0.9,4.1-1.2,6.2-0.7c2,0.3,3.9,0.8,5.8,1.3c3.9,1,7.7,2.4,11.3,4.1c3.7,1.7,7,4,9.9,6.9c1.4,1.5,2.5,3.2,3.5,5   c0.9,1.9,1.6,3.8,1.9,5.9c0.3,2,0.4,4.1,0.2,6.1c-0.2,2-0.5,4-1.1,6c-1.1,3.8-2.5,7.6-4.3,11.2c-1.7,3.6-3.5,7.2-5.2,10.7   l-1.3,2.7c-0.5,0.9-1.2,1.8-2,2.4c-0.9,0.6-1.9,0.9-3,1c-1,0.1-2,0.1-3,0.1c-4-0.2-8-1.1-11.7-2.8c-3.7-1.6-7.2-3.5-10.6-5.6   c-3.4-2-6.6-4.4-9.5-7.2c-2.9-2.9-4.8-6.6-5.5-10.6c-0.3-2-0.3-4,0-6c0.2-2,0.6-3.9,1.2-5.9c1.2-3.8,3.1-7.4,5.6-10.5l0.1,0.1   c-0.5,0.2-0.9,0.1-1.3,0.2l-1.4,0.1l-1.2,0.1c-0.4,0-0.8,0-1.2,0.2l-0.1-0.1c0.5-0.2,0.8-0.1,1.3-0.2l1.3-0.1l1.2-0.1   c0.4,0,0.8-0.1,1.2-0.2l0.4-0.1l-0.2,0.2c-2.4,3.1-4.3,6.7-5.5,10.5c-0.6,1.9-1,3.9-1.1,5.8c-0.2,1.9-0.2,3.9,0.1,5.9   c0.7,3.9,2.6,7.4,5.4,10.2c2.9,2.7,6,5.1,9.4,7.1c3.3,2.1,6.8,3.9,10.5,5.5c3.6,1.6,7.5,2.5,11.4,2.7c1,0,2,0,2.9-0.1   c0.9-0.1,1.8-0.4,2.6-0.9c1.5-1.1,2.1-3.2,2.9-4.9c1.7-3.5,3.5-7.2,5.1-10.7c1.7-3.5,3.1-7.3,4.1-11.1c0.5-1.9,0.8-3.8,1-5.7   c0.1-2,0-3.9-0.2-5.8c-0.3-1.9-1-3.7-1.8-5.5c-0.9-1.7-2-3.3-3.3-4.8c-2.7-2.8-6-5-9.5-6.7c-3.6-1.6-7.3-3-11.1-4   c-1.9-0.6-3.8-1-5.7-1.3c-1.9-0.3-3.8-0.1-5.5,0.7c-1.7,0.9-3.3,2-4.6,3.4c-1.4,1.3-2.8,2.8-4,4.3c-2.5,3.1-4.7,6.4-6.5,9.8   l-0.8,1.6l-0.1-1.9c-0.3-1.9-0.1-3.9,0.7-5.7c0.8-1.7,2-3.3,3.5-4.5c3-2.3,6.2-4.2,9.7-5.6c3.4-1.4,6.9-2.6,10.5-3.5l5.4-1.5   c1.8-0.5,3.6-0.7,5.5-0.9c7.5-0.6,14.8,1.1,21.9,3c3.5,1,7.1,2,10.7,2.8s7.2,1.8,10.7,2.9c28.4,8.5,54,23.5,81.4,34.3   c13.6,5.4,27.8,9.9,42.4,11.7s29.6,1.2,43.6-3.2c7.1-2.1,13.8-5.3,19.8-9.5c3.1-2,5.8-4.4,8.3-7.2c1.2-1.4,2.3-2.9,3.2-4.5   c0.9-1.6,1.6-3.3,2.2-5c1.1-3.5,1.5-7.2,1.1-10.8c-0.3-3.7-1.1-7.3-2.3-10.7C357.2,152.5,353.5,146,349.9,139.8L349.9,139.8z"></path>		<path class="st0" d="M349.9,139.8c3.9,6.2,7.2,12.8,9.8,19.7c1.2,3.5,2.1,7.1,2.5,10.7c0.4,3.7,0,7.4-1,10.9   c-0.5,1.8-1.3,3.5-2.1,5.1c-0.9,1.6-2,3.1-3.1,4.6c-2.4,2.8-5.2,5.3-8.2,7.4c-6.1,4.2-12.7,7.5-19.8,9.7   c-14.1,4.5-29.1,5.3-43.7,3.6c-14.7-1.7-28.9-6-42.6-11.3c-27.5-10.6-53.1-25.3-81.2-33.9c-7-1.9-14.1-3.7-21.3-5.6   c-7.1-1.8-14.3-3.5-21.5-3.1c-3.6,0.1-7,1.1-10.6,2.1c-3.6,0.9-7,2-10.4,3.4c-0.9,0.4-1.7,0.7-2.5,1c-0.8,0.4-1.6,0.7-2.4,1.2   c-1.6,0.9-3.1,1.8-4.5,2.9c-1.4,1-2.5,2.4-3.3,3.9c-0.8,1.5-1,3.2-0.8,4.8l0.2,1.1l-1.1-0.1l-1.1-0.1l-1.3-0.1l0.6-1.1   c2.2-4.3,5-8.4,8.2-12.1c0.8-0.9,1.7-1.8,2.6-2.6c0.9-0.8,1.9-1.7,2.9-2.4c1.1-0.7,2.1-1.3,3.4-1.8c1.2-0.4,2.5-0.6,3.9-0.6   c0.6,0,1.3,0.1,1.9,0.2c0.6,0.1,1.2,0.2,1.8,0.3c1.2,0.2,2.4,0.5,3.6,0.9c2.3,0.6,4.7,1.3,7,2.2c2.3,0.9,4.5,1.8,6.7,2.9   c2.2,1.1,4.2,2.5,6.1,4.1c0.9,0.8,1.8,1.6,2.7,2.6c0.8,0.9,1.5,1.9,2.2,3c0.3,0.5,0.7,1,1,1.6c0.3,0.6,0.6,1.2,0.8,1.7   c0.5,1.2,0.8,2.4,1.1,3.6c0.6,2.5,0.7,5,0.5,7.5c-0.2,2.5-0.7,4.9-1.5,7.2c-0.7,2.3-1.5,4.6-2.5,6.9c-0.9,2.3-2,4.4-3.1,6.6   l-3.2,6.5l-1.6,3.2c-0.5,1.2-1.4,2.3-2.4,3.1l0,0l0,0c-0.8,0.5-1.7,0.8-2.6,1c-0.9,0.2-1.7,0.1-2.6,0.2l-1.3,0   c-0.4,0-0.9,0-1.3-0.1c-0.8-0.1-1.7-0.2-2.5-0.3c-3.3-0.5-6.6-1.6-9.5-3c-3-1.4-5.9-2.9-8.7-4.6c-2.8-1.6-5.6-3.5-8.1-5.7   c-1.2-1.1-2.5-2.2-3.6-3.5c-1.1-1.3-2-2.8-2.8-4.3c-0.7-1.6-1.3-3.2-1.6-4.9c-0.3-1.7-0.3-3.4-0.3-5.1c0.2-3.4,0.9-6.7,2.1-9.8   c1.2-3.1,2.9-6.1,5-8.7l0.7-0.9l0.8,0.8l0.1,0.1l1,1l-1.2,0.6c-0.3,0.2-0.7,0.2-1,0.3c-0.3,0-0.4,0-0.5,0l-0.1,0l-0.1,0   c-0.9,0.1-1.7,0.1-2.6,0.2l-0.1,0l-0.1,0c-0.2,0-0.5,0-0.7,0.1l-0.6,0.3l-0.5-0.5l-0.1-0.1l-0.9-0.9l1.2-0.6   c0.3-0.2,0.8-0.3,1-0.3c0.3,0,0.4,0,0.5-0.1l0.1,0l0.1,0l2.1-0.2l0.5,0c0.1,0,0.3,0,0.4-0.1c0.3,0,0.5-0.1,0.9-0.3l4-1.3l-3,3   l-0.2,0.2l0.1-0.1c-1.9,2.4-3.4,5.1-4.6,8c-0.6,1.4-1,2.9-1.4,4.4c-0.2,0.7-0.3,1.5-0.4,2.3c-0.1,0.7-0.1,1.6-0.2,2.3   c-0.5,6.2,2.4,12.1,7.3,15.9c2.4,2,4.9,3.8,7.7,5.4c2.7,1.7,5.4,3.1,8.3,4.4c2.9,1.3,5.8,2.3,8.8,2.8c1.5,0.2,3.1,0.5,4.6,0.4   c0.7,0,1.6,0,2.3-0.1c0.7-0.1,1.3-0.3,1.9-0.7l-0.1,0c0.7-0.5,1.2-1.5,1.7-2.5c0.5-1,1-2.2,1.5-3.2l3-6.4c1-2.1,2.1-4.2,3-6.4   c0.9-2.1,1.7-4.3,2.3-6.5c0.7-2.2,1.1-4.5,1.3-6.7c0.1-1.1,0.1-2.3,0-3.4c0-0.6-0.1-1.1-0.2-1.7c-0.1-0.6-0.2-1.1-0.3-1.6   c-0.3-1.1-0.6-2.2-1.1-3.2c-0.4-1-1-2-1.6-2.9c-0.6-0.9-1.3-1.9-2.1-2.7c-0.8-0.8-1.6-1.6-2.5-2.3c-1.8-1.4-3.7-2.7-5.8-3.7   c-2.1-1-4.2-1.9-6.4-2.7c-2.2-0.8-4.4-1.4-6.7-2.1c-1.1-0.3-2.2-0.6-3.4-0.8c-0.6-0.1-1.1-0.2-1.6-0.3c-0.5,0-1.1,0-1.6,0   c-1.1,0.1-2.1,0.4-3,0.9c-1,0.5-1.9,1.2-2.8,1.9c-0.4,0.4-0.8,0.7-1.2,1.2c-0.4,0.4-0.8,0.8-1.3,1.2c-0.8,0.8-1.6,1.7-2.3,2.6   c-1.5,1.8-2.8,3.7-4.1,5.6c-1.3,1.9-2.3,4-3.5,6.1l-1.4,2.7l-0.2-3l-0.1-1.9l0,0.1c-0.3-2-0.1-4,0.7-5.9c0.8-1.9,2-3.4,3.5-4.8   c3-2.4,6.2-4.3,9.7-5.8c3.4-1.4,7-2.7,10.6-3.7l5.3-1.4c1.8-0.5,3.7-0.9,5.6-1c3.7-0.3,7.5-0.2,11.2,0.4c3.7,0.5,7.3,1.4,10.9,2.4   l10.7,2.8l10.7,2.9c14.2,4.2,27.8,10.1,41.2,16.3c13.4,6.2,26.7,12.7,40.3,18.1c13.7,5.5,27.8,10,42.4,12   c14.5,1.9,29.6,1.5,43.7-2.8c7.1-2,13.8-5.2,19.9-9.3c3.1-2,5.9-4.4,8.4-7.1c1.2-1.3,2.3-2.8,3.2-4.4c0.9-1.6,1.7-3.3,2.3-5   c1.1-3.5,1.5-7.2,1.2-10.9c-0.3-3.7-1.1-7.3-2.3-10.8C357.2,152.6,353.5,146.1,349.9,139.8L349.9,139.8L349.9,139.8z M349.9,139.8   L349.9,139.8L349.9,139.8c3.7,6.3,7.4,12.7,9.7,19.8c1.2,3.5,2,7.1,2.3,10.8c0.4,3.7,0,7.4-1.1,11c-0.6,1.8-1.3,3.5-2.3,5.1   c-0.9,1.6-2,3.2-3.2,4.5c-2.5,2.8-5.3,5.2-8.4,7.2c-6.1,4.2-12.9,7.4-20,9.5c-14.2,4.4-29.3,5-44,3.1   c-14.7-1.9-28.9-6.4-42.7-11.9c-13.8-5.4-27.1-11.9-40.5-18c-13.4-6.1-27-11.9-41.1-16.1l-10.6-2.9l-10.7-2.8   c-7.1-1.9-14.3-3.4-21.6-2.6c-1.8,0.2-3.5,0.5-5.3,1l-5.3,1.5c-3.5,1-7,2.2-10.3,3.6c-3.3,1.4-6.5,3.3-9.2,5.5   c-1.3,1.1-2.4,2.6-3,4.1c-0.6,1.6-0.8,3.3-0.6,5l0,0l0,0l0.1,1.9l-1.6-0.4c2.1-4.2,4.7-8.3,7.8-12c0.8-0.9,1.6-1.8,2.4-2.7   c0.4-0.4,0.9-0.9,1.3-1.2c0.4-0.4,0.9-0.9,1.3-1.2c0.9-0.8,2-1.5,3.1-2.1c1.1-0.6,2.4-1,3.7-1.2c0.6-0.1,1.3-0.1,1.9,0   c0.7,0,1.3,0.2,1.8,0.3c1.2,0.2,2.3,0.5,3.5,0.8c2.3,0.6,4.6,1.3,6.8,2.1c2.2,0.8,4.4,1.7,6.6,2.7c2.2,1.1,4.2,2.4,6.1,3.9   c0.9,0.8,1.8,1.6,2.7,2.4c0.9,0.9,1.6,1.9,2.3,2.9c0.7,1,1.3,2.1,1.8,3.2c0.5,1.1,0.9,2.3,1.2,3.5c0.1,0.6,0.3,1.2,0.3,1.8   c0.1,0.6,0.1,1.2,0.2,1.8c0.1,1.2,0.1,2.4,0,3.6c-0.2,2.4-0.7,4.8-1.4,7.1c-0.7,2.3-1.5,4.6-2.4,6.8c-0.9,2.2-2,4.3-3,6.4l-3,6.4   c-0.5,1.1-1,2.1-1.5,3.2c-0.5,1.1-1.1,2.3-2.3,3.2l0,0l0,0c-0.8,0.5-1.7,0.8-2.6,0.9c-0.9,0.1-1.7,0.1-2.5,0.1   c-0.8,0.1-1.7,0-2.5-0.1c-0.8-0.1-1.6-0.2-2.4-0.3c-3.2-0.5-6.4-1.6-9.3-3c-2.9-1.3-5.8-2.8-8.5-4.5c-2.7-1.6-5.5-3.5-7.9-5.6   c-0.6-0.5-1.2-1.1-1.8-1.6c-0.6-0.6-1.2-1.2-1.7-1.8c-1.1-1.3-2-2.7-2.7-4.2c-0.7-1.5-1.2-3.1-1.6-4.8c-0.3-1.7-0.3-3.3-0.3-5   c0-0.9,0.1-1.6,0.2-2.4c0.1-0.8,0.2-1.6,0.4-2.5c0.3-1.6,0.9-3.2,1.4-4.7c1.2-3.1,2.8-5.9,4.8-8.5l0,0l0,0l0.2-0.2l1,1.7   c-0.3,0.1-0.7,0.3-1.1,0.3c-0.2,0-0.4,0.1-0.6,0.1l-0.5,0l-2.1,0.2l0.2,0c-0.3,0.1-0.7,0.1-0.9,0.1c-0.2,0-0.2,0-0.3,0.1l0.3-1.6   l0.1,0.1l-1.2-0.2c0.5-0.3,1.2-0.4,1.8-0.3l-0.2,0c0.9-0.1,1.8-0.2,2.6-0.2l-0.2,0c0.3-0.1,0.7-0.1,0.8-0.1c0.2,0,0.2,0,0.3-0.1   l-0.3,1.6l-0.1-0.1l1.5-0.1c-2,2.4-3.6,5.2-4.7,8.1c-1.1,2.9-1.8,6.1-2,9.2c-0.1,1.5,0,3.2,0.2,4.6c0.3,1.5,0.8,3,1.4,4.4   c0.7,1.4,1.5,2.7,2.5,3.9c1,1.2,2.2,2.2,3.4,3.3c2.4,2.1,5.1,3.9,7.9,5.5c2.8,1.7,5.6,3.2,8.5,4.5c2.9,1.4,5.9,2.4,9,2.9   c0.8,0.1,1.6,0.2,2.4,0.3c0.4,0,0.8,0.1,1.2,0.1l1.2,0c0.8-0.1,1.6,0,2.3-0.2c0.7-0.1,1.4-0.4,2-0.8l-0.1,0.1   c0.8-0.7,1.5-1.5,1.9-2.5l1.6-3.2l3.2-6.5c1.1-2.2,2.1-4.3,3-6.5c0.9-2.2,1.7-4.4,2.4-6.7c1.4-4.5,2-9.3,1-13.7   c-0.3-1.1-0.6-2.2-1-3.3c-0.2-0.5-0.5-1.1-0.7-1.5c-0.3-0.5-0.6-1-0.9-1.5c-0.6-1-1.3-1.9-2.1-2.8c-0.7-0.8-1.6-1.6-2.5-2.4   c-1.8-1.5-3.7-2.8-5.8-3.9c-2.1-1.1-4.3-2-6.5-2.9c-2.2-0.8-4.5-1.5-6.8-2.1c-1.1-0.3-2.3-0.6-3.4-0.8c-0.6-0.1-1.1-0.2-1.8-0.3   c-0.6-0.1-1.1-0.2-1.7-0.2c-1.1,0-2.2,0.1-3.2,0.5c-1,0.3-2,1-3,1.6c-1,0.6-1.8,1.4-2.7,2.2c-0.9,0.8-1.7,1.6-2.5,2.5   c-3.1,3.5-5.8,7.5-8,11.7l-0.7-1.3l1.1,0.1l-1,1c-0.3-2,0.1-4.1,1-5.9c0.9-1.7,2.2-3.3,3.7-4.5c1.5-1.2,3.1-2.2,4.7-3.1   c0.8-0.4,1.7-0.9,2.5-1.2c0.9-0.4,1.7-0.7,2.6-1c3.4-1.4,7-2.6,10.6-3.5l2.6-0.8c0.4-0.1,0.9-0.2,1.4-0.4l1.3-0.3   c1.8-0.4,3.8-0.6,5.6-0.7c7.5-0.3,14.8,1.4,21.9,3.3c7.1,1.9,14.2,3.7,21.3,5.7c28.2,8.7,53.9,23.6,81.2,34.3   c13.6,5.3,27.8,9.6,42.3,11.4c14.5,1.8,29.4,1.1,43.4-3.3c7-2.2,13.6-5.4,19.7-9.5c3-2,5.8-4.5,8.2-7.2c1.2-1.4,2.2-2.9,3.1-4.5   c0.9-1.6,1.6-3.3,2.1-5c1.1-3.5,1.5-7.2,1.1-10.8c-0.4-3.6-1.2-7.2-2.4-10.7C357,152.6,353.8,146,349.9,139.8z"></path>	</g>	<g>		<path class="st0" d="M107.4,161.1c-3.2-0.7-6.6-0.6-9.7,0.2c-3.2,0.9-6.2,2.3-8.9,4.3c-5.3,3.9-9.6,9.1-12.3,15.1   c-1.3,3-2.3,6.1-2.8,9.4c-0.5,3.3-0.3,6.6,0.6,9.7c1,3.1,2.7,6,5,8.4c2.2,2.4,4.7,4.5,7.5,6.2c5.5,3.6,11.6,6.2,17.5,9l17.9,8.4   l17.9,8.4c5.9,2.8,12,5.3,18.3,7.3c12.5,3.9,25.9,4.5,38.6,8.2c19.2,5.3,36.9,15.2,51.5,28.7l3.5,3.4l3.4,3.6l3.3,3.8l3.3,3.7   c8.9,9.7,19.6,17.5,31,24c2.8,1.7,5.7,3.2,8.6,4.8s5.7,3.2,8.5,5c5.6,3.4,11.1,7.2,16.6,10.8c10.8,7.4,21.5,15.1,33.1,21.3   s23.9,11,35.8,16.6s23.1,12.5,34.8,18.6c5.8,3.1,11.8,5.8,17.9,8.2c3,1.2,6.2,2.3,9.2,3.5c3.1,1.2,6.1,2.8,8.8,4.8   c2.7,2.1,4.9,4.6,6.6,7.5c0.9,1.5,1.7,2.8,2.4,4.4c0.7,1.5,1.5,2.9,2.3,4.3c3.4,5.6,8.3,10,13.1,14.5c2.4,2.2,4.9,4.3,7.5,6.2   c2.7,1.8,5.7,3.2,8.8,4.1c3.2,0.9,6.4,1.5,9.6,1.8c3.3,0.4,6.6,0.8,9.7,1.2s6.6,0.6,9.9,0.8s6.6,0.1,9.9,0.4   c3.3,0.2,6.6,1.1,9.5,2.7c0.7,0.5,1.3,1,1.9,1.5c0.6,0.6,1.2,1.2,1.7,1.8c0.5,0.6,1.2,1.1,2,1.3c0.4,0.1,0.8,0.2,1.2,0.2   c0.4,0,0.6-0.4,0.7-0.8h0.1c-0.1,0.4-0.4,0.8-0.9,0.8c-0.4,0.1-0.9,0-1.2-0.2c-0.7-0.4-1.4-0.8-2.1-1.3c-0.5-0.6-1.1-1.2-1.7-1.7   c-0.6-0.6-1.2-1-1.9-1.5c-2.9-1.6-6.1-2.5-9.4-2.6c-3.3-0.2-6.6-0.2-9.9-0.4s-6.6-0.4-9.9-0.7l-9.9-1.1c-3.3-0.3-6.6-0.9-9.7-1.8   c-3.2-0.8-6.3-2.2-9-4.1c-2.7-1.9-5.3-4-7.7-6.3c-4.9-4.4-9.9-8.9-13.4-14.6c-0.9-1.5-1.6-2.9-2.4-4.4s-1.6-2.8-2.4-4.3   c-1.7-2.8-3.9-5.2-6.5-7.2c-2.6-1.9-5.5-3.4-8.5-4.5c-3-1.2-6.2-2.3-9.2-3.4c-6.2-2.3-12.2-5.1-18-8.1   c-11.7-6.1-22.9-13.2-34.9-18.6s-24.2-10.4-35.9-16.6s-22.4-14-33.2-21.4c-5.4-3.8-10.8-7.4-16.4-10.8c-2.8-1.7-5.6-3.4-8.5-5   s-5.9-3.2-8.6-4.9c-5.8-3.3-11.3-7-16.5-11c-5.3-4-10.2-8.4-14.6-13.3c-1.1-1.2-2.2-2.4-3.3-3.8l-3.3-3.6l-3.4-3.5l-3.5-3.4   c-4.8-4.4-9.9-8.5-15.3-12.2c-10.9-7.3-22.9-12.9-35.5-16.4c-12.7-3.7-25.9-4.3-38.6-8.2c-6.3-2.1-12.4-4.5-18.4-7.3l-17.9-8.4   l-17.9-8.4c-6-2.8-12-5.5-17.5-9.1c-2.8-1.8-5.3-3.9-7.6-6.3c-2.3-2.4-4-5.4-5-8.5c-0.9-3.2-1.1-6.6-0.6-9.9   c0.5-3.3,1.5-6.4,2.9-9.5c2.8-6.1,7-11.3,12.4-15.2c2.7-2,5.7-3.4,8.9-4.3C100.7,160.3,104.1,160.3,107.4,161.1L107.4,161.1z"></path>		<path class="st0" d="M107.4,161.1c-3.2-0.7-6.5-0.6-9.6,0.2c-3.1,0.8-6.1,2.2-8.7,4.1c-5.2,3.8-9.5,8.9-12.2,14.8   c-1.4,2.9-2.3,6-2.9,9.2c-0.6,3.2-0.5,6.5,0.3,9.6c0.8,3.1,2.5,6,4.6,8.4c2.1,2.4,4.6,4.6,7.3,6.3c5.4,3.6,11.3,6.2,17.2,8.9   l17.6,8.2l17.6,8.2c5.8,2.8,11.8,5.3,17.9,7.4c12.2,4.2,25.3,4.9,37.9,8c12.6,3.2,24.8,8.3,35.8,15.2c11,6.9,21.1,15.5,29.4,25.5   c2.2,2.4,4.3,4.8,6.6,7.1c2.3,2.3,4.7,4.4,7.2,6.5c5,4.1,10.3,7.8,15.8,11.1c1.4,0.8,2.8,1.6,4.2,2.4c1.4,0.8,2.8,1.6,4.2,2.4   c2.8,1.5,5.7,3,8.6,4.6c1.4,0.8,2.8,1.7,4.2,2.5l4.1,2.6c2.7,1.7,5.4,3.5,8.1,5.3c10.8,7.2,21.2,14.9,32.4,21.4   c11.1,6.6,23.1,11.5,34.9,16.7c3,1.3,5.9,2.7,8.9,4.1c2.9,1.4,5.8,2.9,8.7,4.5c5.7,3.1,11.3,6.3,17,9.4c5.7,3.1,11.4,6.1,17.3,8.7   c2.9,1.3,5.9,2.5,9,3.6c3,1.2,6,2.3,9.1,3.5c1.5,0.7,3,1.4,4.4,2.3c1.4,0.9,2.8,1.8,4.1,2.9c1.3,1.1,2.4,2.3,3.5,3.6   c0.5,0.7,1,1.3,1.5,2.1c0.5,0.7,0.9,1.4,1.3,2.1c0.4,0.7,0.8,1.4,1.2,2.1c0.4,0.7,0.7,1.5,1.1,2.2l1.1,2.1   c0.4,0.7,0.8,1.4,1.2,2.1c1.7,2.6,3.8,5.1,6,7.3c2.2,2.3,4.6,4.4,7,6.6c2.3,2.1,4.9,4.2,7.4,5.9c2.7,1.7,5.6,3,8.6,3.8   c3.1,0.8,6.2,1.3,9.4,1.7c3.2,0.4,6.4,0.8,9.6,1.2l9.6,0.8c3.2,0.2,6.4,0.1,9.7,0.4c3.4,0.2,6.7,1.2,9.7,2.8l0.1,0l0,0l2,1.5l0,0   l0,0l1.3,1.4c0.5,0.5,0.7,0.8,1.2,1.1c0.4,0.3,0.9,0.5,1.3,0.6c0.1,0,0.2,0,0.3,0l0.1,0l0,0c0,0,0,0-0.1,0c-0.1,0-0.1,0-0.2,0.1   c-0.2,0.2,0,0,0-0.2l0.1-0.8l0.9,0l0.1,0l1.4,0l-0.5,1.3c-0.1,0.3-0.2,0.6-0.5,0.9c-0.1,0.2-0.3,0.3-0.6,0.4   c-0.2,0.1-0.5,0.2-0.8,0.2l0.3,0c-0.7,0.2-1.5,0-2.1-0.4l0.2,0.1c-0.8-0.4-1.6-0.9-2.2-1.5l0,0l-0.1-0.1l-1.7-1.7   c-0.6-0.5-1.2-1-1.8-1.3c-1.3-0.7-2.8-1.3-4.3-1.7c-1.5-0.4-3-0.6-4.6-0.7l-4.9-0.2l-4.9-0.2l-4.9-0.4l-4.9-0.4l-4.9-0.6l-4.9-0.6   c-1.6-0.2-3.3-0.4-4.9-0.7c-1.6-0.3-3.3-0.7-4.9-1.1c-1.6-0.4-3.2-0.9-4.8-1.6c-1.5-0.7-3-1.5-4.4-2.5c-1.4-0.9-2.7-1.9-4-3   c-1.3-1-2.5-2.2-3.7-3.3c-1.1-1.1-2.4-2.2-3.6-3.3c-2.4-2.2-4.8-4.6-6.9-7.1c-1.1-1.3-2.1-2.6-3-4c-0.5-0.7-0.9-1.4-1.3-2.1   l-1.2-2.1l-2.4-4.3c-0.8-1.4-1.7-2.7-2.7-3.9c-2-2.4-4.5-4.4-7.3-6c-1.4-0.8-2.8-1.5-4.3-2l-4.6-1.7c-3.1-1.1-6.1-2.2-9.2-3.5   c-6.1-2.5-12-5.4-17.8-8.5c-11.5-6.2-22.6-13.1-34.6-18.3c-11.9-5.3-24.1-10.3-35.6-16.7c-11.5-6.5-22.1-14.2-32.8-21.6   c-10.7-7.6-22-13.9-33.4-20.4c-5.6-3.4-11-7.1-16.2-11.2c-5.2-4.1-10-8.6-14.3-13.6c-1.1-1.2-2.2-2.5-3.2-3.7   c-1.1-1.2-2.2-2.4-3.3-3.6c-1.1-1.2-2.2-2.4-3.4-3.5c-1.2-1.1-2.3-2.3-3.5-3.3c-4.8-4.3-10-8.4-15.4-11.9   c-10.9-7.1-22.9-12.4-35.5-15.8c-12.6-3.4-25.8-4-38.3-8.3c-6.2-2.1-12.3-4.7-18.2-7.5l-17.7-8.4l-17.7-8.4   c-5.9-2.8-11.9-5.5-17.3-9.3c-2.7-1.9-5.2-4.1-7.3-6.6c-2.1-2.5-3.7-5.5-4.6-8.7c-0.8-3.2-0.9-6.6-0.2-9.8   c0.6-3.2,1.6-6.4,3.1-9.3c2.8-5.9,7.2-11.1,12.5-14.9c2.7-1.9,5.7-3.3,8.9-4.1C100.9,160.3,104.2,160.3,107.4,161.1L107.4,161.1   L107.4,161.1z M107.4,161.1L107.4,161.1L107.4,161.1c-3.2-0.7-6.5-0.7-9.7,0.1c-3.2,0.8-6.2,2.2-8.8,4.1c-5.3,3.8-9.6,9-12.4,14.9   c-1.4,2.9-2.4,6.1-3,9.3c-0.6,3.2-0.5,6.5,0.3,9.7c0.8,3.1,2.4,6,4.5,8.5c2.1,2.5,4.6,4.6,7.3,6.4c5.4,3.7,11.4,6.4,17.3,9.1   l17.8,8.3l17.8,8.3c5.9,2.8,11.9,5.3,18.1,7.3c12.4,4.1,25.6,4.8,38.3,8.1c12.7,3.3,24.9,8.7,35.9,15.8c5.5,3.6,10.7,7.6,15.6,12   c1.2,1.1,2.4,2.2,3.6,3.4c1.2,1.1,2.3,2.3,3.5,3.5c1.2,1.2,2.3,2.4,3.4,3.6c1.1,1.2,2.2,2.4,3.3,3.7c8.5,9.8,19.1,17.7,30.2,24.4   c2.8,1.7,5.7,3.2,8.5,4.8c2.8,1.6,5.7,3.3,8.5,4.9c5.7,3.3,11.2,6.9,16.6,10.6c10.8,7.4,21.4,15.1,32.7,21.5   c11.4,6.3,23.5,11.3,35.4,16.6c12.1,5.2,23.3,12.1,34.8,18.3c5.7,3.1,11.6,6,17.6,8.4c3,1.2,6.1,2.3,9.1,3.5l4.6,1.7   c1.6,0.6,3.1,1.3,4.6,2.1c1.5,0.8,2.9,1.7,4.2,2.8c1.3,1.1,2.5,2.3,3.6,3.6c1.1,1.3,2.1,2.7,2.9,4.2l2.4,4.3l1.2,2.1   c0.4,0.7,0.8,1.4,1.2,2.1c0.9,1.3,1.8,2.6,2.9,3.8c2.1,2.5,4.4,4.7,6.7,6.9c1.2,1.1,2.4,2.2,3.6,3.3c1.2,1.1,2.4,2.2,3.6,3.2   c1.2,1,2.5,2,3.9,2.9c1.3,0.9,2.7,1.7,4.1,2.3c1.5,0.6,2.9,1.1,4.5,1.5c1.6,0.4,3.1,0.8,4.7,1.1c1.6,0.3,3.2,0.5,4.8,0.6l4.9,0.6   l4.9,0.6l4.9,0.4l4.9,0.4l4.9,0.2l4.9,0.2c1.7,0,3.4,0.3,5,0.7c1.7,0.4,3.2,1.1,4.8,1.9c0.8,0.5,1.5,1,2.1,1.6l1.8,1.8l-0.1-0.1   c0.6,0.5,1.2,0.9,1.9,1.2l0.1,0l0.1,0.1c0.1,0.1,0.2,0.1,0.3,0.1l0.3,0c-0.1,0-0.2,0.1-0.2,0.1c0,0,0.1-0.1,0.1-0.3l0.9,1.3   l-0.1,0l1-0.8c-0.1,0.4-0.2,0.9-0.9,1.4c-0.2,0.1-0.4,0.2-0.6,0.2l-0.2,0l-0.1,0l-0.1,0c-0.2,0-0.4,0-0.6-0.1   c-0.8-0.2-1.4-0.5-2-0.9c-0.6-0.4-1.2-1-1.5-1.4l-1.2-1.3l0.1,0.1l-1.9-1.4l0.1,0.1c-2.7-1.4-5.8-2.3-8.9-2.5   c-3.2-0.3-6.4-0.2-9.7-0.4l-9.7-0.8c-3.2-0.4-6.4-0.8-9.6-1.2c-3.2-0.4-6.5-0.9-9.7-1.8c-3.3-0.9-6.3-2.3-9.1-4   c-2.8-1.9-5.3-3.9-7.7-6.2c-2.4-2.2-4.8-4.4-7.1-6.7c-2.3-2.3-4.5-4.9-6.3-7.6c-0.5-0.7-0.9-1.4-1.2-2.1l-1.2-2.2   c-0.4-0.7-0.7-1.4-1.1-2.1c-0.4-0.7-0.8-1.4-1.2-2.1c-0.4-0.7-0.8-1.4-1.2-2.1c-0.4-0.7-0.9-1.3-1.4-1.9c-1-1.2-2-2.4-3.2-3.4   c-1.2-1-2.5-1.9-3.8-2.7c-1.4-0.8-2.8-1.5-4.2-2.2c-2.9-1.2-6-2.3-9-3.5c-3-1.1-6.1-2.3-9-3.7c-6-2.6-11.7-5.7-17.4-8.8   c-5.7-3.1-11.3-6.4-17-9.4c-2.8-1.5-5.7-3-8.6-4.4c-2.9-1.4-5.8-2.7-8.8-4.1c-11.8-5.3-23.9-10.2-35.1-16.9   c-11.2-6.6-21.7-14.3-32.4-21.5c-2.7-1.8-5.4-3.6-8.1-5.3l-4.1-2.6c-1.3-0.9-2.7-1.7-4.1-2.5c-2.8-1.6-5.6-3.1-8.5-4.7   c-1.4-0.8-2.9-1.6-4.2-2.4c-1.4-0.8-2.8-1.6-4.2-2.5c-5.6-3.4-10.9-7.1-15.9-11.3c-2.5-2.1-4.9-4.3-7.2-6.6   c-2.3-2.3-4.5-4.7-6.6-7.1c-8.2-10-18.1-18.5-29-25.3c-10.9-6.9-22.9-12-35.4-15.2c-12.5-3.2-25.6-3.9-38-8.2   c-6.1-2.1-12.1-4.7-18-7.5l-17.6-8.3l-17.6-8.3c-5.9-2.7-11.8-5.4-17.2-9.1c-2.7-1.8-5.2-4-7.3-6.4c-2.1-2.5-3.7-5.4-4.6-8.6   c-0.8-3.2-0.9-6.5-0.2-9.7c0.6-3.2,1.6-6.3,3-9.3c2.8-5.9,7.1-11,12.4-14.8c2.7-1.9,5.6-3.3,8.8-4.1   C100.9,160.4,104.2,160.3,107.4,161.1z"></path>	</g>	<g>		<path class="st0" d="M522.3,435c9.9,5.1,18.5,12.2,26.7,19.7s15.8,15.5,24.3,22.6c4.2,3.6,8.7,6.8,13.4,9.7   c4.7,2.9,9.6,5.5,14.6,7.8c2.4,1.2,5,2.3,7.5,3.4c2.5,1.1,5.1,2.1,7.7,3c2.6,0.9,5.3,1.4,8,1.5c1.4,0,2.7-0.2,4-0.6   c1.3-0.5,2.5-1.2,3.5-2.1l0.1,0.1c-1,1-2.2,1.8-3.5,2.3c-1.3,0.5-2.7,0.8-4.1,0.8c-2.8,0.1-5.6-0.3-8.3-1.2   c-2.7-0.8-5.3-1.8-7.8-2.9l-7.7-3.3c-5.1-2.3-10-4.9-14.7-7.9c-4.6-3.1-9.1-6.4-13.3-10c-8.4-7.3-16.1-15.3-24.1-22.9   S532,440.3,522.3,435L522.3,435z"></path>		<path class="st0" d="M522.3,435c9.9,4.9,18.7,11.9,26.9,19.3c8.2,7.4,16,15.3,24.4,22.3c4.2,3.5,8.7,6.7,13.3,9.6   c4.7,2.9,9.5,5.5,14.5,7.7c5.1,2.2,10,4.7,15.2,6.4c4.9,1.6,11,2.6,14.8-1l0.7-0.6l0.7,0.7l0.1,0.1l0.7,0.7l-0.7,0.7   c-1.1,1-2.4,1.9-3.8,2.5c-1.5,0.5-2.9,0.8-4.4,0.9c-2.9,0.1-5.8-0.3-8.6-1.2c-2.7-0.8-5.4-1.8-7.9-3l-7.7-3.3   c-5.1-2.3-10-5-14.8-8c-4.7-3.1-9.1-6.5-13.4-10.2c-8.4-7.4-16-15.5-24-23.2C540.4,447.8,531.9,440.5,522.3,435L522.3,435   L522.3,435z M522.3,435L522.3,435L522.3,435c9.8,5.1,18.5,12.3,26.7,19.8c8.2,7.6,15.9,15.6,24.4,22.8c4.2,3.5,8.7,6.9,13.3,9.9   c4.7,2.9,9.6,5.5,14.6,7.8l7.7,3.3c2.5,1.1,5.1,2.1,7.7,2.9c2.5,0.8,5.3,1.2,7.9,1.1c1.3-0.1,2.6-0.4,3.8-0.8   c1.1-0.5,2.2-1.2,3.2-2.1l0,1.4l-0.1-0.1l1.4,0c-1.1,1-2.5,1.8-3.9,2.3c-1.4,0.5-2.9,0.7-4.4,0.6c-2.9-0.1-5.7-0.6-8.4-1.6   c-5.3-1.8-10.3-4.3-15.3-6.5c-10.1-4.6-19.7-10.5-28.1-17.8c-8.4-7.2-16.1-15.2-24.1-22.8C540.5,447.4,532,440.3,522.3,435z"></path>	</g>	<g>		<path class="st0" d="M465.9,410.3c3.8,1.9,7.8,3.6,11.8,5c4,1.5,8.2,2.7,12.3,3.8c8.3,2.3,16.5,4.5,25,6.7s16.7,4,25.1,6   s16.8,3.4,25.3,4.8v0.1c-8.6-0.8-17.1-2-25.6-3.8c-8.4-1.7-16.8-3.9-25.1-6.2s-16.6-4.6-24.8-7.1c-4.1-1.2-8.3-2.5-12.3-4   C473.6,414.2,469.6,412.4,465.9,410.3z"></path>		<path class="st0" d="M465.9,410.3c7.8,3.6,16,6.3,24.3,8.3l25,6.4c8.4,1.9,16.7,3.9,25.1,5.9c8.3,2,16.8,3.3,25.3,4.7l0.8,0.1   l0,0.9l0,0.1l0,1.1l-1.1-0.1c-8.6-0.8-17.2-2.1-25.6-3.9c-8.5-1.8-16.8-3.9-25.1-6.4l-24.8-7.3l-12.2-4.2   C473.5,414.3,469.6,412.5,465.9,410.3z M465.9,410.3c3.8,2,7.8,3.7,11.9,5l12.3,3.8l24.9,6.8c8.3,2.2,16.6,4.4,25,6.1   c8.4,1.7,16.9,2.9,25.4,3.7l-1.1,1l0-0.1l0.8,1c-8.5-1.4-17-2.8-25.4-4.9c-8.4-2-16.7-4-25.1-6.1l-24.8-6.9   C481.7,417.2,473.5,414.3,465.9,410.3z"></path>	</g>	<g>		<path class="st0" d="M466.4,39.1l-21.9-21.3c-3.6-3.6-7.3-7.1-11.2-10.3c-3.9-3.2-8.4-5.8-13.4-6.8c-2.5-0.5-5-0.6-7.5-0.4   c-2.5,0.2-5,0.7-7.4,1.5c-4.8,1.6-9.5,3.5-14.1,5.7c-4.6,2.3-9.3,4.2-14.1,5.7c-4.8,1.5-9.8,2.7-14.9,3.4   c-10.1,1.6-20.3,1.8-30.6,1.8s-20.3,0-30.5,0.1c-20.3,0.2-40.7,1-61,2c-10.2,0.5-20.3,1.2-30.4,1.9c-5.1,0.2-10.1,0.8-15.1,1.8   c-5,1-9.8,2.7-14.2,5.1c-4.4,2.4-8.6,5.3-12.5,8.5c-3.9,3.2-7.7,6.6-11.6,10c-7.6,6.8-15.5,13.5-24.8,17.9s-20.2,4.3-28.9,9.5   c-4.3,2.7-8.4,5.6-12.2,8.8L78,93.7l-47.4,38.6l0.2-0.4c0,1.5,0.2,3,0.7,4.5c0.5,1.5,1.2,2.8,2.1,4.1c1.9,2.5,4.2,4.6,6.9,6.2   c1.4,0.8,2.8,1.4,4.2,1.9c1.5,0.5,3.1,0.9,4.6,1.1c3.1,0.4,6.3,0.5,9.5,0.2c6.3-0.5,12.7-1.8,18.9-2.9s12.5-2.4,18.8-4   c6.2-1.5,12.3-3.6,18.1-6.1c5.8-2.6,11.5-5.5,16.9-8.8c5.6-3.2,11.1-6.3,17-9c5.9-2.6,12-4.7,18.2-6.5c6.1-1.9,12.2-3.8,18-6.6   s11.2-6.1,16.8-9.2s11.3-6.2,17.5-7.9c6.2-1.7,12.7-2.4,19.1-2.1c12.9,0.6,25.3,4.1,37.7,6.9c6.2,1.5,12.5,2.6,18.9,3.4   c6.4,0.8,12.8,0.7,19.1-0.4h0.2l-0.1,0.2c-0.5,1.4-0.1,2.9,0.9,4c1,1.1,2.2,2.1,3.5,2.8c1.3,0.7,2.7,1.3,4,2.2   c1.3,0.8,2.3,2,2.8,3.5h-0.1c-0.5-1.5-1.5-2.7-2.8-3.4c-1.3-0.8-2.6-1.5-4-2.1c-1.4-0.7-2.6-1.6-3.5-2.8c-1.1-1.1-1.5-2.8-1-4.3   l0.1,0.2c-6.4,1-12.8,1.2-19.2,0.5c-6.4-0.7-12.7-1.8-18.9-3.3c-12.5-2.8-25-6.2-37.7-6.8c-6.4-0.4-12.7,0.3-18.9,2.1   c-6.1,1.7-11.8,4.7-17.3,7.9s-11,6.7-16.8,9.4c-5.9,2.7-11.9,4.9-18.1,6.7c-6.1,1.9-12.2,3.8-18,6.6s-11.3,5.9-16.9,9   c-5.6,3.3-11.3,6.3-17.2,8.9c-5.9,2.5-12,4.5-18.3,6.1c-6.2,1.6-12.5,2.9-18.9,4s-12.5,2.4-19,2.9c-3.2,0.3-6.5,0.2-9.7-0.4   c-1.6-0.2-3.2-0.6-4.7-1.1c-1.6-0.6-3.1-1.2-4.5-2.1c-2.8-1.7-5.3-3.9-7.2-6.6c-1-1.3-1.7-2.8-2.2-4.4c-0.5-1.6-0.7-3.2-0.7-4.9   v-0.2l0.2-0.1l47.4-38.6l11.8-9.6c3.9-3.3,8-6.3,12.4-9c2.3-1.2,4.6-2.3,7.1-3.2c2.4-0.8,4.9-1.5,7.4-2.1c2.4-0.6,5-1.1,7.4-1.8   c2.4-0.7,4.8-1.5,7.2-2.6c9.2-4.3,17-10.8,24.6-17.7c3.8-3.4,7.6-6.8,11.6-10c4-3.2,8.2-6.1,12.7-8.5c4.5-2.4,9.4-4.2,14.5-5.1   c5-0.9,10.1-1.4,15.2-1.7c10.1-0.7,20.3-1.3,30.6-1.8c20.3-1,40.7-1.7,61.1-1.8c10.2-0.1,20.3-0.1,30.6,0s20.3-0.2,30.4-1.8   c5-0.7,10-1.9,14.9-3.4c4.8-1.5,9.6-3.5,14.1-5.7c4.6-2.2,9.3-4.1,14.1-5.7c2.5-0.7,5-1.2,7.5-1.5c2.6-0.2,5.1-0.1,7.7,0.4   c5,1.1,9.6,3.5,13.5,6.8c3.9,3.3,7.7,6.8,11.3,10.5L466.4,39.1L466.4,39.1z"></path>		<path class="st0" d="M466.4,39.1l-21.9-21.2c-3.6-3.6-7.3-7.1-11.2-10.3c-3.9-3.2-8.4-5.8-13.4-6.8c-5-1-10.2-0.3-15,1.2   c-4.8,1.6-9.5,3.5-14.1,5.8c-9.1,4.5-18.9,7.8-29,9.2c-10.1,1.6-20.3,1.9-30.5,1.9l-30.5,0.2c-20.3,0.3-40.7,1.1-61,2.1l-30.4,2   c-10.1,0.6-20.4,2-29.2,6.9c-4.4,2.4-8.6,5.3-12.5,8.5l-11.5,10c-7.5,6.8-15.4,13.5-24.8,17.9c-4.7,2.2-9.8,3.3-14.7,4.5   c-4.9,1.2-9.9,2.4-14.1,5c-4.3,2.7-8.4,5.6-12.3,8.9l-11.8,9.6L31.2,133l-4.4,3.6l3.2-4.7l0.2-0.4l1.6-2.4l0,2.8   c0,1.5,0.3,3,0.8,4.4c0.5,1.4,1.2,2.8,2.1,4c1.8,2.4,4.2,4.5,6.9,5.9c1.3,0.7,2.8,1.4,4.2,1.8c1.5,0.4,3,0.8,4.5,1   c3.1,0.4,6.2,0.4,9.4,0.1c6.3-0.6,12.5-1.9,18.8-3c6.3-1.1,12.5-2.5,18.6-4c6.1-1.6,12.2-3.6,17.9-6.2c5.8-2.6,11.4-5.6,16.9-8.8   c5.6-3.1,11.1-6.3,17-8.9c5.9-2.5,12-4.7,18.1-6.4c6.1-1.9,12.2-3.8,17.8-6.6c5.7-2.8,11.1-6.1,16.7-9.2   c5.6-3.1,11.3-6.2,17.7-7.9c6.3-1.7,12.8-2.4,19.3-2c12.9,0.6,25.4,4.2,37.8,7c6.2,1.5,12.4,2.6,18.7,3.4   c6.2,0.8,12.6,0.6,18.8-0.4l0.1,0l0.1,0l0.2,0l1.6,0l-0.7,1.4l-0.1,0.2l0.1-0.1c-0.4,1.1-0.1,2.3,0.8,3.2c0.9,1,2.1,1.9,3.3,2.5   c1.3,0.7,2.7,1.3,4,2.2c1.5,0.9,2.6,2.4,3.1,4l0.4,1.3l-1.4,0l-0.1,0l-0.7,0l-0.2-0.7c-0.4-1.2-1.2-2.2-2.3-2.8l0,0l0,0   c-1.2-0.8-2.5-1.5-3.8-2l0,0l0,0c-1.5-0.7-2.8-1.8-3.8-3.1l0.1,0.1c-1.3-1.3-1.8-3.5-1.2-5.3l0.8-2.3l1.1,2.1l0.1,0.2l0.6,1.2   l-1.3,0.2c-6.4,1-13,1.2-19.5,0.5c-6.4-0.7-12.8-1.8-19.1-3.3c-12.5-2.8-25-6.2-37.8-6.8c-6.3-0.3-12.7,0.4-18.8,2.2   c-6.1,1.8-11.7,4.8-17.2,8c-5.5,3.2-11,6.7-17,9.4c-5.9,2.6-12,4.8-18.2,6.6c-6.1,1.9-12.2,3.8-17.9,6.7   c-5.7,2.8-11.4,5.9-16.9,9.1c-5.6,3.2-11.3,6.2-17.3,8.8c-6,2.5-12.2,4.5-18.5,6c-6.3,1.6-12.6,2.9-18.9,3.9   c-6.3,1.1-12.7,2.4-19.2,2.9c-3.3,0.2-6.6,0-9.8-0.6c-1.6-0.3-3.2-0.7-4.8-1.3c-1.5-0.6-3-1.3-4.5-2.2c-2.8-1.8-5.3-4.1-7.2-6.9   c-1.9-2.8-2.8-6.3-2.8-9.6l0-0.5l0.4-0.2l0.2-0.1l-0.1,0.1l47.4-38.6l11.9-9.6c3.9-3.3,8.1-6.3,12.5-9c2.3-1.3,4.6-2.3,7.1-3.2   c2.4-0.8,4.9-1.5,7.4-2.1c2.5-0.6,5-1.1,7.4-1.8c2.4-0.7,4.8-1.5,7.1-2.5c4.6-2.1,8.9-4.8,12.9-7.8c4.1-3,7.9-6.4,11.7-9.8   c3.8-3.4,7.6-6.8,11.6-10c4-3.2,8.3-6.1,12.8-8.5c4.5-2.4,9.5-4.2,14.5-5.1c5.1-0.9,10.1-1.5,15.3-1.7l30.5-1.8   c20.4-1,40.7-1.7,61.1-1.7l30.6,0.1c10.2,0.1,20.4-0.2,30.4-1.7c10.1-1.4,19.9-4.5,29-9c4.6-2.2,9.3-4.1,14.2-5.7   c4.9-1.4,10.1-2.1,15.2-1.1c5,1.1,9.7,3.5,13.6,6.8c3.9,3.3,7.6,6.8,11.2,10.4L466.4,39.1L466.4,39.1L466.4,39.1z M466.4,39.1   L466.4,39.1L466.4,39.1l-21.7-21.4c-3.6-3.6-7.3-7.1-11.2-10.4c-3.9-3.3-8.5-5.6-13.5-6.7c-5-0.9-10.2-0.3-15,1.2   c-4.8,1.6-9.5,3.5-14.1,5.8c-9.1,4.5-19,7.8-29.1,9.2c-10.1,1.6-20.3,2-30.5,1.9l-30.6,0.1c-20.4,0.2-40.7,0.9-61.1,1.9L209,22.5   c-5.1,0.3-10.1,0.9-15.1,1.7c-4.9,0.9-9.7,2.6-14.2,5c-4.4,2.4-8.7,5.2-12.6,8.5c-4,3.2-7.7,6.6-11.5,10   c-7.6,6.8-15.5,13.6-24.9,17.9c-2.4,1-4.8,1.9-7.3,2.6c-2.5,0.7-5,1.2-7.5,1.8c-2.5,0.6-4.9,1.2-7.3,2.1c-2.3,0.8-4.7,1.9-6.8,3.1   c-4.3,2.6-8.4,5.6-12.2,8.9l-11.8,9.7l-47.4,38.7l-0.1,0.1l-0.1,0l-0.2,0.1l0.4-0.8c0,3.1,0.8,6.1,2.5,8.6c1.8,2.6,4,4.7,6.7,6.4   c1.3,0.8,2.7,1.5,4.2,2c1.4,0.5,3,0.9,4.5,1.2c3.1,0.6,6.3,0.8,9.4,0.6c6.4-0.4,12.6-1.7,19-2.9c6.3-1.1,12.6-2.4,18.8-3.9   c6.2-1.5,12.3-3.5,18.2-5.9c5.8-2.5,11.6-5.5,17.1-8.7c5.6-3.2,11.2-6.3,17.1-9.2c5.8-2.9,12.1-4.8,18.2-6.8   c6.2-1.8,12.2-4,18-6.6c5.8-2.6,11.2-6,16.8-9.3c5.6-3.2,11.3-6.4,17.6-8.2c6.3-1.8,12.9-2.6,19.4-2.3c13,0.6,25.6,4,38.1,6.8   c12.4,2.9,25.3,4.9,37.9,2.8l-0.7,1.4l-0.1-0.2l1.8-0.1c-0.4,1.1-0.1,2.4,0.8,3.3l0,0l0,0c0.9,1.1,2,1.9,3.2,2.5l-0.1,0   c1.5,0.6,2.9,1.3,4.2,2.2l-0.1,0c1.6,0.8,2.7,2.3,3.3,4l-1-0.7l0.1,0l-1,1.3c-0.4-1.2-1.2-2.3-2.3-2.9c-1.2-0.8-2.5-1.4-3.9-2.1   c-1.4-0.8-2.7-1.8-3.8-2.9c-1.3-1.3-1.8-3.4-1.2-5.1l0-0.1l0-0.1l0.1-0.2l0.9,1.4l-0.2,0l0.2,0c-6.4,1-12.9,1.2-19.4,0.4   c-6.4-0.8-12.7-1.9-18.9-3.4c-12.4-2.8-24.8-6.3-37.4-6.9c-6.3-0.4-12.6,0.3-18.7,1.9c-6.1,1.6-11.7,4.6-17.2,7.7   c-5.5,3.1-11,6.5-16.8,9.3c-5.8,2.9-12,4.8-18.1,6.7c-6.2,1.7-12.1,3.8-18,6.3c-5.8,2.5-11.3,5.7-16.9,8.8   c-5.5,3.2-11.2,6.3-17,8.9c-5.9,2.6-12,4.7-18.2,6.3c-6.2,1.6-12.5,2.9-18.8,4.1c-6.3,1.1-12.5,2.4-19,3c-3.2,0.3-6.5,0.3-9.7-0.1   c-1.6-0.2-3.2-0.5-4.8-1c-1.6-0.5-3.1-1.2-4.6-2c-2.9-1.6-5.5-3.8-7.5-6.4c-1-1.4-1.7-2.9-2.3-4.4c-0.6-1.6-0.9-3.3-0.9-5l1.6,0.5   l-0.2,0.4l-1.2-1.1l47.3-38.5l11.9-9.6c3.9-3.3,8.1-6.3,12.5-9c4.5-2.7,9.6-4,14.5-5.1c5-1.2,9.9-2.2,14.4-4.4   c9.1-4.3,17-10.9,24.5-17.6l11.6-10c3.9-3.3,8.2-6.2,12.7-8.6c4.5-2.5,9.4-4.2,14.5-5.2c5-1,10.1-1.6,15.2-1.8l30.5-1.9   c20.3-1,40.7-1.7,61-1.9l30.5,0c10.2,0,20.3-0.2,30.4-1.7c10.1-1.4,19.8-4.5,28.9-9c4.6-2.2,9.3-4.1,14.2-5.7   c4.9-1.4,10.1-2.1,15.1-1.1c5.1,1,9.6,3.7,13.5,6.9c3.9,3.3,7.6,6.7,11.2,10.4L466.4,39.1z"></path>	</g>	<g>		<path class="st1" d="M64.5,109.1c0.1-1.3-2.1-1.8-3.2-1s-1.5,2.3-2.1,3.5c-1.3,2.7-3.9,4.4-6.5,6c-6.1,4-12,8-18.1,12.1   c-2.3-5,2.2-10.5,6.7-13.8c8.5-6.1,18.3-10.2,28.6-11.9c0.2,2.2-1.6,4-3.3,5.4c-8.4,6.7-17.4,12.6-26.9,17.7   c-0.9-1.1-1.2-2.6-0.8-4"></path>		<path class="st0" d="M64.5,109.1c0-0.4-0.2-0.8-0.5-1c-0.3-0.2-0.7-0.3-1.1-0.3c-0.4,0-0.8,0.1-1.1,0.2c-0.3,0.2-0.6,0.5-0.8,0.8   c-0.5,0.6-0.7,1.4-1,2.1c-0.3,0.8-0.7,1.5-1.1,2.2c-1,1.4-2.2,2.5-3.5,3.5c-1.3,1-2.7,1.8-4,2.8c-5.3,3.7-10.7,7.4-16,11l-0.8,0.6   l-0.4-0.9c-0.5-1-0.7-2.1-0.7-3.3c0-1.1,0.3-2.2,0.6-3.2c0.8-2,2-3.8,3.4-5.3c1.4-1.5,3.1-2.8,4.7-4c1.7-1.1,3.4-2.2,5.1-3.2   c3.5-2,7.2-3.7,11-5c1.9-0.7,3.8-1.3,5.8-1.8c2-0.5,3.9-0.9,5.9-1.2l0.9-0.2l0.1,0.9c0.1,1-0.2,2-0.6,2.8c-0.5,0.8-1,1.5-1.7,2.1   c-0.6,0.6-1.3,1.1-1.9,1.6l-1.9,1.5c-2.6,1.9-5.3,3.8-8,5.6c-2.7,1.8-5.5,3.5-8.3,5.1c-2.8,1.6-5.7,3.1-8.6,4.6l-0.1,0.1l-0.1-0.1   c-0.9-1.2-1.2-2.8-0.7-4.1c-0.3,1.4,0,2.9,1,3.9l-0.2,0c5.6-3.2,11-6.7,16.3-10.5c2.6-1.9,5.2-3.8,7.7-5.8c1.2-1,2.6-2,3.7-3   c1.1-1,1.9-2.3,1.7-3.5l1,0.8c-3.9,0.7-7.7,1.7-11.4,3c-3.7,1.3-7.3,3-10.7,4.9c-1.7,0.9-3.4,2-5,3.1c-1.6,1.1-3.1,2.3-4.4,3.7   c-1.3,1.4-2.5,2.9-3.1,4.6c-0.3,0.8-0.5,1.7-0.6,2.6c0,0.9,0.2,1.7,0.5,2.5l-1.3-0.4c5.4-3.5,10.9-7,16.4-10.5   c2.7-1.8,5.7-3.2,7.6-5.7c0.5-0.6,0.9-1.3,1.2-2c0.3-0.7,0.7-1.5,1.2-2.2c0.3-0.3,0.6-0.6,1-0.8c0.4-0.2,0.8-0.2,1.2-0.2   c0.4,0,0.8,0.2,1.2,0.4C64.4,108.2,64.6,108.7,64.5,109.1z"></path>	</g>	<g>		<path class="st0" d="M64.4,109.1c-0.1-0.8-0.8-1.4-1.6-1.4c-0.8-0.1-1.6,0.3-2,1c-0.5,0.6-0.8,1.3-1.1,2.1   c-0.3,0.7-0.7,1.4-1.2,2.1c-2,2.7-4.9,4.3-7.5,6.1l-16,10.8l-0.4,0.2l-0.1-0.4c-0.4-1-0.6-2-0.7-3c0-1,0.2-2,0.6-3   c0.8-1.9,1.9-3.6,3.3-5.1c1.4-1.5,2.9-2.8,4.6-3.9c1.7-1.1,3.3-2.2,5.1-3.2c3.5-2,7.2-3.7,11-5.1c1.9-0.7,3.8-1.2,5.7-1.8   s3.9-0.9,5.8-1.2l0.6-0.1l0.1,0.6c0.1,0.9-0.1,1.9-0.6,2.7c-0.5,0.7-1,1.4-1.6,2.1c-1.2,1.1-2.5,2.1-3.8,3   c-2.6,1.9-5.2,3.8-7.9,5.6c-5.4,3.6-11,6.9-16.9,9.7l-0.1,0.1l-0.1-0.1c-1-1.2-1.2-2.7-0.7-4.1H39c-0.3,1.4,0,2.9,1,3.9h-0.2   c5.6-3.2,11.1-6.7,16.4-10.4c2.7-1.8,5.2-3.8,7.8-5.7c1.2-1,2.6-2,3.8-3s2.1-2.3,1.8-3.7l0.7,0.5c-7.8,1.3-15.3,3.9-22.3,7.7   c-1.7,1-3.4,2.1-5,3.2c-1.7,1.1-3.2,2.3-4.5,3.8c-1.3,1.4-2.4,3-3.3,4.7c-0.4,0.9-0.6,1.8-0.6,2.8c0,1,0.2,1.9,0.6,2.8l-0.5-0.1   L51,118.6c2.7-1.8,5.6-3.4,7.6-5.9c0.5-0.6,0.9-1.3,1.2-2c0.3-0.8,0.7-1.5,1.2-2.2c0.3-0.3,0.6-0.6,1-0.9c0.4-0.1,0.8-0.2,1.2-0.2   c0.4,0,0.8,0.1,1.2,0.4C64.4,108.3,64.7,108.6,64.4,109.1L64.4,109.1z"></path>		<path class="st0" d="M64.4,109.1c-0.1-0.8-0.8-1.4-1.6-1.3l0,0l0,0c-0.8-0.1-1.6,0.3-1.9,1l0,0l0,0c-0.5,0.6-0.8,1.3-1,2.1l0,0   l0,0c-1.1,2.5-3.1,4.4-5.3,6l-6.6,4.5l-13.1,9.1l-0.6,0.4l-0.2-0.7c-0.2-0.5-0.4-1.1-0.6-1.7c-0.2-0.6-0.3-1.2-0.4-1.8l0,0l0,0   c0-1,0.2-2,0.6-3c0.4-0.9,0.8-1.8,1.3-2.7c1-1.7,2.4-3.2,3.8-4.5c1.4-1.3,3.1-2.4,4.7-3.5c1.6-1.1,3.3-2.1,5-3   c1.7-0.9,3.4-1.8,5.2-2.6c1.8-0.8,3.5-1.6,5.4-2.2c1.9-0.6,3.6-1.2,5.6-1.8c1.9-0.5,3.9-0.7,5.7-1.1l0.8-0.2l0.2,0.9   c0.1,0.5,0.2,1.1,0.2,1.7c-0.1,0.6-0.2,1.2-0.5,1.8c-0.2,0.3-0.3,0.5-0.4,0.7c-0.1,0.2-0.3,0.4-0.5,0.7c-0.3,0.4-0.7,0.8-1,1.2   l0,0l0,0c-1.1,1-2.2,1.9-3.4,2.7l-3.5,2.5c-2.3,1.6-4.6,3.3-7,4.9c-4.8,3.1-9.8,5.9-14.9,8.4l0.3-0.2l-0.1,0.1l-0.7,0.8l-0.7-0.8   c-0.3-0.3-0.6-0.8-0.8-1.2c-0.2-0.4-0.4-0.9-0.5-1.3c-0.2-0.9-0.1-1.9,0.2-2.8l0.2-0.7l0.7,0l0.1,0l1.3,0L40,123   c-0.3,1,0,2.2,0.8,3l1.6,1.7l-2.3,0l-0.2,0l-3.7,0l3.3-1.8c5.5-3.1,10.9-6.5,16.1-10.1l7.7-5.6c1.3-1,2.5-2,3.7-2.9   c0.6-0.5,1.1-0.9,1.5-1.5c0.4-0.5,0.5-1.1,0.4-1.6l-0.3-2l1.7,1.1l0.7,0.5l1.8,1.2l-2.2,0.4c-3.8,0.6-7.6,1.6-11.3,2.8   c-3.7,1.2-7.3,2.8-10.7,4.6l-5,3.1c-1.7,1-3.1,2.2-4.4,3.6c-1.3,1.4-2.5,2.9-3.3,4.6c-0.4,0.8-0.6,1.7-0.6,2.6   c0,0.9,0.2,1.8,0.5,2.6l0.4,1l-1.1-0.3l-0.5-0.1l-1.2-0.3l1.1-0.7l14.8-9.4l3.7-2.4c1.2-0.8,2.5-1.6,3.6-2.5   c1.1-0.9,2.1-2,2.8-3.3c0.3-0.6,0.6-1.3,1-2c0.4-0.6,0.9-1.2,1.5-1.6l0,0l0,0c0.4-0.1,0.8-0.2,1.2-0.2l0,0c0.4,0,0.9,0.2,1.2,0.4   l0,0l0,0c0,0.2,0.1,0.4,0.1,0.7C64.6,108.7,64.5,108.9,64.4,109.1L64.4,109.1L64.4,109.1z M64.4,109.1L64.4,109.1L64.4,109.1   c0.1-0.2,0.1-0.4,0.1-0.6c0-0.2-0.1-0.4-0.1-0.7l0,0c-0.4-0.2-0.8-0.3-1.2-0.3l0,0c-0.4,0-0.8,0.1-1.2,0.3l0,0   c-0.6,0.4-1.1,0.9-1.4,1.6c-0.4,0.6-0.6,1.3-0.9,2c-0.6,1.3-1.7,2.5-2.8,3.5c-1.1,1-2.3,1.8-3.5,2.6l-3.6,2.5l-14.6,9.8l-0.2-1   l0.5,0.1l-0.6,0.7c-0.4-1-0.7-2-0.7-3.1c0-1.1,0.2-2.1,0.7-3.1c0.9-1.8,2-3.5,3.4-5c1.4-1.5,2.9-2.8,4.6-3.9l5-3.2   c3.5-1.9,7.1-3.5,10.8-4.8c3.7-1.3,7.6-2.3,11.5-3l-0.3,1.6l-0.7-0.5l1.4-0.9c0.2,1.1-0.2,2.1-0.7,2.9c-0.5,0.8-1.2,1.4-1.8,1.9   c-1.3,1-2.5,2-3.8,3l-7.7,5.7c-5.3,3.6-10.6,7.1-16.2,10.3l-0.5-1.8l0.2,0l-0.7,1.7c-1.2-1.3-1.7-3.1-1.2-4.8l1,1.2l-0.1,0   l0.9-0.7c-0.2,0.6-0.2,1.2-0.1,1.7c0.1,0.3,0.2,0.6,0.3,0.8c0.1,0.3,0.3,0.5,0.5,0.7l-1.5,0l0.1-0.1l0.1-0.1l0.2-0.1   c5.1-2.4,10-5.2,14.7-8.2c2.4-1.5,4.6-3.2,7-4.8l3.5-2.4c1.1-0.8,2.2-1.7,3.2-2.6l-0.1,0.1c0.3-0.3,0.6-0.7,0.9-1.1   c0.1-0.2,0.3-0.4,0.4-0.6c0.1-0.2,0.3-0.4,0.3-0.6c0.2-0.3,0.3-0.7,0.3-1.1c0-0.4,0-0.7-0.1-1.2l1,0.7c-1.9,0.4-3.8,0.6-5.6,1.1   c-1.8,0.5-3.6,1.1-5.4,1.7c-3.6,1.2-7.1,2.8-10.5,4.5c-1.7,0.9-3.3,1.8-4.9,2.8c-1.6,1-3.2,2-4.6,3.3c-1.4,1.2-2.7,2.6-3.7,4.2   c-0.5,0.8-0.9,1.6-1.2,2.5c-0.3,0.8-0.5,1.7-0.5,2.6l0-0.1c0.1,0.6,0.2,1.1,0.3,1.6c0.1,0.5,0.3,1,0.5,1.6l-0.8-0.3l13.3-8.8   l6.7-4.4c2.2-1.5,4.2-3.3,5.3-5.7l0,0c0.3-0.8,0.6-1.5,1.1-2.1l0,0c0.4-0.7,1.3-1.1,2.1-1l0,0C63.6,107.6,64.4,108.3,64.4,109.1z"></path>	</g>	<g>		<path class="st0" d="M18.5,169.3c-3.4,1-6.8,2.2-10,3.6c-1.6,0.7-3.1,1.7-4.5,2.8c-1.4,1.1-2.5,2.4-3.5,3.9l-0.1-0.2   c16.4,0.9,32.9,1.8,49.3,2.8l-0.1,1.1c-0.2,0-0.4-0.1-0.6-0.1c-0.1-0.1-0.4-0.2-0.5-0.4c-0.3-0.3-0.5-0.6-0.6-1   c-0.2-0.6-0.4-1.3-0.5-2c-0.2-1.2-0.3-2.5-0.2-3.8c0-2.4,0.1-4.9,0.2-7.3s0.2-4.9,0.1-7.2c0-1.2-0.2-2.3-0.6-3.4   c-0.1-0.4-0.4-0.8-0.7-1.1c-0.4-0.2-1-0.3-1.5-0.1c-2.3,0.5-4.6,1.4-6.7,2.4c-2.2,1-4.4,2.2-6.5,3.3l-6.5,3.4   C23,167.4,20.8,168.4,18.5,169.3z M18.5,169.2c2.2-0.9,4.4-2,6.4-3.3l6.2-3.8c2.1-1.2,4.3-2.4,6.3-3.5c1.1-0.6,2.2-1.1,3.3-1.6   c1.2-0.5,2.4-0.9,3.7-1.1c0.7-0.1,1.5-0.1,2.2,0.2c0.6,0.4,1.1,1,1.3,1.7c0.4,1.2,0.6,2.5,0.6,3.8c0.1,2.4,0,4.9-0.1,7.3   s-0.2,4.9-0.2,7.3c0,1.2,0,2.4,0.2,3.5c0.1,0.6,0.2,1.1,0.4,1.6s0.5,0.9,0.8,0.9l-0.1,1.1c-16.4-1.2-32.9-2.2-49.2-3.5H0l0.1-0.2   c2-3,4.9-5.3,8.3-6.7C11.7,171.4,15.1,170.2,18.5,169.2z"></path>		<g>			<path class="st0" d="M18.5,169.3c-3.4,1-6.7,2.2-9.9,3.7c-1.6,0.8-3.1,1.7-4.4,2.8c-1.3,1.1-2.5,2.5-3.4,4l-0.2,0.3l-0.2-0.4    l-0.1-0.2L0,179.2l0.4,0l24.7,0.8c4.1,0.2,8.2,0.3,12.3,0.5c4.1,0.2,8.2,0.4,12.3,0.7l1,0.1l-0.1,1l-0.1,1.1l-0.1,1l-1-0.2    l-0.7-0.1l-0.4-0.3c0.1,0.1-0.1,0-0.2-0.1c-0.1-0.1-0.2-0.1-0.3-0.2c-0.1-0.1-0.1-0.1-0.2-0.2c-0.2-0.3-0.4-0.6-0.6-0.9    c-0.2-0.6-0.4-1.1-0.5-1.7c-0.2-1.1-0.3-2.2-0.3-3.3c0-2.2,0.2-4.3,0.3-6.4c0.1-2.1,0.3-4.3,0.4-6.4c0-1.1,0-2.1,0-3.2    c0-1-0.2-2-0.5-3l0,0l0,0c-0.1-0.3-0.3-0.6-0.5-0.8l0.1,0c-0.3-0.2-0.7-0.2-1.1-0.1l0,0l0,0c-2.3,0.5-4.6,1.3-6.8,2.3    c-2.2,1-4.4,2.1-6.5,3.2c-2.1,1.1-4.3,2.2-6.4,3.3C22.9,167.4,20.8,168.4,18.5,169.3z M18.5,169.3c2.2-0.9,4.4-2,6.5-3.2l6.4-3.5    l6.4-3.4c2.1-1.2,4.4-2.1,6.8-2.7l0,0c0.6-0.2,1.3-0.2,1.8,0.1l0,0l0,0c0.5,0.3,0.8,0.8,0.9,1.3l0-0.1c0.4,1,0.7,2.2,0.7,3.3    c0.1,1,0.1,2.2,0.1,3.2c0,2.2-0.1,4.3-0.1,6.4l0,3.2c0,1-0.1,2.2,0,3.1c0,1,0.2,2,0.4,3c0.1,0.5,0.3,0.9,0.4,1.3    c0.1,0.2,0.2,0.3,0.3,0.4l0.1,0.1c0,0,0,0,0,0c0.1,0.1,0.2,0.1,0.5,0.3l-0.4-0.3l0.5,0.1l-1.1,0.9l0.1-1.1l0.9,1.1    c-4.1-0.2-8.2-0.4-12.3-0.7c-4.1-0.2-8.2-0.6-12.3-0.9l-24.6-2l0.2-0.4l0.1,0.2l-0.4,0c1-1.5,2.3-2.8,3.7-3.9    c1.4-1.1,2.9-2,4.6-2.7C11.8,171.5,15.1,170.3,18.5,169.3z"></path>			<path class="st0" d="M18.5,169.2c2.4-1,4.7-2.3,7-3.6c2.2-1.4,4.4-2.8,6.7-4.1l3.4-2l1.7-1l1.8-0.9l1.8-0.9    c0.6-0.3,1.2-0.5,1.9-0.7c0.6-0.2,1.3-0.4,2-0.5c0.7-0.1,1.5,0,2.2,0.3l0,0l0,0c0.6,0.3,1,0.8,1.3,1.4c0.3,0.6,0.4,1.2,0.6,1.7    c0.3,1.1,0.4,2.4,0.4,3.5c0.1,2.3,0.1,4.6,0,6.8c0,2.3-0.1,4.5-0.1,6.8c0,1.1,0,2.2,0.2,3.2c0.1,0.5,0.2,1.1,0.4,1.6l0.1,0.4    c0,0,0,0.1,0.1,0.1c0,0.1,0.1,0-0.1,0l1,1.1l-0.1,1.1l-0.1,0.9l-0.9-0.1c-4.1-0.3-8.2-0.6-12.3-0.9c-4.1-0.3-8.2-0.7-12.3-1    l-24.5-2.3l0,0l-0.4,0l-0.4,0l0.2-0.4l0.1-0.2l0,0l0,0c2.1-3,5.1-5.3,8.4-6.6C11.7,171.4,15,170.2,18.5,169.2z M18.5,169.2    c-3.4,1-6.8,2.2-10.1,3.7c-3.3,1.4-6.2,3.8-8.1,6.8l0,0l-0.1,0.2L0,179.6l0.4,0l0,0l0,0l24.6,1.2c4.1,0.2,8.2,0.4,12.3,0.7    c4.1,0.3,8.2,0.6,12.3,0.9l-1,0.9l0.1-1.1l1,1.1c-0.8,0-1.2-0.5-1.5-0.9c-0.1-0.2-0.2-0.4-0.3-0.7l-0.1-0.4    c-0.1-0.6-0.3-1.1-0.3-1.7c-0.2-1.2-0.2-2.4-0.1-3.5c0.1-2.3,0.2-4.5,0.4-6.8c0.2-2.3,0.3-4.5,0.3-6.7c0-1.1,0-2.2-0.2-3.3    c-0.1-0.5-0.2-1.1-0.4-1.5c-0.2-0.4-0.5-0.8-0.9-1.1l0.1,0c-0.5-0.2-1.1-0.3-1.7-0.3c-0.6,0.1-1.3,0.2-1.9,0.4    c-0.6,0.2-1.2,0.4-1.8,0.6l-1.8,0.8l-1.8,0.8l-1.7,0.9l-3.5,1.9c-2.3,1.3-4.5,2.6-6.8,4C23.3,167,20.9,168.2,18.5,169.2z"></path>		</g>	</g>	<g>		<path class="st0" d="M129.5,138c93.6-11,185.8-31,278.4-47.6c46.4-8.3,92.9-15.7,139.8-20.6l17.5-1.7c5.8-0.5,11.7-1.2,17.7-1.5   l17.7-1.1c5.8-0.4,11.8-0.9,17.7-1c23.5-0.9,47.1-1.3,70.7,0c2.9,0.6,6,1.7,8,3.9c1.1,1.1,1.9,2.5,2.3,4c0.5,1.5,0.6,3.1,0.4,4.6   c-0.2,0.8-0.5,1.5-0.9,2.2c-0.5,0.6-1,1.2-1.6,1.7c-1.3,0.9-2.7,1.5-4.1,1.8l-8.4,2.6c-2.8,0.9-5.6,1.8-8.5,2.6l-8.5,2.3   c-5.7,1.6-11.5,2.8-17.2,4.3c-23,5.4-46.3,9.2-69.5,12.4c-46.8,6.3-93.7,9.7-140.4,15.5c-46.6,5.7-93.1,13.5-139.6,20.9   c-23.2,3.8-46.5,7.4-69.9,10.6s-46.8,6-70.1,8v-0.1c23.5-2.2,46.7-5.1,70.1-8.5s46.5-7.1,69.8-10.8c46.5-7.7,92.9-15.6,139.6-21.4   c46.8-5.6,93.7-9.1,140.4-15.3c23.4-3.2,46.5-7.1,69.5-12.3c5.7-1.3,11.4-2.7,17.2-4.3l8.5-2.3c2.8-0.7,5.6-1.7,8.4-2.6l8.4-2.6   c1.4-0.4,2.7-0.9,3.9-1.7c0.5-0.4,1-0.9,1.3-1.5c0.3-0.6,0.6-1.2,0.7-1.8c0.2-1.4,0.1-2.8-0.2-4.1c-0.4-1.3-1.2-2.6-2.1-3.6   c-2.1-2-4.7-3.3-7.5-3.7c-2.9-0.4-5.8-0.6-8.8-0.6l-8.8-0.1l-17.7-0.1c-2.9,0-5.8-0.1-8.8,0l-8.8,0.2l-17.7,0.5   c-5.8,0.1-11.8,0.5-17.7,0.9l-17.7,1.1c-5.8,0.2-11.7,1-17.5,1.5l-17.5,1.7c-46.9,4.9-93.4,12.2-139.8,20.4   C315.3,107.4,223.1,127.3,129.5,138L129.5,138z"></path>		<path class="st0" d="M129.5,138c46.8-5.6,93.3-13.4,139.6-21.9c46.3-8.5,92.5-17.8,138.9-26.2c46.4-8.3,92.9-15.8,139.8-20.7   l17.6-1.7c5.9-0.5,11.7-1.2,17.6-1.5l17.6-1.1l17.7-1c23.5-0.9,47.1-1.4,70.7-0.1l0.1,0l0.1,0c1.5,0.3,3.1,0.8,4.5,1.4   c1.5,0.7,2.9,1.6,4,2.8c1.1,1.2,1.9,2.7,2.4,4.3c0.5,1.6,0.6,3.3,0.4,4.9l0,0l0,0c-0.2,0.8-0.5,1.6-0.9,2.4l0,0l0,0   c-0.5,0.7-1.1,1.3-1.7,1.8l0,0l0,0c-1.2,0.8-2.6,1.5-4.1,1.9c-1.3,0.4-2.7,0.8-4,1.2c-2.7,0.8-5.4,1.6-8.1,2.5   c-2.7,0.9-5.5,1.6-8.2,2.3l-8.2,2.2c-2.7,0.7-5.5,1.4-8.3,2l-4.1,1c-1.4,0.3-2.8,0.7-4.1,1c-5.5,1.3-11.1,2.5-16.6,3.6   c-22.2,4.4-44.6,7.8-67.1,10.5c-45,5.5-90.1,8.9-135,14.8c-44.9,5.8-89.5,13.4-134.2,20.4l-67.1,10.2c-22.4,3-44.9,5.7-67.5,7.7   l-1.1,0.1l0-1.1l0-0.1l0-0.9l0.9-0.1c22.5-2.1,44.9-4.9,67.3-8.1l67-10.4c44.6-7.2,89.2-14.9,134.1-20.8   c44.9-5.8,90-9.2,134.9-14.6c22.4-2.7,44.8-6,67-10.3c5.5-1.1,11.1-2.2,16.6-3.5c5.5-1.2,11-2.7,16.4-4c2.7-0.7,5.5-1.4,8.2-2.1   c1.4-0.4,2.7-0.7,4.1-1.1l4-1.2l8.1-2.5l4.1-1.2c1.3-0.3,2.5-0.9,3.7-1.6l-0.1,0.1c0.4-0.3,0.7-0.6,1-1c0.2-0.2,0.2-0.3,0.4-0.5   c0.1-0.2,0.2-0.4,0.3-0.6c0.3-0.8,0.3-1.8,0.3-2.7c0-0.5-0.1-0.9-0.2-1.4c-0.1-0.4-0.3-0.9-0.5-1.3c-0.4-0.9-0.9-1.7-1.5-2.4   l0,0.1c-2-2-4.7-3.2-7.5-3.5c-2.9-0.4-5.8-0.6-8.8-0.5c-6-0.1-12-0.2-17.9-0.2c-6,0-11.9-0.1-17.9,0l-17.9,0.5c-3,0.1-6,0.1-9,0.3   l-8.9,0.4c-6,0.2-11.9,0.6-17.9,1c-3,0.2-6,0.4-8.9,0.5c-3,0.2-5.9,0.5-8.9,0.8l-17.9,1.7c-47.6,4.6-94.8,11.9-141.9,20.2   c-47.1,8.3-94,17.5-141.1,25.9C224.2,124.9,177,132.6,129.5,138L129.5,138L129.5,138z M129.5,138L129.5,138L129.5,138   c47.5-5.6,94.6-13.5,141.7-22.1c47-8.6,93.9-17.9,141-26.4c47.1-8.4,94.4-15.8,142-20.5l17.8-1.7c3-0.3,6-0.6,9-0.8   c3-0.1,6-0.4,9-0.5c6-0.4,11.9-0.8,17.9-1l9-0.4c3-0.2,6-0.2,9-0.3l17.9-0.5c6-0.1,12,0,18,0c6,0,12,0.1,17.9,0.2   c3,0,6.1,0.1,9,0.5c3.1,0.3,6.2,1.7,8.4,3.9l0,0l0,0c0.7,0.8,1.3,1.8,1.8,2.8c0.2,0.5,0.4,1,0.6,1.6c0.1,0.5,0.2,1.1,0.3,1.7   c0,0.6,0,1.1,0,1.7c0,0.5-0.2,1.2-0.4,1.7c-0.1,0.3-0.2,0.5-0.4,0.8c-0.1,0.3-0.3,0.5-0.5,0.8c-0.4,0.5-0.8,0.9-1.2,1.2l0,0l0,0   c-1.3,0.8-2.7,1.4-4.1,1.8l-4,1.2l-8.1,2.5l-4.1,1.2c-1.4,0.4-2.7,0.8-4.1,1.1c-2.7,0.7-5.4,1.5-8.2,2.2c-5.5,1.3-11,2.8-16.5,4.1   c-5.5,1.2-11.1,2.4-16.6,3.5c-22.2,4.4-44.6,7.7-67.1,10.4c-44.9,5.5-90,8.9-134.9,14.7c-44.8,5.9-89.4,13.6-134,20.9l-67.1,10.4   c-22.4,3.2-44.9,6-67.4,8.2l0.9-1l0,0.1l-1.1-1c22.5-1.9,45-4.6,67.4-7.6l67.1-10.1c44.7-7,89.3-14.6,134.3-20.4   c44.9-5.9,90.1-9.2,135-14.7c22.4-2.7,44.8-6,67-10.4c5.5-1.1,11.1-2.3,16.6-3.5c1.4-0.3,2.7-0.6,4.1-1l4.1-1   c2.8-0.7,5.5-1.3,8.2-2l8.2-2.2c2.7-0.8,5.5-1.4,8.1-2.3c2.7-0.9,5.4-1.7,8.1-2.5c1.4-0.4,2.7-0.8,4.1-1.2   c1.3-0.3,2.5-0.9,3.6-1.6l-0.1,0.1c0.5-0.5,1-1,1.5-1.6l0,0.1c0.4-0.6,0.6-1.3,0.8-2l0,0.1c0.5-2.8-0.5-5.8-2.4-7.9   c-1.9-2.1-4.8-3.2-7.7-3.8l0.1,0c-23.5-1.4-47-0.9-70.6-0.1l-17.6,1l-17.6,1.1c-5.9,0.2-11.7,0.9-17.6,1.4l-17.6,1.7   c-46.8,4.8-93.4,12.2-139.8,20.4c-46.4,8.2-92.6,17.3-139,25.7C222.8,125,176.3,132.6,129.5,138z"></path>	</g>	<g>		<path class="st0" d="M67.3,185l0.7-3.7l0.4,0.1c-1.2,1.7-2.9,3-4.9,3.8c-1.9,0.8-3.9,1.4-6,1.7c-2,0.4-4,0.6-6.1,0.7   c-1,0.1-2,0.1-3,0.1c-0.6,0.1-1.2,0-1.7-0.4c-0.3-0.2-0.3-0.6-0.2-0.8c0-0.1,0.1-0.1,0.2-0.2c0.1-0.1,0.2-0.1,0.5-0.1   s0.4,0.2,0.2,0.4h-0.1c0-0.2-0.2-0.1-0.4,0s-0.1,0.2,0.1,0.4c0.4,0.1,0.8,0.1,1.2,0c1-0.2,2-0.4,3-0.5c2-0.3,4-0.5,6.1-0.6   c2-0.2,4-0.6,5.8-1.3c1.8-0.7,3.5-1.8,4.9-3.3l0.6-0.7l-0.2,0.9L67.3,185L67.3,185z"></path>		<path class="st0" d="M67.3,185l0.7-3.7l0,0l0,0l0.4,0.1l0.1,0l0,0c-1,1.5-2.4,2.7-4,3.6c-1.6,0.8-3.3,1.5-5.1,2   c-1.8,0.5-3.5,0.8-5.4,1.1c-0.9,0.1-1.8,0.3-2.7,0.3l-2.8,0.2l0.2,0c-0.7,0.1-1.4,0-2-0.3c-0.1,0-0.2-0.1-0.2-0.1   c-0.1-0.1-0.1-0.1-0.3-0.2c-0.2-0.2-0.4-0.5-0.5-0.8c-0.2-0.6,0.1-1.3,0.6-1.7l-0.1,0.1c0.2-0.2,0.6-0.4,0.8-0.4   c0.2,0,0.3,0,0.4,0c0.3,0,0.7,0.2,1,0.5c0.1,0.2,0.2,0.4,0.2,0.7c0,0.3-0.1,0.6-0.3,0.8l-0.3,0.3l-0.4,0l-0.1,0l-1-1   c0,0.1,0,0.3,0.3,0.6c0.2,0.2,0.4,0.2,0.5,0.2c0.2,0,0.2,0,0.3,0c0.2-0.1,0.1-0.1,0.2-0.1c0,0,0.1-0.1,0.2-0.3   c0.1-0.2,0.1-0.6-0.1-0.7c-0.2-0.3-0.2-0.2-0.2-0.2l-0.2-0.1c0.2,0.1,0.4,0.1,0.6,0l0.1,0l0,0c0.9-0.1,1.9-0.3,2.8-0.4   c0.9-0.1,1.8-0.2,2.8-0.3c0.9-0.1,1.9-0.1,2.8-0.1c0.5,0,0.9,0,1.3,0c0.4,0,0.9-0.1,1.3-0.1c0.9-0.1,1.8-0.3,2.7-0.5   c0.9-0.2,1.7-0.5,2.6-0.8c1.7-0.7,3.2-1.8,4.3-3.3l0.2-0.3l-0.1,0.3c-0.1,0.4-0.2,0.7-0.4,1.1l-0.4,1.1L67.3,185L67.3,185   L67.3,185z M67.3,185L67.3,185L67.3,185l0.7-2.2c0.2-0.7,0.5-1.5,0.7-2.2l0.1,0.1c-1.1,1.5-2.5,2.7-4.2,3.7   c-0.8,0.5-1.7,0.8-2.6,1.1c-0.9,0.3-1.8,0.6-2.7,0.8c-0.5,0.1-0.9,0.2-1.4,0.3c-0.5,0.1-1,0.1-1.4,0.2c-0.9,0.1-1.8,0.2-2.7,0.4   c-0.9,0.1-1.8,0.3-2.7,0.5c-0.9,0.2-1.8,0.3-2.6,0.5l0.1,0c-0.6,0.2-1.2,0.2-1.8,0l-0.1,0l0,0c-0.1-0.1-0.3-0.1-0.6-0.5   c-0.2-0.2-0.2-0.7-0.1-1c0.1-0.3,0.2-0.4,0.3-0.5c0.2-0.1,0.3-0.2,0.6-0.4c0.1,0,0.2-0.1,0.4,0c0.2,0,0.5,0.1,0.7,0.3   c0.4,0.4,0.3,0.7,0.4,0.9l-1-1l0.1,0l-0.7,0.3c-0.2,0.1-0.3,0.4-0.2,0.6c0,0.2,0.1,0.3,0.1,0.5c0.2,0.2,0.4,0.3,0.5,0.3   c0,0-0.2,0-0.1,0c0,0,0.3-0.1,0.3-0.2l-0.1,0.1c0.1-0.1,0.2-0.3,0.1-0.4c0-0.1-0.1-0.1-0.1-0.2c-0.1,0,0,0,0,0l0.1,0.1   c0.3,0.1,0.6,0.2,0.8,0.1l0.1,0l0.1,0l2.6,0c0.9,0,1.8-0.1,2.7-0.1c1.8-0.1,3.6-0.3,5.3-0.6c1.7-0.3,3.5-0.8,5.1-1.4   c1.6-0.7,3.1-1.8,4.2-3.3l0,0.1l-0.4-0.1l0.1,0L67.3,185z"></path>	</g>	<g>		<path class="st0" d="M49.4,155.8c-0.3,0.2-0.7,0.3-1,0.1c-0.2-0.2-0.4-0.5-0.6-0.7c-0.2-0.4-0.1-0.8,0.1-1.1l0.7-0.7   c0.6-0.3,1.2-0.4,1.8-0.5l1.8-0.1c1.2-0.1,2.4-0.2,3.7-0.2c1.2,0,2.5,0.1,3.7,0.4v0.1c-1.2,0.3-2.3,0.6-3.5,0.7   c-1.2,0.1-2.4,0-3.7,0c-1.1-0.1-2.3,0-3.4,0.1c-0.5,0.2-1,0.6-0.7,1.1C48.3,155.6,48.8,156.2,49.4,155.8L49.4,155.8z"></path>		<path class="st0" d="M49.4,155.8c-0.2,0.3-0.7,0.4-1.1,0.3l0,0l0,0c-0.3-0.2-0.5-0.4-0.8-0.7l0,0c-0.2-0.4-0.2-1,0-1.5l0-0.1   c0.2-0.3,0.4-0.5,0.7-0.8l0,0l0.1-0.1c0.4-0.3,0.9-0.5,1.4-0.6c0.5-0.1,1-0.2,1.4-0.2c0.9-0.1,1.8-0.2,2.8-0.3   c0.9-0.1,1.9-0.2,2.8-0.2c1,0,1.9,0.1,2.9,0.3l0.8,0.2l0,0.8l0,0.1l0,0.8l-0.7,0.2c-1.2,0.3-2.5,0.6-3.7,0.7   c-1.3,0.1-2.6-0.1-3.7-0.2l-0.1,0c-1.1-0.1-2.2-0.2-3.3-0.2l0.1,0c-0.2,0.1-0.4,0.2-0.5,0.3c-0.1,0.1-0.2,0.1-0.1,0.3l0,0.1   c0,0.2,0,0.5,0.1,0.7C48.8,155.9,49.1,155.9,49.4,155.8L49.4,155.8L49.4,155.8z M49.4,155.8L49.4,155.8L49.4,155.8   c-0.2,0.2-0.6,0.3-0.9,0c-0.3-0.2-0.4-0.5-0.5-0.9l0,0.1c-0.1-0.1-0.2-0.3-0.1-0.6c0-0.2,0.1-0.4,0.2-0.5c0.2-0.3,0.4-0.4,0.7-0.6   l0,0l0.1,0c1.1-0.3,2.3-0.4,3.5-0.4l-0.1,0c1.3-0.1,2.5,0,3.5-0.2c1.1-0.2,2.3-0.4,3.4-0.8l-0.7,0.9l0-0.1l0.8,1   c-0.9-0.2-1.7-0.3-2.6-0.3c-0.9-0.1-1.8,0-2.7,0c-0.9,0-1.8,0-2.7,0c-1,0-1.7,0-2.5,0.3l0.2-0.1c-0.3,0.2-0.5,0.4-0.8,0.7l0-0.1   c-0.2,0.2-0.3,0.5-0.2,0.7l0,0c0.1,0.3,0.3,0.5,0.5,0.8l0,0C48.7,156,49.1,156,49.4,155.8z"></path>	</g>	<g>		<path class="st0" d="M160,148.9c62.3-13.5,124.9-25.8,187.9-36.9l23.6-4l23.6-3.9l23.6-3.8l23.6-3.6l23.7-3.3l23.7-3.2l23.7-3   l23.7-2.8v0.1L489.8,91L466,94.4L442.4,98l-23.6,3.5l-23.6,3.8l-23.6,3.8l-23.6,3.9C285.1,123.8,222.4,135.9,160,148.9L160,148.9z   "></path>		<path class="st0" d="M160,148.9c31.1-6.9,62.4-13.5,93.7-19.8c31.3-6.3,62.7-12.2,94.1-17.8l23.6-4.1l23.6-3.9l23.6-3.8l23.7-3.6   c31.6-4.5,63.2-8.7,94.9-12.3l1.1-0.1l0,1.1l0,0.1l0,0.9l-0.9,0.1L490,92l-23.7,3.4l-23.7,3.5l-23.7,3.5l-23.6,3.7l-47.2,7.6   c-31.4,5.3-62.8,11-94.2,16.9C222.5,136.5,191.2,142.6,160,148.9L160,148.9L160,148.9z M160,148.9L160,148.9L160,148.9   c31.2-6.6,62.4-13.1,93.7-19.2c31.3-6.1,62.7-12,94.1-17.5l23.6-4l23.6-3.8l23.6-3.8l23.7-3.6l23.7-3.6l23.7-3.4l47.4-6.5l-0.9,1   l0-0.1l1.1,1c-31.7,3.6-63.3,7.7-94.9,12.2c-31.5,4.7-63,9.9-94.5,15.1c-31.4,5.4-62.8,11.2-94.1,17.2   C222.5,136,191.2,142.3,160,148.9z"></path>	</g>	<g>		<polygon class="st0" points="246.9,139.9 402.4,114.3 441.2,108 480,101.7 518.9,95.6 538.3,92.5 557.8,89.6 557.8,89.7    538.5,93.1 519,96.3 480.1,102.9 441.3,109.1 402.5,115.3 247,140   "></polygon>		<path class="st0" d="M246.9,139.9l155.3-26.3l77.7-12.8l38.9-6.1l19.4-3.1l19.5-2.9l1.1-0.2l0,1.2l0,0.1l0,0.8l-0.8,0.1l-19.4,3.4   l-19.4,3.1l-38.8,6.5L402.6,116l-77.8,12.1L247,140l0,0L246.9,139.9z M246.9,139.9l0.1,0.1l0,0l77.7-12.8l77.7-12.6l77.7-12.6   l38.8-6.6l19.4-3.2l19.4-3.4l-0.8,1l0-0.1l1.1,1l-19.5,2.9l-19.4,3l-38.9,6.1l-77.7,12.5L246.9,139.9z"></path>	</g>	<g>		<path class="st0" d="M230.5,93.6c-0.1,4,1.4,7.9,4.1,10.8c2.6,3,6.3,4.8,10.2,4.9h1.7l-1.5,0.9c-4,2.4-8.1,4.6-12.4,6.5   c-2.2,0.9-4.5,1.6-6.8,2.1c-2.3,0.5-4.7,0.6-7.1,0.4V119c2.3-0.1,4.6-0.5,6.8-1.1c2.2-0.6,4.3-1.4,6.4-2.3c4.3-1.8,8.3-4,12.4-6.2   l0.2,0.9c-4.2-0.2-8-2.2-10.6-5.5C231.5,101.7,230.2,97.6,230.5,93.6L230.5,93.6z"></path>		<path class="st0" d="M230.5,93.6c0,2.1,0.4,4.2,1.2,6.1c0.8,2,2.1,3.7,3.5,5.1c1.5,1.5,3.3,2.6,5.2,3.3c1,0.3,2,0.6,3,0.7   c1,0.1,2,0,3.1,0l1.6,0l-1.4,0.9c-2.1,1.3-4.2,2.7-6.4,3.9c-2.2,1.3-4.4,2.4-6.7,3.5c-2.4,1.1-4.8,1.9-7.3,2.5   c-2.5,0.6-5.2,0.8-7.8,0.5l-0.9-0.1l0-0.9l0-0.1l0-1l0.9,0c2.2-0.1,4.5-0.4,6.6-1c2.2-0.6,4.3-1.3,6.4-2.2   c4.2-1.7,8.4-3.8,12.5-5.8l0.5-0.3l0.1,0.5l0.2,0.9l0.1,0.6l-0.6,0c-2.1-0.2-4.1-0.8-5.9-1.8c-1.8-1-3.4-2.4-4.7-4   c-1.3-1.6-2.3-3.4-2.9-5.3C230.6,97.7,230.3,95.6,230.5,93.6L230.5,93.6L230.5,93.6z M230.5,93.6L230.5,93.6L230.5,93.6   c-0.1,2,0.1,4,0.8,6c0.6,1.9,1.7,3.7,3,5.2c2.6,3.1,6.5,5,10.5,5l-0.4,0.5l-0.3-0.9l0.6,0.3c-4,2.3-8,4.6-12.3,6.6   c-2.1,1-4.3,1.8-6.6,2.5c-2.3,0.7-4.7,1-7,1.2l0.9-1l0,0.1l-0.9-1c2.4,0.2,4.8,0.1,7.1-0.4c2.4-0.5,4.8-1.2,7-2.1   c2.3-1,4.5-2,6.7-3.1c2.2-1.1,4.4-2.3,6.6-3.6l0.2,0.8c-1,0-2.1,0-3.2-0.2c-1.1-0.2-2.1-0.5-3.1-0.9c-2-0.8-3.8-2.1-5.2-3.6   c-1.5-1.5-2.6-3.3-3.4-5.3C230.8,97.8,230.4,95.7,230.5,93.6z"></path>	</g>	<g>		<path class="st0" d="M250.9,111.5l-5.2-2.1l0.2-0.5c2.5,1.8,5.2,3.2,8.2,4c1.5,0.4,2.9,0.7,4.4,1s3,0.4,4.6,0.5v0.1   c-1.6,0.4-3.2,0.5-4.8,0.4c-1.6-0.1-3.1-0.4-4.6-1c-3-1-5.8-2.6-8.1-4.6l-1.6-1.5l2,1L250.9,111.5L250.9,111.5z"></path>		<path class="st0" d="M250.9,111.5c-1.8-0.5-3.6-1.1-5.4-1.7l-0.4-0.1l0.2-0.4l0.2-0.5l0.2-0.5l0.5,0.3c1.3,0.8,2.6,1.5,3.9,2.1   c1.3,0.6,2.8,1.1,4.2,1.4l4.4,0.9c1.4,0.2,2.9,0.3,4.5,0.4l0.9,0.1l0,0.9l0,0.1l0,0.8l-0.8,0.2c-1.8,0.4-3.7,0.5-5.6,0.3   c-0.9-0.1-1.9-0.3-2.8-0.5c-0.5-0.1-0.9-0.3-1.3-0.4l-1.2-0.5c-1.7-0.7-3.3-1.6-4.8-2.6c-0.7-0.5-1.5-1.1-2.1-1.7   c-0.7-0.6-1.3-1.3-1.9-1.9l-3-2.9l3.6,2.1C246.5,108.7,248.7,110.1,250.9,111.5L250.9,111.5L250.9,111.5z M250.9,111.5   L250.9,111.5L250.9,111.5c-1.2-0.5-2.4-1-3.6-1.6l-3.6-1.6l0.6-0.9c1.4,1.1,2.7,2.2,4.1,3.1c1.5,0.9,3,1.6,4.6,2.2l1.2,0.4   c0.4,0.1,0.8,0.2,1.2,0.4c0.8,0.2,1.6,0.3,2.4,0.4c1.7,0.1,3.3,0,4.9-0.3l-0.8,1l0-0.1l0.9,1c-1.5-0.1-3.1-0.2-4.6-0.5l-4.5-1.1   c-1.5-0.5-3-1.1-4.3-1.8c-1.4-0.8-2.7-1.6-3.9-2.6l0.7-0.2l-0.3,0.5l-0.2-0.6C247.5,109.8,249.2,110.6,250.9,111.5z"></path>	</g>	<g>		<path class="st0" d="M207.4,158.1c-1.1,2.8-2.7,5.4-4.6,7.7c-1,1.1-2,2.2-3.2,3.2c-1.2,1-2.5,1.8-3.9,2.4l-1.5,0.7l0.9-1.3   c0.6-1,1.2-1.9,1.9-2.8h0.1c-0.4,1.1-0.7,2.2-1.1,3.2l-0.7-0.6c1.2-0.9,2.4-1.7,3.5-2.6c1.2-0.8,2.3-1.8,3.3-2.8   C204.3,163.1,206,160.7,207.4,158.1L207.4,158.1z"></path>		<path class="st0" d="M207.4,158.1c-0.9,3.2-2.5,6.2-4.7,8.8c-1.1,1.3-2.2,2.5-3.6,3.6c-0.7,0.5-1.4,1-2.2,1.4   c-0.4,0.2-0.8,0.4-1.1,0.5l-1.1,0.5l-3.1,1.6l1.9-3l0.7-1l0.7-1.1c0.5-0.7,1-1.4,1.5-2.1l0.3-0.4l0.5,0l0.1,0l1.4,0l-0.5,1.3   l-1.1,3.2l-0.5,1.3l-1.1-0.9l-0.7-0.6l-0.9-0.8l1-0.7l3.6-2.5c1.2-0.8,2.3-1.7,3.4-2.6C203.9,162.8,205.8,160.5,207.4,158.1z    M207.4,158.1c-1.1,2.7-2.8,5.2-4.7,7.5c-1,1.1-2.1,2.1-3.3,3.1l-3.5,2.7l0.1-1.5l0.7,0.6l-1.5,0.4l1.1-3.1l0.9,1.3l-0.1,0   l0.8-0.4c-0.5,0.6-1,1.3-1.4,1.9l-0.7,1l-0.7,1.1l-1.3-1.4l1.1-0.6c0.4-0.2,0.8-0.3,1.1-0.5c0.7-0.3,1.4-0.7,2-1.1   c1.2-0.9,2.5-2,3.6-3.1C204,163.7,205.9,161.1,207.4,158.1z"></path>	</g>	<g>		<path class="st0" d="M294.9,156.4c-1.8,2.1-3.9,3.9-6.3,5.2c-2.4,1.5-4.9,2.4-7.3,3.8c-2.5,1.1-4.7,2.7-6.6,4.6   c-1.8,2-3.3,4.2-4.4,6.7c-1.2,2.4-2.2,5-3.3,7.5c-1.1,2.6-2.3,5-3.8,7.4c-2.8,4.8-6.4,9.1-10.5,12.8l-0.1-0.1   c3.6-4.1,6.8-8.6,9.5-13.3c1.3-2.3,2.6-4.7,3.8-7.3s2.2-5,3.5-7.4c1.2-2.5,2.8-4.8,4.8-6.8c2-2,4.4-3.5,6.9-4.6   c2.4-1.2,5-2.2,7.4-3.5C290.9,160,293,158.3,294.9,156.4L294.9,156.4z"></path>		<path class="st0" d="M294.9,156.4c-1.7,2.2-3.8,4-6.2,5.4c-2.3,1.5-4.9,2.6-7.2,4c-2.4,1.2-4.6,2.8-6.4,4.7   c-1.8,2-3.2,4.3-4.2,6.8c-1.2,2.4-2.1,5-3.2,7.5c-1.1,2.6-2.3,5.1-3.7,7.4c-2.8,4.8-6.4,9.2-10.5,12.9l-0.7,0.7l-0.7-0.7l-0.1-0.1   l-0.6-0.7l0.6-0.7c3.6-4.1,6.8-8.5,9.5-13.2l3.8-7.2c1.2-2.4,2.3-5,3.6-7.4c1.3-2.5,2.9-4.8,4.9-6.8c2.1-1.9,4.5-3.5,7.1-4.5   c2.5-1.2,5.1-2.1,7.5-3.3C290.7,159.9,292.9,158.3,294.9,156.4L294.9,156.4L294.9,156.4z M294.9,156.4L294.9,156.4L294.9,156.4   c-1.9,2-4,3.8-6.3,5.3c-2.4,1.4-4.9,2.4-7.4,3.7c-2.5,1.1-4.7,2.7-6.5,4.6c-1.8,2-3.3,4.2-4.5,6.6c-1.3,2.4-2.3,4.9-3.4,7.4   l-3.8,7.4c-2.7,4.8-6,9.4-9.6,13.6l0-1.3l0.1,0.1l-1.4-0.1c4-3.6,7.5-7.8,10.3-12.4c1.4-2.3,2.7-4.7,3.8-7.2   c1.1-2.5,2.1-5.1,3.4-7.5c1.2-2.5,2.7-4.9,4.7-7c2-2,4.4-3.6,6.9-4.7c2.4-1.3,5-2.2,7.4-3.6C290.8,160.1,293,158.5,294.9,156.4z"></path>	</g>	<g>		<path class="st0" d="M354.9,177.4c-0.8,4.5-2.8,8.7-5.8,12.2c-3.1,3.5-7.1,6-11.6,7.3c-2.2,0.6-4.5,1-6.8,1   c-2.1-0.1-4.1,0.8-5.5,2.4c-1.5,1.6-2.3,3.8-3.4,5.7c-0.6,1-1.2,1.9-2,2.8c-0.8,0.9-1.7,1.6-2.8,2.1v-0.2c1.8-1.3,3.2-3.1,4-5.1   c0.9-2.1,2-4.2,3.3-6.1c0.7-1,1.7-1.8,2.9-2.2c1.1-0.4,2.3-0.6,3.5-0.6c2.2,0.1,4.4-0.1,6.6-0.6c4.3-1.2,8.2-3.5,11.3-6.7   C351.7,186,353.8,181.8,354.9,177.4z"></path>		<path class="st0" d="M354.9,177.4c-0.5,4.5-2.5,8.9-5.4,12.4c-3,3.5-7,6.2-11.4,7.7c-2.2,0.7-4.5,1.1-6.9,1.2   c-0.7,0-1.1,0-1.6,0.1c-0.5,0.1-1,0.2-1.4,0.4c-0.9,0.4-1.7,1-2.3,1.8c-1.4,1.6-2.2,3.6-3.3,5.7c-0.6,1-1.3,2-2.1,2.9   c-0.9,1-1.9,1.7-3.1,2.2l-1.4,0.6l0-1.5l0-0.2l0-0.5l0.4-0.3c1.7-1.2,3-2.9,3.8-4.9c0.9-2.2,2-4.2,3.4-6.1   c0.8-1.1,1.9-1.9,3.1-2.3c1.1-0.4,2.4-0.7,3.6-0.7c0.7,0,1.2,0.1,1.7,0c0.5,0,1.1,0,1.6,0c1.1-0.1,2.2-0.2,3.2-0.4   c4.2-1,8.3-3.2,11.4-6.4C351.4,185.8,353.6,181.7,354.9,177.4z M354.9,177.4c-0.8,4.5-2.9,8.7-5.8,12.3c-3.1,3.5-7.2,6-11.8,7.2   c-1.1,0.3-2.3,0.5-3.5,0.6c-0.6,0.1-1.2,0.1-1.8,0.1c-0.6,0-1.2,0-1.7,0c-1,0-2,0.3-3,0.7c-0.9,0.4-1.7,1-2.2,1.7   c-1.2,1.8-2.3,3.8-3.1,5.8c-0.9,2.2-2.4,4.3-4.4,5.8l0.4-0.8l0,0.2l-1.4-0.9c0.9-0.4,1.7-1,2.4-1.7c0.6-0.8,1.3-1.7,1.9-2.6   c1.1-1.8,1.9-4.1,3.6-5.9c0.8-0.9,1.9-1.8,3.1-2.2c0.6-0.2,1.2-0.4,1.9-0.5c0.6-0.1,1.3,0,1.8,0c2.2-0.1,4.4-0.4,6.5-1   c4.2-1.2,8.1-3.6,11.1-6.9C351.8,185.9,353.9,181.8,354.9,177.4z"></path>	</g>	<g>		<path class="st0" d="M266.9,174c-2.8,4.7-6.4,9-10.5,12.7c-2,1.9-4.1,3.7-6.5,5.2c-2.4,1.5-4.9,2.7-7.6,3.5v-0.1   c2.3-1.5,4.8-2.8,6.9-4.4s4.4-3.2,6.5-4.9C259.9,182.4,263.6,178.4,266.9,174z"></path>		<path class="st0" d="M266.9,174c-1.2,2.5-2.8,4.8-4.4,7.1c-1.7,2.2-3.6,4.3-5.6,6.2c-1.9,2-4.1,3.8-6.5,5.5   c-2.4,1.6-5,2.8-7.7,3.7l-1.3,0.4l0-1.4l0-0.1l0-0.6l0.5-0.3c2.4-1.5,4.7-2.8,6.9-4.3l6.6-4.8c2-1.7,4.1-3.6,6-5.5   C263.3,178.1,265.1,176,266.9,174z M266.9,174c-1.5,2.3-3.1,4.5-4.9,6.6c-1.8,2.1-3.6,4.1-5.7,6c-2.1,1.7-4.3,3.4-6.5,5.1   c-2.3,1.7-4.7,3-6.9,4.4l0.5-0.8l0,0.1l-1.3-1c2.6-0.8,5-2,7.3-3.4c2.3-1.4,4.4-3.1,6.4-5c2.1-1.8,4.1-3.7,5.9-5.7   C263.6,178.4,265.3,176.2,266.9,174z"></path>	</g>	<g>		<path class="st0" d="M222.7,276.5l2.4-1.7l0.5-0.4l-0.4,0.5c-2.5,4-3.9,8.6-4,13.3c0,2.3,0.3,4.6,1,6.8c0.3,1.1,1,2,1.8,2.8   c0.8,0.7,1.8,1.2,2.9,1.5c2.3,0.5,4.6,0.7,6.9,0.7c2.3,0.1,4.8,0.2,7.1,0.2h3.5c1.2-0.1,2.3-0.3,3.4-0.6c1.1-0.3,2.1-0.9,3-1.6   c0.9-0.8,1.4-1.9,1.3-3h0.1c0.2,1.2-0.2,2.5-1.1,3.4c-0.9,0.9-2,1.5-3.2,2c-2.3,1-4.9,1-7.2,1.1s-4.8,0-7.2-0.1   c-2.4-0.1-4.8-0.4-7.2-1c-1.2-0.4-2.3-1-3.3-1.8c-0.9-0.9-1.6-2-1.9-3.2c-0.7-2.3-1-4.8-0.9-7.2c0.1-4.8,1.7-9.5,4.5-13.4l0.1,0.1   L222.7,276.5L222.7,276.5z"></path>		<path class="st0" d="M222.7,276.5l1.4-1.1c0.5-0.4,1-0.7,1.4-1.1l0.8-0.6l-0.6,0.8l-0.3,0.5l0,0c-1.9,3.2-3.1,6.8-3.4,10.5   c-0.2,1.8-0.2,3.7,0.1,5.5c0.1,0.9,0.3,1.8,0.6,2.7c0.3,0.9,0.5,1.7,1,2.4c0.9,1.4,2.4,2.3,4.2,2.5c1.8,0.3,3.6,0.5,5.5,0.5   c3.8,0,7.5,0.2,11.3,0.2l-0.1,0c0.8-0.1,1.6-0.2,2.4-0.4c0.4-0.1,0.8-0.2,1.1-0.3c0.4-0.1,0.7-0.3,1-0.5c0.3-0.2,0.7-0.4,1-0.6   c0.2-0.1,0.3-0.2,0.4-0.3c0.1-0.1,0.2-0.2,0.3-0.4c0.4-0.5,0.6-1.2,0.6-1.8l0-1l1,0l0.1,0l0.9,0l0.1,0.9c0.2,1.5-0.3,3.1-1.3,4.2   l0,0l0,0c-0.9,0.9-2,1.5-3.2,2c-0.5,0.2-1.1,0.5-1.7,0.6c-0.6,0.2-1.2,0.3-1.8,0.4c-1.2,0.2-2.4,0.2-3.5,0.3c-1.1,0-2.3,0.1-3.5,0   c-2.3-0.1-4.6-0.1-6.9-0.4c-1.2-0.1-2.3-0.3-3.4-0.5c-0.6-0.1-1.1-0.2-1.7-0.4c-0.6-0.2-1.2-0.5-1.7-0.8c-0.5-0.3-1-0.7-1.5-1.1   c-0.5-0.4-0.9-0.9-1.3-1.4c-0.7-1-1.1-2.3-1.4-3.4c-0.5-2.3-0.6-4.7-0.4-7c0.4-4.6,2.1-9.1,4.9-12.8l0.1-0.1l0.1,0.1l0.1,0.1   l0.1,0.1l-0.1,0.1L222.7,276.5L222.7,276.5L222.7,276.5z M222.7,276.5L222.7,276.5L222.7,276.5l2.4-1.7l0,0.2l-0.1-0.1l0.2,0   c-2.5,3.8-3.9,8.2-4,12.7c-0.1,2.3,0.1,4.5,0.7,6.6c0.5,2.2,1.6,3.9,3.6,4.8c0.5,0.2,1,0.4,1.4,0.6c0.5,0.1,1.1,0.2,1.6,0.3   c1.1,0.2,2.2,0.4,3.3,0.5c2.2,0.2,4.5,0.2,6.7,0.2c1.1,0,2.2,0,3.4-0.1c1.1,0,2.2-0.1,3.3-0.3c0.5-0.1,1-0.2,1.5-0.3   c0.5-0.1,1-0.3,1.5-0.5c0.9-0.4,1.8-0.9,2.6-1.6l-0.1,0.1c0.6-0.7,0.9-1.7,0.8-2.6l1,0.9l-0.1,0l1-1c0,1.1-0.3,2.1-1,3   c-0.2,0.2-0.3,0.4-0.5,0.6c-0.2,0.2-0.4,0.3-0.6,0.5c-0.4,0.3-0.8,0.5-1.2,0.7c-0.4,0.2-0.9,0.4-1.3,0.6c-0.5,0.2-0.9,0.3-1.3,0.4   c-0.9,0.2-1.8,0.3-2.7,0.4l0,0l0,0c-3.8,0.1-7.6-0.2-11.3-0.3c-1.9-0.1-3.9-0.3-5.8-0.7c-2-0.3-4-1.5-5.1-3.3   c-0.3-0.4-0.5-0.9-0.7-1.4c-0.2-0.5-0.3-0.9-0.4-1.4c-0.2-0.9-0.4-1.9-0.5-2.9c-0.2-1.9-0.1-3.9,0.2-5.8c0.6-3.8,2-7.4,4.2-10.6   l0,0l0,0l0.4-0.5l0.2,0.2c-0.5,0.3-1,0.6-1.5,1L222.7,276.5z"></path>	</g>	<g>		<path class="st0" d="M366.7,141.7c9.7-2.1,19.6-3.9,29.5-5.2c9.9-1.4,19.9-2.1,30-2c10,0.2,20,1.7,29.6,4.5   c9.6,2.9,18.7,7.5,26.8,13.5c8,6.1,15.3,13,21.8,20.7c6.4,7.7,12.4,15.7,18,24c5.6,8.3,10.8,16.9,15.6,25.6   c2.4,4.4,4.8,8.8,7.1,13.3s4.4,9,6.3,13.6h-0.1c-2.2-4.5-4.4-9-6.7-13.4s-4.7-8.8-7.2-13.1c-5-8.6-10.3-17-16-25.3   c-5.5-8.3-11.5-16.2-17.9-23.9c-6.4-7.7-13.6-14.6-21.4-20.7c-7.9-6-16.9-10.6-26.4-13.5c-9.6-2.9-19.5-4.5-29.5-4.8   c-10-0.3-20,0.3-29.8,1.7C386.2,138.1,376.4,139.9,366.7,141.7L366.7,141.7z"></path>		<path class="st0" d="M366.7,141.7c9.8-2.1,19.6-4,29.6-5.3c9.9-1.5,19.9-2.1,30-2c10,0.1,20,1.6,29.7,4.4   c9.6,2.9,18.8,7.4,26.9,13.4c8,6.1,15.4,13,22,20.6c6.5,7.7,12.6,15.7,18.2,24c5.6,8.3,10.9,16.9,15.7,25.7l7.1,13.3   c2.3,4.5,4.4,9,6.4,13.7l0.6,1.4l-1.5,0l-0.1,0l-0.6,0l-0.3-0.6l-6.6-13.4l-7.1-13.1c-4.9-8.6-10.3-17-15.9-25.3   c-5.5-8.3-11.4-16.3-17.7-24c-6.3-7.7-13.4-14.6-21.3-20.8c-7.8-6.1-16.8-10.7-26.3-13.6c-9.5-2.9-19.4-4.6-29.4-4.9   c-10-0.3-19.9,0.3-29.8,1.6C386.2,138.1,376.4,139.9,366.7,141.7L366.7,141.7L366.7,141.7z M366.7,141.7L366.7,141.7L366.7,141.7   c9.7-1.8,19.5-3.7,29.4-5c9.9-1.4,19.9-2,29.8-1.8c10,0.3,19.9,1.8,29.5,4.6c9.6,2.8,18.7,7.4,26.7,13.4   c7.9,6.1,15.2,13,21.7,20.7c6.5,7.6,12.6,15.6,18.1,23.9c5.6,8.2,11,16.6,16.1,25.3l7.2,13.1l6.7,13.4l-0.9-0.6l0.1,0l-0.9,1.4   c-1.9-4.6-4-9.1-6.3-13.6l-7-13.2c-4.8-8.8-9.9-17.3-15.5-25.6c-5.5-8.3-11.5-16.4-17.8-24c-6.4-7.6-13.6-14.6-21.5-20.7   c-7.9-6-16.9-10.6-26.5-13.6c-9.6-2.9-19.5-4.5-29.5-4.7c-10-0.2-20,0.5-29.9,1.9C386.3,137.9,376.5,139.7,366.7,141.7z"></path>	</g>	<g>		<path class="st0" d="M445.7,22.3c8.3-1.9,16.9-1.8,25.5-1.6c4.3,0,8.5,0.3,12.8,0.9c4.3,0.5,8.4,1.8,12.2,4   c3.7,2.3,6.8,5.6,8.7,9.6c1.8,3.9,3.3,8,4.3,12.2c0.9,4.1,2.2,8.2,3.8,12.2l0.6,1.5l0.7,1.5c0.5,1,1.1,1.8,1.6,2.7l0.5,0.6   l0.5,0.6l1,1.2c0.2,0.4,0.8,0.7,0.8,1.5c0,0.2,0,0.3-0.1,0.5c-0.1,0.1-0.3,0.1-0.5,0.1c-0.1,0-0.2-0.1-0.4-0.2s-0.1-0.1-0.1-0.2   s0.1-0.1,0.2-0.1v0.1c-0.2,0.1,0,0.4,0.2,0.4s0.4-0.1,0.4-0.4c-0.2-0.5-0.5-0.9-0.8-1.2l-1.1-1.2l-0.6-0.6l-0.5-0.6   c-0.7-0.8-1.3-1.7-1.8-2.7c-0.2-0.5-0.6-1-0.8-1.5l-0.7-1.5c-1.7-3.9-3.1-8-4.2-12.2c-1-4.1-2.4-8.1-4.1-11.9   c-1.8-3.8-4.5-7-8-9.4c-3.6-2.1-7.6-3.5-11.8-4.1c-4.2-0.6-8.4-1-12.7-1.1C462.7,20.8,454.1,20.6,445.7,22.3L445.7,22.3z"></path>		<path class="st0" d="M445.7,22.3c7.8-2,16-2.1,24-2.1c4,0,8.1,0.1,12.1,0.5c2,0.2,4,0.4,6,0.8c2,0.4,4,1.1,5.8,1.9   c3.8,1.6,7.2,4.3,9.7,7.6c1.2,1.7,2.2,3.6,3,5.4c0.8,1.9,1.5,3.8,2.2,5.7c0.6,1.9,1.2,3.9,1.6,5.9c0.5,1.9,1,3.8,1.6,5.7   c1.3,3.8,2.6,7.5,4.8,10.8l-0.1-0.1l2,2.4l0.1,0.1l0.2,0.2c0.1,0.1,0.2,0.2,0.4,0.4c0.3,0.3,0.5,0.9,0.5,1.4l0-0.1   c0,0.4-0.1,0.8-0.3,1.1l-0.1,0.2l-0.2,0.1c-0.3,0.2-0.7,0.3-1.1,0.3l0.1,0c-0.6,0-0.7-0.3-0.9-0.4c-0.1-0.1-0.2-0.2-0.3-0.2   c0,0-0.1-0.1-0.1-0.2c-0.1-0.1-0.2-0.3-0.2-0.5c0-0.1,0-0.2,0-0.2l0-0.1c0-0.1,0-0.2,0.1-0.3c0.1-0.2,0.3-0.5,0.5-0.5   c0.2-0.1,0.3-0.1,0.4-0.1c0.2,0,0.2,0,0.3,0l1,0l0,1l0,0.1l-0.6,0.9c0.1,0,0.3-0.2,0.4-0.6c0.1-0.4-0.1-0.7-0.2-0.7   c-0.2-0.2-0.2-0.2-0.4-0.2c-0.1,0-0.2,0-0.4,0.2c-0.2,0.2-0.2,0.4-0.2,0.5l0.1,0.3c-0.1-0.3-0.3-0.6-0.5-0.8l-0.1,0l0-0.1   c-0.6-0.6-1.1-1.2-1.7-1.8l0,0l0-0.1c-0.6-0.8-1.3-1.6-1.8-2.5l-0.4-0.7c-0.1-0.1-0.2-0.3-0.2-0.4l-0.2-0.3l-0.4-0.6   c-0.1-0.2-0.3-0.5-0.4-0.7c-0.2-0.5-0.5-0.9-0.7-1.4l-0.6-1.4c-0.4-0.9-0.7-1.9-1.1-2.8c-0.7-1.9-1.3-3.8-1.9-5.8   c-0.6-2-1-3.9-1.6-5.8c-0.6-1.9-1.2-3.8-2-5.6c-0.4-0.9-0.7-1.8-1.1-2.7c-0.4-0.9-0.9-1.7-1.4-2.5c-1-1.6-2.3-3.1-3.7-4.4   c-0.7-0.7-1.5-1.3-2.2-1.8c-0.8-0.5-1.7-1-2.5-1.4c-3.5-1.7-7.3-2.8-11.3-3.2c-3.9-0.6-7.9-0.8-11.9-1   C461.6,21.1,453.6,20.9,445.7,22.3z M445.7,22.3c7.8-1.8,16-1.8,24-1.6c4,0,8,0.3,12,0.7c4,0.4,8.1,1.4,11.8,3.1   c0.9,0.4,1.8,0.9,2.7,1.5c0.9,0.6,1.7,1.2,2.5,1.9c1.5,1.4,2.9,3,4.1,4.7c0.6,0.9,1.1,1.8,1.5,2.7c0.4,0.9,0.8,1.9,1.2,2.8   c0.8,1.9,1.4,3.8,2,5.7c0.6,1.9,1.1,3.9,1.6,5.8c0.6,1.9,1.2,3.8,1.9,5.6c0.3,0.9,0.7,1.9,1.1,2.8l0.6,1.3   c0.2,0.4,0.4,0.9,0.7,1.3c0.1,0.2,0.2,0.4,0.3,0.6l0.4,0.6l0.2,0.4c0.1,0.1,0.1,0.2,0.2,0.3l0.4,0.6c0.5,0.8,1.1,1.5,1.7,2.3   l-0.1-0.1c0.6,0.6,1.2,1.2,1.8,1.9l-0.1-0.1c0.5,0.4,0.9,1,1.2,1.6l0.1,0.2l0,0.2c0,0.2,0,0.7-0.4,1c-0.4,0.3-0.7,0.3-1,0.3   c-0.4,0-0.6-0.1-1-0.4c-0.1-0.1-0.4-0.5-0.3-1c0.1-0.5,0.5-0.7,0.6-0.8l-0.6,0.9l0-0.1l1,1c0,0-0.1,0,0,0c0,0,0.1,0,0.3-0.1   c0.1-0.1,0.3-0.3,0.4-0.5c0-0.1,0.1-0.2,0.1-0.2l0-0.1l0,0c0,0,0,0,0-0.1c0-0.1-0.1-0.3-0.1-0.4l-0.1-0.1l0.1,0.1   c0,0,0-0.1-0.4-0.1l0.1,0c-0.1,0-0.1,0-0.2,0l-0.3,0.3c0,0.1-0.1,0.1,0,0.2l0.1,0.7l-0.1-0.8c0-0.1,0-0.1-0.1-0.2   c0-0.1-0.1-0.1-0.2-0.2c-0.1-0.1-0.2-0.2-0.4-0.5l0.1,0.1l-2-2.5l0,0l-0.1-0.1c-4.5-6.9-5.9-15.3-8.1-22.8   c-0.6-1.9-1.3-3.7-2.1-5.6c-0.8-1.8-1.6-3.5-2.8-5.1c-2.3-3.1-5.3-5.7-8.9-7.3c-1.8-0.8-3.6-1.5-5.5-2c-1.9-0.5-3.9-0.7-5.9-0.9   c-4-0.5-8-0.7-12-0.8C461.7,20.8,453.6,20.7,445.7,22.3z"></path>	</g>	<g>		<path class="st0" d="M550.4,117.1c-2.1-1-4.6-0.3-5.7,1.7v-0.1c9,21.2,18.1,42.4,26.4,63.9c4.1,10.7,8,21.7,11.7,32.5   c1.7,5.5,3.8,10.9,6.1,16.2c2.3,5.2,5.6,10,8.8,14.7c6.5,9.5,12.5,19.4,18.1,29.5c2.8,5.1,5.3,10.2,7.9,15.3   c2.4,5.2,5.1,10.3,8,15.2c1.5,2.4,3.2,4.7,5.1,6.8c1.9,2.1,4,4,6.2,5.8c4.4,3.6,9.2,6.8,13.9,10.4c4.6,3.5,8.8,7.6,12.4,12   c3.7,4.5,6.8,9.2,10.1,14.1l-0.1,0.1c-6.6-9.4-13.5-18.9-22.9-25.6c-4.6-3.4-9.5-6.6-14-10.2c-2.3-1.8-4.4-3.8-6.4-5.9   c-1.9-2.2-3.7-4.5-5.2-6.9c-3-4.9-5.7-10.1-8-15.3c-2.6-5.2-5.1-10.4-7.9-15.3c-5.5-10.1-11.4-20-17.9-29.5   c-3.2-4.8-6.5-9.6-8.8-15c-2.4-5.3-4.4-10.7-6-16.3c-3.5-11-7.4-21.8-11.5-32.6c-8.2-21.5-17-42.9-25.9-64l0,0   c1-1.9,3.3-2.7,5.2-1.8C550.2,117,550.3,117,550.4,117.1L550.4,117.1z"></path>		<path class="st0" d="M550.4,117.1c-1-0.5-2.1-0.6-3.2-0.3c-1,0.3-2,1-2.5,2l-0.1,0.1l0-0.2l0-0.1l0-0.2l0.1,0.2   c9.1,21.1,18.4,42.2,26.8,63.7c4.2,10.7,8.1,21.6,11.8,32.5c1.7,5.5,3.8,10.8,6.1,16.1c2.3,5.2,5.6,9.9,8.8,14.7   c6.5,9.5,12.6,19.3,18.2,29.4l8,15.4c2.4,5.2,5.1,10.3,8,15.2c1.4,2.4,3.2,4.7,5.1,6.7c2,2.1,4,4,6.2,5.8   c4.4,3.6,9.2,6.8,13.8,10.3c4.6,3.5,8.9,7.6,12.5,12.2c3.7,4.5,6.9,9.3,10.1,14.1l0.5,0.7l-0.6,0.6l-0.1,0.1l-0.8,0.8l-0.7-1   c-3.3-4.7-6.6-9.4-10.3-13.7c-3.7-4.4-7.8-8.4-12.4-11.7c-4.6-3.4-9.5-6.6-14-10.3c-2.3-1.8-4.4-3.8-6.5-5.9c-2-2.2-3.7-4.5-5.3-7   c-3-5-5.7-10.1-8-15.4c-2.5-5.1-5.1-10.3-7.9-15.3c-5.5-10.1-11.4-20-17.8-29.5c-3.2-4.8-6.4-9.7-8.7-15.1   c-2.3-5.3-4.3-10.8-5.9-16.3c-3.5-11-7.3-21.8-11.3-32.7c-8-21.6-16.7-43-25.5-64.3l0,0l0,0c0.5-1,1.4-1.7,2.5-2   C548.3,116.3,549.5,116.5,550.4,117.1L550.4,117.1L550.4,117.1z M550.4,117.1L550.4,117.1L550.4,117.1c-0.9-0.6-2.1-0.7-3.2-0.4   c-1,0.3-1.9,1.1-2.4,2l0,0c9.1,21.2,18.1,42.4,26.4,64c4.1,10.8,8,21.6,11.6,32.6c1.6,5.5,3.7,10.9,6,16.1   c2.3,5.2,5.5,10,8.7,14.8c6.6,9.5,12.5,19.4,18.1,29.6c2.8,5,5.4,10.2,8,15.4c2.3,5.3,5,10.3,8,15.2c1.5,2.4,3.3,4.7,5.1,6.8   c2,2,4.1,3.9,6.3,5.7c4.4,3.6,9.3,6.7,13.9,10.2c4.8,3.4,9,7.5,12.7,12c3.8,4.4,7.2,9.1,10.5,13.9l-1.5-0.1l0.1-0.1l-0.1,1.3   c-3.2-4.8-6.4-9.5-10-14c-3.6-4.4-7.7-8.4-12.2-11.9c-4.5-3.5-9.4-6.6-13.9-10.4c-2.2-1.9-4.4-3.9-6.4-6c-2-2.2-3.8-4.5-5.3-7   c-3-5-5.6-10.1-8.1-15.4l-7.9-15.3c-5.6-10-11.6-19.8-18-29.4c-3.2-4.8-6.5-9.6-8.8-15c-2.3-5.3-4.3-10.7-6.1-16.2   c-3.7-10.9-7.4-21.8-11.5-32.5c-8.1-21.5-17.1-42.8-26-64l0.1,0l0,0.1l-0.1,0c0.6-1,1.5-1.7,2.6-2   C548.3,116.5,549.4,116.6,550.4,117.1z"></path>	</g>	<g>		<path class="st0" d="M159.4,233.3c-1.2-3-1.9-6.1-2.2-9.3c-0.3-3.2-0.1-6.4,0.5-9.5c0.6-3.1,1.6-6.2,3-9c1.4-2.8,3.3-5.4,5.6-7.7   l0.7,0.7c-1.7,2.4-2.7,5.3-2.8,8.3c-0.3,3-0.3,6-0.2,9c0.1,3.1-0.1,6.1-0.6,9.1C162.9,228,161.8,231.2,159.4,233.3z M159.4,233.1   c1.8-2.4,2.9-5.3,3.2-8.3c0.3-3,0.3-6,0.2-9c-0.1-3,0-6.1,0.2-9.1c0.2-3.2,1.4-6.2,3.3-8.8l0.7,0.7c-2.3,2.1-4.2,4.6-5.6,7.3   c-1.5,2.7-2.5,5.7-3.2,8.8c-0.7,3-0.9,6.1-0.7,9.2C157.8,227.1,158.4,230.2,159.4,233.1z"></path>		<g>			<path class="st0" d="M159.4,233.3c-1.4-2.9-2.3-6-2.7-9.2c-0.4-3.2-0.3-6.5,0.2-9.7c0.5-3.2,1.5-6.3,2.9-9.3    c1.5-2.9,3.4-5.6,5.7-8l0.7-0.7l0.7,0.7l0.7,0.7l0.6,0.6l-0.5,0.7c-0.8,1.2-1.5,2.4-1.9,3.8c-0.5,1.4-0.7,2.7-0.8,4.2    c-0.3,3-0.4,6-0.4,9c0,3.1-0.3,6.2-1,9.2c-0.3,1.5-0.8,3-1.5,4.4C161.6,231.1,160.6,232.4,159.4,233.3z M159.4,233.3    c2.2-2.2,3.2-5.1,3.5-8.1c0.4-3,0.5-6,0.4-9c-0.2-3-0.2-6.1,0-9.2c0-3.1,1.1-6.4,2.9-9l0.1,1.3l-0.7-0.7l1.4,0    c-2.2,2.1-4,4.6-5.4,7.4c-1.4,2.7-2.4,5.7-3.1,8.7c-0.6,3-0.9,6.2-0.8,9.3C157.7,227.1,158.4,230.2,159.4,233.3z"></path>			<path class="st0" d="M159.4,233.1c1.6-2.6,2.6-5.5,2.7-8.5c0.1-3,0.1-6.1-0.1-9.1c-0.2-3.1-0.1-6.2,0.1-9.3    c0.3-3.2,1.5-6.3,3.4-8.9l0.7-0.9l0.8,0.8l0.7,0.7l0.7,0.7l-0.8,0.7c-2.2,2-4.1,4.4-5.5,7.1c-1.5,2.6-2.5,5.5-3.2,8.4    c-0.7,3-1.1,6-1,9.1C158.1,227.1,158.6,230.1,159.4,233.1z M159.4,233.1c-1.2-2.9-1.9-5.9-2.3-9.1c-0.3-3.1-0.2-6.3,0.4-9.4    c0.5-3.1,1.6-6.2,3.1-9c1.5-2.9,3.4-5.5,5.8-7.7l0,1.4l-0.7-0.7l1.5-0.1c-1.7,2.3-2.8,5.1-3.1,7.9c-0.3,3-0.5,6-0.5,9    c0,3.1-0.1,6.2-0.5,9.2C162.6,227.8,161.4,230.8,159.4,233.1z"></path>		</g>	</g>	<g>		<path class="st0" d="M188.8,212.3c-0.1,5.6-1.2,11.1-3.2,16.3c-0.9,2.7-2.1,5.2-3.6,7.5c-1.5,2.3-3.3,4.5-5.2,6.5l-0.1-0.1   c1.5-2.3,3-4.6,4.4-7.1s2.7-4.8,3.8-7.3C186.9,223.1,188.2,217.8,188.8,212.3L188.8,212.3z"></path>		<path class="st0" d="M188.8,212.3c0.2,2.8,0,5.6-0.4,8.4c-0.4,2.8-1.1,5.5-2,8.2c-0.8,2.7-2.1,5.3-3.6,7.8   c-1.5,2.4-3.3,4.6-5.3,6.7l-0.7,0.7l-0.7-0.7l-0.1-0.1l-0.6-0.6l0.4-0.7l4.4-6.9c1.4-2.4,2.7-4.7,3.9-7.1c1.1-2.5,2-5,2.8-7.6   C187.7,217.7,188.3,215,188.8,212.3L188.8,212.3L188.8,212.3z M188.8,212.3L188.8,212.3L188.8,212.3c-0.1,2.8-0.5,5.5-1,8.2   c-0.6,2.7-1.3,5.4-2.3,8c-1,2.6-2.4,5.1-3.7,7.5l-4.3,7.1l-0.1-1.2l0.1,0.1l-1.4,0c1.9-1.9,3.7-4,5.2-6.3c1.5-2.3,2.7-4.7,3.7-7.3   c1-2.6,1.9-5.2,2.5-7.9C188.1,217.8,188.5,215.1,188.8,212.3z"></path>	</g>	<g>		<path class="st0" d="M210.7,49.3c1.2,6.5,3,12.9,5.5,19.1c1.2,3,2.7,6.1,4.1,9.1s2.9,6,4.4,9l-0.1,0.1c-2-2.7-3.9-5.5-5.5-8.5   c-1.5-3-2.8-6.1-3.9-9.3C213,62.5,211.5,56,210.7,49.3L210.7,49.3z"></path>		<path class="st0" d="M210.7,49.3c0.8,3.2,1.7,6.4,2.7,9.6c1,3.2,2.2,6.3,3.5,9.3c1.5,3,2.8,6,4.3,9l4.4,9l0.3,0.6l-0.5,0.5   l-0.1,0.1l-0.8,0.8l-0.7-0.9c-2-2.7-3.9-5.6-5.5-8.6c-1.5-3.1-2.8-6.2-3.8-9.5c-1.1-3.2-1.9-6.5-2.5-9.8   C211.4,56,210.9,52.7,210.7,49.3L210.7,49.3L210.7,49.3z M210.7,49.3L210.7,49.3L210.7,49.3c0.6,3.3,1.3,6.6,2.2,9.8   c0.9,3.2,1.9,6.4,3.1,9.5c1.1,3.1,2.4,6.2,4,9.1c1.6,2.9,3.4,5.7,5.4,8.3l-1.5-0.1l0.1-0.1l-0.2,1.1l-4.3-9   c-1.3-3.1-2.7-6.1-4-9.2c-1.2-3.1-2.2-6.4-3-9.6C211.8,55.9,211.1,52.6,210.7,49.3z"></path>	</g>	<g>		<path class="st0" d="M118.9,96.5c0.3,6,2.2,11.8,5.6,16.8c1.7,2.4,3.8,4.6,6,6.6c2.2,2,4.6,3.7,7.2,5.2v0.1c-2.9-1-5.6-2.5-8-4.4   c-2.3-2-4.4-4.3-6-6.9C120.5,108.7,118.9,102.7,118.9,96.5L118.9,96.5z"></path>		<path class="st0" d="M118.9,96.5c0.4,3,1,5.9,2.1,8.6c1,2.7,2.4,5.4,4.1,7.7c1.8,2.3,3.8,4.5,6,6.3c2.2,1.9,4.6,3.7,7.1,5.1   l0.5,0.3l0,0.6l0,0.1l0,1.4l-1.3-0.4c-3-1-5.8-2.6-8.3-4.6c-2.4-2.1-4.4-4.5-6-7.2c-1.6-2.7-2.7-5.6-3.4-8.7   C119,102.7,118.7,99.6,118.9,96.5L118.9,96.5L118.9,96.5z M118.9,96.5L118.9,96.5L118.9,96.5c0.2,3.1,0.7,6.1,1.6,8.9   c0.9,2.9,2.2,5.6,3.8,8.1c1.6,2.5,3.6,4.7,5.9,6.6c2.3,1.8,4.9,3.2,7.7,4.2l-1.3,0.9l0-0.1l0.5,0.9c-2.6-1.5-5.1-3.4-7.3-5.4   c-2.3-2-4.3-4.3-6-6.9c-1.7-2.6-2.9-5.4-3.7-8.3C119.3,102.5,118.9,99.5,118.9,96.5z"></path>	</g>	<g>		<path class="st0" d="M224.9,58.7c1.3,3.6,2.6,7.2,3.8,10.8c0.6,1.8,1.3,3.5,1.8,5.5c0.5,1.8,0.9,3.7,1.2,5.6h-0.1   c-0.9-1.7-1.6-3.5-2.2-5.4c-0.6-1.8-1.1-3.6-1.6-5.5C226.7,66.1,225.7,62.5,224.9,58.7L224.9,58.7z"></path>		<path class="st0" d="M224.9,58.7l4.2,10.7c0.7,1.8,1.5,3.5,2.1,5.4c0.6,1.8,1.1,3.7,1.5,5.7l0.2,1.1l-1.2,0.1l-0.1,0l0,0l-0.6,0   l-0.3-0.6c-0.8-1.8-1.5-3.6-2-5.5l-1.4-5.6L224.9,58.7z M224.9,58.7l3.4,11l1.8,5.4c0.7,1.8,1.5,3.5,2.4,5.1l-0.9-0.6l0,0l0.1,0   l-1,1.1c-0.2-1.9-0.5-3.7-1-5.6c-0.4-1.8-1-3.6-1.6-5.5L224.9,58.7z"></path>	</g>	<g>		<path class="st0" d="M203.8,68.2c2.8,3,5.6,6,8.4,9c1.5,1.5,2.9,3,4.1,4.6c1.3,1.6,2.5,3.3,3.6,5l-0.1,0.1c-1.6-1.3-3-2.8-4.5-4.3   s-2.7-3.2-4-4.8C208.9,74.8,206.4,71.5,203.8,68.2L203.8,68.2z"></path>		<path class="st0" d="M203.8,68.2c1.5,1.5,3,3,4.5,4.5l4.3,4.2c1.5,1.4,3,2.9,4.3,4.5c1.4,1.5,2.7,3.2,3.9,4.9l0.4,0.6l-0.6,0.6   l-0.1,0.1l0,0l-0.7,0.7l-0.7-0.7l-4.4-4.5c-1.5-1.6-2.6-3.3-3.9-5L203.8,68.2L203.8,68.2L203.8,68.2z M203.8,68.2L203.8,68.2   L203.8,68.2l8,9.5c1.4,1.5,2.6,3.2,4.1,4.5l4.6,4l-1.4,0.1l0,0l0.1-0.1l-0.1,1.2c-1-1.8-2.1-3.4-3.4-5.1c-1.2-1.7-2.5-3.2-3.9-4.7   l-4.1-4.8C206.4,71.2,205.1,69.6,203.8,68.2z"></path>	</g>	<g>		<path class="st0" d="M341.4,57.2c-2.4,0.7-4.7,1.9-6.7,3.4c-2,1.5-3.8,3.2-5.4,5.1c-3.2,3.9-6.1,7.9-8.8,12.2   c-2.7,4.3-5.2,8.5-7.9,12.8l-7.9,12.8h-0.1c2.1-4.6,4.5-9,6.9-13.4s5.4-8.5,8.2-12.7c2.8-4.2,5.8-8.2,9-12.1   c1.7-1.9,3.6-3.6,5.6-5.1C336.5,58.9,338.9,57.9,341.4,57.2L341.4,57.2z"></path>		<path class="st0" d="M341.4,57.2c-4.8,1.6-8.6,5-11.7,8.9c-3.1,3.9-5.9,8-8.5,12.3c-5.1,8.6-10.4,17.1-15.6,25.6l-0.3,0.5l-0.6,0   l-0.1,0l-1.5,0l0.6-1.4c1.8-4.1,4-7.9,6.1-11.8c2.1-3.9,4.6-7.6,7.1-11.2c2.5-3.6,5-7.3,7.8-10.7c1.4-1.7,2.7-3.4,4.3-5.1   c1.6-1.6,3.3-3,5.1-4.3l0,0l0,0C336.4,58.7,338.9,57.8,341.4,57.2L341.4,57.2L341.4,57.2z M341.4,57.2L341.4,57.2L341.4,57.2   c-2.5,0.8-4.8,1.9-6.9,3.3l0,0c-1.7,1.4-3.3,2.9-4.7,4.5c-1.4,1.6-2.7,3.4-4,5.2c-1.3,1.8-2.6,3.6-3.8,5.4l-3.6,5.5   c-2.5,3.7-4.8,7.3-6.8,11.2c-2.1,3.9-4.2,7.7-6,11.7l-0.9-1.4l0.1,0l-0.8,0.5c5.3-8.5,10.6-17,16-25.4c2.7-4.2,5.8-8.3,9.1-12.1   c1.7-1.9,3.6-3.6,5.6-5.1C336.6,58.9,338.9,57.8,341.4,57.2z"></path>	</g>	<g>		<path class="st0" d="M356.3,52.8l-2.1,2.2l-1.8,2.3l-1.7,2.4l-1.5,2.6c-1.9,3.6-3.5,7.2-4.9,11c-1.4,3.8-3,7.5-4.8,11.1   c-1.8,3.7-4.1,7.1-6.8,10.1l-2.3,2.4l1.6-3c1.8-3.6,3.4-7.3,4.9-11.1c1.5-3.8,2.9-7.6,4.6-11.2c1.7-3.7,3.7-7.3,6.1-10.6   C350.1,57.9,353,55.1,356.3,52.8z M356.2,53c-3,2.6-5.7,5.6-8,8.9c-2.3,3.3-4.2,6.9-5.6,10.6c-1.6,3.7-3,7.4-4.6,11.2   s-3.2,7.4-5.1,11.1l-0.7-0.6c2.8-2.9,5.1-6.2,6.8-9.7c1.8-3.5,3.4-7.3,4.9-11s3.2-7.4,5.1-11l1.6-2.6l1.7-2.4l2-2.3   C354.8,54.3,355.5,53.6,356.2,53L356.2,53z"></path>		<g>			<path class="st0" d="M356.3,52.8c-0.7,0.7-1.3,1.5-2,2.3l0,0l-1.7,2.4L351,60l0,0c-1.7,3.1-3.1,6.3-4.4,9.6    c-0.6,1.6-1.2,3.3-1.8,5c-0.6,1.7-1.2,3.4-1.9,5c-0.7,1.7-1.4,3.3-2.2,4.9c-0.8,1.6-1.6,3.2-2.6,4.8c-1,1.5-2,3-3.2,4.4    c-1.1,1.4-2.4,2.7-3.6,4l-5.6,6l4-7.2c2.1-3.8,3.9-7.6,5.5-11.6c1.6-4,3.2-8.1,5-12c1.8-4,4-7.8,6.5-11.3    C349.4,58.1,352.6,55.1,356.3,52.8z M356.3,52.8c-3.5,2.6-6.5,5.7-8.8,9.3c-2.4,3.6-4.3,7.4-5.9,11.4c-1.7,4-3.1,8-4.7,12.1    c-1.6,4-3.5,8-5.5,11.8l-1.6-1.2c1.2-1.3,2.5-2.5,3.6-3.9c1.1-1.3,2.1-2.7,3.1-4.2c0.9-1.5,1.8-3,2.6-4.5    c0.8-1.6,1.5-3.2,2.3-4.8c0.7-1.6,1.4-3.2,2.1-4.9c0.6-1.6,1.3-3.3,2-5c1.5-3.2,3.1-6.5,5-9.5l0,0l1.8-2.4l1.9-2.3l0,0l0,0    C354.8,54.3,355.6,53.6,356.3,52.8z"></path>			<path class="st0" d="M356.2,53c-2.9,2.8-5.5,5.9-7.7,9.2c-2.2,3.4-3.9,6.9-5.3,10.7c-1.5,3.8-3,7.5-4.5,11.2    c-1.5,3.7-3.2,7.4-5,11.1l-0.6,1.1l-1-0.8l-0.7-0.6l-0.8-0.7l0.7-0.8c2.4-2.5,4.4-5.2,6-8.2c1.7-3,3.1-6.2,4.5-9.4    c1.4-3.2,2.7-6.5,4.4-9.6c0.8-1.6,1.6-3.1,2.6-4.6c0.5-0.7,1-1.5,1.5-2.2l1.6-2.1l0,0l0,0l2-2.2C354.7,54.3,355.4,53.6,356.2,53z     M356.2,53c-0.7,0.7-1.4,1.4-1.9,2.2l-1.8,2.3l0,0c-2,2.9-3.6,6-5,9.1c-0.7,1.6-1.4,3.2-2,4.8l-1.9,4.9c-1.3,3.3-2.7,6.5-4.3,9.7    c-1.7,3.2-3.8,6.1-6.3,8.7l-0.1-1.5l0.7,0.6l-1.5,0.3c1.9-3.5,3.5-7.2,5.1-10.9c1.6-3.7,3.1-7.4,4.8-11.1    c1.5-3.8,3.5-7.4,5.9-10.6C350.2,58.4,353,55.4,356.2,53z"></path>		</g>	</g>	<g>		<path class="st0" d="M344.4,97.3c1.7-6,4.5-11.6,8.3-16.6c1.9-2.5,4.1-4.8,6.5-6.8c2.4-2,5.1-3.7,7.9-5V69   c-2.5,1.7-4.9,3.6-7.2,5.7c-2.3,2-4.5,4.2-6.5,6.6C349.6,86,346.5,91.4,344.4,97.3L344.4,97.3z"></path>		<path class="st0" d="M344.4,97.3c0.6-3.1,1.7-6,2.9-8.9c1.3-2.9,2.9-5.6,4.8-8.2c1.9-2.6,4-4.9,6.4-7c2.5-2.1,5.2-3.8,8.1-5.2   l1.4-0.7l0,1.6l0,0.1l0,0.5l-0.4,0.3c-2.5,1.7-4.9,3.6-7.1,5.6c-2.3,1.9-4.5,4.1-6.5,6.3c-2,2.3-3.8,4.7-5.3,7.3   C347,91.7,345.7,94.4,344.4,97.3L344.4,97.3L344.4,97.3z M344.4,97.3L344.4,97.3L344.4,97.3c0.9-3,2-5.9,3.4-8.6   c1.4-2.8,3.1-5.4,5-7.8c1.9-2.5,4.1-4.7,6.4-6.8c2.3-2.1,4.7-4.1,7.3-5.8l-0.4,0.8l0-0.1l1.4,0.9c-2.8,1.3-5.4,2.9-7.7,4.8   c-2.4,1.9-4.5,4.1-6.4,6.5c-1.9,2.4-3.6,5-5.1,7.7C346.7,91.5,345.5,94.3,344.4,97.3z"></path>	</g>	<g>		<path class="st0" d="M361,172.1c1.4-0.2,2.8-0.7,4-1.5c1.2-0.8,2.2-1.8,3.2-2.9c1.8-2.3,3.3-4.7,4.6-7.3l8.8-15.1l1.8-3.2   l-1.1,3.5c-2.4,7.9-4.6,15.9-8,23.6c-1.7,3.8-3.8,7.5-6.4,10.8c-2.5,3.4-5.7,6.2-9.4,8.3v-0.1c3.4-2.3,6.4-5.2,8.6-8.6   c2.3-3.4,4.3-7,5.8-10.8c1.7-3.8,3.2-7.7,4.5-11.6s2.5-7.9,3.9-11.8l0.7,0.4l-9,14.9c-1.4,2.5-3,4.9-4.9,7.2   c-1,1.1-2.1,2.1-3.3,2.9C363.8,171.7,362.4,172.1,361,172.1L361,172.1z"></path>		<path class="st0" d="M361,172.1c3.2-0.4,5.8-2.8,7.6-5.3c0.9-1.3,1.8-2.6,2.5-4c0.8-1.4,1.5-2.8,2.3-4.2   c3.1-5.6,6.3-11.2,9.4-16.7l3-5.4l-1.7,5.9l-3.8,12.9c-1.3,4.3-2.7,8.6-4.5,12.8c-1.7,4.2-3.9,8.3-6.6,12   c-2.6,3.8-6.1,7.1-10.2,9.3l-1.5,0.8l0-1.7l0-0.1l0-0.5l0.4-0.3c3.3-2.2,6.2-5.1,8.5-8.4c2.3-3.4,4.2-6.9,5.8-10.7   c1.7-3.7,3.1-7.6,4.5-11.4l4-11.7l0.2-0.7l0.7,0.4l0.7,0.4l0.6,0.3l-0.4,0.6c-3.1,4.9-6.1,9.8-9.2,14.7c-1.5,2.5-3.1,4.9-5,7.1   c-1,1.1-2.1,2-3.3,2.8C363.9,171.7,362.4,172.2,361,172.1z M361,172.1c1.5,0,2.9-0.6,4-1.5c1.2-0.9,2.2-1.8,3.1-2.9   c1.8-2.3,3.4-4.7,4.7-7.2c2.9-5,5.9-10,8.8-15l0.3,0.9l-0.7-0.4l0.9-0.4l-3.7,11.8c-1.3,3.9-2.8,7.8-4.4,11.6   c-1.6,3.8-3.6,7.6-5.9,11c-2.3,3.5-5.4,6.6-8.9,9l0.4-0.8l0,0.1l-1.5-0.9c3.8-2.1,7.1-5.1,9.6-8.7c2.6-3.6,4.8-7.4,6.5-11.5   c1.7-4.1,3.2-8.3,4.5-12.6c1.4-4.3,2.7-8.6,4.1-12.8l1.3,0.6c-3.3,5.5-6.5,11-9.9,16.5c-0.9,1.3-1.6,2.8-2.4,4.1   c-0.8,1.4-1.8,2.7-2.7,4c-1,1.3-2.2,2.4-3.5,3.4C364.1,171.4,362.6,172,361,172.1z"></path>	</g>	<g>		<path class="st0" d="M388.9,170.6c-3.4,4.8-7.6,9-12.4,12.3c-4.8,3.4-9.8,6.4-15.1,9c-5.1,2.8-10.3,5.6-15.6,8.2   s-10.5,5.2-15.8,7.5v-0.1c5-3,10.2-5.7,15.3-8.5s10.5-5.4,15.6-7.9c5.2-2.6,10.3-5.5,15.2-8.6C381,179.2,385.3,175.2,388.9,170.6z   "></path>		<path class="st0" d="M388.9,170.6c-3.2,4.9-7.4,9.2-12.1,12.7c-4.7,3.5-9.8,6.6-15,9.3l-15.5,8.3c-5.2,2.6-10.5,5.3-15.9,7.6   l-1.4,0.6l0-1.5l0-0.1l0-0.6l0.5-0.3c5-3.1,10.3-5.7,15.4-8.5l15.7-7.8c5.2-2.5,10.4-5.3,15.3-8.4   C380.8,179,385.2,175.1,388.9,170.6z M388.9,170.6c-3.4,4.8-7.7,8.9-12.5,12.2c-4.8,3.3-9.9,6.3-15.1,8.9l-15.5,8.1   c-5.1,2.8-10.3,5.5-15.2,8.5l0.5-0.9l0,0.1l-1.4-0.9c5.3-2.3,10.6-4.9,15.8-7.5l15.6-8c5.3-2.6,10.3-5.4,15.2-8.7   C381.1,179.3,385.3,175.2,388.9,170.6z"></path>	</g>	<g>		<path class="st0" d="M273.4,297.2c1,0.7,1.8,1.8,2.2,2.9c0.5,1.1,1,2.2,1.3,3.4c0.9,2.2,1.7,4.6,3.3,6.3c1.8,1.6,3.9,2.9,6.1,3.9   c2.2,1,4.5,1.8,6.8,2.4c9.2,2.6,18.6,5,28,7.5l14,3.6c4.6,1.2,9.4,2.4,14.1,3.3c4.7,1,9.5,1.5,14.4,1.6c4.8,0,9.6-0.5,14.2-1.7   v0.1c-4.6,1.5-9.5,2.4-14.4,2.4c-4.9,0-9.7-0.4-14.5-1.2c-9.6-1.8-18.9-4.6-28.1-7.2s-18.6-5.1-28-7.9c-2.3-0.7-4.6-1.6-6.8-2.5   c-2.2-1-4.3-2.4-6.1-4c-1.7-1.8-2.4-4.3-3.3-6.5c-0.4-1.2-0.8-2.3-1.3-3.4C275,299.1,274.4,298.1,273.4,297.2L273.4,297.2z"></path>		<path class="st0" d="M273.4,297.2c1,0.7,1.8,1.7,2.3,2.9l0,0l2.1,5c0.7,1.7,1.5,3.3,2.7,4.6l0,0c1.6,1.3,3.4,2.5,5.3,3.4   c1.9,0.9,3.9,1.6,5.9,2.2l12.2,3.2c8.2,2.1,16.3,4.3,24.5,6.3l12.3,3.1c2,0.5,4.1,1,6.1,1.4l3.1,0.6c1,0.2,2.1,0.4,3.1,0.6   c4.1,0.7,8.3,1,12.4,0.9c4.1-0.1,8.3-0.7,12.3-1.7l1.2-0.3l0,1.3l0,0.1l0,0.7l-0.7,0.2c-4.1,1.4-8.4,2.2-12.7,2.4   c-4.3,0.2-8.6-0.1-12.9-0.6c-2.1-0.3-4.3-0.7-6.3-1.1c-2.1-0.4-4.2-0.9-6.2-1.4c-4.1-1-8.2-2.2-12.3-3.3l-24.5-7.1l-6.1-1.8   c-2-0.6-4.1-1.1-6.1-1.9c-2-0.7-4-1.5-5.9-2.5c-1.9-1-3.7-2.3-5.3-3.7l0,0l0,0c-1.3-1.4-2-3.2-2.6-4.9l-1.9-5.1l0,0   C275,299.2,274.3,298.1,273.4,297.2L273.4,297.2L273.4,297.2z M273.4,297.2L273.4,297.2L273.4,297.2c0.9,0.9,1.7,2,2,3.2l0,0   c0.7,1.7,1.4,3.4,2.1,5.1c0.7,1.7,1.4,3.4,2.7,4.6l0,0c1.6,1.4,3.4,2.5,5.2,3.5c1.9,0.9,3.9,1.6,5.9,2.3c2,0.7,4.1,1.2,6.1,1.7   l6.1,1.7l24.6,6.7c4.1,1.1,8.2,2.2,12.3,3.2c2.1,0.5,4.1,1,6.2,1.4c2.1,0.4,4.1,0.8,6.2,1c4.2,0.5,8.4,0.8,12.5,0.6   c4.2-0.2,8.3-1,12.2-2.4l-0.7,0.9l0-0.1l1.2,1c-4.2,1-8.5,1.6-12.7,1.7c-4.3,0.1-8.6-0.3-12.8-1c-1.1-0.2-2.1-0.4-3.1-0.6   l-3.1-0.6c-2.1-0.4-4.1-0.9-6.2-1.4l-12.3-3.2c-8.2-2.2-16.3-4.5-24.4-6.8c-4.1-1.2-8.1-2.2-12.2-3.5c-2-0.7-4-1.5-5.9-2.4   c-1.9-1-3.7-2.2-5.3-3.6l0,0l0,0c-1.3-1.4-2-3.1-2.6-4.8l-1.9-5.1l0,0C275.2,299,274.4,297.9,273.4,297.2z"></path>	</g>	<g>		<path class="st0" d="M308.2,330.2c-3.2,0-6.2-1.5-8.1-4l-0.4-0.4l0.5,0.2c14.8,5.9,29.9,11.1,45.3,15.5c7.7,2.2,15.5,4,23.1,6   c3.9,1,7.8,1.8,11.7,2.7c3.9,0.9,7.8,1.2,11.8,1v0.1c-4,0.5-8,0.4-11.9-0.4l-5.8-1.1c-2-0.4-3.9-0.9-5.8-1.2   c-7.8-1.7-15.6-3.8-23.1-6.1c-15.3-4.5-30.4-9.9-45-16.2l0.1-0.2c1.9,2.5,4.8,4,7.9,4.1L308.2,330.2z"></path>		<path class="st0" d="M308.2,330.2c-1.6,0.1-3.2-0.3-4.6-0.9c-1.4-0.7-2.7-1.7-3.7-2.9l0,0l-0.4-0.4l-0.9-0.9l1.1,0.5l0.5,0.2l0,0   c7.4,2.8,15,5.5,22.5,8c7.6,2.5,15.2,4.8,22.9,6.9l23.2,5.9l11.6,2.6c3.8,0.9,7.7,1.2,11.6,1l1.1-0.1l0,1.1l0,0.1l0,0.9l-0.9,0.1   c-4.1,0.5-8.2,0.3-12.2-0.4l-5.9-1.1l-5.9-1.2c-7.8-1.8-15.6-3.8-23.2-6.2c-7.6-2.3-15.2-4.9-22.7-7.7c-7.5-2.8-14.9-5.8-22.2-9.1   l-0.2-0.1l0.1-0.2l0.1-0.2l0.1-0.3l0.2,0.3c1.8,2.4,4.7,4.1,7.8,4.3l0,0L308.2,330.2z M308.2,330.2l0.1,0.1l0,0l0,0   c-3.1-0.1-6.1-1.5-8.1-4l0.3,0l-0.1,0.3l-0.1-0.3c7.4,3,14.9,5.8,22.4,8.4c7.5,2.6,15.1,5,22.8,7.2c7.6,2.3,15.3,4.3,23.1,6   l5.8,1.2l5.9,1.1c3.8,0.7,7.8,0.8,11.6,0.3l-0.9,1l0-0.1l1.1,1c-4.1,0.2-8.2-0.2-12.1-1.1l-11.7-2.7l-23.1-6.1   c-7.7-2.3-15.3-4.7-22.8-7.4c-7.5-2.6-15-5.6-22.3-8.7l0,0l0,0l-0.5-0.2l0.2-0.3l0.4,0.4l0,0l0,0   C302.1,328.5,305.1,330.1,308.2,330.2z"></path>	</g>	<g>		<path class="st0" d="M264.8,293.1c-2.3-1.5-4-3.6-5.1-6.1c-1.1-2.5-1.7-5.1-1.8-7.8c-0.1-2.7,0.3-5.4,1-8c0.8-2.6,1.8-5.1,3-7.4   h0.1c-0.6,2.6-1.5,5.1-2,7.7c-0.6,2.5-1,5.1-1.2,7.7c-0.1,2.6,0.4,5.1,1.3,7.5C261,289.3,262.6,291.5,264.8,293.1L264.8,293.1z"></path>		<path class="st0" d="M264.8,293.1c-2.4-1.3-4.3-3.4-5.6-5.9c-1.2-2.5-2-5.2-2.2-8c-0.2-2.8,0.1-5.6,0.9-8.3c0.8-2.6,1.8-5.2,3-7.7   l0.3-0.5l0.6,0l0.1,0l1.3,0l-0.3,1.2c-0.6,2.6-1.5,5.1-2,7.6c-0.7,2.5-1.1,5-1.4,7.6c-0.1,2.5,0.2,5.1,1.1,7.5   C261.4,289.1,262.8,291.4,264.8,293.1L264.8,293.1L264.8,293.1z M264.8,293.1L264.8,293.1L264.8,293.1L264.8,293.1   c-2.2-1.4-4-3.6-5.1-6.1c-1.1-2.5-1.7-5.1-1.7-7.9c0.1-2.7,0.5-5.4,1.1-7.9c0.5-2.6,1.4-5.1,1.9-7.6l1,1.2l-0.1,0l0.9-0.5   c-1.2,2.3-2.2,4.8-3,7.3c-0.8,2.5-1.1,5.1-1.1,7.7c0,2.6,0.5,5.2,1.5,7.6C261,289.3,262.7,291.5,264.8,293.1z"></path>	</g>	<g>		<path class="st0" d="M451.6,395.9c11.7,5.2,24.2,8.3,37,9.3c6.4,0.5,12.8,0.5,19.1-0.1c1.6-0.1,3.2-0.4,4.8-0.5l4.7-0.7l4.6-1   c1.6-0.4,3.1-0.7,4.8-0.9c1.7-0.1,3.4,0,5,0.5c1.5,0.7,3,1.5,4.3,2.6c2.6,1.9,5.1,3.9,7.7,5.7c5.1,3.8,10.5,7.3,16,10.6   c10.8,6.7,22.1,12.7,33.7,18v0.1c-11.9-4.7-23.4-10.5-34.3-17.2c-5.5-3.4-10.8-6.9-16-10.7l-7.7-5.8c-1.2-1-2.5-1.8-3.9-2.4   c-1.5-0.5-3-0.6-4.5-0.5c-1.6,0.1-3,0.5-4.6,0.7l-4.8,0.9l-4.8,0.7c-1.6,0.1-3.2,0.4-4.8,0.5c-6.4,0.5-12.8,0.5-19.2-0.1   C475.8,404.5,463.3,401.3,451.6,395.9L451.6,395.9z"></path>		<path class="st0" d="M451.6,395.9c9.6,4,19.6,6.8,29.9,8.1c5.1,0.6,10.3,1,15.5,0.9c2.6,0,5.2-0.1,7.7-0.3   c2.6-0.2,5.2-0.5,7.7-0.8l-0.1,0l4.8-0.8l4.7-1.1c1.6-0.4,3.2-0.7,4.9-0.9c1.7-0.1,3.4,0,5.1,0.5l0,0l0.1,0   c1.4,0.6,2.8,1.4,4.1,2.3l3.6,2.7c2.4,1.8,4.8,3.6,7.2,5.3c4.9,3.5,9.9,6.6,15.1,9.7c10.2,6.2,20.8,11.8,31.7,16.7l0.6,0.3l0,0.6   l0,0.1l0,1.5l-1.4-0.5c-11.2-4.5-22-9.8-32.3-16c-5.2-3.1-10.2-6.4-15.1-9.9c-2.5-1.7-4.8-3.6-7.2-5.4l-3.6-2.8   c-1.1-0.9-2.3-1.7-3.6-2.3l0.1,0c-1.4-0.5-2.9-0.6-4.3-0.5c-1.5,0.1-3,0.5-4.6,0.7l-4.6,0.8l-4.7,0.7l0,0l0,0   c-5.2,0.6-10.4,0.9-15.7,0.7c-2.6-0.1-5.2-0.2-7.8-0.5c-2.6-0.2-5.2-0.5-7.8-0.9c-5.2-0.8-10.3-2-15.3-3.5   C461.1,400.1,456.3,398.1,451.6,395.9L451.6,395.9L451.6,395.9z M451.6,395.9L451.6,395.9L451.6,395.9c9.6,4.2,19.7,7.1,30,8.4   c2.6,0.3,5.2,0.6,7.8,0.7c2.6,0.2,5.2,0.3,7.8,0.4c5.2,0.1,10.4-0.3,15.6-0.9l-0.1,0l4.7-0.7l4.6-0.9c1.5-0.2,3.1-0.6,4.7-0.8   c1.6-0.2,3.4,0,5,0.5l0,0l0,0c1.5,0.6,2.8,1.5,4,2.5l3.6,2.7c2.4,1.8,4.7,3.6,7.2,5.3c4.9,3.4,9.9,6.7,15,9.7   c10.3,6.1,21,11.4,32.1,15.7l-1.4,0.9l0-0.1l0.6,0.9c-10.9-5-21.6-10.7-31.8-16.9c-5.1-3.1-10.2-6.3-15.1-9.8   c-2.5-1.7-4.8-3.6-7.2-5.4c-1.2-0.9-2.4-1.8-3.6-2.7c-1.1-0.9-2.4-1.6-3.7-2.2l0.1,0c-1.5-0.4-3-0.6-4.5-0.5   c-1.5,0.1-3.1,0.4-4.7,0.8l-4.8,1l-4.8,0.7l0,0l0,0c-2.6,0.2-5.1,0.5-7.8,0.7c-2.6,0.2-5.2,0.2-7.8,0.2   c-5.2-0.1-10.4-0.5-15.6-1.3c-5.1-0.8-10.2-1.9-15.2-3.4C461.1,399.9,456.3,398.1,451.6,395.9z"></path>	</g>	<g>		<path class="st1" d="M90.5,160.4c1.9-1.9,4-4,6.7-4.5s5.7,0.9,8.3,2.2c8.4,4.3,16.7,8.5,25.1,12.7c2.4,1.2,5.1,2.7,6.3,5.2   c0.7,1.6,1,3.4,0.7,5.1c-1.1,12.4-3,35.3-16.3,39.2c-4.4,1.2-8,0-13-1.8c-15.2-5.4-25.7-20.6-25.7-20.6l0,0c0,0-3-7.2-3.7-12.3   C77.7,174.8,85.3,165.4,90.5,160.4z"></path>		<path class="st0" d="M90.5,160.4c1.1-1.1,2.2-2.2,3.5-3.1c1.3-0.9,2.8-1.5,4.4-1.5c1.6,0,3.1,0.5,4.6,1.1c1.5,0.6,2.8,1.3,4.2,2   c5.6,2.8,11.2,5.5,16.9,8.2c2.8,1.4,5.6,2.7,8.4,4.1c1.4,0.8,2.8,1.7,3.9,2.9c0.5,0.6,1,1.4,1.3,2.2c0.3,0.8,0.5,1.6,0.6,2.4   c0.1,0.8,0.1,1.7,0,2.5l-0.2,2.3c-0.1,1.6-0.2,3.1-0.4,4.7c-0.3,3.1-0.7,6.3-1.3,9.4c-0.6,3.1-1.3,6.2-2.3,9.2   c-1.1,3-2.4,6-4.4,8.6c-2,2.6-4.7,4.8-8,5.8c-1.6,0.5-3.3,0.7-5,0.5c-1.7-0.1-3.3-0.5-4.8-1c-1.5-0.5-3-1-4.5-1.6l-2.2-0.9   c-0.7-0.3-1.4-0.7-2.1-1.1c-2.8-1.5-5.5-3.3-7.9-5.2c-4.9-4-9.3-8.6-12.9-13.8l0,0l0,0c-1.3-3.3-2.3-6.6-3.1-10   c-0.8-3.4-0.6-7,0.3-10.4c0.9-3.4,2.5-6.5,4.4-9.4C85.7,165.5,88,162.9,90.5,160.4z M90.5,160.4c-2.5,2.4-4.7,5.1-6.6,8   c-1.9,2.9-3.4,6.1-4.2,9.4c-0.8,3.4-0.9,6.9,0,10.2c0.8,3.3,2,6.6,3.3,9.8l0-0.1c3.7,4.9,8.2,9.4,13.1,13.1   c2.5,1.8,5.1,3.5,7.9,4.8c0.7,0.3,1.4,0.7,2.1,1l2.1,0.8c1.4,0.5,2.9,1.1,4.4,1.5c1.5,0.4,2.9,0.8,4.4,0.9   c1.5,0.1,2.9-0.1,4.3-0.5c2.8-0.8,5.1-2.8,6.9-5.1c1.8-2.4,3.1-5.1,4.2-8c1-2.9,1.8-5.9,2.4-8.9c0.6-3,1.1-6.1,1.5-9.2   c0.2-1.5,0.4-3.1,0.5-4.6l0.2-2.3c0.1-0.8,0.1-1.5,0.1-2.2c-0.2-1.5-0.6-2.9-1.5-4c-0.9-1.1-2.2-2-3.5-2.8   c-2.7-1.5-5.5-2.9-8.3-4.4c-5.5-2.9-11.1-5.8-16.6-8.7c-1.4-0.7-2.8-1.5-4.2-2.1c-1.4-0.6-3-1.1-4.5-1.1c-1.6,0-3.1,0.6-4.4,1.5   C92.7,158.2,91.6,159.4,90.5,160.4z"></path>	</g>	<g>		<path class="st0" d="M90.3,160.3c1.1-1.1,2.3-2.2,3.5-3.2c1.3-0.9,2.8-1.4,4.4-1.5c1.6,0.1,3.1,0.4,4.6,1c1.5,0.6,2.8,1.3,4.3,2.1   l16.8,8.4c2.8,1.5,5.6,2.8,8.4,4.3c1.5,0.7,2.7,1.7,3.8,2.9c1.1,1.2,1.7,2.8,1.8,4.4c0.1,1.6,0,3.2-0.1,4.7l-0.5,4.6   c-0.4,3.2-0.7,6.2-1.3,9.2c-0.6,3.1-1.4,6.1-2.3,9.1c-1,3-2.4,5.8-4.3,8.4c-1.9,2.7-4.6,4.7-7.7,5.7c-1.6,0.5-3.2,0.7-4.9,0.6   c-1.6-0.2-3.2-0.5-4.7-1c-1.5-0.5-3-1-4.5-1.5l-2.2-0.9c-0.7-0.4-1.4-0.7-2.2-1c-2.8-1.5-5.5-3.2-8-5.1c-2.5-1.9-4.9-4.1-7.1-6.3   c-1.1-1.1-2.2-2.3-3.2-3.5l-1.5-1.8l-0.7-1l-0.4-0.5c-0.1-0.1-0.2-0.2-0.2-0.4l0.2-1c-0.1,0-0.2,0-0.4,0.2   c-0.1,0.1-0.1,0.2-0.1,0.4l0,0v-0.1l-0.1-0.4l-0.2-0.6l-0.5-1.2c-0.2-0.9-0.6-1.6-0.8-2.4c-0.5-1.7-1-3.3-1.3-5   c-0.8-3.4-0.8-7,0.2-10.4c0.9-3.3,2.4-6.5,4.4-9.4C85.6,165.5,87.8,162.8,90.3,160.3z M90.5,160.4c-2.4,2.4-4.6,5.1-6.5,8   c-1.9,2.9-3.3,6.1-4.1,9.4c-0.8,3.3-0.7,6.8,0.1,10.1c0.4,1.7,1,3.3,1.5,4.9c0.2,0.9,0.6,1.6,0.8,2.4l0.5,1.2l0.2,0.6l0.1,0.2   l0.1,0.1v0.1c0,0.1,0.1,0.2,0,0.5l-0.2,0.2l0.2-1l0.7,1l0.7,0.9l1.5,1.8c1,1.2,2,2.3,3.2,3.4c2.2,2.2,4.5,4.3,6.9,6.2   c2.5,1.9,5.1,3.5,7.8,5c0.7,0.4,1.4,0.7,2.1,1l2.2,0.9c1.5,0.6,2.9,1.1,4.4,1.6c2.8,1.1,5.9,1.2,8.9,0.5c2.9-0.9,5.4-2.8,7.2-5.2   c1.8-2.5,3.2-5.2,4.3-8.1c1-2.9,1.9-5.9,2.4-9c0.6-3.1,1.1-6.1,1.3-9.2l0.5-4.6c0.2-1.5,0.3-3.1,0.2-4.6c-0.1-1.5-0.7-3-1.7-4.1   c-1.1-1.1-2.3-2-3.7-2.8c-2.7-1.5-5.6-2.9-8.3-4.3l-16.7-8.5c-1.4-0.8-2.8-1.5-4.3-2.1c-1.4-0.7-3-1.1-4.5-1.1   c-1.6,0.1-3.1,0.6-4.4,1.5C92.8,158.2,91.6,159.3,90.5,160.4z"></path>		<g>			<path class="st0" d="M90.3,160.3c1.1-1.1,2.3-2.2,3.5-3.2c1.3-0.9,2.8-1.4,4.4-1.5l0,0c1.1,0.1,2.3,0.2,3.4,0.6    c1.1,0.3,2.1,0.8,3.1,1.3c2.1,1,4.1,2,6.2,3l12.3,5.9l6.1,3l3.1,1.5c1.1,0.5,2.1,1.1,3,1.9c0.4,0.4,0.9,0.8,1.2,1.3    c0.4,0.5,0.7,1,1,1.5c0.6,1.1,0.9,2.3,0.9,3.5c0.1,1.2,0.1,2.3,0,3.5c-0.1,1.2-0.2,2.3-0.3,3.4c-0.4,4.5-0.9,9.1-1.8,13.6    c-0.5,2.3-1,4.5-1.7,6.7c-0.7,2.2-1.7,4.4-2.8,6.4c-0.6,1-1.2,2-1.9,3c-0.7,1-1.5,1.9-2.5,2.7c-1.9,1.6-4,2.7-6.4,3.4    c-1.2,0.3-2.4,0.4-3.6,0.4c-1.3,0-2.4-0.2-3.6-0.5c-1.2-0.3-2.3-0.7-3.3-1l-3.2-1.1l-0.1,0l0,0l-2.2-0.9l0,0l-0.1,0l-2.1-1    l-0.1,0c-2.1-1.1-4.1-2.4-6.1-3.8c-1.9-1.4-3.8-3-5.5-4.6c-1.8-1.6-3.4-3.3-5-5.1c-0.8-0.9-1.6-1.8-2.3-2.7    c-0.4-0.5-0.7-0.9-1.1-1.4l-0.5-0.7l-0.3-0.3l-0.3-0.4l-0.1-0.1l0-0.2l0.3-1l0.4,0.5c-0.1,0,0,0,0,0c0,0,0,0,0,0l0,0.1l0,0    c0,0,0,0.1,0,0.1l-0.8,0l0-0.1l0,0.1c-0.1-0.4-0.3-0.7-0.4-1.1l-0.4-1.1l0,0l0,0c-0.2-0.8-0.5-1.5-0.8-2.3l-0.7-2.4    c-0.4-1.6-0.8-3.2-1-4.8c-0.4-3.3,0-6.6,1.1-9.7c1.1-3.1,2.6-6,4.5-8.7C85.9,165.1,88,162.6,90.3,160.3z M90.3,160.3    c-2.3,2.3-4.4,4.8-6.4,7.4c-1.9,2.6-3.4,5.6-4.4,8.7c-1,3.1-1.4,6.4-0.8,9.6c0.3,1.6,0.7,3.2,1.1,4.7l0.7,2.3    c0.2,0.7,0.6,1.5,0.9,2.3l0,0l0.5,1.1c0.1,0.4,0.3,0.7,0.4,1.1l0,0.1l0,0.1l0,0.1l-0.8,0c0-0.2,0.1-0.4,0.2-0.6l-0.1,0.1    c0-0.1,0.1-0.2,0.2-0.3c0.1-0.1,0.4-0.2,0.5-0.2l0.5,0.1l-0.1,0.4l-0.2,1l0-0.3l0.2,0.3l0.3,0.4l0.5,0.7c0.3,0.5,0.7,0.9,1.1,1.4    c0.7,0.9,1.6,1.8,2.3,2.6c1.5,1.7,3.3,3.4,5,4.9c1.8,1.5,3.6,3,5.5,4.3c1.9,1.3,3.9,2.5,6,3.5l-0.1,0l2.3,1l-0.1,0l2.2,0.8    l-0.1,0l3.3,1c1.1,0.3,2.1,0.7,3.2,0.9c1,0.2,2.2,0.4,3.2,0.4c1.1,0,2.1-0.1,3.1-0.4c2-0.5,4-1.6,5.6-3c0.8-0.7,1.5-1.5,2.2-2.3    c0.6-0.9,1.3-1.8,1.8-2.8c1.1-1.9,2-3.9,2.7-6c0.7-2.1,1.3-4.3,1.8-6.5c1-4.4,1.6-8.9,2.1-13.4c0.3-2.3,0.6-4.5,0.5-6.7    c0-1.1-0.2-2.1-0.7-3.1c-0.4-0.9-1.2-1.8-1.9-2.5c-0.8-0.7-1.7-1.3-2.7-1.8l-3-1.6l-6-3.2l-12.1-6.3c-2-1-4-2.1-6.1-3.1    c-1-0.5-2-1.1-3.1-1.4c-1.1-0.3-2.2-0.5-3.3-0.6l0,0c-1.6,0-3.1,0.6-4.4,1.5C92.6,158.2,91.4,159.2,90.3,160.3z"></path>			<path class="st0" d="M90.5,160.4c-2.3,2.3-4.3,4.8-6.1,7.4c-1.8,2.7-3.2,5.6-4.1,8.7c-0.9,3.1-1.1,6.3-0.5,9.5    c0.3,1.6,0.7,3.1,1.2,4.6c0.3,0.8,0.5,1.5,0.8,2.3c0.2,0.7,0.6,1.5,0.8,2.3l0,0l0.8,1.8l0,0l0.1,0.2l-0.1-0.1l0.1,0.1l0.1,0.1    l0,0.2c0,0,0,0.2,0,0.1c0,0,0,0,0,0.1c0.1,0.2,0,0.5-0.1,0.6l0,0.1l0,0l-0.2,0.3l-1,1.1l0.3-1.5l0.2-1l0.2-0.9l0.6,0.7l0.7,1l0,0    c0.6,0.7,1.2,1.4,1.9,2.2c0.6,0.7,1.3,1.4,1.9,2.1c0.7,0.7,1.3,1.4,2,2c0.7,0.7,1.4,1.3,2.1,1.9c1.4,1.3,2.9,2.5,4.3,3.6    c1.5,1.1,3.1,2.2,4.7,3.1c1.6,1,3.3,1.9,4.9,2.6c0.8,0.4,1.8,0.7,2.6,1l2.7,0.9c0.9,0.3,1.8,0.6,2.6,0.9c0.9,0.2,1.7,0.4,2.6,0.5    c0.9,0.1,1.8,0.1,2.7,0c0.9-0.1,1.8-0.2,2.5-0.5c1.7-0.6,3.2-1.6,4.5-2.8c0.6-0.6,1.2-1.3,1.7-2c0.5-0.8,1-1.5,1.5-2.3    c0.9-1.6,1.7-3.3,2.4-5c0.6-1.7,1.2-3.5,1.7-5.3c0.5-1.8,0.9-3.6,1.2-5.5c0.4-1.8,0.7-3.7,0.9-5.6l0.7-5.7    c0.3-1.9,0.5-3.7,0.4-5.6l0,0c-0.1-1.4-0.6-2.7-1.5-3.8l0,0c-2.3-2.5-5.7-3.8-8.7-5.6l-9.3-4.9l-9.3-4.9    c-1.6-0.8-3.1-1.6-4.7-2.4c-1.5-0.8-3.3-1.3-5-1.4l0,0c-1.6,0.1-3.2,0.6-4.5,1.5C92.8,158.2,91.6,159.3,90.5,160.4z M90.5,160.4    c1.1-1.2,2.3-2.2,3.5-3.2c1.3-0.9,2.9-1.5,4.5-1.5l0,0c1.8,0.1,3.5,0.6,5.1,1.4c1.6,0.8,3.2,1.5,4.8,2.3l9.4,4.7l9.4,4.7l4.7,2.3    c1.6,0.8,3.1,1.9,4.4,3.1l0,0l0,0c1,1.2,1.7,2.8,1.9,4.4l0,0l0,0c0.1,1.9-0.1,3.9-0.3,5.8l-0.5,5.7c-0.2,1.9-0.4,3.8-0.8,5.7    c-0.4,1.9-0.7,3.8-1.2,5.6c-0.5,1.9-1,3.7-1.7,5.5c-0.7,1.8-1.5,3.6-2.5,5.3c-0.5,0.8-1,1.7-1.6,2.5c-0.6,0.8-1.2,1.6-2,2.3    c-1.5,1.4-3.3,2.5-5.2,3.2c-2,0.7-4,0.8-6.1,0.6c-1-0.1-2-0.3-3-0.6c-1-0.3-1.8-0.7-2.7-1l-2.7-1c-0.9-0.4-1.8-0.7-2.7-1.1    c-1.8-0.9-3.4-1.8-5.1-2.9c-1.6-1.1-3.2-2.1-4.7-3.4c-1.5-1.2-2.9-2.5-4.3-3.8c-0.7-0.7-1.4-1.3-2-2c-0.7-0.7-1.3-1.4-1.9-2.1    c-0.6-0.7-1.3-1.4-1.9-2.2c-0.6-0.8-1.2-1.5-1.8-2.2l0,0l0,0l-0.7-1l0.7-0.1l-0.3,1l-0.7-0.4l0.2-0.2l-0.1,0.1c0,0,0,0,0,0    c0,0,0-0.1,0-0.2c0-0.2,0-0.1,0-0.2l0.1,0.3l-0.1-0.1l0,0l0-0.1l-0.1-0.2l0,0l0,0l-0.7-1.8l0,0l0,0c-0.2-0.7-0.5-1.5-0.8-2.3    c-0.2-0.8-0.5-1.5-0.7-2.3c-0.5-1.5-0.9-3.1-1.1-4.7c-0.4-3.2-0.2-6.5,0.7-9.6c0.9-3.1,2.4-6,4.2-8.6    C86.1,165.2,88.2,162.7,90.5,160.4z"></path>		</g>	</g></g></svg>