<?xml version="1.0" encoding="utf-8"?>
<!-- Generator: Adobe Adobe Illustrator 24.2.0, SVG Export Plug-In . SVG Version: 6.00 Build 0)  -->
<svg version="1.1" id="Layer_1" xmlns="http://www.w3.org/2000/svg" xmlns:xlink="http://www.w3.org/1999/xlink" x="0px" y="0px"
	 width="113px" height="129px" viewBox="0 0 113 129" style="enable-background:new 0 0 113 129;" xml:space="preserve">
<style type="text/css">
	.st0{fill:none;stroke:#FFFFFF;stroke-width:2;stroke-miterlimit:10;}
	.st1{display:none;}
	.st2{display:inline;}
	.st3{fill:none;stroke:#FFFFFF;stroke-miterlimit:10;}
</style>
<g id="Layer_3">
	<g>
		<path class="st0" d="M29.2,85c-0.2-12.9-0.3-25.9-0.3-38.8c0-1.4,0-2.8,0.4-4.2s1-2.7,2.2-3.5c1.2-0.8,2.8-1,4.3-1.1
			C49.2,38,62.7,36,76,38.1c1.9,0.3,3.8,0.7,5.3,1.9c1.5,1.2,2.3,3.1,2.6,5s0.1,3.9,0.2,5.9c-0.3,9.7-0.3,19.5,0,29.2
			c0.1,2.4,0.1,4.8-0.8,7c-1.1,2.5-3.6,4.3-6.2,4.6c-1.6,0.2-3.2-0.1-4.8,0.1c-10.3,0-20.7,0-31,0.1c-1.1,0-2.1,0-3.2-0.2
			C34.2,91.2,29.2,88.8,29.2,85z"/>
		<path class="st0" d="M48.1,58.9c1.3-2.7,3.7-5,6.6-5.8c3.3-0.9,6.9,0.3,9.3,2.6c1.5,1.4,2.6,3.2,3.1,5.2c1.3,4.4,0.4,8.6-2.8,11.9
			c-1.4,1.4-3.6,2.7-5.2,2.8c-2.1,0.1-4.3-0.2-6.2-1.1c-2.8-1.3-4.9-3.8-5.7-6.8C46.4,64.7,46.9,61.4,48.1,58.9z"/>
		<path class="st0" d="M58.4,56c1.1,0.4,2.2,0.9,3,1.6c0.6,0.6,1.1,1.3,1.5,2.1c0.6,1.1,1.2,2.2,1.4,3.5"/>
		<path class="st0" d="M49.5,65.6c0.2,1.7,0.9,3.3,2.1,4.5c1.2,1.2,3.1,2.1,4.7,1.5"/>
		<path class="st0" d="M66.9,44.1c3.2-0.1,6.4-0.1,9.6-0.1c0.1,0,0.2,0,0.3,0.1c0,0,0,0.1,0,0.2c0.1,3.3,0.1,6.6,0.2,9.9
			c0,0.3,0,0.6-0.2,0.7c-0.1,0.1-0.2,0.1-0.4,0.1c-2.9,0.2-5.8,0.3-8.7,0.3c-0.1,0-0.3,0-0.4-0.1c-0.1-0.1-0.1-0.2-0.1-0.2
			c-0.4-1.7-0.2-3.5-0.2-5.3C67.1,47.8,67.1,46,66.9,44.1z"/>
		<path class="st0" d="M72.9,44.2c1.3,1,2.5,2.2,3.6,3.4"/>
		<path class="st0" d="M76.8,50.7c-2.3-2.1-4.6-4.2-6.8-6.2"/>
		<path class="st0" d="M76.4,53.6c-3.2-2.7-6.2-5.5-9.1-8.5"/>
		<path class="st0" d="M74.1,55c-2.2-2.4-4.5-4.6-7-6.6"/>
		<path class="st0" d="M71.2,55.2c-1.4-1.3-2.8-2.7-4.3-3.9"/>
		<path class="st0" d="M77.9,59.7c-1.8,0.1-3.6,0.2-5.4,0.4c-0.2,0-0.4,0-0.6,0.2c-0.1,0.1-0.2,0.3-0.2,0.5
			c-0.5,3.6-0.8,7.4-2.4,10.6c-0.5,0.9-1.1,1.8-1.7,2.7c-0.8,1.1-1.6,2.2-2.6,3.1c-2.6,2.3-6.2,3.3-9.6,2.9
			c-3.4-0.4-6.6-2.3-8.9-4.8c-0.7-0.8-1.2-1.6-1.8-2.4c-2.5-3.8-4-8.1-4.6-12.6c-2.1,0-4.1,0-6.2,0.3c1.1,7.1-0.5,14.5,1,21.6
			c0.1,0.6,0.3,1.1,0.6,1.6c0.7,1.2,2.2,1.8,3.6,2.1c1.8,0.4,3.7,0.4,5.6,0.4c10.1,0.2,20.2,0.4,30.2-0.6c1.2,0.2,2.4-0.7,3-1.8
			s0.6-2.4,0.6-3.7C78.2,73.5,78.2,66.7,77.9,59.7z"/>
		<path class="st0" d="M40.4,63.8c-1.7-0.2-3.5-0.3-5.3-0.2"/>
		<path class="st0" d="M41.3,65.6c-2.2,0.2-4.3,0.2-6.5,0"/>
		<path class="st0" d="M42.1,68c-2.7,0.1-5.5,0.1-8.2,0.1"/>
		<path class="st0" d="M43.4,70.9c-3,0-5.9,0.1-8.9,0.1"/>
		<path class="st0" d="M45.2,74c-3.6-0.2-7.2-0.2-10.7-0.2"/>
		<path class="st0" d="M34.4,76.8c4.5,0.2,9,0.4,13.4,0.5"/>
		<path class="st0" d="M52.1,79.4c-5.7,0.6-11.4,0.8-17.1,0.7"/>
		<path class="st0" d="M63.7,78.9c4.8-0.2,9.5-0.3,14.3-0.3"/>
		<path class="st0" d="M77.4,82.7c-14.1,0.4-28.2,0.6-42.2,0.5"/>
		<path class="st0" d="M77.9,76c-3.8,0-7.5-0.1-11.3-0.2"/>
		<path class="st0" d="M77.1,73.2c-3,0.1-5.9,0.1-8.9,0.1"/>
		<path class="st0" d="M77.9,70.6c-2.6,0.1-5.2-0.2-7.7,0"/>
		<path class="st0" d="M77.3,68.7c-2.2,0-4.5,0-6.7-0.1"/>
		<path class="st0" d="M77.6,66.6c-2,0-4.1-0.2-6.1-0.3"/>
		<path class="st0" d="M77.9,63.3c-2.1-0.2-4.3-0.2-6.4-0.1"/>
	</g>
</g>
<g id="Layer_2_1_" class="st1">
	<g class="st2">
		<path class="st3" d="M50.2,54.8c-0.2-2.7-0.5-5.4-0.3-8.1s0.8-5.4,2.3-7.7c2.4-3.8,6.7-6,11-7.2c4.3-1.2,9.2-1.5,13.1,0.7
			c0,3.6-0.5,9.9-0.6,11.7c0,0.3,0,0.5,0,0.5s-0.2-0.1-0.5-0.2c-0.9-0.3-3-1-4.4-1.1c-1.8-0.2-3.5,0-5.3,0.5
			C65,44,64.4,44.2,64,44.6c-0.3,0.3-0.5,0.7-0.7,1.2c-0.9,2.3-1,5-0.2,7.4c0,0.1,0.1,0.3,0.2,0.4c0.1,0.1,0.3,0.1,0.4,0.1
			c3.4,0,6.9,0.1,10.3,0.1c0.3,0,0.6,0,0.9,0.2c0.5,0.3,0.6,0.9,0.6,1.5c0.1,3.8,0,7.7-0.2,11.5c0,0.1,0,0.3-0.1,0.4
			c-0.1,0.2-0.4,0.2-0.6,0.2c-3.8,0.1-7.7,0.1-11.6,0.2c-0.2,0.9-0.2,1.9-0.2,2.9c0.3,8.8,0.3,17.6,0,26.4c0,0.1,0,0.2-0.1,0.3
			c-0.1,0.2-0.3,0.2-0.5,0.2c-4.5,0.6-9.1,0.8-13.7,0.5c-0.1-0.8-0.2-1.6-0.2-2.4c-0.3-7.5-0.2-15.1,0.3-22.6
			c0.1-1.3,0.2-2.6-0.2-3.9c-3.7,0.2-7.5,0.2-11.2,0.1c-1.4-4,0.2-8.5-0.4-12.7c0-0.3-0.1-0.8,0.2-1c0.1-0.1,0.3-0.1,0.4-0.1
			C41.5,55.2,45.6,55,50.2,54.8z"/>
		<path class="st3" d="M58,37.3c-1.4,0.6-2.4,1.9-3.1,3.3c-0.7,1.4-1,2.9-1.2,4.4c-0.5,2.9-0.7,5.8-0.8,8.7"/>
		<path class="st3" d="M51.4,75.7c-0.2,1.6-0.1,3.3,0.3,4.9"/>
		<path class="st3" d="M51.9,83.4c-0.3,1.6-0.1,3.2,0.1,4.8c0.1,1.1,0.2,2.1,0.3,3.2"/>
		<path class="st3" d="M40,59.8c-0.6,0.8-0.4,2-0.3,3c0.2,1.2,0.3,2.4,0.5,3.7"/>
		<path class="st3" d="M43.4,66.2c1.7-0.1,3.4,0,5.1,0.2"/>
		<path class="st3" d="M73.2,56.9c-1,0-2,0.1-3,0.1"/>
		<path class="st3" d="M73.2,58.7c-1,0.1-2.1,0.1-3.1,0.1"/>
		<path class="st3" d="M73.5,61.1c-1.1,0.2-2.3,0.2-3.5,0.2"/>
		<path class="st3" d="M73.5,63.5c-0.7,0-1.4,0-2.1,0"/>
		<path class="st3" d="M61.6,69.5c-0.8-0.1-1.7-0.1-2.5-0.2"/>
		<path class="st3" d="M61.3,73.4c-0.9,0.2-1.8,0.3-2.7,0.3"/>
		<path class="st3" d="M61.3,75.9c-0.6,0-1.3,0-1.9,0"/>
		<path class="st3" d="M61.1,79.8c-0.9,0.1-1.9,0.2-2.8,0.1"/>
		<path class="st3" d="M61.2,82.1c-0.8,0-1.7,0-2.5,0"/>
		<path class="st3" d="M61.3,84.2c-1,0-2,0-3.1-0.1"/>
		<path class="st3" d="M61.2,87.7c-1,0.3-2,0.3-3,0.2"/>
		<path class="st3" d="M60.9,90.7c-1,0.1-1.9,0.2-2.9,0.1"/>
		<path class="st3" d="M61.3,93.5c-0.8,0.1-1.6,0.1-2.4,0"/>
		<path class="st3" d="M74.2,40.9c-1,0-1.9,0-2.9,0"/>
		<path class="st3" d="M74.3,39c-1.3,0-2.6-0.1-3.8-0.4"/>
		<path class="st3" d="M74.2,37c-0.8-0.1-1.7-0.2-2.5-0.3"/>
		<path class="st3" d="M74.7,33.5c-0.8-0.1-1.6-0.2-2.5-0.3"/>
		<path class="st3" d="M75.2,34.9c-1.1-0.1-2.2-0.1-3.4-0.2"/>
	</g>
</g>
</svg>
