<svg xmlns="http://www.w3.org/2000/svg" viewBox="0 0 499.05 624.93"><defs><style>.cls-1{fill:none;stroke:#f5d68d;stroke-linecap:round;}</style></defs><g id="Layer_2" data-name="Layer 2"><g id="Layer_1-2" data-name="Layer 1"><g id="ghel"><g id="Layer_2-2" data-name="Layer 2"><path class="cls-1" d="M340.72,361.93c6-6.8,12.7-20.7,22-17.5,8.4,2.9,5.2,24.9,4.9,26.5-5.3,24.1-27.4,47.8-58,49.1-46.1,2-69.7-46.8-45.9-76.5,11.6-14.5,28.9-25.5,50.3-25.3,24.9.3,51.2,10.4,57.4,32.3,11.6,40.9-42.7,68.3-82.7,47.7-37.8-19.5-41-65.8,9.2-73.7,43.7-6.9,72,44.8,48.1,72.8-7.2,8.5-22.7,17.2-35.8,14.9-21.2-3.7-27.6-28.6-24.2-43.6,3.6-16.1,15.6-35.4,37.9-34.6,19.9.7,35.9,15.5,35.6,32.3-.2,12.3-9.6,26.5-22.9,31.9-15.4,6.3-30.7-5.8-37.4-16.5-4.2-6.7-8.7-18.7-2.3-25.6,8.5-9.2,22,2.1,24.9,9.3,2.5,6.1,2.6,14.8-1,20.6-2.3,3.7-3.5-14-3.2-15.7,1-4.6,7.1-16.8,15.1-10.9,9.8,7.1-.1,21.5-5.3,27.9-6.3,7.7-16.3,17.8-28.9,16.8-16.4-1.2-20.5-21.1-20-32,.6-14.5,10.8-40.2,30-44.4,19.6-4.3,41.6,14.7,46.1,29.1,10.1,32.5-23.2,113.1-77.2,86.3-48.5-24-70.2-123.1-8.5-145,65.6-23.3,146.7,48.9,138.8,102.4-3.5,23.9-23.3,43.1-50.3,50.2-42.3,11.1-78.4-.1-104.3-29.5-22.4-25.5-29.4-51.9-20-82.9,13.1-43.3,55.5-76.4,111.7-66.6,51.9,9,91,50,79.4,94.8-10.6,40.9-51.3,80-96.9,95.9-32.6,11.3-67,3.5-93.4-15.2-42.7-30.2-51.7-73.1-34-116.4,13.9-33.9,38.7-61.3,81.5-69.7,46.6-9.1,101.7,2.4,136.1,31.1,30,25,39.4,59.2,27.6,93.2-14.5,41.9-52.9,88.8-107.8,95.1-123.9,14.5-156.8-129-112-200.9,47.7-76.6,185.5-52.2,216.5,23.7,37.6,92-68.7,188.6-178.4,177.6-40.9-4.1-75.1-28.4-92.2-59.4-20.4-37.2-24.1-90.6,9.2-123.7,73.5-73.1,246.9-74,293.5,23.5,19.4,40.7,2.1,84.8-26.4,118.9-31.2,37.3-93.4,83-152.3,63.4-53.8-17.9-82.8-72.9-86.5-118.4-4.4-55.1,5.6-114.2,53.8-154.5,31.5-26.4,65.8-33.2,108.4-23.8,60,13.3,94.9,54.2,104.9,105.2,3.9,20,1,37.6-7,56.6-12.5,29.4-33.7,61.7-60.9,83.2-21.5,17-42.3,26-69.5,35.2-35.3,12-69.5,18.9-105.1,3.1-95-42.1-167.5-160.1-105.3-244.5,30.5-41.3,84.8-63.3,140.1-70.5,70.9-9.3,139.4,11.9,175.4,67.1,40.8,62.7,35.9,143.1-19.4,198.9-25.2,25.5-72.5,51.7-112.3,57.1-66.1,9-122.8-24.3-143.5-76.4-37.6-94.8,42.8-215.3,163.1-229.2,103.3-12,171.4,84,155.3,161-8.3,39.7-29.1,67.6-60.4,97.5-30.8,29.5-61,52.7-109.4,57.7-52.9,5.4-96.2-11.6-138.4-36.8-56.8-34-99.9-83.1-89.2-144.7,8.5-49,54.6-91.3,106.6-110.5,75.2-27.9,154.2-24.2,219.2,19.4,48,32.3,66.1,71.2,64.1,122.5-3,75.5-49.5,140.8-121.5,185.3-61.4,38-143.4,28.3-199-13.7-64.3-48.7-65-133.7-40.8-198.8,23.7-63.6,89-115.5,165.3-133.1,31.9-7.4,68.9-5.9,98.6,7.5,44.7,20.2,71.1,62.9,83,102.5,18.7,62.4,3.1,126.5-27.6,184.1-29.7,55.5-85.3,131.8-168.7,131.8-64.2,0-125.6-44.8-162.1-85-58-63.8-70.4-145.7-29-218.4,36.9-64.7,116.6-101.1,199.6-107.9,33-2.7,73.7.6,103.9,13.9,43.3,19,66.1,56.6,74.6,95.3,14.1,64.4-12.8,126.3-50.4,181.5-19.8,29.1-38.5,52.9-68.8,74.8-37,26.8-86.6,40.1-135.2,39.9-86.3-.5-160.7-45.2-184.9-115.6-25.2-73.5-4.9-161.7,47.4-223.9,39.8-47.3,102.1-82.2,169.1-94.8,64.3-12.1,152.6-4,196.9,42.4,56.8,59.5,56.4,151.2,20,218-33.7,62-100,124.9-182,139.4-61.6,10.9-118.1-10.4-164.6-43.6C20,481-.28,389.93.52,301.63c.6-60.6,17.5-121.4,64.8-168.7,17.5-17.5,52-42.4,76.9-52.3,49.9-19.8,102.3-12.9,152.3,2,69.6,20.7,123.3,56.9,160.3,110.8,43,62.5,47.2,132.9,3,196.7-46.6,67.2-147.5,102.9-236,108.5-82.6,5.2-160.6-35.2-200.1-96.4-36.8-56.9-19.5-123.2,14-177.8C50,201,80.52,165,104,146.73c39.6-30.9,90.7-44.6,143.3-48.9,68.3-5.5,145.9,3.4,186,56.4,47,62.1,29.9,149.2-7.9,211-34.6,56.6-90.3,117.9-165.2,138.1-82.2,22.3-171.3-7.6-214.1-70.2-45.4-66.2-54.6-154.9-13.7-223.9,41.3-69.6,114.2-150.9,216.5-145.4,66.6,3.6,128.6,34.3,170.1,77.9,45.4,47.4,57.5,112.4,29.6,169.5-27,55.3-97.6,97.1-162.7,115.3-35.2,9.8-76.8,12.8-112.7,2.7-52.5-14.9-92.3-55.3-113.2-96.9-36.3-72-34.3-160.5,7.8-230.6,46.3-77.1,146.8-117,246.6-95.4,84.5,18.3,164.1,80.1,180.8,153.8,16.8,74-31.5,152.5-112.7,183.9-154.3,59.7-328.3-79.4-288.1-212.9,24.7-82.3,129.2-118.4,222.6-113.9,88.1,4.3,151.2,82,160,150.9,7.2,56.1-28.2,109.2-75.6,146.1-57.6,44.8-133,58.2-198.4,15.4-67.9-44.5-92.9-124.9-66-192.8,12.2-30.8,28-51.2,56.9-72.5a185.23,185.23,0,0,1,38.5-21.8c56.9-23.7,21.9-.3,78.9-15.8"></path></g></g></g></g></svg>