<?xml version="1.0" encoding="UTF-8"?>
<svg id="Layer_1" data-name="Layer 1" xmlns="http://www.w3.org/2000/svg" viewBox="0 0 1422.75 977.96">
  <defs>
    <style>
      .cls-1 {
        stroke-width: 2px;
      }

      .cls-1, .cls-2, .cls-3, .cls-4 {
        fill: none;
        stroke-miterlimit: 10;
      }

      .cls-1, .cls-3 {
        stroke: #fff;
      }

      .cls-2 {
        stroke: #efd68d;
      }

      .cls-4 {
        stroke: #be2327;
      }

      .cls-5 {
        fill: #718e82;
      }

      .cls-5, .cls-6 {
        stroke-width: 0px;
      }

      .cls-6 {
        fill: #efd68d;
      }
    </style>
  </defs>
  <path class="cls-3" d="m13.92,466.34c18.48,1.02,205.9,4.12,224.38,5.14,27.35,1.51,55.75,2.86,81.13-7.46,37.64-15.32,65.32-54.99,105.88-57.47,13.51-.82,26.91,2.78,39.62,7.42,13.96,5.1,27.45,11.51,40.23,19.1,22.15,13.16,42.83,30.17,67.9,36.11,13.59,3.22,27.73,2.97,41.7,2.7,29.43-.57,211.63,5.52,241.06,4.95"/>
  <path class="cls-1" d="m566.95,471.02c-13.26,3.25-24.33,12.25-34.06,21.83-9.73,9.58-18.74,20.1-30.11,27.66-11.14,7.41-24.07,11.66-37,15.1-10.57,2.82-21.4,5.17-32.34,4.92-19.06-.43-37.03-8.68-53.67-17.98-25.91-14.48-50.22-31.93-71.53-52.58"/>
  <path class="cls-1" d="m346.09,491.21c-8.31-4.42-17.66-10.32-18.49-19.7,9.99,1.77,16.63,10.91,23.63,18.26,15.47,16.23,36.49,25.8,57.17,34.47,10.93,4.58,22.33,9.1,34.17,8.68,8.92-.32,17.47-3.42,25.85-6.49,13.74-5.04,27.72-10.2,39.3-19.15,12.32-9.53,21.16-22.75,29.78-35.72"/>
  <path class="cls-5" d="m401.41,477.6c.03-1.51.09-3.11.89-4.39.34-.54.79-.99,1.28-1.4,2.08-1.71,4.99-2.48,7.55-1.67s4.58,3.34,4.46,6.03c-.09,2.1-1.45,4.04-3.28,5.09s-4.05,1.27-6.12.88c-1.25-.24-2.49-.71-3.44-1.56-.96-.84-1.36-2.08-1.34-2.98Z"/>
  <path class="cls-6" d="m393.15,452.33c-.29-2.13-.58-4.27-.86-6.4-.07-.51-.14-1.02-.03-1.53.11-.51.39-.97.66-1.41.61-.99,1.23-1.99,2.05-2.81,1.11-1.12,2.52-1.87,3.91-2.6,3.85-2.03,8.23-4.08,12.4-2.83,2.28.68,4.21,2.32,5.48,4.34,1.27,2.02,1.91,4.38,2.11,6.76.12,1.41.08,2.84-.27,4.21-.58,2.26-1.99,4.24-3.65,5.88-2.94,2.89-6.98,4.93-11.09,4.53-2.88-.28-5.61-1.77-7.51-3.95s-2.98-5.06-3.2-4.19Z"/>
  <path class="cls-1" d="m468.29,442.21c2.28-1.27,4.56-2.53,6.83-3.8"/>
  <path class="cls-1" d="m500.55,442.77c-.81-.23-1.62-.46-2.43-.69"/>
  <path class="cls-1" d="m477.88,439.54c1.35-.69,2.7-1.39,4.05-2.08"/>
  <path class="cls-1" d="m485.28,435.47c1.62-.82,3.23-1.63,4.85-2.45"/>
  <path class="cls-1" d="m472.57,445.34c4.54-1.81,9.01-3.79,13.41-5.92"/>
  <path class="cls-1" d="m481.1,445.5c3.55-1.1,7.11-2.19,10.66-3.29"/>
  <path class="cls-1" d="m487.94,446.23c2.13-.18,4.22-.76,6.14-1.7"/>
  <path class="cls-1" d="m479.97,448.69c-1.66.58-3.31,1.17-4.97,1.75"/>
  <path class="cls-1" d="m473.25,454.8c3.08-.36,6.17-.71,9.25-1.07"/>
  <path class="cls-1" d="m482.4,450.9c3.74-.54,7.48-1.08,11.22-1.62"/>
  <path class="cls-1" d="m488.41,453.17c2.39,0,4.78-.01,7.17-.01"/>
  <path class="cls-1" d="m490.6,456.42c1.5-.04,3.01-.08,4.51-.12"/>
  <path class="cls-1" d="m484.94,458.42c-3.15.04-6.29.08-9.44.11-.65.01-1.42-.04-1.78-.59"/>
  <path class="cls-1" d="m485.29,459.93c2.87.01,5.73.02,8.6.04"/>
  <path class="cls-1" d="m480.6,460.49c-1.47-.03-2.94-.05-4.41-.08"/>
  <path class="cls-1" d="m476.97,463.73c5.59.07,11.19.13,16.78.2"/>
  <path class="cls-1" d="m482.83,466.34c3.64.77,7.38,1.1,11.1.98"/>
  <path class="cls-1" d="m479.24,469.02c2.41.55,4.84,1.03,7.28,1.45"/>
  <path class="cls-1" d="m491.52,470.93c1.21.21,2.43.42,3.64.64"/>
  <path class="cls-1" d="m478.69,472.02c5.08,1.3,10.19,2.46,15.33,3.49"/>
  <path class="cls-1" d="m478.46,473.9c4.56,1.58,9.05,3.34,13.46,5.28"/>
  <path class="cls-1" d="m477.82,476.01c4.23,1.64,8.36,3.55,12.35,5.72"/>
  <path class="cls-1" d="m471.6,478.02c2.01,1.08,4.06,2.1,6.14,3.05"/>
  <path class="cls-1" d="m476.44,478.03c4.48,2.05,8.88,4.27,13.19,6.65"/>
  <path class="cls-1" d="m483.74,483.99c1.65.86,3.3,1.73,4.96,2.59"/>
  <path class="cls-1" d="m473.85,482.61c3.73,2.45,7.57,4.73,11.51,6.82"/>
  <path class="cls-1" d="m468.28,481.34c.79.45,1.58.91,2.36,1.36"/>
  <path class="cls-1" d="m472.37,475.88c.77.32,1.55.64,2.32.96"/>
  <path class="cls-1" d="m473.37,470.43c.92.44,1.85.88,2.77,1.32"/>
  <path class="cls-1" d="m473.83,466.79c.77.05,1.55.09,2.32.14"/>
  <path class="cls-1" d="m471.24,447.82c.73-.12,1.46-.24,2.18-.36"/>
  <path class="cls-1" d="m470.51,486.48c1.15.91,2.3,1.82,3.46,2.73"/>
  <path class="cls-1" d="m479.7,488.94c1.8,1.41,3.61,2.82,5.41,4.23"/>
  <path class="cls-1" d="m476.47,491.07c1.78,1.62,3.55,3.24,5.33,4.86"/>
  <path class="cls-1" d="m468.95,488.21c3.39,3.06,6.64,6.29,9.72,9.66"/>
  <path class="cls-1" d="m463.1,487.25c.61.64,1.21,1.27,1.82,1.91"/>
  <path class="cls-1" d="m468.87,493.21c.86.8,1.73,1.61,2.59,2.41"/>
  <path class="cls-1" d="m475.06,499.49c1.11,1.14,2.3,2.2,3.55,3.18"/>
  <path class="cls-1" d="m467.05,493.85l3,2.91"/>
  <path class="cls-1" d="m471.56,500.71c.82.85,1.64,1.7,2.46,2.54"/>
  <path class="cls-1" d="m468.51,501.76c1.13,1.12,2.21,2.29,3.23,3.5"/>
  <path class="cls-1" d="m464.78,496.21c.56.9,1.12,1.79,1.68,2.69l-6-9.37"/>
  <path class="cls-1" d="m461.02,496.2c.65.82,1.31,1.63,1.96,2.45"/>
  <path class="cls-1" d="m465.73,503.5c.45,1.37,1.28,2.61,2.38,3.54"/>
  <path class="cls-1" d="m459.55,501.26c2.42,2.8,4.55,5.85,6.34,9.08"/>
  <path class="cls-1" d="m459.9,508.64c.46,1.28.92,2.56,1.38,3.84"/>
  <path class="cls-1" d="m456.09,501.97c.79,1.15,1.46,2.39,1.97,3.69"/>
  <path class="cls-1" d="m454.14,504.54c1.23,3.25,2.66,6.43,4.28,9.5"/>
  <path class="cls-1" d="m456.86,492.44c.55.91,1.03,1.86,1.43,2.84"/>
  <path class="cls-1" d="m454.77,494.24c.9,1.21,1.6,2.57,2.05,4.01"/>
  <path class="cls-1" d="m449.89,495.76c.25,1.7.38,3.42.4,5.14"/>
  <path class="cls-1" d="m452.03,495.33c.12,1.19.24,2.37.37,3.56"/>
  <path class="cls-1" d="m444.94,505.86c-.01,1.39-.02,2.77-.04,4.16"/>
  <path class="cls-1" d="m449.44,511.7c.03,1.88.06,3.75.09,5.63"/>
  <path class="cls-1" d="m453.76,511.5c-.1.88-.21,1.76-.31,2.64"/>
  <path class="cls-1" d="m447.09,514.37c-.14.56-.28,1.11-.43,1.67"/>
  <path class="cls-1" d="m441.74,507.9c.01,2.83.27,5.66.78,8.44"/>
  <path class="cls-1" d="m439.1,512.45c-.1,1.27-.2,2.53-.29,3.8"/>
  <path class="cls-1" d="m435.34,513.44c-.02,1.2-.04,2.4-.07,3.6"/>
  <path class="cls-1" d="m439.09,507.32c-.01-1.7.08-3.39.26-5.08"/>
  <path class="cls-1" d="m435.67,497.01c-.12,1.53-.24,3.05-.36,4.58"/>
  <path class="cls-1" d="m431.35,496.6c-.2.92-.41,1.84-.61,2.76"/>
  <path class="cls-1" d="m428.48,495.96c-.57,2.25-1.15,4.51-1.72,6.76"/>
  <path class="cls-1" d="m429.29,503.92c-.7,2.13-1.21,4.34-1.5,6.57"/>
  <path class="cls-1" d="m432.5,506.27c-.5,3.92-.99,7.85-1.49,11.77"/>
  <path class="cls-1" d="m441.05,497.27c-.03.52-.06,1.03-.1,1.55"/>
  <path class="cls-1" d="m428.03,513.69c-.35.91-.69,1.82-1.04,2.72"/>
  <path class="cls-1" d="m420.01,513.22c-.13.36-.27.71-.4,1.07"/>
  <path class="cls-1" d="m426.03,506.7c-1.21,3.11-2.37,6.23-3.49,9.37"/>
  <path class="cls-1" d="m422.48,504.75c-.5,1.56-.99,3.13-1.49,4.69"/>
  <path class="cls-1" d="m418.63,505.66c-1.08,2.17-2.03,4.42-2.82,6.71"/>
  <path class="cls-1" d="m420.26,497.83c-.67,1.14-1.34,2.28-2,3.42"/>
  <path class="cls-1" d="m416.08,504.6c-.92,1.44-1.76,2.95-2.5,4.49"/>
  <path class="cls-1" d="m411.02,504.99c-.77,1.14-1.54,2.27-2.3,3.41"/>
  <path class="cls-1" d="m409.07,503.09c-.87,1.16-1.73,2.32-2.6,3.48"/>
  <path class="cls-1" d="m417.7,490.39c-.39.61-.79,1.22-1.18,1.83"/>
  <path class="cls-1" d="m419.75,491.59c-.39.61-.79,1.22-1.18,1.83"/>
  <path class="cls-1" d="m408.78,498.03c-1.22,2.62-3.49,4.6-5.02,7.05"/>
  <path class="cls-1" d="m402.75,499.63c-.68.7-1.36,1.4-2.03,2.1"/>
  <path class="cls-1" d="m400.64,496.52c-.98.99-2.01,1.91-3.1,2.78"/>
  <path class="cls-1" d="m400.19,491.93c-1.45,1.69-2.96,3.33-4.54,4.9"/>
  <path class="cls-1" d="m397.91,490.17c-1.37,1.03-2.68,2.14-3.91,3.33"/>
  <path class="cls-1" d="m409.77,488.21c-.44.55-.88,1.09-1.32,1.64"/>
  <path class="cls-1" d="m398.94,484.62c-2,2.31-4.44,4.24-7.15,5.65"/>
  <path class="cls-1" d="m396.72,482.01c-2.05,1.72-4.26,3.25-6.58,4.58"/>
  <path class="cls-1" d="m395.61,479.22c-1.13.69-2.38,1.17-3.68,1.41"/>
  <path class="cls-1" d="m395.64,475.63c-3.11,1.36-6.25,2.64-9.43,3.83"/>
  <path class="cls-1" d="m397.33,472.89c-.58.11-1.17.22-1.75.32"/>
  <path class="cls-1" d="m390,473.98c-1.53.43-3.06.86-4.58,1.29"/>
  <path class="cls-1" d="m397.29,469.34c-3.99,1.06-7.97,2.16-11.94,3.31"/>
  <path class="cls-1" d="m396.57,466.19c-1.89.26-3.8-.16-5.7-.2-2.23-.05-4.47.44-6.48,1.41"/>
  <path class="cls-1" d="m389.37,463.47c-1.76.05-3.53-.11-5.25-.48"/>
  <path class="cls-1" d="m392.52,459.89c-2.7.1-5.45.2-8.03,1.03"/>
  <path class="cls-1" d="m386.89,455.99c-1.17.19-2.36.3-3.55.31"/>
  <path class="cls-1" d="m387.56,452.12c-.89-.02-1.78-.11-2.65-.26"/>
  <path class="cls-1" d="m387.82,448.84c-.8.03-1.6.05-2.39.08"/>
  <path class="cls-1" d="m388.4,444.78c-.81.06-1.61.12-2.42.18"/>
  <path class="cls-1" d="m388.86,441.89c-.61-.25-1.25-.45-1.89-.6"/>
  <path class="cls-1" d="m390.34,438.09c-.72-.11-1.4-.44-1.93-.94"/>
  <path class="cls-1" d="m392.63,434.88c-.77-.22-1.5-.58-2.15-1.05"/>
  <path class="cls-1" d="m395.49,433.06c-.67-.61-1.45-1.09-2.29-1.42"/>
  <path class="cls-1" d="m381.62,434.48c-.73,1.18-1.47,2.37-2.2,3.55"/>
  <path class="cls-1" d="m377.82,443.42c-.52,3.32-.8,6.68-.82,10.04"/>
  <path class="cls-1" d="m375.95,458.97c0,3.14,0,6.29.01,9.43"/>
  <path class="cls-1" d="m376.46,472.56c.44,2.04.88,4.09,1.32,6.13"/>
  <path class="cls-1" d="m379.83,483.57c.68,3.04,2.14,5.91,4.21,8.23"/>
  <path class="cls-1" d="m386.63,496.2c2.64,4.33,5.35,8.75,9.28,11.97,1.88,1.54,3.99,2.77,6.08,3.99"/>
  <path class="cls-1" d="m406.64,513.66c1.68,2.1,3.77,3.88,6.11,5.21"/>
  <path class="cls-1" d="m420.31,522.02c2.49,1.15,5.07,2.1,7.71,2.82"/>
  <path class="cls-1" d="m457.11,522.71c1.95-.73,3.9-1.45,5.85-2.18"/>
  <path class="cls-1" d="m470.8,516.66c4.05-1.33,7.75-3.71,10.64-6.85"/>
  <path class="cls-1" d="m490.4,500.16c2.72-3.39,5.13-7.01,7.22-10.83"/>
  <path class="cls-1" d="m501.21,481.46c.22-2.68.44-5.36.66-8.04.09-1.07.23-2.25,1.06-2.94"/>
  <path class="cls-1" d="m503.42,464.56c-.46-2.6-.75-5.24-.87-7.88"/>
  <path class="cls-1" d="m500.76,450.26c-.32-1.71-.8-3.39-1.45-5"/>
  <path class="cls-1" d="m508.32,445.6c.17,1.83.35,3.66.52,5.49"/>
  <path class="cls-1" d="m507.92,459.21c.56,2.65.46,5.43-.29,8.03"/>
  <path class="cls-1" d="m506.1,479.97c-2.4,6.29-5.07,12.5-8.59,18.24-2.42,3.95-5.24,7.65-8.39,11.05"/>
  <path class="cls-1" d="m375.19,435.6c-.43,1.92-.87,3.85-1.3,5.77"/>
  <path class="cls-1" d="m370.7,454.33c-.19,7.21.4,14.44,1.73,21.52.2,1.08.44,2.2,1.12,3.07"/>
  <path class="cls-1" d="m370.01,485.95c.81,3.43,2.07,6.76,3.73,9.87"/>
  <path class="cls-1" d="m385.02,510.11c-2.27-2.51-4.29-5.25-6-8.16"/>
  <path class="cls-1" d="m371.75,502.65c-1.56-3.68-4.69-6.83-4.92-10.82"/>
  <path class="cls-1" d="m360.36,471.72c-.72-8.45-.59-16.96.4-25.38"/>
  <path class="cls-1" d="m365.57,467.24c-.45-8.73.24-17.51,2.05-26.06"/>
  <path class="cls-1" d="m360.97,493.31c-1.03-2.56-1.64-5.28-1.82-8.04"/>
  <path class="cls-1" d="m355.07,470.99c-.27-3.3-.4-6.61-.39-9.93"/>
  <path class="cls-1" d="m355.09,454.23c.57-2.18.87-4.43.89-6.69"/>
  <path class="cls-1" d="m353.05,485.34c-.49-1.61-.84-3.27-1.03-4.94"/>
  <path class="cls-1" d="m349.94,466.84c-.25-2.42-.31-4.87-.18-7.3"/>
  <path class="cls-1" d="m350.21,453.6c.03-.99.06-1.98.09-2.97"/>
  <path class="cls-1" d="m345.2,456.51c-.04,1.95-.09,3.9-.13,5.85"/>
  <path class="cls-1" d="m343.84,468.76c.03,2.08.14,4.16.34,6.23"/>
  <path class="cls-1" d="m339.94,460.65c-.05,2.19-.11,4.38-.16,6.58"/>
  <path class="cls-1" d="m513.13,456.08c-.5,13.13-3.7,26.14-9.36,38"/>
  <path class="cls-1" d="m517.79,449.54c.43,4.12.39,8.29-.13,12.39"/>
  <path class="cls-1" d="m517.36,476.33c-1,3.17-2,6.34-3,9.52"/>
  <path class="cls-1" d="m523.74,455.18c1.51,7.54.04,15.32-1.43,22.87"/>
  <path class="cls-1" d="m530.16,460.33c.39,3.07.29,6.21-.29,9.25"/>
  <path class="cls-1" d="m511.68,447.57c.12,1.27.12,2.55-.02,3.82"/>
  <path class="cls-2" d="m13.92,451.39c29.76,7.43,120.43,8.28,185.04,6.56,64.61-1.72,103.15.99,128.65-16.06,11.81-7.89,49-33.97,62.02-39.66,23.63-10.33,51.19-8.26,75.61.07,24.41,8.32,46.37,22.41,68.2,36.15,11.62,7.31,23.47,14.65,36.67,18.39,14.53,4.12,29.9,3.67,44.99,3.19,28.88-.92,210.78,4.83,239.66,3.91"/>
  <path class="cls-2" d="m13.92,438.5c34.26-3.92,235.41,6.44,268.74-2.41,11.16-2.96,21.62-8.06,31.91-13.29,35.74-18.18,72.77-39.03,112.84-37.35,19.66.83,38.66,7.12,57.04,14.12,13.5,5.14,26.93,10.74,39.06,18.58,7.69,4.96,14.92,10.85,23.47,14.11,7.12,2.71,14.8,3.46,22.39,4.11,43.76,3.73,242.54,12.9,286.44,11.4"/>
  <path class="cls-3" d="m13.92,412.86c38.49,5.13,242.99,15.63,278.77.53,9.5-4.01,18.38-9.34,27.59-13.98,60.39-30.44,135.66-29.29,195.08,2.99,8.36,4.54,16.44,9.66,25.27,13.19,14.44,5.77,30.22,7.03,45.72,8.23,38.58,2.99,230.84,11.78,269.45,9.23"/>
  <path class="cls-4" d="m13.92,395.24c27.23-1.12,224.07,14.01,250.83,8.83,14.77-2.86,28.42-9.66,42.25-15.59,34.67-14.86,71.84-24.57,109.55-25.5s76,7.18,108.69,26c6.51,3.75,12.81,7.91,19.71,10.88,13.52,5.81,28.57,6.71,43.27,7.41,41.6,1.97,224.89,5.56,266.53,5.6"/>
  <path class="cls-3" d="m13.92,373.27c39.79,5.72,246.78,11.04,285.96,2.08,18.2-4.16,36.03-9.87,54.37-13.4,21.36-4.11,43.2-5.2,64.95-5.13,20.65.07,41.45,1.2,61.5,6.14,17.62,4.34,34.41,11.56,51.96,16.19,24.43,6.44,49.89,7.75,75.14,8.52,33.64,1.02,214.37,8.36,248.02,7.57"/>
  <path class="cls-3" d="m854.75,377.36c-42.82-1.8-246.65-7-289.47-8.8-11.69-.49-23.54-1.01-34.71-4.51-9.59-3-18.37-8.11-27.56-12.17-31.36-13.85-66.94-15.16-101.01-11.38s-67.42,12.39-101.3,17.65c-40.82,6.34-245.62,2.46-286.78-1.03"/>
  <path class="cls-3" d="m13.92,345.07c28.11-.36,222.95-2.71,251.06-3.07,12.42-.16,24.85-.32,37.22-1.45,39.87-3.67,78.66-17.46,118.7-17.32,33.8.12,66.67,10.17,98.95,20.18,11.18,3.47,22.42,6.95,34.01,8.53,9.62,1.31,161.13,5.2,170.84,5.18,43.35-.1,86.7-.21,130.05-.31"/>
  <path class="cls-3" d="m13.92,327.49c59.07,5.98,282.02-2.09,340.84-10.16,26.96-3.7,54.12-8.88,81.2-6.2,31.38,3.11,60.87,16.61,92.03,21.43,18.82,2.91,37.96,2.62,57,2.32,38.44-.61,231.31,3.94,269.76,3.34"/>
  <path class="cls-2" d="m855.81,497.88c-40.35-4.45-235.2-15.73-275.74-13.78-10.07.48-20.48,1.27-29.35,6.06-10.86,5.88-17.81,16.87-26.7,25.44-12.44,11.99-28.7,19.21-45.11,24.61-15.89,5.23-32.55,9.02-49.25,7.96-26.31-1.66-50.24-15.05-73.14-28.11-12.64-7.21-25.28-14.42-37.92-21.63-7.49-4.27-15.08-8.59-23.41-10.82-8.26-2.21-16.91-2.29-25.46-2.35-30.82-.22-225,1.54-255.82,1.33"/>
  <path class="cls-3" d="m855.81,514.37c-35.08-1.54-219.15-15.02-254.23-16.57-7.42-.33-14.95-.64-22.21.97-10.23,2.28-19.2,8.24-28,13.93-30.41,19.66-63.26,37.89-99.32,41.28-37.94,3.57-75.85-9.88-108.28-29.89-10.9-6.72-21.54-14.3-33.81-17.96-8.83-2.64-174.14-.96-183.35-1.43-35.42-1.8-70.83-3.61-106.25-5.41"/>
  <path class="cls-3" d="m13.92,524.84c55.82-.67,276.22-6.89,328.61,12.42,13.82,5.09,27.13,11.51,41.09,16.2,62.04,20.84,131.72,5.28,188.7-26.93,7.67-4.34,15.3-9.01,23.8-11.29,9.29-2.49,19.08-1.97,28.68-1.44,27.2,1.51,202.75,16.88,229.95,18.4"/>
  <path class="cls-3" d="m855.81,548.36c-34.01-4.63-226.87-23.22-259.73-13.3-8.44,2.54-16.56,6.01-24.84,9.02-26.24,9.56-53.88,14.62-81.51,18.72-31.05,4.61-62.82,8.05-93.69,2.37-6.65-1.22-67.27-13.66-110.04-16.81-48.59-3.59-103.87-10.22-103.87-10.22,0,0-105.02-3.28-163.78,4.63"/>
  <path class="cls-3" d="m854.75,562.93c-69.34-9.94-236.39-11.94-275.75-6.9-17.56,2.25-34.51,7.73-51.46,12.82-25.57,7.67-51.72,14.54-78.41,14.88-36.22.47-71.36-11.06-106.87-18.22-54.98-11.07-273.14-7.26-328.34,2.62"/>
  <path class="cls-1" d="m13.92,594.89c30-2.01,223.39-15.02,253.39-17.03,15.34-1.03,30.75-2.06,46.07-.86,36.74,2.88,71.46,18.39,108.05,22.76,40.05,4.78,80.72-4.07,118.38-18.51,8.54-3.27,17.04-6.85,26.01-8.68,10.45-2.12,21.22-1.8,31.88-1.46,39.73,1.25,217.32,7.51,257.05,8.76"/>
  <path class="cls-1" d="m855.81,604.58c-25.91-2.12-211.17-10.23-237.07-12.35-13.47-1.1-26.98-2.2-40.47-1.44-13.89.79-27.58,3.54-41.27,6.02-22.27,4.04-44.66,7.4-67.13,10.05-25.09,2.97-50.72,5.04-75.47-.02-12.03-2.46-23.66-6.57-35.63-9.33-26.06-6-53.12-5.45-79.85-4.75-34.03.89-68.07,1.96-102.08,3.21-.52.03-163.1,9.38-162.92,9.85"/>
  <path class="cls-1" d="m854.75,622.79c-44.75,3.43-241.58-20.37-285.72-12.25-13.69,2.52-26.86,7.29-40.44,10.34-23.65,5.32-48.14,5.36-72.38,5.01-17.82-.26-35.7-.72-53.28-3.64-14.22-2.36-28.14-6.3-42.37-8.61-22.49-3.64-45.42-3.14-68.19-2.63-38.89.88-239.56,10.75-278.45,11.63"/>
  <path class="cls-1" d="m13.92,639.27c77.04.79,322.31-6.42,399.36-5.62,13.01.13,26.03.27,39.04.4,17.04.18,34.42,3.89,51.13.53,74.9-15.07,286.77,8.27,351.31,8.94"/>
</svg>