<?xml version="1.0" encoding="utf-8"?>
<!-- Generator: Adobe Adobe Illustrator 24.2.0, SVG Export Plug-In . SVG Version: 6.00 Build 0)  -->
<svg version="1.1" id="Layer_1" xmlns="http://www.w3.org/2000/svg" xmlns:xlink="http://www.w3.org/1999/xlink" x="0px" y="0px"
	 width="961.9px" height="1080px" viewBox="0 0 961.9 1080" style="enable-background:new 0 0 961.9 1080;" xml:space="preserve">
<style type="text/css">
	.st0{fill:none;stroke:#BF2026;stroke-width:3.3566;stroke-miterlimit:10;}
</style>
<path class="st0" d="M276.8,572.8C298.1,467,362.3,387.8,432,373c22.3-4.7,56.9-5.2,92.3,2.9c26.8,6.2,52.3,12,70.5,35.3
	c24.5,30.9,18.5,70,17.6,75.1c-8.9,53-59.8,80.9-87.3,96.3c-13.5,7.5-24.2,10.7-31.1,12.3c-7.4,1.7-24.5,5.7-43.3,1.8
	c-29.3-6.6-45.9-30-50.6-36.2c-34.3-48.8-10.2-111.4-6.7-120c6.3-16.1,14.8-36.8,35.6-49.7c42.1-25.9,96.7,4.1,110.1,11.4
	c48.1,26.6,74.6,75.2,79.7,117.4c0.8,8.6,2,17.3-0.7,28.9c-10.7,47.8-67,69.9-76.8,73.7c-15,5.7-37.5,14.3-63.7,9.7
	c-68.4-12.6-110.7-109.5-99.8-181.7c3.9-27.2,14.4-44.3,16.8-48c29.8-47.4,86-56.5,96.9-58.1c61.6-8.2,125.1,27,154.7,78.8
	c47.5,83.7-3.2,193.7-63.7,243.6c-47.9,39.4-110.1,48.5-119,49.6c-15.6,2.2-26.1,1.4-34.4,0.2c0,0-37-5.1-66.2-30.9
	c-37.7-33.6-41.3-84.9-43.4-118.1c-1.8-25.7-7.3-105.5,48.4-172.5c12.2-14.8,41-48.3,90.1-62.4c56.3-16,103.5,3.2,117.1,9.1
	c93.4,40.2,133.5,154.1,126.8,238.3c-1.5,20.3-5.4,60.5-33.8,98.2c-4.2,5.4-22.6,29.4-56.4,47.7c-68.6,37.1-141.4,18.5-178,9.2
	c-19-4.8-29.2-7.3-42.6-14.7c-59.8-31.7-78.9-97.6-87.9-127.9c-3.4-11.4-17.4-61.7-6.8-126.1c4.5-28.1,9-56.2,28.7-83.4
	c32.2-45,83.3-57.9,107.6-63.7c98.7-24.4,218,12.2,276.7,97c11.2,16.4,30.4,43.9,32.7,83.5c4.5,77.6-59.2,137.5-88.6,165.1
	c-22.1,20.5-54,50.8-103.6,66.2c-86.7,27.2-194.6-0.1-260.5-75.4c-76.7-87.4-88.9-229.8-14-327.6c51.1-66.7,143.1-113.4,235.6-93.5
	c138.3,29.8,174.1,186.4,177.8,205.2c20.4,97.4-18.4,175.6-27.8,194.1c-14.2,26.7-62.5,118.6-161.5,137.9
	c-111.1,21.7-194.3-65.5-210.8-82.8c-9.4-10-93-100.2-75.8-226.3C232.3,322.2,367.5,204.6,507,212.6
	c131.1,7.5,203.5,122.8,216.4,144.6c8.7,14.8,79.6,137.9,27.4,257c-68.9,157.1-300.5,188.5-440.6,137
	c-25.8-9.6-82.5-31.3-123.7-88.4C121.8,573,145,465.6,150,445.9c29.5-123.1,143.7-217.6,268.3-237.1
	c144.9-22.7,284.5,59.4,342.7,182c6.1,12.7,77.5,169.1-8.4,287.3c-87.5,120.7-285,127.2-394.3,51.2
	C176,601.9,222.1,230.5,366.9,158.4c115.4-57.5,280,81.8,295.7,95C675.9,264.7,855,420.9,814,622.7c-4.5,23.2-22.1,102.9-91.1,164.7
	C601.1,896.3,434,845.7,421,841.4c-33-10.6-86.9-28-121.1-75.9c-61.9-86-36.3-236.9,67.9-370.3"/>
</svg>
