<?xml version="1.0" encoding="utf-8"?>
<!-- Generator: Adobe Illustrator 27.8.1, SVG Export Plug-In . SVG Version: 6.00 Build 0)  -->
<svg version="1.1" id="Layer_1" xmlns="http://www.w3.org/2000/svg" xmlns:xlink="http://www.w3.org/1999/xlink" x="0px" y="0px"
	 viewBox="0 0 968 1155" style="enable-background:new 0 0 968 1155;" xml:space="preserve">
<style type="text/css">
	.st0{fill:none;stroke:#BF2026;stroke-linecap:round;}
</style>
<path class="st0" d="M208,523.2c97.1-69.1,299.7-260.9,418.4-123.3c34.7,40.2,38.3,94.5,26.5,144.5c-14,59.4-56.1,135.1-114,161.7
	c-163.8,75.3-322.5-239.2-136.1-307.3c93.9-34.3,298.9,12.8,309.2,138.4c7,85.6-83.4,217.3-176.9,200.8
	C402.2,714.6,230,559.7,318.8,415.1c102.4-166.7,311.2-147.3,419.6,5c98.8,138.8,8.2,407.8-150.6,468
	c-184.6,69.9-435.2-216.4-393.9-390c48.2-202.8,377.9-299.8,549.6-217.6c219.1,104.9,119.9,454.3-25.9,575.8
	C636.2,924,542.7,930,448.9,883.9C328,824.4,279.3,690.8,260,564.5c-14.6-95.1-8.8-214,64-286.5c99.4-98.9,290.9-45.2,403.3-5.6
	c120.3,42.4,222.6,139.2,239.3,271C986.4,700.8,851,815.3,728.3,885.1c-113.3,64.4-275.2,109.4-387.6,15.5
	c-104.9-87.6-111.8-264.8-99.2-388.2c12.6-123.6,62.7-192.7,187.5-218.8c138.7-29,309.5,27.2,388.6,148
	C880,537,915,646.5,843.7,745.4c-91.9,127.4-279.2,201.2-434.5,179.9C63.1,877.9-38.4,420.1,233.3,212
	c318.5-244,825.7,106.6,717.2,489.4c-108.9,384.5-678,355.5-835.4,27.6c-69.9-145.7-50-337.5,31.7-474.1
	c124.8-208.7,378-186.2,569.1-86.4c143.4,74.9,293.6,217.5,276.3,394.8c-19.8,203-212.6,335.6-388.4,397.1
	c-126.1,44.1-304.1,65.5-414.7-28.9C61,822.3,47,594.1,89,444.2c116.2-414,633-301.5,731.5,62.6c40.2,148.8,1.9,329.1-127.5,422.7
	c-175.7,127-451.9,68.3-606.2-66c-123.9-107.8-224.2-303.9-159-468.1C20.2,162.5,281.7,67.8,514,117.8
	c175.2,37.7,367.7,174.9,416.4,355.7C993,706,798.1,884.5,607.7,968c-157.3,69-321.3,98.5-467.2-13.7
	c-179.5-138.2-209.3-417.2-86.1-602C177.4,167.9,379.3,156.6,580.3,182c245.4,31,486.7,167.5,480.2,451.2
	c-7.8,339.5-565.8,608.6-769.3,273.3c-88.4-145.6-65.4-390.8,19.1-532.6c35-58.7,91.2-108.5,162.7-108.4
	c60.4,0.1,82.5,37.3,128.8,64.6"/>
</svg>
