<?xml version="1.0" encoding="utf-8"?>
<!-- Generator: Adobe Illustrator 27.8.1, SVG Export Plug-In . SVG Version: 6.00 Build 0)  -->
<svg version="1.1" id="Layer_1" xmlns="http://www.w3.org/2000/svg" xmlns:xlink="http://www.w3.org/1999/xlink" x="0px" y="0px"
	 viewBox="0 0 1920 1080" style="enable-background:new 0 0 1920 1080;" xml:space="preserve">
<style type="text/css">
	.st0{fill:none;stroke:#BF2026;stroke-miterlimit:10;}
</style>
<image style="overflow:visible;" width="251" height="300" xlink:href="Vector-124-251x300.png"  transform="matrix(0.75 1.626669e-03 -1.626669e-03 0.75 866.2442 426.7961)">
</image>
<path class="st0" d="M1007.3,578.3c-29.7,11.7-59.6,8.2-74.3-7.1c-4.7-4.9-10.3-13.6-13.9-23.9c-2.7-7.8-5.3-15.2-2.4-23.6
	c3.8-11.2,14.5-16,15.9-16.6c14.6-6.3,29.6,2.1,37.8,6.6c4,2.2,6.5,4.4,8,5.9c1.6,1.6,5.3,5.3,7.3,10.7c3,8.5-0.2,16.5-1,18.7
	c-6.7,16.6-26.1,20.6-28.8,21.1c-5,1-11.5,2.2-18-1c-13.1-6.5-14.3-25.2-14.6-29.8c-1-16.5,6.9-31.1,16.6-39.2c2-1.6,4-3.3,7.3-4.5
	c13.6-5,28,5.7,30.5,7.6c3.8,2.9,9.5,7.2,12.5,14.6c7.7,19.4-9.7,45.8-29.4,54.7c-7.4,3.4-13.3,3.5-14.6,3.5
	c-16.5,0.1-27.7-12.7-29.8-15.2c-11.8-14.3-13.1-36.1-4.9-52c13.3-25.6,48.7-30.5,70.7-23.2c17.4,5.8,29.5,20.1,31.2,22.2
	c3,3.6,4.5,6.4,5.5,8.7c0,0,4.6,10.2,2.8,21.8c-2.4,15-14.6,24.2-22.5,30.1c-6.1,4.6-25.1,18.9-50.6,15.6
	c-5.6-0.7-18.5-2.6-29.8-12.8c-12.9-11.7-15.6-26.8-16.3-31.2c-4.8-30.2,17.2-58.8,39.2-70.7c5.3-2.9,15.9-8.4,29.8-7.3
	c2,0.2,10.9,1,20.8,6.6c20.1,11.4,27,32.9,30.5,43.7c1.8,5.6,2.8,8.6,3.1,13.2c1.6,20.3-11.8,35.8-17.9,43
	c-2.3,2.7-12.6,14.4-30.3,22.1c-7.7,3.4-15.4,6.8-25.3,6.2c-16.3-0.9-27.6-11.8-32.9-17c-21.7-21.1-31.5-57.3-19.7-85.9
	c2.3-5.5,6.1-14.8,15.6-21.8c18.6-13.7,43.6-7.2,55.1-4.2c8.6,2.3,21.2,5.5,32.9,15.6c20.5,17.6,30.8,49.4,22.5,78.3
	c-9.6,33.6-43.1,59.7-79.3,56.5c-24.7-2.2-50.9-18-60.6-44.7c-14.5-39.9,18.8-74.3,22.9-78.3c21-20.9,46.6-23.7,52.7-24.3
	c8.9-0.7,39.4-3.3,59.9,18.7c23,24.7,14.5,59.9,12.8,66.9c-1,4-10.2,39.8-44.3,55.8c-38,17.7-88.7,2.4-108.8-34.3
	c-18.9-34.5-1.7-71.5,1.7-78.3c2.3-4.6,21.7-42.5,59.6-48.5c50-7.9,94.5,45.8,103.9,89.7c1.7,8.1,5.3,26-2.4,45.7
	c-12.1,30.9-42.5,42.4-48.2,44.3c-35.3,12.4-76.9-1.3-101.5-29.8c-28.6-33.1-30.3-81.8-9-116.4c2.2-3.6,29.8-47,72.8-44.3
	c43.9,2.7,76.8,51.8,75.2,91.8c-2.8,66.9-102.5,115.2-143.4,90.1c-32.6-20-24-84.3-23.2-90.4c0.7-5.2,11.2-75.9,67.9-98.1
	c6.5-2.6,29.1-11,55.4-3.5c46.4,13.3,60.3,63.9,61.3,67.9c2.6,10.1,6.8,26.6,0.3,43c-11.6,29.6-53.2,47.5-102.9,42.6"/>
</svg>
